M48
; DRILL file {KiCad 6.0.11+dfsg-1} date Sun 21 May 2023 06:00:45 PM EEST
; FORMAT={-:-/ absolute / inch / decimal}
; #@! TF.CreationDate,2023-05-21T18:00:45+03:00
; #@! TF.GenerationSoftware,Kicad,Pcbnew,6.0.11+dfsg-1
; #@! TF.FileFunction,NonPlated,1,2,NPTH
FMAT,2
INCH
; #@! TA.AperFunction,NonPlated,NPTH,ComponentDrill
T1C0.0591
; #@! TA.AperFunction,NonPlated,NPTH,ComponentDrill
T2C0.0670
; #@! TA.AperFunction,NonPlated,NPTH,ComponentDrill
T3C0.0866
; #@! TA.AperFunction,NonPlated,NPTH,ComponentDrill
T4C0.1181
; #@! TA.AperFunction,NonPlated,NPTH,ComponentDrill
T5C0.1350
%
G90
G05
T1
X8.6911Y-3.7482
X8.6911Y-4.0238
T2
X4.067Y-4.1643
X4.067Y-4.9123
X4.067Y-5.6603
X4.5001Y-4.1643
X4.5001Y-4.9123
X4.5001Y-5.6603
X4.8544Y-3.6918
X4.8544Y-4.4398
X4.8544Y-5.1879
X5.2875Y-3.6918
X5.2875Y-4.4398
X5.2875Y-5.1879
X5.6497Y-4.9648
X5.6576Y-4.2167
X5.6655Y-3.4687
X6.0828Y-4.9648
X6.0907Y-4.2167
X6.0985Y-3.4687
X6.4293Y-3.6918
X6.4293Y-4.4398
X6.4293Y-5.1879
X6.8623Y-3.6918
X6.8623Y-4.4398
X6.8623Y-5.1879
X7.2167Y-3.8034
X7.2167Y-4.5514
X7.2167Y-5.2994
X7.2954Y-6.5555
X7.6497Y-3.8034
X7.6497Y-4.5514
X7.6497Y-5.2994
X7.7284Y-6.563
X8.1854Y-6.6106
X8.6017Y-6.73
X9.0142Y-6.8853
X9.393Y-7.0953
T3
X4.6812Y-4.5186
X6.0552Y-5.6603
X7.0001Y-4.0461
T4
X4.0867Y-4.0166
X4.0867Y-4.7646
X4.0867Y-5.5127
X4.2836Y-3.93
X4.2836Y-3.93
X4.2836Y-4.678
X4.2836Y-4.678
X4.2836Y-5.4261
X4.2836Y-5.4261
X4.4804Y-4.0166
X4.4804Y-4.7646
X4.4804Y-5.5127
X4.8741Y-3.5442
X4.8741Y-4.2922
X4.8741Y-5.0402
X5.071Y-3.4576
X5.071Y-3.4576
X5.071Y-4.2056
X5.071Y-4.2056
X5.071Y-4.9536
X5.071Y-4.9536
X5.2678Y-3.5442
X5.2678Y-4.2922
X5.2678Y-5.0402
X5.6694Y-4.8171
X5.6773Y-4.0691
X5.6852Y-3.3211
X5.8663Y-4.7305
X5.8663Y-4.7305
X5.8741Y-3.9825
X5.8741Y-3.9825
X5.882Y-3.2345
X5.882Y-3.2345
X6.0631Y-4.8171
X6.071Y-4.0691
X6.0789Y-3.3211
X6.4489Y-3.5442
X6.4489Y-4.2922
X6.4489Y-5.0402
X6.6458Y-3.4576
X6.6458Y-3.4576
X6.6458Y-4.2056
X6.6458Y-4.2056
X6.6458Y-4.9536
X6.6458Y-4.9536
X6.8426Y-3.5442
X6.8426Y-4.2922
X6.8426Y-5.0402
X7.2363Y-3.6557
X7.2363Y-4.4038
X7.2363Y-5.1518
X7.3177Y-6.4082
X7.4332Y-3.5691
X7.4332Y-3.5691
X7.4332Y-4.3171
X7.4332Y-4.3171
X7.4332Y-5.0652
X7.4332Y-5.0652
X7.516Y-6.3251
X7.516Y-6.3251
X7.63Y-3.6557
X7.63Y-4.4038
X7.63Y-5.1518
X7.7113Y-6.4151
X8.2451Y-6.4741
X8.4582Y-6.4451
X8.4582Y-6.4451
X8.6235Y-6.5827
X9.103Y-6.7658
X9.3172Y-6.7854
X9.3172Y-6.7854
X9.4473Y-6.9566
T5
X4.2836Y-4.1643
X4.2836Y-4.9123
X4.2836Y-5.6603
X5.071Y-3.6918
X5.071Y-4.4398
X5.071Y-5.1879
X5.8663Y-4.9648
X5.8741Y-4.2167
X5.882Y-3.4687
X6.6458Y-3.6918
X6.6458Y-4.4398
X6.6458Y-5.1879
X7.4332Y-3.8034
X7.4332Y-4.5514
X7.4332Y-5.2994
X7.5119Y-6.5593
X8.3936Y-6.6703
X9.2036Y-6.9903
T0
M30
