%TF.GenerationSoftware,KiCad,Pcbnew,6.0.11+dfsg-1*%
%TF.CreationDate,2023-05-12T21:12:11+03:00*%
%TF.ProjectId,pcb,7063622e-6b69-4636-9164-5f7063625858,v1.0.0*%
%TF.SameCoordinates,Original*%
%TF.FileFunction,Soldermask,Bot*%
%TF.FilePolarity,Negative*%
%FSLAX46Y46*%
G04 Gerber Fmt 4.6, Leading zero omitted, Abs format (unit mm)*
G04 Created by KiCad (PCBNEW 6.0.11+dfsg-1) date 2023-05-12 21:12:11*
%MOMM*%
%LPD*%
G01*
G04 APERTURE LIST*
G04 Aperture macros list*
%AMRoundRect*
0 Rectangle with rounded corners*
0 $1 Rounding radius*
0 $2 $3 $4 $5 $6 $7 $8 $9 X,Y pos of 4 corners*
0 Add a 4 corners polygon primitive as box body*
4,1,4,$2,$3,$4,$5,$6,$7,$8,$9,$2,$3,0*
0 Add four circle primitives for the rounded corners*
1,1,$1+$1,$2,$3*
1,1,$1+$1,$4,$5*
1,1,$1+$1,$6,$7*
1,1,$1+$1,$8,$9*
0 Add four rect primitives between the rounded corners*
20,1,$1+$1,$2,$3,$4,$5,0*
20,1,$1+$1,$4,$5,$6,$7,0*
20,1,$1+$1,$6,$7,$8,$9,0*
20,1,$1+$1,$8,$9,$2,$3,0*%
G04 Aperture macros list end*
%ADD10C,2.100000*%
%ADD11C,1.600000*%
%ADD12O,1.700000X2.300000*%
%ADD13RoundRect,0.050000X0.571500X-0.317500X0.571500X0.317500X-0.571500X0.317500X-0.571500X-0.317500X0*%
%ADD14C,3.100000*%
%ADD15C,3.529000*%
%ADD16C,1.801800*%
%ADD17RoundRect,0.050000X-1.300000X-1.300000X1.300000X-1.300000X1.300000X1.300000X-1.300000X1.300000X0*%
%ADD18C,4.100000*%
%ADD19RoundRect,0.050000X-1.607969X-0.891312X0.891312X-1.607969X1.607969X0.891312X-0.891312X1.607969X0*%
%ADD20RoundRect,0.050000X0.850000X0.850000X-0.850000X0.850000X-0.850000X-0.850000X0.850000X-0.850000X0*%
%ADD21O,1.800000X1.800000*%
%ADD22RoundRect,0.050000X1.600000X1.000000X-1.600000X1.000000X-1.600000X-1.000000X1.600000X-1.000000X0*%
%ADD23RoundRect,0.050000X1.000000X1.000000X-1.000000X1.000000X-1.000000X-1.000000X1.000000X-1.000000X0*%
%ADD24RoundRect,0.050000X-0.876300X-0.876300X0.876300X-0.876300X0.876300X0.876300X-0.876300X0.876300X0*%
%ADD25C,1.852600*%
%ADD26RoundRect,0.050000X-1.322490X-1.277114X1.277114X-1.322490X1.322490X1.277114X-1.277114X1.322490X0*%
%ADD27RoundRect,0.050000X-1.767258X-0.506753X0.506753X-1.767258X1.767258X0.506753X-0.506753X1.767258X0*%
%ADD28C,2.300000*%
G04 APERTURE END LIST*
D10*
%TO.C,_1*%
X112000000Y27916667D03*
X112000000Y34416667D03*
%TD*%
D11*
%TO.C,TRRS1*%
X111950000Y48566667D03*
X111950000Y41566667D03*
D12*
X114250000Y38866667D03*
X109650000Y38866667D03*
X109650000Y39966667D03*
X114250000Y39966667D03*
X114250000Y43966667D03*
X109650000Y43966667D03*
X114250000Y46966667D03*
X109650000Y46966667D03*
%TD*%
D13*
%TO.C,J8*%
X115000000Y11499620D03*
X115000000Y12500380D03*
%TD*%
D14*
%TO.C,S9*%
X40600000Y61616667D03*
D15*
X40600000Y55666667D03*
D14*
X35600000Y59416667D03*
D16*
X35100000Y55666667D03*
D14*
X40600000Y61616667D03*
X45600000Y59416667D03*
D16*
X46100000Y55666667D03*
D17*
X37325000Y61616667D03*
X48875000Y59416667D03*
%TD*%
D18*
%TO.C,_4*%
X105000000Y-3000000D03*
%TD*%
%TO.C,_2*%
X117000000Y19000000D03*
%TD*%
D14*
%TO.C,S17*%
X105253307Y-20607902D03*
D15*
X103613265Y-26327409D03*
D14*
X109453214Y-24100864D03*
D16*
X108900204Y-27843414D03*
X98326326Y-24811404D03*
D14*
X105253307Y-20607902D03*
X99840597Y-21344491D03*
D19*
X102105175Y-19705190D03*
X112601346Y-25003577D03*
%TD*%
D20*
%TO.C,O2*%
X110000000Y8000000D03*
D21*
X112540000Y8000000D03*
X115080000Y8000000D03*
X117620000Y8000000D03*
%TD*%
D13*
%TO.C,J7*%
X113000000Y11499620D03*
X113000000Y12500380D03*
%TD*%
D22*
%TO.C,ROT1*%
X99120000Y2526667D03*
X99120000Y13726667D03*
D11*
X92120000Y5626667D03*
X92120000Y10626667D03*
D23*
X106620000Y5626667D03*
D10*
X106620000Y10626667D03*
X106620000Y8126667D03*
%TD*%
D14*
%TO.C,S5*%
X25000000Y34750000D03*
X20000000Y36950000D03*
D15*
X20000000Y31000000D03*
D14*
X15000000Y34750000D03*
D16*
X14500000Y31000000D03*
X25500000Y31000000D03*
D14*
X20000000Y36950000D03*
D17*
X16725000Y36950000D03*
X28275000Y34750000D03*
%TD*%
D15*
%TO.C,S4*%
X20000000Y12000000D03*
D14*
X15000000Y15750000D03*
X20000000Y17950000D03*
X20000000Y17950000D03*
X25000000Y15750000D03*
D16*
X14500000Y12000000D03*
X25500000Y12000000D03*
D17*
X16725000Y17950000D03*
X28275000Y15750000D03*
%TD*%
D24*
%TO.C,MCU1*%
X91380000Y49636667D03*
D25*
X91380000Y47096667D03*
X91380000Y44556667D03*
X91380000Y42016667D03*
X91380000Y39476667D03*
X91380000Y36936667D03*
X91380000Y34396667D03*
X91380000Y31856667D03*
X91380000Y29316667D03*
X91380000Y26776667D03*
X91380000Y24236667D03*
X91608600Y21696667D03*
X106620000Y21696667D03*
X106620000Y24236667D03*
X106620000Y26776667D03*
X106620000Y29316667D03*
X106620000Y31856667D03*
X106620000Y34396667D03*
X106620000Y36936667D03*
X106620000Y39476667D03*
X106620000Y42016667D03*
X106620000Y44556667D03*
X106620000Y47096667D03*
X106620000Y49636667D03*
X93920000Y21696667D03*
X96460000Y21696667D03*
X99000000Y21696667D03*
X101540000Y21696667D03*
X104080000Y21696667D03*
%TD*%
D14*
%TO.C,S6*%
X25000000Y53750000D03*
X20000000Y55950000D03*
X20000000Y55950000D03*
D16*
X25500000Y50000000D03*
D15*
X20000000Y50000000D03*
D16*
X14500000Y50000000D03*
D14*
X15000000Y53750000D03*
D17*
X16725000Y55950000D03*
X28275000Y53750000D03*
%TD*%
D16*
%TO.C,S1*%
X-5500000Y0D03*
X5500000Y0D03*
D15*
X0Y0D03*
D14*
X0Y5950000D03*
X-5000000Y3750000D03*
X0Y5950000D03*
X5000000Y3750000D03*
D17*
X-3275000Y5950000D03*
X8275000Y3750000D03*
%TD*%
D16*
%TO.C,S10*%
X65500000Y12000000D03*
D14*
X60000000Y17950000D03*
X65000000Y15750000D03*
X60000000Y17950000D03*
D16*
X54500000Y12000000D03*
D14*
X55000000Y15750000D03*
D15*
X60000000Y12000000D03*
D17*
X56725000Y17950000D03*
X68275000Y15750000D03*
%TD*%
D14*
%TO.C,S14*%
X85000000Y31916667D03*
X80000000Y34116667D03*
D15*
X80000000Y28166667D03*
D16*
X74500000Y28166667D03*
D14*
X80000000Y34116667D03*
X75000000Y31916667D03*
D16*
X85500000Y28166667D03*
D17*
X76725000Y34116667D03*
X88275000Y31916667D03*
%TD*%
D16*
%TO.C,S15*%
X85500000Y47166667D03*
D14*
X80000000Y53116667D03*
X80000000Y53116667D03*
X85000000Y50916667D03*
X75000000Y50916667D03*
D16*
X74500000Y47166667D03*
D15*
X80000000Y47166667D03*
D17*
X76725000Y53116667D03*
X88275000Y50916667D03*
%TD*%
D14*
%TO.C,S16*%
X82103842Y-16884239D03*
X87064685Y-19171166D03*
X77066208Y-18996642D03*
D16*
X87499162Y-22929321D03*
X76500838Y-22737345D03*
D15*
X82000000Y-22833333D03*
D14*
X82103842Y-16884239D03*
D26*
X78829341Y-16827083D03*
X90339186Y-19228323D03*
%TD*%
D14*
%TO.C,S18*%
X127306892Y-29677289D03*
D16*
X119611867Y-32214823D03*
D14*
X130613410Y-34025500D03*
X121867213Y-29177404D03*
D15*
X124422275Y-34881276D03*
D14*
X127306892Y-29677289D03*
D16*
X129232683Y-37547729D03*
D27*
X124442513Y-28089537D03*
X133477789Y-35613252D03*
%TD*%
D28*
%TO.C,_6*%
X10100000Y29000000D03*
%TD*%
D13*
%TO.C,J6*%
X111000000Y11499620D03*
X111000000Y12500380D03*
%TD*%
D28*
%TO.C,_7*%
X45000000Y0D03*
%TD*%
D14*
%TO.C,S13*%
X85000000Y12916667D03*
D16*
X85500000Y9166667D03*
D14*
X80000000Y15116667D03*
D15*
X80000000Y9166667D03*
D16*
X74500000Y9166667D03*
D14*
X75000000Y12916667D03*
X80000000Y15116667D03*
D17*
X76725000Y15116667D03*
X88275000Y12916667D03*
%TD*%
D28*
%TO.C,_5*%
X69000000Y41000000D03*
%TD*%
D16*
%TO.C,S2*%
X-5500000Y19000000D03*
D14*
X0Y24950000D03*
X0Y24950000D03*
X5000000Y22750000D03*
X-5000000Y22750000D03*
D16*
X5500000Y19000000D03*
D15*
X0Y19000000D03*
D17*
X-3275000Y24950000D03*
X8275000Y22750000D03*
%TD*%
D14*
%TO.C,S11*%
X55000000Y34750000D03*
X65000000Y34750000D03*
X60000000Y36950000D03*
D15*
X60000000Y31000000D03*
D16*
X54500000Y31000000D03*
X65500000Y31000000D03*
D14*
X60000000Y36950000D03*
D17*
X56725000Y36950000D03*
X68275000Y34750000D03*
%TD*%
D18*
%TO.C,_3*%
X117000000Y-7000000D03*
%TD*%
D16*
%TO.C,S7*%
X45700000Y17666667D03*
D15*
X40200000Y17666667D03*
D16*
X34700000Y17666667D03*
D14*
X40200000Y23616667D03*
X40200000Y23616667D03*
X45200000Y21416667D03*
X35200000Y21416667D03*
D17*
X36925000Y23616667D03*
X48475000Y21416667D03*
%TD*%
D13*
%TO.C,J9*%
X117000000Y11499620D03*
X117000000Y12500380D03*
%TD*%
D14*
%TO.C,S12*%
X60000000Y55950000D03*
D15*
X60000000Y50000000D03*
D14*
X55000000Y53750000D03*
D16*
X54500000Y50000000D03*
D14*
X60000000Y55950000D03*
X65000000Y53750000D03*
D16*
X65500000Y50000000D03*
D17*
X56725000Y55950000D03*
X68275000Y53750000D03*
%TD*%
D16*
%TO.C,S3*%
X-5500000Y38000000D03*
D14*
X-5000000Y41750000D03*
D16*
X5500000Y38000000D03*
D15*
X0Y38000000D03*
D14*
X0Y43950000D03*
X5000000Y41750000D03*
X0Y43950000D03*
D17*
X-3275000Y43950000D03*
X8275000Y41750000D03*
%TD*%
D14*
%TO.C,S8*%
X35400000Y40416667D03*
X40400000Y42616667D03*
X45400000Y40416667D03*
D16*
X45900000Y36666667D03*
D14*
X40400000Y42616667D03*
D16*
X34900000Y36666667D03*
D15*
X40400000Y36666667D03*
D17*
X37125000Y42616667D03*
X48675000Y40416667D03*
%TD*%
M02*
