%TF.GenerationSoftware,KiCad,Pcbnew,6.0.11+dfsg-1*%
%TF.CreationDate,2023-05-17T23:01:12+03:00*%
%TF.ProjectId,pcb,7063622e-6b69-4636-9164-5f7063625858,v1.0.0*%
%TF.SameCoordinates,Original*%
%TF.FileFunction,Profile,NP*%
%FSLAX46Y46*%
G04 Gerber Fmt 4.6, Leading zero omitted, Abs format (unit mm)*
G04 Created by KiCad (PCBNEW 6.0.11+dfsg-1) date 2023-05-17 23:01:12*
%MOMM*%
%LPD*%
G01*
G04 APERTURE LIST*
%TA.AperFunction,Profile*%
%ADD10C,0.150000*%
%TD*%
G04 APERTURE END LIST*
D10*
X138016619Y-30983204D02*
G75*
G03*
X137042043Y-27584603I-2186619J1212004D01*
G01*
X109207134Y-37880927D02*
X126133827Y-47263546D01*
X7313870Y-8596839D02*
G75*
G03*
X6624775Y-8500000I-689070J-2403161D01*
G01*
X10000000Y49000000D02*
X10000000Y56000000D01*
X30600000Y61000000D02*
X30600000Y61666667D01*
X87225130Y-31511032D02*
X108684203Y-37664322D01*
X120999965Y-17219740D02*
G75*
G03*
X122287976Y-19406289I2500035J40D01*
G01*
X12500000Y58500000D02*
G75*
G03*
X10000000Y56000000I0J-2500000D01*
G01*
X120999967Y20166667D02*
G75*
G03*
X118500000Y22666667I-2499967J33D01*
G01*
X72870482Y-30175119D02*
G75*
G03*
X73852872Y-31192419I999818J-17481D01*
G01*
X72885286Y-29326773D02*
X72870478Y-30175119D01*
X12500000Y58500000D02*
X28100000Y58500000D01*
X-7500000Y-8500000D02*
X6624774Y-8500000D01*
X53100000Y58500000D02*
X68000000Y58500000D01*
X71074760Y-26879987D02*
X7313868Y-8596846D01*
X73852873Y-31192420D02*
X86579667Y-31414567D01*
X-7500000Y46500000D02*
G75*
G03*
X-10000000Y44000000I0J-2500000D01*
G01*
X33100000Y64166667D02*
X48100000Y64166667D01*
X115999967Y53166667D02*
G75*
G03*
X113500000Y55666667I-2499967J33D01*
G01*
X50600000Y61000000D02*
G75*
G03*
X53100000Y58500000I2500000J0D01*
G01*
X129532400Y-46289020D02*
X138016568Y-30983176D01*
X126133858Y-47263489D02*
G75*
G03*
X129532401Y-46289020I1212042J2186489D01*
G01*
X50600000Y61666667D02*
X50600000Y61000000D01*
X109207130Y-37880934D02*
G75*
G03*
X108684204Y-37664322I-1212030J-2186466D01*
G01*
X33100000Y64166670D02*
G75*
G03*
X30600000Y61666667I0J-2500000D01*
G01*
X122287976Y-19406289D02*
X137042043Y-27584602D01*
X69000000Y55666667D02*
X113500000Y55666667D01*
X28100000Y58500000D02*
G75*
G03*
X30600000Y61000000I0J2500000D01*
G01*
X87225127Y-31511041D02*
G75*
G03*
X86579668Y-31414567I-689127J-2403159D01*
G01*
X121000000Y-17219740D02*
X121000000Y20166667D01*
X116000000Y22666667D02*
X116000000Y53166667D01*
X-10000000Y-6000000D02*
G75*
G03*
X-7500000Y-8500000I2500000J0D01*
G01*
X50599967Y61666667D02*
G75*
G03*
X48100000Y64166667I-2499967J33D01*
G01*
X-7500000Y46500000D02*
X7500000Y46500000D01*
X69000000Y55666667D02*
X69000000Y57500000D01*
X-10000000Y-6000000D02*
X-10000000Y44000000D01*
X72885270Y-29326773D02*
G75*
G03*
X71074760Y-26879987I-2499570J43673D01*
G01*
X7500000Y46500000D02*
G75*
G03*
X10000000Y49000000I0J2500000D01*
G01*
X116000000Y22666667D02*
X118500000Y22666667D01*
X69000000Y57500000D02*
G75*
G03*
X68000000Y58500000I-1000000J0D01*
G01*
M02*
