M48
; DRILL file {KiCad 6.0.11+dfsg-1} date Tue 16 May 2023 10:20:21 PM EEST
; FORMAT={-:-/ absolute / inch / decimal}
; #@! TF.CreationDate,2023-05-16T22:20:21+03:00
; #@! TF.GenerationSoftware,Kicad,Pcbnew,6.0.11+dfsg-1
; #@! TF.FileFunction,Plated,1,2,PTH
FMAT,2
INCH
; #@! TA.AperFunction,Plated,PTH,ViaDrill
T1C0.0157
; #@! TA.AperFunction,Plated,PTH,ComponentDrill
T2C0.0354
; #@! TA.AperFunction,Plated,PTH,ComponentDrill
T3C0.0394
; #@! TA.AperFunction,Plated,PTH,ComponentDrill
T4C0.0430
; #@! TA.AperFunction,Plated,PTH,ComponentDrill
T5C0.0512
; #@! TA.AperFunction,Plated,PTH,ComponentDrill
T6C0.0591
; #@! TA.AperFunction,Plated,PTH,ComponentDrill
T7C0.0866
%
G90
G05
T1
X-0.01Y1.62
X-0.01Y0.86
X-0.01Y0.11
X0.0Y1.38
X0.0Y0.63
X0.0Y-0.11
X0.77Y1.12
X0.78Y2.09
X0.78Y1.85
X0.79Y1.33
X0.8Y0.59
X0.8027Y0.3706
X1.57Y0.6
X1.58Y2.08
X1.58Y1.56
X1.59Y0.83
X1.6Y2.31
X1.6019Y1.3397
X2.36Y1.35
X2.36Y1.12
X2.37Y1.85
X2.37Y0.6
X2.3719Y0.3697
X2.38Y2.09
X2.69Y-0.54
X3.14Y1.98
X3.1499Y0.5002
X3.16Y1.24
X3.16Y0.46
X3.1727Y1.0107
X3.19Y1.75
X3.25Y-0.77
X3.26Y-1.01
X3.7Y-0.77
X4.07Y-1.15
X4.12Y-0.92
X4.27Y0.82
X4.2776Y0.9176
X4.56Y-1.03
X4.85Y-1.49
X4.96Y-1.26
T3
X3.6268Y0.4184
X3.6268Y0.2215
X4.1976Y0.4184
X4.1976Y0.3199
X4.1976Y0.2215
X4.3307Y0.315
X4.4307Y0.315
X4.5307Y0.315
X4.6307Y0.315
T4
X3.5976Y1.9542
X3.5976Y1.8542
X3.5976Y1.7542
X3.5976Y1.6542
X3.5976Y1.5542
X3.5976Y1.4542
X3.5976Y1.3542
X3.5976Y1.2542
X3.5976Y1.1542
X3.5976Y1.0542
X3.5976Y0.9542
X3.6066Y0.8542
X3.6976Y0.8542
X3.7976Y0.8542
X3.8976Y0.8542
X3.9976Y0.8542
X4.0976Y0.8542
X4.1976Y1.9542
X4.1976Y1.8542
X4.1976Y1.7542
X4.1976Y1.6542
X4.1976Y1.5542
X4.1976Y1.4542
X4.1976Y1.3542
X4.1976Y1.2542
X4.1976Y1.1542
X4.1976Y1.0542
X4.1976Y0.9542
X4.1976Y0.8542
T5
X4.4094Y1.355
X4.4094Y1.0991
T7
X4.1339Y-0.1181
X4.6063Y0.748
X4.6063Y-0.2756
T2
G00X4.3169Y1.8609
M15
G01X4.3169Y1.8373
M16
G05
G00X4.3169Y1.7428
M15
G01X4.3169Y1.7192
M16
G05
G00X4.3169Y1.5853
M15
G01X4.3169Y1.5617
M16
G05
G00X4.3169Y1.542
M15
G01X4.3169Y1.5184
M16
G05
G00X4.498Y1.8609
M15
G01X4.498Y1.8373
M16
G05
G00X4.498Y1.7428
M15
G01X4.498Y1.7192
M16
G05
G00X4.498Y1.5853
M15
G01X4.498Y1.5617
M16
G05
G00X4.498Y1.542
M15
G01X4.498Y1.5184
M16
G05
T6
G00X3.928Y0.5404
M15
G01X3.8768Y0.5404
M16
G05
G00X3.928Y0.0995
M15
G01X3.8768Y0.0995
M16
G05
T0
M30
