M48
; DRILL file {KiCad 6.0.11+dfsg-1} date Sun 21 May 2023 06:00:45 PM EEST
; FORMAT={-:-/ absolute / inch / decimal}
; #@! TF.CreationDate,2023-05-21T18:00:45+03:00
; #@! TF.GenerationSoftware,Kicad,Pcbnew,6.0.11+dfsg-1
; #@! TF.FileFunction,Plated,1,2,PTH
FMAT,2
INCH
; #@! TA.AperFunction,Plated,PTH,ViaDrill
T1C0.0157
; #@! TA.AperFunction,Plated,PTH,ComponentDrill
T2C0.0354
; #@! TA.AperFunction,Plated,PTH,ComponentDrill
T3C0.0394
; #@! TA.AperFunction,Plated,PTH,ComponentDrill
T4C0.0430
; #@! TA.AperFunction,Plated,PTH,ComponentDrill
T5C0.0512
; #@! TA.AperFunction,Plated,PTH,ComponentDrill
T6C0.0591
; #@! TA.AperFunction,Plated,PTH,ComponentDrill
T7C0.0866
%
G90
G05
T1
X4.2736Y-4.7803
X4.2836Y-4.0203
X4.2836Y-4.2803
X4.2936Y-5.0503
X4.2936Y-5.5403
X4.2936Y-5.8003
X4.6836Y-5.6203
X4.7496Y-3.8764
X4.8954Y-3.9422
X4.9031Y-5.3408
X5.0607Y-4.0274
X5.0636Y-5.5297
X5.0736Y-3.5603
X5.0736Y-4.3203
X5.0736Y-5.0603
X5.0836Y-4.6003
X5.1336Y-5.2903
X5.2436Y-4.0603
X5.2436Y-5.3403
X5.2436Y-5.4203
X5.2789Y-3.865
X5.5636Y-3.5603
X5.6936Y-5.2003
X5.7044Y-3.7211
X5.719Y-3.8158
X5.8289Y-5.325
X5.8636Y-4.0903
X5.8736Y-4.3303
X5.8736Y-4.8303
X5.8879Y-5.1016
X5.8936Y-3.3403
X5.9036Y-5.0603
X5.9804Y-3.8335
X6.0486Y-3.6853
X6.066Y-5.1627
X6.6436Y-5.3203
X6.6536Y-4.5803
X6.6536Y-5.0703
X6.6636Y-3.5703
X6.6636Y-4.3103
X6.6836Y-3.7903
X6.942Y-3.6603
X7.2259Y-5.4727
X7.2473Y-4.074
X7.2488Y-4.0051
X7.4036Y-5.431
X7.4136Y-4.6703
X7.4336Y-5.1703
X7.4436Y-3.6903
X7.4436Y-4.4403
X7.4436Y-5.4003
X7.5136Y-6.4403
X7.5236Y-6.6803
X7.6036Y-5.5303
X7.6236Y-4.1303
X7.6367Y-3.9567
X7.9836Y-6.4403
X8.3136Y-6.8103
X8.4336Y-6.5603
X8.5714Y-4.8356
X8.5986Y-4.7753
X8.8736Y-6.6603
X9.1236Y-7.1203
X9.2736Y-6.8903
T3
X7.9104Y-5.2419
X7.9104Y-5.4388
X8.4812Y-5.2419
X8.4812Y-5.3404
X8.4812Y-5.4388
X8.6143Y-5.3454
X8.7143Y-5.3454
X8.8143Y-5.3454
X8.9143Y-5.3454
T4
X7.8812Y-3.6061
X7.8812Y-3.7061
X7.8812Y-3.8061
X7.8812Y-3.9061
X7.8812Y-4.0061
X7.8812Y-4.1061
X7.8812Y-4.2061
X7.8812Y-4.3061
X7.8812Y-4.4061
X7.8812Y-4.5061
X7.8812Y-4.6061
X7.8812Y-4.7061
X7.8812Y-4.8061
X7.9812Y-4.8061
X7.9814Y-4.7061
X8.0812Y-4.8061
X8.1312Y-3.9061
X8.1812Y-4.8061
X8.2312Y-3.9061
X8.2812Y-4.8061
X8.3812Y-4.8061
X8.4812Y-3.6061
X8.4812Y-3.7061
X8.4812Y-3.8061
X8.4812Y-3.9061
X8.4812Y-4.0061
X8.4812Y-4.1061
X8.4812Y-4.2061
X8.4812Y-4.3061
X8.4812Y-4.4061
X8.4812Y-4.5061
X8.4812Y-4.6061
X8.4812Y-4.7061
X8.4812Y-4.8061
T5
X8.693Y-4.3053
X8.693Y-4.5612
T7
X8.4174Y-5.7784
X8.8899Y-4.9123
X8.8899Y-5.9359
T2
G00X8.6005Y-3.7994
M15
G01X8.6005Y-3.823
M16
G05
G00X8.6005Y-3.9175
M15
G01X8.6005Y-3.9412
M16
G05
G00X8.6005Y-4.075
M15
G01X8.6005Y-4.0986
M16
G05
G00X8.6005Y-4.1183
M15
G01X8.6005Y-4.1419
M16
G05
G00X8.7816Y-3.7994
M15
G01X8.7816Y-3.823
M16
G05
G00X8.7816Y-3.9175
M15
G01X8.7816Y-3.9412
M16
G05
G00X8.7816Y-4.075
M15
G01X8.7816Y-4.0986
M16
G05
G00X8.7816Y-4.1183
M15
G01X8.7816Y-4.1419
M16
G05
T6
G00X8.2115Y-5.1199
M15
G01X8.1604Y-5.1199
M16
G05
G00X8.2115Y-5.5608
M15
G01X8.1604Y-5.5608
M16
G05
T0
M30
