%TF.GenerationSoftware,KiCad,Pcbnew,6.0.11+dfsg-1*%
%TF.CreationDate,2023-05-21T00:31:08+03:00*%
%TF.ProjectId,pcb,7063622e-6b69-4636-9164-5f7063625858,v1.0.0*%
%TF.SameCoordinates,Original*%
%TF.FileFunction,Profile,NP*%
%FSLAX46Y46*%
G04 Gerber Fmt 4.6, Leading zero omitted, Abs format (unit mm)*
G04 Created by KiCad (PCBNEW 6.0.11+dfsg-1) date 2023-05-21 00:31:08*
%MOMM*%
%LPD*%
G01*
G04 APERTURE LIST*
%TA.AperFunction,Profile*%
%ADD10C,0.150000*%
%TD*%
G04 APERTURE END LIST*
D10*
X118803000Y-94772078D02*
X118803000Y-87772078D01*
X141903000Y-79605411D02*
X156903000Y-79605411D01*
X177803000Y-88105411D02*
X222303000Y-88105411D01*
X218010136Y-181653002D02*
G75*
G03*
X217487204Y-181436400I-1212236J-2187098D01*
G01*
X136903000Y-85272100D02*
G75*
G03*
X139403000Y-82772078I0J2500000D01*
G01*
X224803000Y-121105411D02*
X224803000Y-90605411D01*
X101303000Y-97272078D02*
X116303000Y-97272078D01*
X161903000Y-85272078D02*
X176803000Y-85272078D01*
X98803000Y-149772078D02*
X98803000Y-99772078D01*
X229803000Y-160991818D02*
X229803000Y-123605411D01*
X231090976Y-163178367D02*
X245845043Y-171356680D01*
X218010134Y-181653005D02*
X234936827Y-191035624D01*
X246819560Y-174755249D02*
G75*
G03*
X245845043Y-171356681I-2186460J1212049D01*
G01*
X121303000Y-85272100D02*
G75*
G03*
X118803000Y-87772078I0J-2500000D01*
G01*
X139403000Y-82772078D02*
X139403000Y-82105411D01*
X116116866Y-152368931D02*
G75*
G03*
X115427775Y-152272078I-689066J-2402769D01*
G01*
X101303000Y-97272100D02*
G75*
G03*
X98803000Y-99772078I0J-2500000D01*
G01*
X98803022Y-149772078D02*
G75*
G03*
X101303000Y-152272078I2499978J-22D01*
G01*
X238335400Y-190061098D02*
X246819568Y-174755254D01*
X181673504Y-173947197D02*
G75*
G03*
X182655872Y-174964497I999796J-17503D01*
G01*
X121303000Y-85272078D02*
X136903000Y-85272078D01*
X196028130Y-175283110D02*
X217487203Y-181436400D01*
X177803000Y-88105411D02*
X177803000Y-86272078D01*
X159403022Y-82772078D02*
G75*
G03*
X161903000Y-85272078I2499978J-22D01*
G01*
X159402989Y-82105411D02*
G75*
G03*
X156903000Y-79605411I-2499989J11D01*
G01*
X141903000Y-79605400D02*
G75*
G03*
X139403000Y-82105411I0J-2500000D01*
G01*
X177803022Y-86272078D02*
G75*
G03*
X176803000Y-85272078I-1000022J-22D01*
G01*
X224802989Y-90605411D02*
G75*
G03*
X222303000Y-88105411I-2499989J11D01*
G01*
X179877760Y-170652065D02*
X116116868Y-152368924D01*
X234936807Y-191035659D02*
G75*
G03*
X238335401Y-190061098I1211993J2186659D01*
G01*
X181688286Y-173098851D02*
X181673478Y-173947197D01*
X181688291Y-173098851D02*
G75*
G03*
X179877760Y-170652065I-2499591J43651D01*
G01*
X101303000Y-152272078D02*
X115427774Y-152272078D01*
X116303000Y-97272100D02*
G75*
G03*
X118803000Y-94772078I0J2500000D01*
G01*
X159403000Y-82105411D02*
X159403000Y-82772078D01*
X229803020Y-160991818D02*
G75*
G03*
X231090976Y-163178367I2499880J-82D01*
G01*
X196028133Y-175283100D02*
G75*
G03*
X195382668Y-175186645I-689133J-2403700D01*
G01*
X229802989Y-123605411D02*
G75*
G03*
X227303000Y-121105411I-2499989J11D01*
G01*
X182655873Y-174964498D02*
X195382667Y-175186645D01*
X224803000Y-121105411D02*
X227303000Y-121105411D01*
M02*
