M48
; DRILL file {KiCad 6.0.11+dfsg-1} date Tue 16 May 2023 10:20:21 PM EEST
; FORMAT={-:-/ absolute / inch / decimal}
; #@! TF.CreationDate,2023-05-16T22:20:21+03:00
; #@! TF.GenerationSoftware,Kicad,Pcbnew,6.0.11+dfsg-1
; #@! TF.FileFunction,NonPlated,1,2,NPTH
FMAT,2
INCH
; #@! TA.AperFunction,NonPlated,NPTH,ComponentDrill
T1C0.0591
; #@! TA.AperFunction,NonPlated,NPTH,ComponentDrill
T2C0.0670
; #@! TA.AperFunction,NonPlated,NPTH,ComponentDrill
T3C0.0866
; #@! TA.AperFunction,NonPlated,NPTH,ComponentDrill
T4C0.1181
; #@! TA.AperFunction,NonPlated,NPTH,ComponentDrill
T5C0.1350
%
G90
G05
T1
X4.4075Y1.9121
X4.4075Y1.6365
T2
X-0.2165Y1.4961
X-0.2165Y0.748
X-0.2165Y0.0
X0.2165Y1.4961
X0.2165Y0.748
X0.2165Y0.0
X0.5709Y1.9685
X0.5709Y1.2205
X0.5709Y0.4724
X1.0039Y1.9685
X1.0039Y1.2205
X1.0039Y0.4724
X1.3661Y0.6955
X1.374Y1.4436
X1.3819Y2.1916
X1.7992Y0.6955
X1.8071Y1.4436
X1.815Y2.1916
X2.1457Y1.9685
X2.1457Y1.2205
X2.1457Y0.4724
X2.5787Y1.9685
X2.5787Y1.2205
X2.5787Y0.4724
X2.9331Y1.857
X2.9331Y1.1089
X2.9331Y0.3609
X3.0118Y-0.8952
X3.3661Y1.857
X3.3661Y1.1089
X3.3661Y0.3609
X3.4448Y-0.9027
X3.8711Y-0.9768
X4.2874Y-1.0962
X4.7091Y-1.2683
X5.0879Y-1.4783
T3
X0.3976Y1.1417
X1.7717Y0.0
X2.7165Y1.6142
T4
X-0.1969Y1.6437
X-0.1969Y0.8957
X-0.1969Y0.1476
X0.0Y1.7303
X0.0Y1.7303
X0.0Y0.9823
X0.0Y0.9823
X0.0Y0.2343
X0.0Y0.2343
X0.1969Y1.6437
X0.1969Y0.8957
X0.1969Y0.1476
X0.5906Y2.1161
X0.5906Y1.3681
X0.5906Y0.6201
X0.7874Y2.2028
X0.7874Y2.2028
X0.7874Y1.4547
X0.7874Y1.4547
X0.7874Y0.7067
X0.7874Y0.7067
X0.9843Y2.1161
X0.9843Y1.3681
X0.9843Y0.6201
X1.3858Y0.8432
X1.3937Y1.5912
X1.4016Y2.3392
X1.5827Y0.9298
X1.5827Y0.9298
X1.5906Y1.6778
X1.5906Y1.6778
X1.5984Y2.4259
X1.5984Y2.4259
X1.7795Y0.8432
X1.7874Y1.5912
X1.7953Y2.3392
X2.1654Y2.1161
X2.1654Y1.3681
X2.1654Y0.6201
X2.3622Y2.2028
X2.3622Y2.2028
X2.3622Y1.4547
X2.3622Y1.4547
X2.3622Y0.7067
X2.3622Y0.7067
X2.5591Y2.1161
X2.5591Y1.3681
X2.5591Y0.6201
X2.9528Y2.0046
X2.9528Y1.2566
X2.9528Y0.5085
X3.0341Y-0.7479
X3.1496Y2.0912
X3.1496Y2.0912
X3.1496Y1.3432
X3.1496Y1.3432
X3.1496Y0.5951
X3.1496Y0.5951
X3.2324Y-0.6647
X3.2324Y-0.6647
X3.3465Y2.0046
X3.3465Y1.2566
X3.3465Y0.5085
X3.4277Y-0.7548
X3.9307Y-0.8403
X4.1438Y-0.8113
X4.1438Y-0.8113
X4.3092Y-0.9489
X4.7979Y-1.1487
X5.0121Y-1.1684
X5.0121Y-1.1684
X5.1423Y-1.3396
T5
X0.0Y1.4961
X0.0Y0.748
X0.0Y0.0
X0.7874Y1.9685
X0.7874Y1.2205
X0.7874Y0.4724
X1.5827Y0.6955
X1.5906Y1.4436
X1.5984Y2.1916
X2.3622Y1.9685
X2.3622Y1.2205
X2.3622Y0.4724
X3.1496Y1.857
X3.1496Y1.1089
X3.1496Y0.3609
X3.2283Y-0.899
X4.0793Y-1.0365
X4.8985Y-1.3733
T0
M30
