%TF.GenerationSoftware,KiCad,Pcbnew,6.0.11+dfsg-1*%
%TF.CreationDate,2023-05-17T23:01:12+03:00*%
%TF.ProjectId,pcb,7063622e-6b69-4636-9164-5f7063625858,v1.0.0*%
%TF.SameCoordinates,Original*%
%TF.FileFunction,Legend,Top*%
%TF.FilePolarity,Positive*%
%FSLAX46Y46*%
G04 Gerber Fmt 4.6, Leading zero omitted, Abs format (unit mm)*
G04 Created by KiCad (PCBNEW 6.0.11+dfsg-1) date 2023-05-17 23:01:12*
%MOMM*%
%LPD*%
G01*
G04 APERTURE LIST*
%ADD10C,0.150000*%
%ADD11C,0.120000*%
%ADD12C,0.381000*%
%ADD13C,2.000000*%
%ADD14R,1.752600X1.752600*%
%ADD15C,1.752600*%
G04 APERTURE END LIST*
D10*
X111331619Y11231619D02*
X110998285Y11707809D01*
X110760190Y11231619D02*
X110760190Y12231619D01*
X111141142Y12231619D01*
X111236380Y12184000D01*
X111284000Y12136380D01*
X111331619Y12041142D01*
X111331619Y11898285D01*
X111284000Y11803047D01*
X111236380Y11755428D01*
X111141142Y11707809D01*
X110760190Y11707809D01*
X111950666Y12231619D02*
X112141142Y12231619D01*
X112236380Y12184000D01*
X112331619Y12088761D01*
X112379238Y11898285D01*
X112379238Y11564952D01*
X112331619Y11374476D01*
X112236380Y11279238D01*
X112141142Y11231619D01*
X111950666Y11231619D01*
X111855428Y11279238D01*
X111760190Y11374476D01*
X111712571Y11564952D01*
X111712571Y11898285D01*
X111760190Y12088761D01*
X111855428Y12184000D01*
X111950666Y12231619D01*
X112664952Y12231619D02*
X113236380Y12231619D01*
X112950666Y11231619D02*
X112950666Y12231619D01*
X113522095Y11517333D02*
X113998285Y11517333D01*
X113426857Y11231619D02*
X113760190Y12231619D01*
X114093523Y11231619D01*
X114998285Y11231619D02*
X114664952Y11707809D01*
X114426857Y11231619D02*
X114426857Y12231619D01*
X114807809Y12231619D01*
X114903047Y12184000D01*
X114950666Y12136380D01*
X114998285Y12041142D01*
X114998285Y11898285D01*
X114950666Y11803047D01*
X114903047Y11755428D01*
X114807809Y11707809D01*
X114426857Y11707809D01*
X115617333Y11707809D02*
X115617333Y11231619D01*
X115284000Y12231619D02*
X115617333Y11707809D01*
X115950666Y12231619D01*
%TO.C,*%
%TO.C,_1*%
X112452380Y29714286D02*
X111976190Y29380952D01*
X112452380Y29142857D02*
X111452380Y29142857D01*
X111452380Y29523809D01*
X111500000Y29619047D01*
X111547619Y29666667D01*
X111642857Y29714286D01*
X111785714Y29714286D01*
X111880952Y29666667D01*
X111928571Y29619047D01*
X111976190Y29523809D01*
X111976190Y29142857D01*
X111928571Y30142857D02*
X111928571Y30476190D01*
X112452380Y30619047D02*
X112452380Y30142857D01*
X111452380Y30142857D01*
X111452380Y30619047D01*
X112404761Y31000000D02*
X112452380Y31142857D01*
X112452380Y31380952D01*
X112404761Y31476190D01*
X112357142Y31523809D01*
X112261904Y31571428D01*
X112166666Y31571428D01*
X112071428Y31523809D01*
X112023809Y31476190D01*
X111976190Y31380952D01*
X111928571Y31190476D01*
X111880952Y31095238D01*
X111833333Y31047619D01*
X111738095Y31000000D01*
X111642857Y31000000D01*
X111547619Y31047619D01*
X111500000Y31095238D01*
X111452380Y31190476D01*
X111452380Y31428571D01*
X111500000Y31571428D01*
X111928571Y32000000D02*
X111928571Y32333333D01*
X112452380Y32476190D02*
X112452380Y32000000D01*
X111452380Y32000000D01*
X111452380Y32476190D01*
X111452380Y32761905D02*
X111452380Y33333333D01*
X112452380Y33047619D02*
X111452380Y33047619D01*
%TO.C,J8*%
%TO.C,_4*%
%TO.C,_2*%
%TO.C,J7*%
%TO.C,MCU1*%
X104137190Y24293809D02*
X104251476Y24255714D01*
X104289571Y24217619D01*
X104327666Y24141428D01*
X104327666Y24027143D01*
X104289571Y23950952D01*
X104251476Y23912857D01*
X104175285Y23874762D01*
X103870523Y23874762D01*
X103870523Y24674762D01*
X104137190Y24674762D01*
X104213380Y24636667D01*
X104251476Y24598571D01*
X104289571Y24522381D01*
X104289571Y24446190D01*
X104251476Y24370000D01*
X104213380Y24331905D01*
X104137190Y24293809D01*
X103870523Y24293809D01*
X104632428Y24598571D02*
X104670523Y24636667D01*
X104746714Y24674762D01*
X104937190Y24674762D01*
X105013380Y24636667D01*
X105051476Y24598571D01*
X105089571Y24522381D01*
X105089571Y24446190D01*
X105051476Y24331905D01*
X104594333Y23874762D01*
X105089571Y23874762D01*
X93237651Y50074762D02*
X93694794Y50074762D01*
X93466223Y49274762D02*
X93466223Y50074762D01*
X93885270Y50074762D02*
X94418604Y49274762D01*
X94418604Y50074762D02*
X93885270Y49274762D01*
X94875747Y50074762D02*
X94951937Y50074762D01*
X95028128Y50036667D01*
X95066223Y49998571D01*
X95104318Y49922381D01*
X95142413Y49770000D01*
X95142413Y49579524D01*
X95104318Y49427143D01*
X95066223Y49350952D01*
X95028128Y49312857D01*
X94951937Y49274762D01*
X94875747Y49274762D01*
X94799556Y49312857D01*
X94761461Y49350952D01*
X94723366Y49427143D01*
X94685270Y49579524D01*
X94685270Y49770000D01*
X94723366Y49922381D01*
X94761461Y49998571D01*
X94799556Y50036667D01*
X94875747Y50074762D01*
X96056699Y50112857D02*
X95370985Y49084286D01*
X96323366Y49274762D02*
X96323366Y50074762D01*
X96513842Y50074762D01*
X96628128Y50036667D01*
X96704318Y49960476D01*
X96742413Y49884286D01*
X96780508Y49731905D01*
X96780508Y49617619D01*
X96742413Y49465238D01*
X96704318Y49389047D01*
X96628128Y49312857D01*
X96513842Y49274762D01*
X96323366Y49274762D01*
X97047175Y50074762D02*
X97542413Y50074762D01*
X97275747Y49770000D01*
X97390032Y49770000D01*
X97466223Y49731905D01*
X97504318Y49693809D01*
X97542413Y49617619D01*
X97542413Y49427143D01*
X97504318Y49350952D01*
X97466223Y49312857D01*
X97390032Y49274762D01*
X97161461Y49274762D01*
X97085270Y49312857D01*
X97047175Y49350952D01*
X104194333Y39533809D02*
X103927666Y39533809D01*
X103927666Y39114762D02*
X103927666Y39914762D01*
X104308619Y39914762D01*
X104956238Y39648095D02*
X104956238Y39114762D01*
X104765761Y39952857D02*
X104575285Y39381428D01*
X105070523Y39381428D01*
X104194333Y36993809D02*
X103927666Y36993809D01*
X103927666Y36574762D02*
X103927666Y37374762D01*
X104308619Y37374762D01*
X104994333Y37374762D02*
X104613380Y37374762D01*
X104575285Y36993809D01*
X104613380Y37031905D01*
X104689571Y37070000D01*
X104880047Y37070000D01*
X104956238Y37031905D01*
X104994333Y36993809D01*
X105032428Y36917619D01*
X105032428Y36727143D01*
X104994333Y36650952D01*
X104956238Y36612857D01*
X104880047Y36574762D01*
X104689571Y36574762D01*
X104613380Y36612857D01*
X104575285Y36650952D01*
X92948523Y39114762D02*
X92948523Y39914762D01*
X93139000Y39914762D01*
X93253285Y39876667D01*
X93329476Y39800476D01*
X93367571Y39724286D01*
X93405666Y39571905D01*
X93405666Y39457619D01*
X93367571Y39305238D01*
X93329476Y39229047D01*
X93253285Y39152857D01*
X93139000Y39114762D01*
X92948523Y39114762D01*
X94167571Y39114762D02*
X93710428Y39114762D01*
X93939000Y39114762D02*
X93939000Y39914762D01*
X93862809Y39800476D01*
X93786619Y39724286D01*
X93710428Y39686190D01*
X94216666Y23116667D02*
X94316666Y23083333D01*
X94350000Y23050000D01*
X94383333Y22983333D01*
X94383333Y22883333D01*
X94350000Y22816667D01*
X94316666Y22783333D01*
X94250000Y22750000D01*
X93983333Y22750000D01*
X93983333Y23450000D01*
X94216666Y23450000D01*
X94283333Y23416667D01*
X94316666Y23383333D01*
X94350000Y23316667D01*
X94350000Y23250000D01*
X94316666Y23183333D01*
X94283333Y23150000D01*
X94216666Y23116667D01*
X93983333Y23116667D01*
X94616666Y23450000D02*
X95083333Y23450000D01*
X94783333Y22750000D01*
X95869523Y22904762D02*
X95869523Y23704762D01*
X96060000Y23704762D01*
X96174285Y23666667D01*
X96250476Y23590476D01*
X96288571Y23514286D01*
X96326666Y23361905D01*
X96326666Y23247619D01*
X96288571Y23095238D01*
X96250476Y23019047D01*
X96174285Y22942857D01*
X96060000Y22904762D01*
X95869523Y22904762D01*
X97050476Y23704762D02*
X96669523Y23704762D01*
X96631428Y23323809D01*
X96669523Y23361905D01*
X96745714Y23400000D01*
X96936190Y23400000D01*
X97012380Y23361905D01*
X97050476Y23323809D01*
X97088571Y23247619D01*
X97088571Y23057143D01*
X97050476Y22980952D01*
X97012380Y22942857D01*
X96936190Y22904762D01*
X96745714Y22904762D01*
X96669523Y22942857D01*
X96631428Y22980952D01*
X105564991Y22730964D02*
X105517851Y22825245D01*
X105517851Y22872386D01*
X105541421Y22943096D01*
X105612132Y23013807D01*
X105682842Y23037377D01*
X105729983Y23037377D01*
X105800693Y23013807D01*
X105989255Y22825245D01*
X105494280Y22330270D01*
X105329289Y22495262D01*
X105305719Y22565973D01*
X105305719Y22613113D01*
X105329289Y22683824D01*
X105376429Y22730964D01*
X105447140Y22754534D01*
X105494280Y22754534D01*
X105564991Y22730964D01*
X105729983Y22565973D01*
X104787174Y23037377D02*
X104881455Y22943096D01*
X104952165Y22919526D01*
X104999306Y22919526D01*
X105117157Y22943096D01*
X105235008Y23013807D01*
X105423570Y23202369D01*
X105447140Y23273079D01*
X105447140Y23320220D01*
X105423570Y23390931D01*
X105329289Y23485211D01*
X105258578Y23508782D01*
X105211438Y23508782D01*
X105140727Y23485211D01*
X105022876Y23367360D01*
X104999306Y23296650D01*
X104999306Y23249509D01*
X105022876Y23178799D01*
X105117157Y23084518D01*
X105187867Y23060947D01*
X105235008Y23060947D01*
X105305719Y23084518D01*
X92948523Y46734762D02*
X92948523Y47534762D01*
X93139000Y47534762D01*
X93253285Y47496667D01*
X93329476Y47420476D01*
X93367571Y47344286D01*
X93405666Y47191905D01*
X93405666Y47077619D01*
X93367571Y46925238D01*
X93329476Y46849047D01*
X93253285Y46772857D01*
X93139000Y46734762D01*
X92948523Y46734762D01*
X93710428Y47458571D02*
X93748523Y47496667D01*
X93824714Y47534762D01*
X94015190Y47534762D01*
X94091380Y47496667D01*
X94129476Y47458571D01*
X94167571Y47382381D01*
X94167571Y47306190D01*
X94129476Y47191905D01*
X93672333Y46734762D01*
X94167571Y46734762D01*
X92764991Y22730964D02*
X92717851Y22825245D01*
X92717851Y22872386D01*
X92741421Y22943096D01*
X92812132Y23013807D01*
X92882842Y23037377D01*
X92929983Y23037377D01*
X93000693Y23013807D01*
X93189255Y22825245D01*
X92694280Y22330270D01*
X92529289Y22495262D01*
X92505719Y22565973D01*
X92505719Y22613113D01*
X92529289Y22683824D01*
X92576429Y22730964D01*
X92647140Y22754534D01*
X92694280Y22754534D01*
X92764991Y22730964D01*
X92929983Y22565973D01*
X91963603Y23060947D02*
X92199306Y22825245D01*
X92458578Y23037377D01*
X92411438Y23037377D01*
X92340727Y23060947D01*
X92222876Y23178799D01*
X92199306Y23249509D01*
X92199306Y23296650D01*
X92222876Y23367360D01*
X92340727Y23485211D01*
X92411438Y23508782D01*
X92458578Y23508782D01*
X92529289Y23485211D01*
X92647140Y23367360D01*
X92670710Y23296650D01*
X92670710Y23249509D01*
X104137190Y49693809D02*
X104251476Y49655714D01*
X104289571Y49617619D01*
X104327666Y49541428D01*
X104327666Y49427143D01*
X104289571Y49350952D01*
X104251476Y49312857D01*
X104175285Y49274762D01*
X103870523Y49274762D01*
X103870523Y50074762D01*
X104137190Y50074762D01*
X104213380Y50036667D01*
X104251476Y49998571D01*
X104289571Y49922381D01*
X104289571Y49846190D01*
X104251476Y49770000D01*
X104213380Y49731905D01*
X104137190Y49693809D01*
X103870523Y49693809D01*
X104822904Y50074762D02*
X104899095Y50074762D01*
X104975285Y50036667D01*
X105013380Y49998571D01*
X105051476Y49922381D01*
X105089571Y49770000D01*
X105089571Y49579524D01*
X105051476Y49427143D01*
X105013380Y49350952D01*
X104975285Y49312857D01*
X104899095Y49274762D01*
X104822904Y49274762D01*
X104746714Y49312857D01*
X104708619Y49350952D01*
X104670523Y49427143D01*
X104632428Y49579524D01*
X104632428Y49770000D01*
X104670523Y49922381D01*
X104708619Y49998571D01*
X104746714Y50036667D01*
X104822904Y50074762D01*
X103394333Y42454762D02*
X103661000Y41654762D01*
X103927666Y42454762D01*
X104651476Y41730952D02*
X104613380Y41692857D01*
X104499095Y41654762D01*
X104422904Y41654762D01*
X104308619Y41692857D01*
X104232428Y41769047D01*
X104194333Y41845238D01*
X104156238Y41997619D01*
X104156238Y42111905D01*
X104194333Y42264286D01*
X104232428Y42340476D01*
X104308619Y42416667D01*
X104422904Y42454762D01*
X104499095Y42454762D01*
X104613380Y42416667D01*
X104651476Y42378571D01*
X105451476Y41730952D02*
X105413380Y41692857D01*
X105299095Y41654762D01*
X105222904Y41654762D01*
X105108619Y41692857D01*
X105032428Y41769047D01*
X104994333Y41845238D01*
X104956238Y41997619D01*
X104956238Y42111905D01*
X104994333Y42264286D01*
X105032428Y42340476D01*
X105108619Y42416667D01*
X105222904Y42454762D01*
X105299095Y42454762D01*
X105413380Y42416667D01*
X105451476Y42378571D01*
X93215190Y24293809D02*
X93329476Y24255714D01*
X93367571Y24217619D01*
X93405666Y24141428D01*
X93405666Y24027143D01*
X93367571Y23950952D01*
X93329476Y23912857D01*
X93253285Y23874762D01*
X92948523Y23874762D01*
X92948523Y24674762D01*
X93215190Y24674762D01*
X93291380Y24636667D01*
X93329476Y24598571D01*
X93367571Y24522381D01*
X93367571Y24446190D01*
X93329476Y24370000D01*
X93291380Y24331905D01*
X93215190Y24293809D01*
X92948523Y24293809D01*
X94091380Y24408095D02*
X94091380Y23874762D01*
X93900904Y24712857D02*
X93710428Y24141428D01*
X94205666Y24141428D01*
X103266666Y23116667D02*
X103033333Y23116667D01*
X103033333Y22750000D02*
X103033333Y23450000D01*
X103366666Y23450000D01*
X103766666Y23450000D02*
X103833333Y23450000D01*
X103900000Y23416667D01*
X103933333Y23383333D01*
X103966666Y23316667D01*
X104000000Y23183333D01*
X104000000Y23016667D01*
X103966666Y22883333D01*
X103933333Y22816667D01*
X103900000Y22783333D01*
X103833333Y22750000D01*
X103766666Y22750000D01*
X103700000Y22783333D01*
X103666666Y22816667D01*
X103633333Y22883333D01*
X103600000Y23016667D01*
X103600000Y23183333D01*
X103633333Y23316667D01*
X103666666Y23383333D01*
X103700000Y23416667D01*
X103766666Y23450000D01*
X104199786Y44262857D02*
X104314072Y44224762D01*
X104504548Y44224762D01*
X104580739Y44262857D01*
X104618834Y44300952D01*
X104656929Y44377143D01*
X104656929Y44453333D01*
X104618834Y44529524D01*
X104580739Y44567619D01*
X104504548Y44605714D01*
X104352167Y44643809D01*
X104275977Y44681905D01*
X104237881Y44720000D01*
X104199786Y44796190D01*
X104199786Y44872381D01*
X104237881Y44948571D01*
X104275977Y44986667D01*
X104352167Y45024762D01*
X104542643Y45024762D01*
X104656929Y44986667D01*
X104885500Y45024762D02*
X105342643Y45024762D01*
X105114072Y44224762D02*
X105114072Y45024762D01*
X101273333Y23323809D02*
X101006666Y23323809D01*
X101006666Y22904762D02*
X101006666Y23704762D01*
X101387619Y23704762D01*
X102111428Y22904762D02*
X101654285Y22904762D01*
X101882857Y22904762D02*
X101882857Y23704762D01*
X101806666Y23590476D01*
X101730476Y23514286D01*
X101654285Y23476190D01*
X104137190Y26833809D02*
X104251476Y26795714D01*
X104289571Y26757619D01*
X104327666Y26681428D01*
X104327666Y26567143D01*
X104289571Y26490952D01*
X104251476Y26452857D01*
X104175285Y26414762D01*
X103870523Y26414762D01*
X103870523Y27214762D01*
X104137190Y27214762D01*
X104213380Y27176667D01*
X104251476Y27138571D01*
X104289571Y27062381D01*
X104289571Y26986190D01*
X104251476Y26910000D01*
X104213380Y26871905D01*
X104137190Y26833809D01*
X103870523Y26833809D01*
X104594333Y27214762D02*
X105089571Y27214762D01*
X104822904Y26910000D01*
X104937190Y26910000D01*
X105013380Y26871905D01*
X105051476Y26833809D01*
X105089571Y26757619D01*
X105089571Y26567143D01*
X105051476Y26490952D01*
X105013380Y26452857D01*
X104937190Y26414762D01*
X104708619Y26414762D01*
X104632428Y26452857D01*
X104594333Y26490952D01*
X92948523Y28954762D02*
X92948523Y29754762D01*
X93139000Y29754762D01*
X93253285Y29716667D01*
X93329476Y29640476D01*
X93367571Y29564286D01*
X93405666Y29411905D01*
X93405666Y29297619D01*
X93367571Y29145238D01*
X93329476Y29069047D01*
X93253285Y28992857D01*
X93139000Y28954762D01*
X92948523Y28954762D01*
X93672333Y29754762D02*
X94205666Y29754762D01*
X93862809Y28954762D01*
X104194333Y31913809D02*
X103927666Y31913809D01*
X103927666Y31494762D02*
X103927666Y32294762D01*
X104308619Y32294762D01*
X104537190Y32294762D02*
X105070523Y32294762D01*
X104727666Y31494762D01*
X92929476Y44956667D02*
X92853285Y44994762D01*
X92739000Y44994762D01*
X92624714Y44956667D01*
X92548523Y44880476D01*
X92510428Y44804286D01*
X92472333Y44651905D01*
X92472333Y44537619D01*
X92510428Y44385238D01*
X92548523Y44309047D01*
X92624714Y44232857D01*
X92739000Y44194762D01*
X92815190Y44194762D01*
X92929476Y44232857D01*
X92967571Y44270952D01*
X92967571Y44537619D01*
X92815190Y44537619D01*
X93310428Y44194762D02*
X93310428Y44994762D01*
X93767571Y44194762D01*
X93767571Y44994762D01*
X94148523Y44194762D02*
X94148523Y44994762D01*
X94339000Y44994762D01*
X94453285Y44956667D01*
X94529476Y44880476D01*
X94567571Y44804286D01*
X94605666Y44651905D01*
X94605666Y44537619D01*
X94567571Y44385238D01*
X94529476Y44309047D01*
X94453285Y44232857D01*
X94339000Y44194762D01*
X94148523Y44194762D01*
X92986619Y26833809D02*
X93253285Y26833809D01*
X93367571Y26414762D02*
X92986619Y26414762D01*
X92986619Y27214762D01*
X93367571Y27214762D01*
X94053285Y27214762D02*
X93900904Y27214762D01*
X93824714Y27176667D01*
X93786619Y27138571D01*
X93710428Y27024286D01*
X93672333Y26871905D01*
X93672333Y26567143D01*
X93710428Y26490952D01*
X93748523Y26452857D01*
X93824714Y26414762D01*
X93977095Y26414762D01*
X94053285Y26452857D01*
X94091380Y26490952D01*
X94129476Y26567143D01*
X94129476Y26757619D01*
X94091380Y26833809D01*
X94053285Y26871905D01*
X93977095Y26910000D01*
X93824714Y26910000D01*
X93748523Y26871905D01*
X93710428Y26833809D01*
X93672333Y26757619D01*
X92948523Y34034762D02*
X92948523Y34834762D01*
X93139000Y34834762D01*
X93253285Y34796667D01*
X93329476Y34720476D01*
X93367571Y34644286D01*
X93405666Y34491905D01*
X93405666Y34377619D01*
X93367571Y34225238D01*
X93329476Y34149047D01*
X93253285Y34072857D01*
X93139000Y34034762D01*
X92948523Y34034762D01*
X94091380Y34568095D02*
X94091380Y34034762D01*
X93900904Y34872857D02*
X93710428Y34301428D01*
X94205666Y34301428D01*
X104194333Y34453809D02*
X103927666Y34453809D01*
X103927666Y34034762D02*
X103927666Y34834762D01*
X104308619Y34834762D01*
X104956238Y34834762D02*
X104803857Y34834762D01*
X104727666Y34796667D01*
X104689571Y34758571D01*
X104613380Y34644286D01*
X104575285Y34491905D01*
X104575285Y34187143D01*
X104613380Y34110952D01*
X104651476Y34072857D01*
X104727666Y34034762D01*
X104880047Y34034762D01*
X104956238Y34072857D01*
X104994333Y34110952D01*
X105032428Y34187143D01*
X105032428Y34377619D01*
X104994333Y34453809D01*
X104956238Y34491905D01*
X104880047Y34530000D01*
X104727666Y34530000D01*
X104651476Y34491905D01*
X104613380Y34453809D01*
X104575285Y34377619D01*
X98866666Y22980952D02*
X98828571Y22942857D01*
X98714285Y22904762D01*
X98638095Y22904762D01*
X98523809Y22942857D01*
X98447619Y23019047D01*
X98409523Y23095238D01*
X98371428Y23247619D01*
X98371428Y23361905D01*
X98409523Y23514286D01*
X98447619Y23590476D01*
X98523809Y23666667D01*
X98638095Y23704762D01*
X98714285Y23704762D01*
X98828571Y23666667D01*
X98866666Y23628571D01*
X99133333Y23704762D02*
X99666666Y23704762D01*
X99323809Y22904762D01*
X92929476Y42416667D02*
X92853285Y42454762D01*
X92739000Y42454762D01*
X92624714Y42416667D01*
X92548523Y42340476D01*
X92510428Y42264286D01*
X92472333Y42111905D01*
X92472333Y41997619D01*
X92510428Y41845238D01*
X92548523Y41769047D01*
X92624714Y41692857D01*
X92739000Y41654762D01*
X92815190Y41654762D01*
X92929476Y41692857D01*
X92967571Y41730952D01*
X92967571Y41997619D01*
X92815190Y41997619D01*
X93310428Y41654762D02*
X93310428Y42454762D01*
X93767571Y41654762D01*
X93767571Y42454762D01*
X94148523Y41654762D02*
X94148523Y42454762D01*
X94339000Y42454762D01*
X94453285Y42416667D01*
X94529476Y42340476D01*
X94567571Y42264286D01*
X94605666Y42111905D01*
X94605666Y41997619D01*
X94567571Y41845238D01*
X94529476Y41769047D01*
X94453285Y41692857D01*
X94339000Y41654762D01*
X94148523Y41654762D01*
X104137190Y29373809D02*
X104251476Y29335714D01*
X104289571Y29297619D01*
X104327666Y29221428D01*
X104327666Y29107143D01*
X104289571Y29030952D01*
X104251476Y28992857D01*
X104175285Y28954762D01*
X103870523Y28954762D01*
X103870523Y29754762D01*
X104137190Y29754762D01*
X104213380Y29716667D01*
X104251476Y29678571D01*
X104289571Y29602381D01*
X104289571Y29526190D01*
X104251476Y29450000D01*
X104213380Y29411905D01*
X104137190Y29373809D01*
X103870523Y29373809D01*
X105089571Y28954762D02*
X104632428Y28954762D01*
X104861000Y28954762D02*
X104861000Y29754762D01*
X104784809Y29640476D01*
X104708619Y29564286D01*
X104632428Y29526190D01*
X93405666Y31570952D02*
X93367571Y31532857D01*
X93253285Y31494762D01*
X93177095Y31494762D01*
X93062809Y31532857D01*
X92986619Y31609047D01*
X92948523Y31685238D01*
X92910428Y31837619D01*
X92910428Y31951905D01*
X92948523Y32104286D01*
X92986619Y32180476D01*
X93062809Y32256667D01*
X93177095Y32294762D01*
X93253285Y32294762D01*
X93367571Y32256667D01*
X93405666Y32218571D01*
X94091380Y32294762D02*
X93939000Y32294762D01*
X93862809Y32256667D01*
X93824714Y32218571D01*
X93748523Y32104286D01*
X93710428Y31951905D01*
X93710428Y31647143D01*
X93748523Y31570952D01*
X93786619Y31532857D01*
X93862809Y31494762D01*
X94015190Y31494762D01*
X94091380Y31532857D01*
X94129476Y31570952D01*
X94167571Y31647143D01*
X94167571Y31837619D01*
X94129476Y31913809D01*
X94091380Y31951905D01*
X94015190Y31990000D01*
X93862809Y31990000D01*
X93786619Y31951905D01*
X93748523Y31913809D01*
X93710428Y31837619D01*
X92948523Y36574762D02*
X92948523Y37374762D01*
X93139000Y37374762D01*
X93253285Y37336667D01*
X93329476Y37260476D01*
X93367571Y37184286D01*
X93405666Y37031905D01*
X93405666Y36917619D01*
X93367571Y36765238D01*
X93329476Y36689047D01*
X93253285Y36612857D01*
X93139000Y36574762D01*
X92948523Y36574762D01*
X93900904Y37374762D02*
X93977095Y37374762D01*
X94053285Y37336667D01*
X94091380Y37298571D01*
X94129476Y37222381D01*
X94167571Y37070000D01*
X94167571Y36879524D01*
X94129476Y36727143D01*
X94091380Y36650952D01*
X94053285Y36612857D01*
X93977095Y36574762D01*
X93900904Y36574762D01*
X93824714Y36612857D01*
X93786619Y36650952D01*
X93748523Y36727143D01*
X93710428Y36879524D01*
X93710428Y37070000D01*
X93748523Y37222381D01*
X93786619Y37298571D01*
X93824714Y37336667D01*
X93900904Y37374762D01*
X103851476Y47496667D02*
X103775285Y47534762D01*
X103661000Y47534762D01*
X103546714Y47496667D01*
X103470523Y47420476D01*
X103432428Y47344286D01*
X103394333Y47191905D01*
X103394333Y47077619D01*
X103432428Y46925238D01*
X103470523Y46849047D01*
X103546714Y46772857D01*
X103661000Y46734762D01*
X103737190Y46734762D01*
X103851476Y46772857D01*
X103889571Y46810952D01*
X103889571Y47077619D01*
X103737190Y47077619D01*
X104232428Y46734762D02*
X104232428Y47534762D01*
X104689571Y46734762D01*
X104689571Y47534762D01*
X105070523Y46734762D02*
X105070523Y47534762D01*
X105261000Y47534762D01*
X105375285Y47496667D01*
X105451476Y47420476D01*
X105489571Y47344286D01*
X105527666Y47191905D01*
X105527666Y47077619D01*
X105489571Y46925238D01*
X105451476Y46849047D01*
X105375285Y46772857D01*
X105261000Y46734762D01*
X105070523Y46734762D01*
%TO.C,_6*%
%TO.C,J6*%
%TO.C,_7*%
%TO.C,_5*%
%TO.C,_3*%
%TO.C,J5*%
%TO.C,J4*%
%TO.C,J3*%
%TO.C,J2*%
%TO.C,J9*%
%TO.C,_1*%
X110250000Y34166667D02*
X110250000Y28166667D01*
X113750000Y34166667D02*
X113750000Y28166667D01*
X113750000Y34166667D02*
X113500000Y34166667D01*
X113750000Y28166667D02*
X113500000Y28166667D01*
X110250000Y34166667D02*
X110500000Y34166667D01*
X110250000Y28166667D02*
X110500000Y28166667D01*
D11*
%TO.C,O2*%
X118950000Y6670000D02*
X118950000Y9330000D01*
X108762069Y6670000D02*
X108762069Y9330000D01*
X108762069Y6670000D02*
X118950000Y6670000D01*
X108762069Y9330000D02*
X118950000Y9330000D01*
%TO.C,ROT1*%
X106920000Y4026667D02*
X106320000Y4026667D01*
X101120000Y2326667D02*
X105220000Y2326667D01*
X93020000Y14026667D02*
X97120000Y14026667D01*
X105220000Y2326667D02*
X105220000Y14026667D01*
X93020000Y6826667D02*
X93020000Y9426667D01*
X99620000Y8126667D02*
X98620000Y8126667D01*
X106620000Y4326667D02*
X106920000Y4026667D01*
X106320000Y4026667D02*
X106620000Y4326667D01*
X93020000Y11426667D02*
X93020000Y14026667D01*
X101120000Y14026667D02*
X105220000Y14026667D01*
X93020000Y2226667D02*
X93020000Y4826667D01*
X97120000Y2226667D02*
X93020000Y2226667D01*
X99120000Y7626667D02*
X99120000Y8626667D01*
X102120000Y8126667D02*
G75*
G03*
X102120000Y8126667I-3000000J0D01*
G01*
D12*
%TO.C,MCU1*%
X107890000Y50906667D02*
X107890000Y53446667D01*
X90110000Y20426667D02*
X107890000Y20426667D01*
X90110000Y50906667D02*
X90110000Y20426667D01*
X92650000Y50906667D02*
X90110000Y50906667D01*
X92650000Y50906667D02*
X92650000Y48366667D01*
X92650000Y48366667D02*
X90110000Y48366667D01*
X90110000Y53446667D02*
X90110000Y50906667D01*
X107890000Y20426667D02*
X107890000Y50906667D01*
X107890000Y53446667D02*
X90110000Y53446667D01*
G36*
X103531568Y44227307D02*
G01*
X103431568Y44227307D01*
X103431568Y45027307D01*
X103531568Y45027307D01*
X103531568Y44227307D01*
G37*
D10*
X103531568Y44227307D02*
X103431568Y44227307D01*
X103431568Y45027307D01*
X103531568Y45027307D01*
X103531568Y44227307D01*
G36*
X103931568Y44727307D02*
G01*
X103831568Y44727307D01*
X103831568Y45027307D01*
X103931568Y45027307D01*
X103931568Y44727307D01*
G37*
X103931568Y44727307D02*
X103831568Y44727307D01*
X103831568Y45027307D01*
X103931568Y45027307D01*
X103931568Y44727307D01*
G36*
X103731568Y44527307D02*
G01*
X103631568Y44527307D01*
X103631568Y44627307D01*
X103731568Y44627307D01*
X103731568Y44527307D01*
G37*
X103731568Y44527307D02*
X103631568Y44527307D01*
X103631568Y44627307D01*
X103731568Y44627307D01*
X103731568Y44527307D01*
G36*
X103931568Y44227307D02*
G01*
X103831568Y44227307D01*
X103831568Y44427307D01*
X103931568Y44427307D01*
X103931568Y44227307D01*
G37*
X103931568Y44227307D02*
X103831568Y44227307D01*
X103831568Y44427307D01*
X103931568Y44427307D01*
X103931568Y44227307D01*
G36*
X103931568Y44927307D02*
G01*
X103431568Y44927307D01*
X103431568Y45027307D01*
X103931568Y45027307D01*
X103931568Y44927307D01*
G37*
X103931568Y44927307D02*
X103431568Y44927307D01*
X103431568Y45027307D01*
X103931568Y45027307D01*
X103931568Y44927307D01*
%TD*%
D13*
%TO.C,_1*%
X112000000Y27916667D03*
X112000000Y34416667D03*
%TD*%
D14*
%TO.C,MCU1*%
X91380000Y49636667D03*
D15*
X91380000Y47096667D03*
X91380000Y44556667D03*
X91380000Y42016667D03*
X91380000Y39476667D03*
X91380000Y36936667D03*
X91380000Y34396667D03*
X91380000Y31856667D03*
X91380000Y29316667D03*
X91380000Y26776667D03*
X91380000Y24236667D03*
X91608600Y21696667D03*
X106620000Y21696667D03*
X106620000Y24236667D03*
X106620000Y26776667D03*
X106620000Y29316667D03*
X106620000Y31856667D03*
X106620000Y34396667D03*
X106620000Y36936667D03*
X106620000Y39476667D03*
X106620000Y42016667D03*
X106620000Y44556667D03*
X106620000Y47096667D03*
X106620000Y49636667D03*
X93920000Y21696667D03*
X96460000Y21696667D03*
X99000000Y21696667D03*
X101540000Y21696667D03*
X104080000Y21696667D03*
%TD*%
M02*
