%TF.GenerationSoftware,KiCad,Pcbnew,6.0.11+dfsg-1*%
%TF.CreationDate,2023-05-17T23:01:12+03:00*%
%TF.ProjectId,pcb,7063622e-6b69-4636-9164-5f7063625858,v1.0.0*%
%TF.SameCoordinates,Original*%
%TF.FileFunction,Soldermask,Top*%
%TF.FilePolarity,Negative*%
%FSLAX46Y46*%
G04 Gerber Fmt 4.6, Leading zero omitted, Abs format (unit mm)*
G04 Created by KiCad (PCBNEW 6.0.11+dfsg-1) date 2023-05-17 23:01:12*
%MOMM*%
%LPD*%
G01*
G04 APERTURE LIST*
G04 Aperture macros list*
%AMRoundRect*
0 Rectangle with rounded corners*
0 $1 Rounding radius*
0 $2 $3 $4 $5 $6 $7 $8 $9 X,Y pos of 4 corners*
0 Add a 4 corners polygon primitive as box body*
4,1,4,$2,$3,$4,$5,$6,$7,$8,$9,$2,$3,0*
0 Add four circle primitives for the rounded corners*
1,1,$1+$1,$2,$3*
1,1,$1+$1,$4,$5*
1,1,$1+$1,$6,$7*
1,1,$1+$1,$8,$9*
0 Add four rect primitives between the rounded corners*
20,1,$1+$1,$2,$3,$4,$5,0*
20,1,$1+$1,$4,$5,$6,$7,0*
20,1,$1+$1,$6,$7,$8,$9,0*
20,1,$1+$1,$8,$9,$2,$3,0*%
G04 Aperture macros list end*
%ADD10C,2.100000*%
%ADD11C,1.600000*%
%ADD12O,1.700000X2.300000*%
%ADD13C,3.100000*%
%ADD14C,3.529000*%
%ADD15C,1.801800*%
%ADD16RoundRect,0.050000X-1.300000X-1.300000X1.300000X-1.300000X1.300000X1.300000X-1.300000X1.300000X0*%
%ADD17C,4.100000*%
%ADD18RoundRect,0.050000X-1.607969X-0.891312X0.891312X-1.607969X1.607969X0.891312X-0.891312X1.607969X0*%
%ADD19RoundRect,0.050000X0.850000X0.850000X-0.850000X0.850000X-0.850000X-0.850000X0.850000X-0.850000X0*%
%ADD20O,1.800000X1.800000*%
%ADD21RoundRect,0.050000X1.600000X1.000000X-1.600000X1.000000X-1.600000X-1.000000X1.600000X-1.000000X0*%
%ADD22RoundRect,0.050000X1.000000X1.000000X-1.000000X1.000000X-1.000000X-1.000000X1.000000X-1.000000X0*%
%ADD23RoundRect,0.050000X-0.876300X-0.876300X0.876300X-0.876300X0.876300X0.876300X-0.876300X0.876300X0*%
%ADD24C,1.852600*%
%ADD25RoundRect,0.050000X-1.322490X-1.277114X1.277114X-1.322490X1.322490X1.277114X-1.277114X1.322490X0*%
%ADD26RoundRect,0.050000X-1.767258X-0.506753X0.506753X-1.767258X1.767258X0.506753X-0.506753X1.767258X0*%
%ADD27C,2.300000*%
%ADD28RoundRect,0.050000X0.571500X-0.317500X0.571500X0.317500X-0.571500X0.317500X-0.571500X-0.317500X0*%
G04 APERTURE END LIST*
%TO.C,*%
G36*
X22880619Y-6084554D02*
G01*
X22880235Y-6030528D01*
X22876740Y-5990751D01*
X22868940Y-5961478D01*
X22855639Y-5938967D01*
X22835642Y-5919474D01*
X22807754Y-5899256D01*
X22793981Y-5890035D01*
X22758009Y-5866919D01*
X22728477Y-5849424D01*
X22710341Y-5840434D01*
X22707760Y-5839825D01*
X22692416Y-5844267D01*
X22665246Y-5855588D01*
X22647827Y-5863738D01*
X22617868Y-5880155D01*
X22603220Y-5895204D01*
X22598740Y-5914908D01*
X22598606Y-5921367D01*
X22604268Y-5953346D01*
X22618712Y-5975271D01*
X22633401Y-5981178D01*
X22641043Y-5972299D01*
X22642099Y-5964226D01*
X22647449Y-5953027D01*
X22653150Y-5954104D01*
X22659422Y-5967135D01*
X22657945Y-5971056D01*
X22659838Y-5980474D01*
X22663846Y-5981178D01*
X22671291Y-5987448D01*
X22669913Y-5991030D01*
X22655924Y-5996447D01*
X22640486Y-5994780D01*
X22624038Y-5993113D01*
X22621476Y-6004399D01*
X22623809Y-6015217D01*
X22625541Y-6035135D01*
X22614177Y-6041564D01*
X22609102Y-6041757D01*
X22590502Y-6037089D01*
X22590447Y-6026078D01*
X22598606Y-6019234D01*
X22608811Y-6006235D01*
X22598478Y-5991166D01*
X22588163Y-5983969D01*
X22563104Y-5975670D01*
X22543547Y-5981115D01*
X22535928Y-5997735D01*
X22536909Y-6004424D01*
X22536467Y-6019264D01*
X22520911Y-6023843D01*
X22513320Y-6023812D01*
X22496873Y-6021578D01*
X22498028Y-6017470D01*
X22510608Y-6003837D01*
X22507416Y-5985783D01*
X22491040Y-5972672D01*
X22477209Y-5964429D01*
X22482959Y-5953371D01*
X22485604Y-5950847D01*
X22497961Y-5943944D01*
X22500746Y-5948129D01*
X22509381Y-5956782D01*
X22527704Y-5959251D01*
X22544343Y-5954775D01*
X22547756Y-5951276D01*
X22553203Y-5935771D01*
X22559755Y-5909529D01*
X22559992Y-5908435D01*
X22562710Y-5883271D01*
X22553392Y-5868049D01*
X22534776Y-5856864D01*
X22503779Y-5846379D01*
X22480908Y-5848825D01*
X22470677Y-5862997D01*
X22471608Y-5873711D01*
X22471300Y-5888349D01*
X22455882Y-5889759D01*
X22453456Y-5889330D01*
X22432440Y-5885399D01*
X22424633Y-5883960D01*
X22427259Y-5878533D01*
X22434373Y-5873376D01*
X22444147Y-5856299D01*
X22442605Y-5845670D01*
X22431027Y-5833896D01*
X22422862Y-5835483D01*
X22414704Y-5836123D01*
X22417349Y-5824409D01*
X22423505Y-5806244D01*
X22424633Y-5800879D01*
X22433121Y-5796492D01*
X22436148Y-5796332D01*
X22442870Y-5802885D01*
X22441408Y-5806454D01*
X22440837Y-5819308D01*
X22454524Y-5824379D01*
X22475761Y-5819657D01*
X22479435Y-5817845D01*
X22494968Y-5801865D01*
X22499241Y-5781944D01*
X22492692Y-5765904D01*
X22476282Y-5761470D01*
X22460325Y-5758963D01*
X22457253Y-5753315D01*
X22465599Y-5742405D01*
X22468768Y-5741965D01*
X22475262Y-5735304D01*
X22473563Y-5731092D01*
X22470587Y-5720828D01*
X22478727Y-5722429D01*
X22492327Y-5733912D01*
X22496829Y-5739247D01*
X22509564Y-5752131D01*
X22519966Y-5747223D01*
X22525350Y-5740697D01*
X22538645Y-5729251D01*
X22551486Y-5736416D01*
X22552533Y-5737519D01*
X22564997Y-5755346D01*
X22558723Y-5762274D01*
X22546958Y-5761470D01*
X22529484Y-5765389D01*
X22524024Y-5780852D01*
X22530207Y-5801528D01*
X22547665Y-5821084D01*
X22550562Y-5823095D01*
X22568640Y-5833606D01*
X22584182Y-5836058D01*
X22604909Y-5829918D01*
X22632657Y-5817408D01*
X22685592Y-5792614D01*
X22685592Y-5729484D01*
X22684335Y-5692060D01*
X22679118Y-5669558D01*
X22667777Y-5655229D01*
X22659941Y-5649546D01*
X22633656Y-5639203D01*
X22612079Y-5641851D01*
X22601301Y-5655699D01*
X22601948Y-5666584D01*
X22600282Y-5682044D01*
X22586881Y-5684545D01*
X22572497Y-5678231D01*
X22572723Y-5659126D01*
X22572968Y-5658129D01*
X22574014Y-5639169D01*
X22560656Y-5633346D01*
X22556199Y-5633232D01*
X22540422Y-5630914D01*
X22541778Y-5619975D01*
X22546763Y-5611486D01*
X22560697Y-5594528D01*
X22569243Y-5589739D01*
X22573470Y-5596456D01*
X22571887Y-5599861D01*
X22571379Y-5612714D01*
X22585069Y-5617862D01*
X22606129Y-5613161D01*
X22609255Y-5611606D01*
X22626924Y-5594695D01*
X22631032Y-5575165D01*
X22621708Y-5560500D01*
X22608316Y-5557119D01*
X22591748Y-5552582D01*
X22592006Y-5539920D01*
X22597763Y-5522587D01*
X22598606Y-5518174D01*
X22607022Y-5513744D01*
X22609479Y-5513626D01*
X22619126Y-5522433D01*
X22620353Y-5529936D01*
X22627673Y-5543674D01*
X22643651Y-5544625D01*
X22659310Y-5532726D01*
X22660864Y-5530214D01*
X22669500Y-5521025D01*
X22679486Y-5529878D01*
X22683243Y-5535651D01*
X22690786Y-5551776D01*
X22682208Y-5556853D01*
X22674055Y-5557119D01*
X22657377Y-5564007D01*
X22654486Y-5580746D01*
X22664157Y-5601452D01*
X22685168Y-5620242D01*
X22687456Y-5621572D01*
X22711774Y-5631821D01*
X22732626Y-5628619D01*
X22744540Y-5622817D01*
X22763426Y-5605865D01*
X22772590Y-5584654D01*
X22770915Y-5566124D01*
X22757287Y-5557214D01*
X22755105Y-5557119D01*
X22742825Y-5550635D01*
X22744232Y-5539920D01*
X22749989Y-5522587D01*
X22750832Y-5518174D01*
X22759248Y-5513744D01*
X22761705Y-5513626D01*
X22771352Y-5522433D01*
X22772579Y-5529936D01*
X22781282Y-5544352D01*
X22788889Y-5546246D01*
X22803304Y-5537542D01*
X22805198Y-5529936D01*
X22810743Y-5515282D01*
X22822445Y-5517380D01*
X22831218Y-5530825D01*
X22837087Y-5550128D01*
X22831451Y-5556554D01*
X22821508Y-5557119D01*
X22808998Y-5565465D01*
X22805367Y-5584309D01*
X22810476Y-5604364D01*
X22822398Y-5615759D01*
X22847641Y-5621894D01*
X22858540Y-5614129D01*
X22859565Y-5606049D01*
X22865436Y-5591579D01*
X22870438Y-5589739D01*
X22881002Y-5597361D01*
X22881311Y-5599723D01*
X22884898Y-5617925D01*
X22887959Y-5627030D01*
X22888665Y-5639338D01*
X22878185Y-5638051D01*
X22859985Y-5638624D01*
X22852514Y-5652343D01*
X22859861Y-5671645D01*
X22859960Y-5671765D01*
X22865972Y-5683104D01*
X22855278Y-5687247D01*
X22843255Y-5687599D01*
X22823393Y-5685751D01*
X22821835Y-5678204D01*
X22826316Y-5672047D01*
X22832391Y-5657987D01*
X22820023Y-5646274D01*
X22816885Y-5644541D01*
X22794967Y-5638688D01*
X22771034Y-5648076D01*
X22766757Y-5650794D01*
X22750744Y-5663638D01*
X22742986Y-5679551D01*
X22741252Y-5705656D01*
X22742181Y-5729280D01*
X22745395Y-5789557D01*
X22912859Y-5895651D01*
X23082467Y-5786887D01*
X23078718Y-5725945D01*
X23074521Y-5687626D01*
X23066216Y-5664368D01*
X23051367Y-5649549D01*
X23050349Y-5648871D01*
X23024225Y-5638822D01*
X23003001Y-5642128D01*
X22992779Y-5656801D01*
X22993587Y-5667352D01*
X22992069Y-5683812D01*
X22977946Y-5687599D01*
X22963346Y-5683556D01*
X22962239Y-5667489D01*
X22963833Y-5660416D01*
X22965871Y-5640273D01*
X22954966Y-5633565D01*
X22947638Y-5633232D01*
X22931860Y-5630914D01*
X22933216Y-5619975D01*
X22938201Y-5611486D01*
X22952136Y-5594528D01*
X22960682Y-5589739D01*
X22964703Y-5596566D01*
X22962814Y-5600689D01*
X22963438Y-5612577D01*
X22977269Y-5618696D01*
X22996094Y-5617036D01*
X23006493Y-5611371D01*
X23021028Y-5590754D01*
X23021057Y-5570554D01*
X23007527Y-5558208D01*
X22999586Y-5557119D01*
X22984035Y-5554421D01*
X22987325Y-5544130D01*
X22988619Y-5542527D01*
X22995516Y-5526672D01*
X22993574Y-5520781D01*
X22994728Y-5514196D01*
X22999105Y-5513626D01*
X23010347Y-5522403D01*
X23011791Y-5529936D01*
X23019112Y-5543674D01*
X23035090Y-5544625D01*
X23050748Y-5532726D01*
X23052302Y-5530214D01*
X23060939Y-5521025D01*
X23070924Y-5529878D01*
X23074681Y-5535651D01*
X23082257Y-5551788D01*
X23073915Y-5556863D01*
X23066250Y-5557119D01*
X23048575Y-5564194D01*
X23044872Y-5581332D01*
X23054596Y-5602404D01*
X23071658Y-5617964D01*
X23101884Y-5628250D01*
X23131917Y-5624091D01*
X23154911Y-5608081D01*
X23164017Y-5582983D01*
X23157791Y-5561759D01*
X23146544Y-5557119D01*
X23134263Y-5550635D01*
X23135670Y-5539920D01*
X23141427Y-5522587D01*
X23142270Y-5518174D01*
X23150686Y-5513744D01*
X23153144Y-5513626D01*
X23162790Y-5522433D01*
X23164017Y-5529936D01*
X23172721Y-5544352D01*
X23180327Y-5546246D01*
X23194661Y-5537515D01*
X23196637Y-5529595D01*
X23205434Y-5511452D01*
X23212947Y-5506685D01*
X23227569Y-5492818D01*
X23225757Y-5475100D01*
X23208511Y-5462674D01*
X23208118Y-5462569D01*
X23194046Y-5455394D01*
X23199632Y-5443496D01*
X23199824Y-5443290D01*
X23213066Y-5435378D01*
X23223809Y-5444774D01*
X23239049Y-5452807D01*
X23255824Y-5443378D01*
X23270090Y-5420044D01*
X23276180Y-5398691D01*
X23277372Y-5373231D01*
X23265571Y-5356455D01*
X23251322Y-5347008D01*
X23222168Y-5335713D01*
X23199509Y-5337274D01*
X23188434Y-5350456D01*
X23189105Y-5362132D01*
X23187439Y-5377592D01*
X23174038Y-5380093D01*
X23159655Y-5373779D01*
X23159880Y-5354674D01*
X23160126Y-5353677D01*
X23161171Y-5334717D01*
X23147814Y-5328894D01*
X23143357Y-5328780D01*
X23127511Y-5326304D01*
X23129221Y-5314949D01*
X23133416Y-5307842D01*
X23144753Y-5293773D01*
X23154364Y-5298059D01*
X23158833Y-5303782D01*
X23172443Y-5314698D01*
X23191477Y-5309744D01*
X23194779Y-5308028D01*
X23212974Y-5291129D01*
X23218268Y-5271557D01*
X23210419Y-5256562D01*
X23196637Y-5252667D01*
X23178291Y-5248663D01*
X23177643Y-5234712D01*
X23185501Y-5220100D01*
X23195085Y-5210550D01*
X23206246Y-5217821D01*
X23212517Y-5225537D01*
X23226134Y-5240071D01*
X23236289Y-5237451D01*
X23242987Y-5229652D01*
X23256282Y-5218207D01*
X23269123Y-5225372D01*
X23270170Y-5226475D01*
X23282634Y-5244301D01*
X23276360Y-5251229D01*
X23264595Y-5250426D01*
X23247179Y-5254521D01*
X23241410Y-5270309D01*
X23247019Y-5291286D01*
X23263739Y-5310954D01*
X23267188Y-5313388D01*
X23284853Y-5323523D01*
X23300444Y-5325709D01*
X23321538Y-5319343D01*
X23349246Y-5306854D01*
X23372101Y-5296122D01*
X23387869Y-5286484D01*
X23398468Y-5273789D01*
X23405817Y-5253884D01*
X23411834Y-5222616D01*
X23418438Y-5175834D01*
X23422010Y-5149371D01*
X23430870Y-5084131D01*
X23347404Y-5027547D01*
X23263937Y-4970962D01*
X23208970Y-4994185D01*
X23174300Y-5011300D01*
X23155401Y-5028338D01*
X23147175Y-5048497D01*
X23146466Y-5078567D01*
X23153513Y-5095450D01*
X23170888Y-5108212D01*
X23188084Y-5110592D01*
X23196587Y-5101605D01*
X23196637Y-5100441D01*
X23201038Y-5089480D01*
X23209572Y-5093616D01*
X23215233Y-5109270D01*
X23215293Y-5109977D01*
X23209400Y-5126651D01*
X23198579Y-5129005D01*
X23183778Y-5135989D01*
X23181152Y-5151732D01*
X23176655Y-5170217D01*
X23162404Y-5172853D01*
X23143841Y-5167314D01*
X23133417Y-5159959D01*
X23136403Y-5155121D01*
X23140458Y-5154808D01*
X23151266Y-5146945D01*
X23151742Y-5130526D01*
X23141652Y-5116369D01*
X23123144Y-5113377D01*
X23102978Y-5116090D01*
X23083223Y-5125912D01*
X23081848Y-5141983D01*
X23080583Y-5157952D01*
X23066156Y-5162691D01*
X23048149Y-5159132D01*
X23045483Y-5149372D01*
X23057240Y-5141470D01*
X23064836Y-5129539D01*
X23063089Y-5119001D01*
X23049505Y-5106255D01*
X23039386Y-5107225D01*
X23025033Y-5107684D01*
X23025394Y-5094127D01*
X23033903Y-5078695D01*
X23044072Y-5068259D01*
X23053430Y-5077056D01*
X23055457Y-5080402D01*
X23072315Y-5094847D01*
X23090772Y-5091274D01*
X23105839Y-5072389D01*
X23111917Y-5049772D01*
X23111756Y-5020679D01*
X23099303Y-5000903D01*
X23086095Y-4990421D01*
X23061431Y-4976553D01*
X23041842Y-4977094D01*
X23033122Y-4981057D01*
X23017930Y-4993800D01*
X23021868Y-5007059D01*
X23028657Y-5023082D01*
X23017382Y-5029576D01*
X23000059Y-5027254D01*
X22985753Y-5019695D01*
X22990751Y-5007167D01*
X22997238Y-4987315D01*
X22985851Y-4972908D01*
X22971761Y-4969962D01*
X22960722Y-4967214D01*
X22966754Y-4955553D01*
X22968725Y-4953137D01*
X22982572Y-4942997D01*
X22990387Y-4948770D01*
X23006180Y-4957443D01*
X23018530Y-4957347D01*
X23033523Y-4946814D01*
X23042249Y-4927401D01*
X23043243Y-4907348D01*
X23035037Y-4894890D01*
X23029841Y-4893849D01*
X23018474Y-4886141D01*
X23019514Y-4872102D01*
X23028794Y-4854233D01*
X23039236Y-4851698D01*
X23044404Y-4865901D01*
X23044411Y-4866666D01*
X23053114Y-4881081D01*
X23060721Y-4882976D01*
X23075136Y-4874272D01*
X23077031Y-4866666D01*
X23082576Y-4852012D01*
X23094277Y-4854109D01*
X23103051Y-4867555D01*
X23108919Y-4886857D01*
X23103283Y-4893283D01*
X23093341Y-4893849D01*
X23079356Y-4901471D01*
X23076909Y-4919508D01*
X23084844Y-4940718D01*
X23102007Y-4957859D01*
X23103707Y-4958817D01*
X23122912Y-4966271D01*
X23143400Y-4965400D01*
X23173246Y-4955478D01*
X23182538Y-4951735D01*
X23234693Y-4930376D01*
X23237916Y-4863723D01*
X23239061Y-4826643D01*
X23236505Y-4804877D01*
X23228062Y-4792046D01*
X23211545Y-4781771D01*
X23209456Y-4780686D01*
X23185754Y-4770514D01*
X23169880Y-4772177D01*
X23157303Y-4780828D01*
X23144646Y-4795055D01*
X23150493Y-4803038D01*
X23160547Y-4812190D01*
X23154309Y-4820004D01*
X23136991Y-4821900D01*
X23130467Y-4820643D01*
X23116200Y-4813744D01*
X23121189Y-4806451D01*
X23129515Y-4792111D01*
X23125008Y-4775517D01*
X23111898Y-4766368D01*
X23104122Y-4767337D01*
X23089655Y-4769444D01*
X23091997Y-4759389D01*
X23103158Y-4746562D01*
X23116196Y-4736977D01*
X23123690Y-4745176D01*
X23124743Y-4747808D01*
X23134035Y-4758448D01*
X23151996Y-4753105D01*
X23152982Y-4752582D01*
X23167331Y-4738059D01*
X23174789Y-4718065D01*
X23174704Y-4699745D01*
X23166425Y-4690242D01*
X23158580Y-4691188D01*
X23144338Y-4692190D01*
X23145752Y-4679259D01*
X23154138Y-4665510D01*
X23164989Y-4655665D01*
X23171187Y-4662791D01*
X23184778Y-4675042D01*
X23202053Y-4673086D01*
X23210196Y-4662889D01*
X23218227Y-4656915D01*
X23233625Y-4668325D01*
X23246113Y-4682363D01*
X23241726Y-4686883D01*
X23230033Y-4687256D01*
X23212019Y-4694768D01*
X23206911Y-4713031D01*
X23214256Y-4735642D01*
X23233600Y-4756193D01*
X23234986Y-4757124D01*
X23255417Y-4768358D01*
X23272067Y-4767810D01*
X23294789Y-4756030D01*
X23317189Y-4736384D01*
X23327517Y-4714554D01*
X23324922Y-4696310D01*
X23308552Y-4687425D01*
X23304941Y-4687256D01*
X23289954Y-4684913D01*
X23294143Y-4674982D01*
X23296786Y-4672018D01*
X23309699Y-4663741D01*
X23314431Y-4666581D01*
X23327119Y-4675392D01*
X23346990Y-4674609D01*
X23362191Y-4665148D01*
X23363439Y-4662791D01*
X23370914Y-4655868D01*
X23380488Y-4665510D01*
X23391356Y-4686086D01*
X23386188Y-4693415D01*
X23375179Y-4690856D01*
X23363348Y-4690440D01*
X23360680Y-4705163D01*
X23361588Y-4715569D01*
X23370762Y-4738708D01*
X23387600Y-4751840D01*
X23405309Y-4751210D01*
X23412800Y-4743896D01*
X23424406Y-4741132D01*
X23433560Y-4748263D01*
X23441662Y-4760248D01*
X23431878Y-4763360D01*
X23430500Y-4763369D01*
X23412800Y-4771403D01*
X23405650Y-4788849D01*
X23412479Y-4805725D01*
X23415236Y-4807793D01*
X23423582Y-4815504D01*
X23411506Y-4817568D01*
X23411384Y-4817569D01*
X23386559Y-4815279D01*
X23378570Y-4806027D01*
X23379348Y-4798562D01*
X23374571Y-4783511D01*
X23356076Y-4777213D01*
X23330653Y-4781184D01*
X23320946Y-4785509D01*
X23305732Y-4796282D01*
X23297768Y-4811983D01*
X23294807Y-4839133D01*
X23294496Y-4862294D01*
X23294496Y-4924924D01*
X23376321Y-4975923D01*
X23458145Y-5026921D01*
X23612815Y-4956405D01*
X23767484Y-4885889D01*
X23764980Y-4541099D01*
X23681754Y-4488923D01*
X23598529Y-4436747D01*
X23544372Y-4460044D01*
X23513010Y-4474632D01*
X23496897Y-4487398D01*
X23490988Y-4504332D01*
X23490216Y-4524333D01*
X23494345Y-4556512D01*
X23507667Y-4571975D01*
X23509036Y-4572546D01*
X23526377Y-4573429D01*
X23531689Y-4568272D01*
X23541533Y-4556963D01*
X23551956Y-4562736D01*
X23555455Y-4577315D01*
X23547781Y-4594085D01*
X23536427Y-4596344D01*
X23521446Y-4602255D01*
X23519576Y-4616968D01*
X23514880Y-4635124D01*
X23500548Y-4639103D01*
X23481851Y-4635364D01*
X23483291Y-4623524D01*
X23490676Y-4615032D01*
X23493894Y-4600854D01*
X23482243Y-4587464D01*
X23462113Y-4580237D01*
X23449963Y-4580790D01*
X23434635Y-4592906D01*
X23433214Y-4610066D01*
X23431943Y-4628070D01*
X23420218Y-4629192D01*
X23418734Y-4628649D01*
X23396156Y-4622611D01*
X23388748Y-4621850D01*
X23384149Y-4617862D01*
X23391222Y-4612074D01*
X23399482Y-4598041D01*
X23398219Y-4580200D01*
X23389082Y-4569161D01*
X23384504Y-4568837D01*
X23367037Y-4568147D01*
X23368779Y-4557505D01*
X23372760Y-4552790D01*
X23386007Y-4543440D01*
X23397437Y-4552695D01*
X23397782Y-4553164D01*
X23413305Y-4561215D01*
X23430854Y-4552145D01*
X23446002Y-4529601D01*
X23452789Y-4507847D01*
X23454225Y-4483441D01*
X23443081Y-4467043D01*
X23426734Y-4456164D01*
X23396707Y-4444283D01*
X23373743Y-4445515D01*
X23362556Y-4458733D01*
X23363279Y-4471290D01*
X23361761Y-4487750D01*
X23347638Y-4491537D01*
X23333038Y-4487495D01*
X23331931Y-4471428D01*
X23333525Y-4464354D01*
X23335563Y-4444211D01*
X23324658Y-4437504D01*
X23317330Y-4437171D01*
X23301552Y-4434852D01*
X23302908Y-4423914D01*
X23307893Y-4415424D01*
X23323647Y-4396918D01*
X23334684Y-4396398D01*
X23337990Y-4409988D01*
X23340871Y-4423777D01*
X23352830Y-4423847D01*
X23371324Y-4415042D01*
X23388549Y-4398209D01*
X23392076Y-4378699D01*
X23382195Y-4364184D01*
X23369278Y-4361058D01*
X23353727Y-4358360D01*
X23357016Y-4348068D01*
X23358310Y-4346466D01*
X23365208Y-4330611D01*
X23363266Y-4324719D01*
X23364420Y-4318134D01*
X23368797Y-4317565D01*
X23380039Y-4326341D01*
X23381483Y-4333875D01*
X23388804Y-4347613D01*
X23404782Y-4348563D01*
X23420440Y-4336665D01*
X23421994Y-4334153D01*
X23430630Y-4324964D01*
X23440616Y-4333816D01*
X23444373Y-4339589D01*
X23451916Y-4355715D01*
X23443338Y-4360791D01*
X23435185Y-4361058D01*
X23418556Y-4367988D01*
X23415627Y-4384792D01*
X23425209Y-4405489D01*
X23446119Y-4424099D01*
X23447887Y-4425118D01*
X23466285Y-4433433D01*
X23483677Y-4433736D01*
X23507683Y-4425046D01*
X23529436Y-4414608D01*
X23582639Y-4388241D01*
X23578996Y-4328438D01*
X23573901Y-4287521D01*
X23563437Y-4262069D01*
X23552903Y-4251050D01*
X23527046Y-4238379D01*
X23505566Y-4240113D01*
X23494202Y-4254471D01*
X23494793Y-4269083D01*
X23496476Y-4286852D01*
X23485468Y-4289490D01*
X23479395Y-4288109D01*
X23463929Y-4278457D01*
X23464009Y-4257769D01*
X23464315Y-4256521D01*
X23465854Y-4237047D01*
X23453574Y-4230805D01*
X23447125Y-4230578D01*
X23430833Y-4229120D01*
X23433188Y-4221203D01*
X23441496Y-4212505D01*
X23456611Y-4200827D01*
X23466508Y-4205878D01*
X23469146Y-4209787D01*
X23483786Y-4218122D01*
X23501687Y-4211042D01*
X23516353Y-4192561D01*
X23520873Y-4177820D01*
X23518517Y-4159450D01*
X23500514Y-4154465D01*
X23484446Y-4151861D01*
X23487156Y-4141916D01*
X23488790Y-4139873D01*
X23495687Y-4124018D01*
X23493746Y-4118127D01*
X23494899Y-4111542D01*
X23499277Y-4110972D01*
X23510519Y-4119749D01*
X23511962Y-4127282D01*
X23519865Y-4140205D01*
X23536818Y-4142970D01*
X23552683Y-4135659D01*
X23557376Y-4126916D01*
X23562154Y-4117912D01*
X23571372Y-4127337D01*
X23574576Y-4132353D01*
X23582453Y-4148857D01*
X23574793Y-4154150D01*
X23566421Y-4154465D01*
X23548532Y-4161284D01*
X23545262Y-4178217D01*
X23555877Y-4199979D01*
X23575316Y-4218362D01*
X23596803Y-4232208D01*
X23612405Y-4233952D01*
X23632998Y-4223833D01*
X23639713Y-4219774D01*
X23662978Y-4201270D01*
X23668584Y-4182641D01*
X23667514Y-4176884D01*
X23657096Y-4158864D01*
X23647628Y-4154465D01*
X23638193Y-4146089D01*
X23639291Y-4132719D01*
X23648572Y-4114850D01*
X23659013Y-4112314D01*
X23664182Y-4126517D01*
X23664188Y-4127282D01*
X23672892Y-4141698D01*
X23680498Y-4143592D01*
X23694914Y-4134888D01*
X23696808Y-4127282D01*
X23701538Y-4112477D01*
X23713613Y-4116131D01*
X23726905Y-4132719D01*
X23734633Y-4148999D01*
X23726426Y-4154171D01*
X23717925Y-4154465D01*
X23701803Y-4158724D01*
X23698056Y-4175535D01*
X23698804Y-4184274D01*
X23708565Y-4207776D01*
X23726509Y-4218980D01*
X23745541Y-4214865D01*
X23752590Y-4207183D01*
X23762377Y-4198431D01*
X23772755Y-4208832D01*
X23782901Y-4229764D01*
X23777595Y-4237047D01*
X23768584Y-4234932D01*
X23751228Y-4236073D01*
X23743918Y-4250037D01*
X23750468Y-4267783D01*
X23755330Y-4280400D01*
X23740731Y-4287983D01*
X23740541Y-4288032D01*
X23721206Y-4288618D01*
X23711526Y-4281848D01*
X23716718Y-4272522D01*
X23721205Y-4270247D01*
X23726873Y-4261837D01*
X23714222Y-4247910D01*
X23697716Y-4237663D01*
X23681558Y-4239488D01*
X23662574Y-4249572D01*
X23644612Y-4262298D01*
X23635445Y-4277748D01*
X23632293Y-4303096D01*
X23632151Y-4328064D01*
X23632734Y-4388241D01*
X23715109Y-4440512D01*
X23753380Y-4463184D01*
X23785893Y-4479503D01*
X23807637Y-4487076D01*
X23812521Y-4487013D01*
X23828220Y-4478641D01*
X23856664Y-4461488D01*
X23892491Y-4438814D01*
X23903536Y-4431646D01*
X23979514Y-4382049D01*
X23979514Y-4324968D01*
X23978211Y-4290288D01*
X23972331Y-4269980D01*
X23958910Y-4256730D01*
X23949612Y-4251116D01*
X23917678Y-4238736D01*
X23894909Y-4240534D01*
X23884933Y-4255513D01*
X23886105Y-4268580D01*
X23887979Y-4286656D01*
X23877424Y-4289583D01*
X23870833Y-4288109D01*
X23855367Y-4278457D01*
X23855448Y-4257769D01*
X23855754Y-4256521D01*
X23857293Y-4237047D01*
X23845013Y-4230805D01*
X23838563Y-4230578D01*
X23822271Y-4229120D01*
X23824626Y-4221203D01*
X23832934Y-4212505D01*
X23848049Y-4200827D01*
X23857946Y-4205878D01*
X23860585Y-4209787D01*
X23875224Y-4218122D01*
X23893126Y-4211042D01*
X23907791Y-4192561D01*
X23912312Y-4177820D01*
X23909956Y-4159450D01*
X23891952Y-4154465D01*
X23875885Y-4151861D01*
X23878595Y-4141916D01*
X23880228Y-4139873D01*
X23887126Y-4124018D01*
X23885184Y-4118127D01*
X23886338Y-4111542D01*
X23890715Y-4110972D01*
X23901957Y-4119749D01*
X23903401Y-4127282D01*
X23911304Y-4140205D01*
X23928256Y-4142970D01*
X23944122Y-4135659D01*
X23948815Y-4126916D01*
X23953592Y-4117912D01*
X23962811Y-4127337D01*
X23966014Y-4132353D01*
X23973891Y-4148857D01*
X23966231Y-4154150D01*
X23957859Y-4154465D01*
X23939810Y-4161623D01*
X23935331Y-4179060D01*
X23943635Y-4200722D01*
X23963935Y-4220554D01*
X23966668Y-4222247D01*
X23988748Y-4233387D01*
X24005842Y-4233125D01*
X24029059Y-4221044D01*
X24031066Y-4219827D01*
X24054371Y-4201320D01*
X24060031Y-4182724D01*
X24058953Y-4176884D01*
X24048534Y-4158864D01*
X24039066Y-4154465D01*
X24029631Y-4146089D01*
X24030729Y-4132719D01*
X24040068Y-4114717D01*
X24050490Y-4112530D01*
X24055621Y-4127345D01*
X24055627Y-4128079D01*
X24063499Y-4140889D01*
X24074655Y-4141025D01*
X24089409Y-4131557D01*
X24090965Y-4123918D01*
X24095259Y-4111913D01*
X24099120Y-4110972D01*
X24108916Y-4119712D01*
X24109993Y-4126376D01*
X24118214Y-4143836D01*
X24123585Y-4147264D01*
X24125455Y-4151668D01*
X24112711Y-4153607D01*
X24093571Y-4160028D01*
X24088246Y-4180898D01*
X24088246Y-4180916D01*
X24095792Y-4202892D01*
X24113278Y-4215945D01*
X24132979Y-4216419D01*
X24143970Y-4207277D01*
X24153764Y-4198398D01*
X24164193Y-4208832D01*
X24174340Y-4229764D01*
X24169034Y-4237047D01*
X24160023Y-4234932D01*
X24142666Y-4236073D01*
X24135356Y-4250037D01*
X24141906Y-4267783D01*
X24146768Y-4280400D01*
X24132169Y-4287983D01*
X24131980Y-4288032D01*
X24112645Y-4288618D01*
X24102964Y-4281848D01*
X24108156Y-4272522D01*
X24112644Y-4270247D01*
X24118367Y-4261861D01*
X24105834Y-4248037D01*
X24088905Y-4237724D01*
X24071644Y-4239499D01*
X24054186Y-4247633D01*
X24036470Y-4258654D01*
X24027139Y-4272617D01*
X24023540Y-4296232D01*
X24023007Y-4326550D01*
X24023007Y-4389344D01*
X24072227Y-4413257D01*
X24108565Y-4429599D01*
X24132967Y-4435456D01*
X24152391Y-4431120D01*
X24173045Y-4417454D01*
X24188934Y-4397021D01*
X24190353Y-4376458D01*
X24178010Y-4362939D01*
X24167469Y-4361058D01*
X24156239Y-4354128D01*
X24157759Y-4343859D01*
X24163517Y-4326525D01*
X24164359Y-4322112D01*
X24172775Y-4317682D01*
X24175233Y-4317565D01*
X24184879Y-4326371D01*
X24186106Y-4333875D01*
X24194810Y-4348290D01*
X24202416Y-4350184D01*
X24216831Y-4341481D01*
X24218726Y-4333875D01*
X24224271Y-4319221D01*
X24235972Y-4321318D01*
X24244746Y-4334764D01*
X24250615Y-4354066D01*
X24244978Y-4360492D01*
X24235036Y-4361058D01*
X24222525Y-4369403D01*
X24218895Y-4388248D01*
X24224003Y-4408302D01*
X24235925Y-4419697D01*
X24261169Y-4425832D01*
X24272068Y-4418067D01*
X24273092Y-4409988D01*
X24278086Y-4395241D01*
X24288574Y-4397243D01*
X24297744Y-4414486D01*
X24295155Y-4433817D01*
X24282702Y-4440652D01*
X24267044Y-4450053D01*
X24262106Y-4462384D01*
X24270528Y-4469636D01*
X24273092Y-4469791D01*
X24283855Y-4474851D01*
X24279686Y-4485370D01*
X24263481Y-4494353D01*
X24262849Y-4494523D01*
X24240570Y-4495950D01*
X24234360Y-4486444D01*
X24240701Y-4474952D01*
X24243966Y-4458877D01*
X24234344Y-4447470D01*
X24218481Y-4439181D01*
X24199839Y-4444032D01*
X24187998Y-4450685D01*
X24163956Y-4475628D01*
X24154912Y-4507721D01*
X24162166Y-4539195D01*
X24171191Y-4551182D01*
X24186300Y-4563933D01*
X24196431Y-4560580D01*
X24203849Y-4551220D01*
X24216546Y-4538528D01*
X24229154Y-4544101D01*
X24233968Y-4548719D01*
X24244570Y-4565705D01*
X24238531Y-4574068D01*
X24224503Y-4571713D01*
X24210517Y-4574919D01*
X24202544Y-4589167D01*
X24205622Y-4603773D01*
X24208327Y-4606000D01*
X24218491Y-4618327D01*
X24209188Y-4626812D01*
X24196986Y-4628230D01*
X24181027Y-4623084D01*
X24181118Y-4609728D01*
X24179871Y-4589510D01*
X24162045Y-4580613D01*
X24136558Y-4583144D01*
X24118554Y-4593213D01*
X24109896Y-4607676D01*
X24113152Y-4619340D01*
X24122678Y-4622017D01*
X24130875Y-4625126D01*
X24123811Y-4631930D01*
X24106643Y-4638646D01*
X24097380Y-4640574D01*
X24082004Y-4640600D01*
X24084922Y-4631499D01*
X24086165Y-4629961D01*
X24092138Y-4610622D01*
X24082812Y-4595393D01*
X24063815Y-4592438D01*
X24060950Y-4593372D01*
X24047671Y-4594980D01*
X24048979Y-4583194D01*
X24054791Y-4565013D01*
X24055627Y-4559993D01*
X24062408Y-4560858D01*
X24071936Y-4567650D01*
X24091230Y-4573940D01*
X24107900Y-4564060D01*
X24118801Y-4543582D01*
X24120787Y-4518077D01*
X24112545Y-4495716D01*
X24098646Y-4483887D01*
X24072532Y-4467748D01*
X24057570Y-4459761D01*
X24010583Y-4435938D01*
X23970583Y-4459383D01*
X23935496Y-4480383D01*
X23896283Y-4504451D01*
X23884769Y-4511648D01*
X23838955Y-4540467D01*
X23838558Y-4710603D01*
X23838161Y-4880740D01*
X23944175Y-4948636D01*
X23993100Y-4979992D01*
X24041495Y-5011048D01*
X24082823Y-5037606D01*
X24104556Y-5051601D01*
X24140897Y-5074973D01*
X24186451Y-5104177D01*
X24232091Y-5133362D01*
X24237414Y-5136759D01*
X24315905Y-5186849D01*
X24555458Y-5033955D01*
X24795010Y-4881060D01*
X24794941Y-4710763D01*
X24794873Y-4540467D01*
X24765040Y-4523101D01*
X24739102Y-4507559D01*
X24704054Y-4486017D01*
X24679400Y-4470622D01*
X24623594Y-4435509D01*
X24567949Y-4463706D01*
X24535535Y-4481761D01*
X24518687Y-4496938D01*
X24512707Y-4514246D01*
X24512305Y-4523009D01*
X24517391Y-4550312D01*
X24529684Y-4569253D01*
X24544737Y-4575423D01*
X24556626Y-4566951D01*
X24566528Y-4556964D01*
X24576579Y-4566445D01*
X24577378Y-4567650D01*
X24587560Y-4589284D01*
X24580936Y-4597318D01*
X24566671Y-4594833D01*
X24549160Y-4594260D01*
X24542822Y-4609365D01*
X24543901Y-4629248D01*
X24536889Y-4639086D01*
X24529194Y-4639530D01*
X24512119Y-4634009D01*
X24503383Y-4626519D01*
X24508371Y-4622102D01*
X24510492Y-4622017D01*
X24522122Y-4615423D01*
X24519548Y-4600183D01*
X24504304Y-4583430D01*
X24481763Y-4576036D01*
X24461471Y-4582265D01*
X24450994Y-4598351D01*
X24451972Y-4609476D01*
X24450873Y-4624618D01*
X24436185Y-4628230D01*
X24417115Y-4624573D01*
X24418201Y-4612921D01*
X24425779Y-4604159D01*
X24429256Y-4589846D01*
X24418671Y-4577519D01*
X24402633Y-4566481D01*
X24396464Y-4564932D01*
X24386925Y-4568473D01*
X24389652Y-4559802D01*
X24397908Y-4550014D01*
X24412640Y-4538310D01*
X24423397Y-4543601D01*
X24429322Y-4551220D01*
X24441201Y-4563955D01*
X24452567Y-4560113D01*
X24461392Y-4551769D01*
X24478023Y-4521799D01*
X24477161Y-4488533D01*
X24459579Y-4460029D01*
X24452006Y-4454156D01*
X24424211Y-4442723D01*
X24403076Y-4442765D01*
X24384385Y-4454408D01*
X24385189Y-4468746D01*
X24392876Y-4475337D01*
X24400461Y-4486370D01*
X24391937Y-4494600D01*
X24372841Y-4495141D01*
X24370941Y-4494685D01*
X24354103Y-4485859D01*
X24349133Y-4475303D01*
X24358996Y-4469811D01*
X24360079Y-4469791D01*
X24370721Y-4463983D01*
X24367608Y-4451901D01*
X24353381Y-4441555D01*
X24350469Y-4440652D01*
X24335183Y-4428889D01*
X24335427Y-4414486D01*
X24344720Y-4397132D01*
X24355184Y-4395311D01*
X24360079Y-4409988D01*
X24365586Y-4424156D01*
X24384110Y-4424077D01*
X24397246Y-4419697D01*
X24411696Y-4405608D01*
X24414728Y-4385084D01*
X24407064Y-4367261D01*
X24392606Y-4361058D01*
X24377748Y-4358653D01*
X24379531Y-4347483D01*
X24384349Y-4339311D01*
X24398880Y-4321987D01*
X24409693Y-4318304D01*
X24411861Y-4329846D01*
X24411727Y-4330510D01*
X24418212Y-4343319D01*
X24428037Y-4347618D01*
X24444200Y-4344074D01*
X24447065Y-4334672D01*
X24452576Y-4319405D01*
X24464253Y-4321201D01*
X24473085Y-4334764D01*
X24478793Y-4354047D01*
X24471528Y-4360455D01*
X24457182Y-4361058D01*
X24440465Y-4367754D01*
X24438061Y-4384164D01*
X24448760Y-4404768D01*
X24470916Y-4423784D01*
X24489149Y-4433253D01*
X24505464Y-4434972D01*
X24527406Y-4428217D01*
X24555184Y-4415712D01*
X24610164Y-4389960D01*
X24610164Y-4326858D01*
X24609253Y-4290608D01*
X24604767Y-4269398D01*
X24594074Y-4256545D01*
X24578985Y-4247633D01*
X24555062Y-4237641D01*
X24538497Y-4239801D01*
X24527337Y-4247148D01*
X24513807Y-4260259D01*
X24517882Y-4269845D01*
X24523178Y-4273698D01*
X24534301Y-4283232D01*
X24534051Y-4285684D01*
X24498413Y-4290193D01*
X24482328Y-4285872D01*
X24485968Y-4272800D01*
X24491785Y-4266320D01*
X24498260Y-4249420D01*
X24490026Y-4236022D01*
X24473148Y-4234932D01*
X24459733Y-4235407D01*
X24461662Y-4221551D01*
X24468978Y-4208832D01*
X24479512Y-4198390D01*
X24489201Y-4207277D01*
X24505842Y-4217811D01*
X24525691Y-4213203D01*
X24541020Y-4197105D01*
X24544924Y-4180916D01*
X24539607Y-4160035D01*
X24520476Y-4153607D01*
X24520460Y-4153607D01*
X24506739Y-4151098D01*
X24509586Y-4147264D01*
X24521689Y-4132985D01*
X24523509Y-4123658D01*
X24525018Y-4111712D01*
X24531404Y-4118650D01*
X24534922Y-4124564D01*
X24550640Y-4139934D01*
X24567343Y-4142494D01*
X24577111Y-4131737D01*
X24577544Y-4127282D01*
X24583416Y-4112812D01*
X24588418Y-4110972D01*
X24598981Y-4118594D01*
X24599291Y-4120956D01*
X24602878Y-4139158D01*
X24605938Y-4148263D01*
X24606620Y-4160595D01*
X24596494Y-4159410D01*
X24580941Y-4162627D01*
X24574558Y-4175584D01*
X24576811Y-4197223D01*
X24597559Y-4218455D01*
X24599343Y-4219742D01*
X24621227Y-4233597D01*
X24637624Y-4235035D01*
X24659850Y-4224539D01*
X24663493Y-4222474D01*
X24686757Y-4202991D01*
X24697545Y-4181497D01*
X24694994Y-4163541D01*
X24678241Y-4154671D01*
X24674073Y-4154465D01*
X24658521Y-4151767D01*
X24661811Y-4141476D01*
X24663105Y-4139873D01*
X24670003Y-4124018D01*
X24668061Y-4118127D01*
X24669214Y-4111542D01*
X24673592Y-4110972D01*
X24684834Y-4119749D01*
X24686277Y-4127282D01*
X24694180Y-4140205D01*
X24711133Y-4142970D01*
X24726999Y-4135659D01*
X24731691Y-4126916D01*
X24736469Y-4117912D01*
X24745687Y-4127337D01*
X24748891Y-4132353D01*
X24756768Y-4148857D01*
X24749108Y-4154150D01*
X24740736Y-4154465D01*
X24723498Y-4162259D01*
X24717848Y-4180229D01*
X24723617Y-4200260D01*
X24740632Y-4214232D01*
X24742001Y-4214699D01*
X24765061Y-4215147D01*
X24773634Y-4208232D01*
X24783752Y-4200696D01*
X24798585Y-4210854D01*
X24798942Y-4211210D01*
X24810071Y-4228623D01*
X24803411Y-4236601D01*
X24786903Y-4233485D01*
X24775330Y-4233072D01*
X24774196Y-4247909D01*
X24775425Y-4255149D01*
X24775235Y-4278143D01*
X24761018Y-4288454D01*
X24760775Y-4288518D01*
X24746608Y-4288696D01*
X24745633Y-4274775D01*
X24746941Y-4269077D01*
X24745590Y-4246347D01*
X24729660Y-4236444D01*
X24702969Y-4240599D01*
X24685296Y-4249197D01*
X24666596Y-4262521D01*
X24657173Y-4278682D01*
X24653930Y-4305160D01*
X24653657Y-4325565D01*
X24653657Y-4383243D01*
X24736602Y-4437390D01*
X24774146Y-4461290D01*
X24804996Y-4479798D01*
X24824557Y-4490210D01*
X24828576Y-4491537D01*
X24841250Y-4486057D01*
X24867445Y-4471409D01*
X24902452Y-4450282D01*
X24919021Y-4439889D01*
X25000437Y-4388241D01*
X25001020Y-4325999D01*
X25000439Y-4290072D01*
X24996086Y-4269116D01*
X24985326Y-4256384D01*
X24970424Y-4247633D01*
X24946834Y-4237637D01*
X24930822Y-4239672D01*
X24918776Y-4248037D01*
X24906118Y-4262264D01*
X24911966Y-4270247D01*
X24921934Y-4279448D01*
X24915658Y-4287355D01*
X24898355Y-4289168D01*
X24892630Y-4288032D01*
X24877875Y-4280470D01*
X24882599Y-4267909D01*
X24882703Y-4267783D01*
X24889203Y-4249236D01*
X24881335Y-4235678D01*
X24864587Y-4234932D01*
X24851171Y-4235407D01*
X24853100Y-4221551D01*
X24860416Y-4208832D01*
X24870977Y-4198416D01*
X24880581Y-4207183D01*
X24897783Y-4219201D01*
X24917096Y-4214536D01*
X24931428Y-4196210D01*
X24934367Y-4184274D01*
X24933677Y-4162324D01*
X24921820Y-4154810D01*
X24915246Y-4154465D01*
X24899824Y-4152115D01*
X24901343Y-4141090D01*
X24906266Y-4132719D01*
X24920798Y-4115394D01*
X24931611Y-4111711D01*
X24933778Y-4123254D01*
X24933645Y-4123918D01*
X24940130Y-4136727D01*
X24949954Y-4141025D01*
X24966117Y-4137482D01*
X24968983Y-4128079D01*
X24973851Y-4112725D01*
X24984206Y-4114409D01*
X24993672Y-4131945D01*
X24993880Y-4132719D01*
X24993193Y-4150747D01*
X24985543Y-4154465D01*
X24971885Y-4163587D01*
X24965656Y-4176884D01*
X24967077Y-4196464D01*
X24985221Y-4214475D01*
X24993457Y-4219774D01*
X25016792Y-4232637D01*
X25032587Y-4233693D01*
X25051721Y-4222703D01*
X25057855Y-4218362D01*
X25079715Y-4196653D01*
X25088318Y-4175273D01*
X25082928Y-4159507D01*
X25066750Y-4154465D01*
X25051914Y-4152100D01*
X25053538Y-4141027D01*
X25058595Y-4132353D01*
X25069383Y-4118429D01*
X25074880Y-4123202D01*
X25075795Y-4126916D01*
X25086440Y-4139988D01*
X25104005Y-4143032D01*
X25118354Y-4135964D01*
X25121209Y-4127282D01*
X25128035Y-4112828D01*
X25133894Y-4110972D01*
X25141205Y-4115337D01*
X25139425Y-4118127D01*
X25139120Y-4131201D01*
X25144381Y-4139873D01*
X25149390Y-4151033D01*
X25135962Y-4154428D01*
X25132657Y-4154465D01*
X25114652Y-4159452D01*
X25112298Y-4177820D01*
X25121959Y-4201173D01*
X25138721Y-4215514D01*
X25156083Y-4216827D01*
X25164025Y-4209787D01*
X25173826Y-4200559D01*
X25186864Y-4207864D01*
X25191675Y-4212505D01*
X25203298Y-4226040D01*
X25197156Y-4230281D01*
X25186046Y-4230578D01*
X25169175Y-4234243D01*
X25167275Y-4249399D01*
X25168855Y-4256521D01*
X25169538Y-4277837D01*
X25154812Y-4287829D01*
X25153776Y-4288109D01*
X25138469Y-4289006D01*
X25136784Y-4276283D01*
X25138504Y-4268580D01*
X25136876Y-4247162D01*
X25120454Y-4238527D01*
X25092650Y-4243566D01*
X25074696Y-4251955D01*
X25057340Y-4263424D01*
X25048792Y-4277533D01*
X25046573Y-4301258D01*
X25047513Y-4328438D01*
X25050094Y-4363112D01*
X25056645Y-4383880D01*
X25072079Y-4398562D01*
X25101306Y-4414980D01*
X25102149Y-4415424D01*
X25133177Y-4430784D01*
X25153148Y-4436294D01*
X25169849Y-4432958D01*
X25183699Y-4425934D01*
X25205999Y-4407519D01*
X25217090Y-4386735D01*
X25215701Y-4369355D01*
X25200562Y-4361152D01*
X25197986Y-4361058D01*
X25182514Y-4358656D01*
X25184142Y-4347494D01*
X25188798Y-4339589D01*
X25200184Y-4325536D01*
X25208604Y-4329917D01*
X25211177Y-4334153D01*
X25227113Y-4348293D01*
X25244428Y-4347130D01*
X25253609Y-4333509D01*
X25258386Y-4324504D01*
X25267605Y-4333930D01*
X25270809Y-4338945D01*
X25278686Y-4355450D01*
X25271026Y-4360743D01*
X25262654Y-4361058D01*
X25245382Y-4368563D01*
X25240991Y-4385889D01*
X25249598Y-4405250D01*
X25261847Y-4415042D01*
X25284170Y-4425010D01*
X25293590Y-4421838D01*
X25295181Y-4409988D01*
X25299912Y-4395182D01*
X25311986Y-4398837D01*
X25325278Y-4415424D01*
X25332988Y-4431699D01*
X25324640Y-4436871D01*
X25315841Y-4437171D01*
X25299680Y-4440734D01*
X25297732Y-4455601D01*
X25299646Y-4464354D01*
X25301621Y-4484628D01*
X25290922Y-4491301D01*
X25285533Y-4491537D01*
X25269985Y-4485906D01*
X25269892Y-4471290D01*
X25267492Y-4451699D01*
X25250229Y-4443378D01*
X25222499Y-4447491D01*
X25206325Y-4454448D01*
X25184054Y-4468859D01*
X25177455Y-4485620D01*
X25179977Y-4506019D01*
X25190902Y-4536656D01*
X25207130Y-4556157D01*
X25224470Y-4560953D01*
X25235389Y-4553164D01*
X25246898Y-4543444D01*
X25259982Y-4552333D01*
X25260411Y-4552790D01*
X25267597Y-4566147D01*
X25255488Y-4569672D01*
X25248667Y-4568837D01*
X25237241Y-4575180D01*
X25233132Y-4591909D01*
X25237990Y-4608415D01*
X25241949Y-4612074D01*
X25249619Y-4620218D01*
X25244423Y-4621850D01*
X25223396Y-4625699D01*
X25214437Y-4628649D01*
X25201752Y-4628742D01*
X25199734Y-4612230D01*
X25199956Y-4610066D01*
X25195523Y-4587639D01*
X25183208Y-4580790D01*
X25161156Y-4582452D01*
X25144131Y-4593180D01*
X25138524Y-4607600D01*
X25142494Y-4615032D01*
X25153133Y-4630943D01*
X25143813Y-4638319D01*
X25132623Y-4639103D01*
X25115895Y-4632337D01*
X25113595Y-4616968D01*
X25110072Y-4600028D01*
X25092410Y-4597228D01*
X25075330Y-4595067D01*
X25074162Y-4580154D01*
X25074650Y-4578200D01*
X25084371Y-4559681D01*
X25095962Y-4559622D01*
X25102224Y-4570369D01*
X25111127Y-4578655D01*
X25123321Y-4571289D01*
X25134953Y-4553160D01*
X25142169Y-4529152D01*
X25142955Y-4518728D01*
X25140979Y-4497364D01*
X25131713Y-4482797D01*
X25110152Y-4469660D01*
X25087866Y-4459643D01*
X25032777Y-4435944D01*
X24949232Y-4489627D01*
X24865686Y-4543309D01*
X24865686Y-4885946D01*
X25020356Y-4956434D01*
X25175026Y-5026921D01*
X25256850Y-4975923D01*
X25338674Y-4924924D01*
X25338674Y-4862294D01*
X25337563Y-4825675D01*
X25332733Y-4804231D01*
X25321936Y-4791440D01*
X25312225Y-4785509D01*
X25285181Y-4777199D01*
X25263480Y-4780682D01*
X25253538Y-4794300D01*
X25253896Y-4800567D01*
X25254307Y-4812398D01*
X25244694Y-4816980D01*
X25221787Y-4817569D01*
X25209598Y-4815528D01*
X25217837Y-4807855D01*
X25217934Y-4807793D01*
X25227427Y-4792920D01*
X25224208Y-4776022D01*
X25211773Y-4766363D01*
X25202667Y-4767337D01*
X25188200Y-4769444D01*
X25190542Y-4759389D01*
X25201702Y-4746562D01*
X25214740Y-4736977D01*
X25222235Y-4745176D01*
X25223288Y-4747808D01*
X25232580Y-4758448D01*
X25250541Y-4753105D01*
X25251527Y-4752582D01*
X25265876Y-4738059D01*
X25273333Y-4718065D01*
X25273248Y-4699745D01*
X25264969Y-4690242D01*
X25257125Y-4691188D01*
X25242883Y-4692190D01*
X25244296Y-4679259D01*
X25252682Y-4665510D01*
X25263533Y-4655665D01*
X25269732Y-4662791D01*
X25283323Y-4675042D01*
X25300597Y-4673086D01*
X25308741Y-4662889D01*
X25316481Y-4656460D01*
X25330875Y-4667031D01*
X25342532Y-4684699D01*
X25337247Y-4693414D01*
X25321302Y-4690781D01*
X25307719Y-4691605D01*
X25304375Y-4704750D01*
X25309878Y-4724158D01*
X25322837Y-4743774D01*
X25335957Y-4754598D01*
X25359894Y-4765830D01*
X25379807Y-4764023D01*
X25395760Y-4756595D01*
X25416942Y-4738566D01*
X25426520Y-4716790D01*
X25423812Y-4697672D01*
X25408138Y-4687617D01*
X25403138Y-4687256D01*
X25387739Y-4685953D01*
X25389848Y-4678467D01*
X25399545Y-4668325D01*
X25415357Y-4656819D01*
X25422975Y-4662889D01*
X25435672Y-4675074D01*
X25453093Y-4673031D01*
X25461983Y-4662791D01*
X25469459Y-4655868D01*
X25479033Y-4665510D01*
X25489891Y-4686073D01*
X25484948Y-4693542D01*
X25474591Y-4691188D01*
X25461750Y-4693205D01*
X25457445Y-4707788D01*
X25461025Y-4727794D01*
X25471838Y-4746079D01*
X25480189Y-4752582D01*
X25498637Y-4758533D01*
X25508138Y-4748546D01*
X25508428Y-4747808D01*
X25515749Y-4737047D01*
X25527539Y-4744134D01*
X25530013Y-4746562D01*
X25543775Y-4763865D01*
X25540673Y-4770177D01*
X25529049Y-4767337D01*
X25513397Y-4769785D01*
X25504397Y-4784150D01*
X25506277Y-4800734D01*
X25511982Y-4806451D01*
X25516432Y-4814568D01*
X25502704Y-4820643D01*
X25483094Y-4821394D01*
X25473013Y-4814863D01*
X25477673Y-4805630D01*
X25482678Y-4803038D01*
X25488345Y-4794628D01*
X25475694Y-4780701D01*
X25459189Y-4770454D01*
X25443031Y-4772279D01*
X25424046Y-4782363D01*
X25406422Y-4794773D01*
X25397132Y-4809826D01*
X25393554Y-4834423D01*
X25393041Y-4863960D01*
X25393041Y-4927242D01*
X25443994Y-4949083D01*
X25478058Y-4961814D01*
X25502066Y-4964645D01*
X25524786Y-4958562D01*
X25525544Y-4958250D01*
X25546962Y-4942648D01*
X25557020Y-4922411D01*
X25554829Y-4904089D01*
X25539497Y-4894231D01*
X25534302Y-4893849D01*
X25519443Y-4891444D01*
X25521226Y-4880274D01*
X25526044Y-4872102D01*
X25541797Y-4853597D01*
X25552835Y-4853076D01*
X25556140Y-4866666D01*
X25564844Y-4881081D01*
X25572450Y-4882976D01*
X25586866Y-4874272D01*
X25588760Y-4866666D01*
X25593647Y-4851890D01*
X25604018Y-4853900D01*
X25613438Y-4871288D01*
X25613657Y-4872102D01*
X25612734Y-4890276D01*
X25603330Y-4893849D01*
X25590611Y-4901423D01*
X25588696Y-4919062D01*
X25595738Y-4939146D01*
X25609890Y-4954051D01*
X25618662Y-4957126D01*
X25637614Y-4956191D01*
X25643127Y-4950784D01*
X25651949Y-4942069D01*
X25659436Y-4940966D01*
X25673914Y-4946277D01*
X25675746Y-4950784D01*
X25684785Y-4957105D01*
X25700211Y-4957126D01*
X25717119Y-4947412D01*
X25727802Y-4928862D01*
X25730415Y-4909099D01*
X25723110Y-4895744D01*
X25715543Y-4893849D01*
X25704176Y-4886141D01*
X25705216Y-4872102D01*
X25714496Y-4854233D01*
X25724938Y-4851698D01*
X25730106Y-4865901D01*
X25730113Y-4866666D01*
X25738817Y-4881081D01*
X25746423Y-4882976D01*
X25760838Y-4874272D01*
X25762733Y-4866666D01*
X25767463Y-4851860D01*
X25779538Y-4855515D01*
X25792829Y-4872102D01*
X25800588Y-4888393D01*
X25792600Y-4893564D01*
X25784571Y-4893849D01*
X25766245Y-4900981D01*
X25761254Y-4918011D01*
X25768708Y-4938389D01*
X25787717Y-4955565D01*
X25793329Y-4958250D01*
X25816147Y-4964587D01*
X25839987Y-4962039D01*
X25873619Y-4949621D01*
X25874879Y-4949083D01*
X25925832Y-4927242D01*
X25925832Y-4863960D01*
X25924873Y-4827467D01*
X25920208Y-4805761D01*
X25909151Y-4791907D01*
X25894087Y-4781926D01*
X25871565Y-4770097D01*
X25857858Y-4770115D01*
X25843701Y-4781814D01*
X25832733Y-4798091D01*
X25837457Y-4804587D01*
X25846953Y-4812232D01*
X25840751Y-4819470D01*
X25824548Y-4822005D01*
X25816169Y-4820643D01*
X25801902Y-4813744D01*
X25806891Y-4806451D01*
X25815217Y-4792111D01*
X25810710Y-4775517D01*
X25797600Y-4766368D01*
X25789824Y-4767337D01*
X25775357Y-4769444D01*
X25777699Y-4759389D01*
X25788860Y-4746562D01*
X25801898Y-4736977D01*
X25809392Y-4745176D01*
X25810445Y-4747808D01*
X25819737Y-4758448D01*
X25837698Y-4753105D01*
X25838684Y-4752582D01*
X25853033Y-4738059D01*
X25860491Y-4718065D01*
X25860406Y-4699745D01*
X25852127Y-4690242D01*
X25844282Y-4691188D01*
X25830040Y-4692190D01*
X25831454Y-4679259D01*
X25839840Y-4665510D01*
X25850691Y-4655665D01*
X25856890Y-4662791D01*
X25870480Y-4675042D01*
X25887755Y-4673086D01*
X25895898Y-4662889D01*
X25903638Y-4656460D01*
X25918033Y-4667031D01*
X25929690Y-4684699D01*
X25924405Y-4693414D01*
X25908459Y-4690781D01*
X25894835Y-4691567D01*
X25891489Y-4704669D01*
X25897019Y-4724063D01*
X25910018Y-4743721D01*
X25923369Y-4754748D01*
X25946294Y-4766078D01*
X25963912Y-4764900D01*
X25983172Y-4754574D01*
X26000542Y-4738310D01*
X26011393Y-4718044D01*
X26014355Y-4699846D01*
X26008058Y-4689789D01*
X25997571Y-4690781D01*
X25979581Y-4692737D01*
X25977094Y-4682171D01*
X25987997Y-4667031D01*
X26002956Y-4656355D01*
X26010132Y-4662889D01*
X26022830Y-4675074D01*
X26040250Y-4673031D01*
X26049141Y-4662791D01*
X26056616Y-4655868D01*
X26066190Y-4665510D01*
X26077049Y-4686073D01*
X26072106Y-4693542D01*
X26061748Y-4691188D01*
X26048907Y-4693205D01*
X26044603Y-4707788D01*
X26048182Y-4727794D01*
X26058995Y-4746079D01*
X26067346Y-4752582D01*
X26085794Y-4758533D01*
X26095296Y-4748546D01*
X26095585Y-4747808D01*
X26102906Y-4737047D01*
X26114696Y-4744134D01*
X26117171Y-4746562D01*
X26130932Y-4763865D01*
X26127830Y-4770177D01*
X26116206Y-4767337D01*
X26100555Y-4769785D01*
X26091554Y-4784150D01*
X26093435Y-4800734D01*
X26099139Y-4806451D01*
X26103589Y-4814568D01*
X26089861Y-4820643D01*
X26071166Y-4821349D01*
X26060089Y-4815555D01*
X26062327Y-4807558D01*
X26068573Y-4804587D01*
X26072528Y-4795286D01*
X26062330Y-4781814D01*
X26048070Y-4770067D01*
X26034329Y-4770146D01*
X26011944Y-4781926D01*
X25993734Y-4794679D01*
X25984237Y-4809897D01*
X25980666Y-4834652D01*
X25980198Y-4862448D01*
X25980198Y-4924218D01*
X26062286Y-4975381D01*
X26144373Y-5026544D01*
X26195484Y-5004424D01*
X26227444Y-4990162D01*
X26272017Y-4969715D01*
X26322210Y-4946307D01*
X26352880Y-4931820D01*
X26459167Y-4881334D01*
X26456177Y-4711310D01*
X26453186Y-4541285D01*
X26370890Y-4489030D01*
X26288593Y-4436775D01*
X26232511Y-4461438D01*
X26200124Y-4477002D01*
X26183252Y-4490372D01*
X26176946Y-4506701D01*
X26176174Y-4520107D01*
X26180384Y-4544537D01*
X26190731Y-4565231D01*
X26203229Y-4577243D01*
X26213893Y-4575624D01*
X26216648Y-4570369D01*
X26227023Y-4557406D01*
X26237673Y-4562425D01*
X26241157Y-4577315D01*
X26233483Y-4594085D01*
X26222129Y-4596344D01*
X26207148Y-4602255D01*
X26205278Y-4616968D01*
X26200582Y-4635124D01*
X26186250Y-4639103D01*
X26167553Y-4635364D01*
X26168993Y-4623524D01*
X26176378Y-4615032D01*
X26179596Y-4600854D01*
X26167945Y-4587464D01*
X26147815Y-4580237D01*
X26135665Y-4580790D01*
X26120187Y-4593163D01*
X26118689Y-4608780D01*
X26116261Y-4626791D01*
X26100510Y-4629540D01*
X26099941Y-4629455D01*
X26080437Y-4623888D01*
X26069425Y-4616601D01*
X26071921Y-4611607D01*
X26077043Y-4611143D01*
X26086302Y-4603707D01*
X26085609Y-4588151D01*
X26076838Y-4574607D01*
X26069754Y-4571728D01*
X26051365Y-4568404D01*
X26051572Y-4560740D01*
X26058462Y-4552790D01*
X26071709Y-4543440D01*
X26083139Y-4552695D01*
X26083484Y-4553164D01*
X26099007Y-4561215D01*
X26116556Y-4552145D01*
X26131704Y-4529601D01*
X26138491Y-4507847D01*
X26139928Y-4483441D01*
X26128783Y-4467043D01*
X26112436Y-4456164D01*
X26082409Y-4444283D01*
X26059445Y-4445515D01*
X26048258Y-4458733D01*
X26048981Y-4471290D01*
X26047463Y-4487750D01*
X26033340Y-4491537D01*
X26018740Y-4487495D01*
X26017633Y-4471428D01*
X26019227Y-4464354D01*
X26021088Y-4443843D01*
X26010470Y-4437279D01*
X26007397Y-4437171D01*
X25994102Y-4431146D01*
X25995345Y-4419972D01*
X26001102Y-4402638D01*
X26001945Y-4398225D01*
X26010361Y-4393795D01*
X26012818Y-4393678D01*
X26022465Y-4402484D01*
X26023692Y-4409988D01*
X26031091Y-4423973D01*
X26048350Y-4424153D01*
X26065010Y-4413250D01*
X26077273Y-4391702D01*
X26075279Y-4371835D01*
X26060311Y-4361353D01*
X26056311Y-4361058D01*
X26038643Y-4356504D01*
X26034565Y-4350184D01*
X26042924Y-4339729D01*
X26046080Y-4339311D01*
X26052574Y-4332650D01*
X26050875Y-4328438D01*
X26047899Y-4318174D01*
X26056038Y-4319774D01*
X26069639Y-4331258D01*
X26074141Y-4336593D01*
X26086789Y-4349574D01*
X26097086Y-4344760D01*
X26103131Y-4337401D01*
X26115119Y-4325398D01*
X26124630Y-4331368D01*
X26130406Y-4340120D01*
X26137585Y-4355948D01*
X26128297Y-4360841D01*
X26120887Y-4361058D01*
X26104326Y-4368048D01*
X26101341Y-4384941D01*
X26110801Y-4405622D01*
X26131574Y-4423977D01*
X26132647Y-4424590D01*
X26150743Y-4432521D01*
X26168606Y-4432494D01*
X26193748Y-4423539D01*
X26214196Y-4414080D01*
X26268341Y-4388241D01*
X26271523Y-4328338D01*
X26272462Y-4293275D01*
X26268771Y-4272682D01*
X26257818Y-4259375D01*
X26242603Y-4249472D01*
X26211471Y-4236987D01*
X26189086Y-4239210D01*
X26179204Y-4254953D01*
X26180494Y-4269077D01*
X26182179Y-4286850D01*
X26171176Y-4289491D01*
X26165097Y-4288109D01*
X26149631Y-4278457D01*
X26149711Y-4257769D01*
X26150017Y-4256521D01*
X26151556Y-4237047D01*
X26139276Y-4230805D01*
X26132827Y-4230578D01*
X26116535Y-4229120D01*
X26118890Y-4221203D01*
X26127198Y-4212505D01*
X26142893Y-4201133D01*
X26153164Y-4207235D01*
X26153800Y-4208232D01*
X26169621Y-4218131D01*
X26189020Y-4213238D01*
X26204337Y-4197375D01*
X26208538Y-4180916D01*
X26203349Y-4160188D01*
X26185460Y-4154465D01*
X26169908Y-4151767D01*
X26173198Y-4141476D01*
X26174492Y-4139873D01*
X26181390Y-4124018D01*
X26179448Y-4118127D01*
X26180601Y-4111542D01*
X26184979Y-4110972D01*
X26196221Y-4119749D01*
X26197664Y-4127282D01*
X26205567Y-4140205D01*
X26222520Y-4142970D01*
X26238386Y-4135659D01*
X26243078Y-4126916D01*
X26247856Y-4117912D01*
X26257074Y-4127337D01*
X26260278Y-4132353D01*
X26268155Y-4148857D01*
X26260495Y-4154150D01*
X26252123Y-4154465D01*
X26233980Y-4161502D01*
X26229633Y-4178646D01*
X26238211Y-4199950D01*
X26258841Y-4219468D01*
X26261921Y-4221314D01*
X26284884Y-4232414D01*
X26302445Y-4231859D01*
X26326235Y-4219276D01*
X26326249Y-4219267D01*
X26349121Y-4200789D01*
X26354192Y-4181812D01*
X26353216Y-4176884D01*
X26342798Y-4158864D01*
X26333330Y-4154465D01*
X26323895Y-4146089D01*
X26324993Y-4132719D01*
X26334274Y-4114850D01*
X26344715Y-4112314D01*
X26349884Y-4126517D01*
X26349890Y-4127282D01*
X26356916Y-4141202D01*
X26372716Y-4141688D01*
X26389368Y-4129247D01*
X26392512Y-4124564D01*
X26401170Y-4111811D01*
X26403746Y-4118037D01*
X26403926Y-4123658D01*
X26411315Y-4142428D01*
X26417848Y-4147264D01*
X26419719Y-4151668D01*
X26406975Y-4153607D01*
X26387834Y-4160028D01*
X26382510Y-4180898D01*
X26382510Y-4180916D01*
X26390056Y-4202892D01*
X26407542Y-4215945D01*
X26427242Y-4216419D01*
X26438234Y-4207277D01*
X26448028Y-4198398D01*
X26458457Y-4208832D01*
X26468603Y-4229764D01*
X26463297Y-4237047D01*
X26454286Y-4234932D01*
X26436930Y-4236073D01*
X26429620Y-4250037D01*
X26436170Y-4267783D01*
X26441032Y-4280400D01*
X26426433Y-4287983D01*
X26426243Y-4288032D01*
X26406908Y-4288618D01*
X26397228Y-4281848D01*
X26402420Y-4272522D01*
X26406907Y-4270247D01*
X26412631Y-4261861D01*
X26400097Y-4248037D01*
X26383169Y-4237724D01*
X26365908Y-4239499D01*
X26348449Y-4247633D01*
X26330694Y-4258664D01*
X26321426Y-4272591D01*
X26317993Y-4296162D01*
X26317664Y-4325999D01*
X26318057Y-4388241D01*
X26400442Y-4440581D01*
X26438504Y-4463320D01*
X26470557Y-4479824D01*
X26491685Y-4487676D01*
X26496305Y-4487749D01*
X26511233Y-4479773D01*
X26539185Y-4463063D01*
X26574962Y-4440754D01*
X26587499Y-4432762D01*
X26665216Y-4382947D01*
X26665216Y-4325417D01*
X26663958Y-4290631D01*
X26658110Y-4270047D01*
X26644561Y-4256170D01*
X26633577Y-4249197D01*
X26602636Y-4236881D01*
X26580381Y-4239292D01*
X26570628Y-4255200D01*
X26571932Y-4269077D01*
X26573630Y-4286842D01*
X26562584Y-4289472D01*
X26556202Y-4288022D01*
X26541555Y-4279621D01*
X26544758Y-4269660D01*
X26549051Y-4252460D01*
X26541603Y-4236198D01*
X26528303Y-4231292D01*
X26509982Y-4231451D01*
X26510876Y-4221426D01*
X26518636Y-4212505D01*
X26534331Y-4201133D01*
X26544602Y-4207235D01*
X26545239Y-4208232D01*
X26561059Y-4218131D01*
X26580458Y-4213238D01*
X26595775Y-4197375D01*
X26599976Y-4180916D01*
X26594788Y-4160188D01*
X26576898Y-4154465D01*
X26561347Y-4151767D01*
X26564636Y-4141476D01*
X26565930Y-4139873D01*
X26572828Y-4124018D01*
X26570886Y-4118127D01*
X26572040Y-4111542D01*
X26576417Y-4110972D01*
X26587659Y-4119749D01*
X26589103Y-4127282D01*
X26598168Y-4140565D01*
X26610849Y-4143592D01*
X26628559Y-4136793D01*
X26632596Y-4127282D01*
X26639422Y-4112828D01*
X26645281Y-4110972D01*
X26652592Y-4115337D01*
X26650812Y-4118127D01*
X26650507Y-4131201D01*
X26655768Y-4139873D01*
X26660836Y-4151122D01*
X26647316Y-4154442D01*
X26644800Y-4154465D01*
X26625891Y-4161478D01*
X26620990Y-4178586D01*
X26629368Y-4199891D01*
X26650295Y-4219496D01*
X26653040Y-4221131D01*
X26675351Y-4231919D01*
X26692551Y-4231422D01*
X26715578Y-4219006D01*
X26718211Y-4217345D01*
X26743507Y-4195743D01*
X26751329Y-4175979D01*
X26740902Y-4161455D01*
X26731719Y-4157946D01*
X26716433Y-4146183D01*
X26716677Y-4131781D01*
X26725970Y-4114427D01*
X26736434Y-4112605D01*
X26741329Y-4127282D01*
X26748355Y-4141202D01*
X26764154Y-4141688D01*
X26780806Y-4129247D01*
X26783951Y-4124564D01*
X26792608Y-4111811D01*
X26795185Y-4118037D01*
X26795364Y-4123658D01*
X26802753Y-4142428D01*
X26809287Y-4147264D01*
X26811157Y-4151668D01*
X26798413Y-4153607D01*
X26779273Y-4160028D01*
X26773948Y-4180898D01*
X26773948Y-4180916D01*
X26781494Y-4202892D01*
X26798980Y-4215945D01*
X26818681Y-4216419D01*
X26829672Y-4207277D01*
X26839466Y-4198398D01*
X26849895Y-4208832D01*
X26860042Y-4229764D01*
X26854736Y-4237047D01*
X26845725Y-4234932D01*
X26828395Y-4236314D01*
X26820562Y-4249974D01*
X26827088Y-4266320D01*
X26837528Y-4282373D01*
X26828184Y-4289702D01*
X26799229Y-4288229D01*
X26784822Y-4285684D01*
X26787550Y-4279949D01*
X26795695Y-4273698D01*
X26805554Y-4263610D01*
X26798266Y-4252550D01*
X26791362Y-4247021D01*
X26774407Y-4237519D01*
X26757216Y-4240214D01*
X26739714Y-4249572D01*
X26721774Y-4262320D01*
X26712501Y-4277905D01*
X26709098Y-4303458D01*
X26708709Y-4328616D01*
X26708709Y-4389344D01*
X26757929Y-4413257D01*
X26792538Y-4429200D01*
X26815083Y-4435563D01*
X26832757Y-4432872D01*
X26852749Y-4421657D01*
X26854732Y-4420363D01*
X26871194Y-4401676D01*
X26874945Y-4380662D01*
X26866200Y-4364903D01*
X26853067Y-4361058D01*
X26841933Y-4354090D01*
X26843462Y-4343859D01*
X26849219Y-4326525D01*
X26850061Y-4322112D01*
X26858477Y-4317682D01*
X26860935Y-4317565D01*
X26870581Y-4326371D01*
X26871808Y-4333875D01*
X26879129Y-4347613D01*
X26895107Y-4348563D01*
X26910765Y-4336665D01*
X26912319Y-4334153D01*
X26920956Y-4324964D01*
X26930942Y-4333816D01*
X26934698Y-4339589D01*
X26942274Y-4355726D01*
X26933932Y-4360801D01*
X26926267Y-4361058D01*
X26910045Y-4369351D01*
X26903903Y-4388140D01*
X26908563Y-4408293D01*
X26921627Y-4419697D01*
X26946871Y-4425832D01*
X26957770Y-4418067D01*
X26958794Y-4409988D01*
X26963788Y-4395241D01*
X26974276Y-4397243D01*
X26983446Y-4414486D01*
X26980857Y-4433817D01*
X26968404Y-4440652D01*
X26952746Y-4450053D01*
X26947808Y-4462384D01*
X26956230Y-4469636D01*
X26958794Y-4469791D01*
X26969603Y-4474783D01*
X26965407Y-4485232D01*
X26949173Y-4494342D01*
X26947932Y-4494685D01*
X26928203Y-4495007D01*
X26918584Y-4487233D01*
X26924611Y-4476247D01*
X26925997Y-4475337D01*
X26938670Y-4462238D01*
X26934414Y-4452136D01*
X26918005Y-4446681D01*
X26894219Y-4447522D01*
X26869090Y-4455680D01*
X26846034Y-4477438D01*
X26838564Y-4507743D01*
X26847585Y-4539099D01*
X26857481Y-4551769D01*
X26872400Y-4564045D01*
X26882787Y-4559831D01*
X26889551Y-4551220D01*
X26902248Y-4538528D01*
X26914856Y-4544101D01*
X26919670Y-4548719D01*
X26930272Y-4565705D01*
X26924233Y-4574068D01*
X26910205Y-4571713D01*
X26896219Y-4574919D01*
X26888246Y-4589167D01*
X26891324Y-4603773D01*
X26894030Y-4606000D01*
X26904193Y-4618327D01*
X26894890Y-4626812D01*
X26882688Y-4628230D01*
X26866729Y-4623084D01*
X26866820Y-4609728D01*
X26865573Y-4589510D01*
X26847747Y-4580613D01*
X26822260Y-4583144D01*
X26804256Y-4593213D01*
X26795598Y-4607676D01*
X26798854Y-4619340D01*
X26808381Y-4622017D01*
X26815742Y-4625592D01*
X26808618Y-4632954D01*
X26792395Y-4639059D01*
X26789679Y-4639530D01*
X26776275Y-4635095D01*
X26774972Y-4629248D01*
X26775043Y-4602315D01*
X26765112Y-4592831D01*
X26752202Y-4594833D01*
X26734070Y-4596284D01*
X26732683Y-4583979D01*
X26741495Y-4567650D01*
X26751825Y-4556982D01*
X26761497Y-4565798D01*
X26762246Y-4566951D01*
X26776077Y-4575499D01*
X26791024Y-4567434D01*
X26802637Y-4547166D01*
X26806568Y-4523009D01*
X26803600Y-4503254D01*
X26791535Y-4487731D01*
X26765639Y-4471349D01*
X26751828Y-4464165D01*
X26697088Y-4436426D01*
X26610476Y-4488331D01*
X26523863Y-4540236D01*
X26523863Y-4881155D01*
X26763778Y-5033942D01*
X27003692Y-5186730D01*
X27157934Y-5087585D01*
X27217280Y-5049439D01*
X27277776Y-5010558D01*
X27333821Y-4974540D01*
X27379817Y-4944983D01*
X27396444Y-4934300D01*
X27480712Y-4880160D01*
X27480315Y-4710314D01*
X27479918Y-4540467D01*
X27434104Y-4511648D01*
X27396786Y-4488548D01*
X27358973Y-4465699D01*
X27348644Y-4459592D01*
X27308999Y-4436356D01*
X27259374Y-4460465D01*
X27225534Y-4480492D01*
X27207763Y-4501654D01*
X27202750Y-4516441D01*
X27202392Y-4545527D01*
X27212464Y-4566810D01*
X27229028Y-4575390D01*
X27245121Y-4569157D01*
X27259237Y-4562477D01*
X27267413Y-4573699D01*
X27273365Y-4592763D01*
X27267866Y-4596557D01*
X27256712Y-4592908D01*
X27237753Y-4593850D01*
X27227716Y-4608176D01*
X27231238Y-4627947D01*
X27233967Y-4631843D01*
X27240875Y-4643042D01*
X27230638Y-4641682D01*
X27227019Y-4640362D01*
X27203832Y-4633889D01*
X27194399Y-4632723D01*
X27189799Y-4628735D01*
X27196873Y-4622948D01*
X27208241Y-4607431D01*
X27202824Y-4591580D01*
X27184652Y-4581353D01*
X27168167Y-4580514D01*
X27145927Y-4587336D01*
X27140182Y-4603320D01*
X27140381Y-4606095D01*
X27135685Y-4624251D01*
X27121353Y-4628230D01*
X27102900Y-4623538D01*
X27102743Y-4612572D01*
X27110545Y-4606000D01*
X27116778Y-4592773D01*
X27110834Y-4577519D01*
X27097754Y-4570923D01*
X27094370Y-4571713D01*
X27077361Y-4573093D01*
X27075428Y-4562101D01*
X27085542Y-4548082D01*
X27099692Y-4536949D01*
X27108953Y-4543020D01*
X27112788Y-4549448D01*
X27127849Y-4562179D01*
X27144733Y-4557761D01*
X27158778Y-4539805D01*
X27165324Y-4511920D01*
X27165387Y-4508715D01*
X27156885Y-4476016D01*
X27135341Y-4451663D01*
X27106700Y-4440771D01*
X27088778Y-4442765D01*
X27073332Y-4453761D01*
X27067379Y-4468796D01*
X27073072Y-4479484D01*
X27079042Y-4480664D01*
X27085847Y-4487175D01*
X27084468Y-4490516D01*
X27070415Y-4496111D01*
X27056414Y-4494625D01*
X27041660Y-4487063D01*
X27046384Y-4474501D01*
X27046488Y-4474375D01*
X27052874Y-4454525D01*
X27042080Y-4439888D01*
X27029847Y-4437171D01*
X27019787Y-4428963D01*
X27020884Y-4415424D01*
X27030164Y-4397555D01*
X27040606Y-4395020D01*
X27045774Y-4409223D01*
X27045781Y-4409988D01*
X27051288Y-4424156D01*
X27069812Y-4424077D01*
X27082948Y-4419697D01*
X27096136Y-4406286D01*
X27100116Y-4385890D01*
X27094930Y-4367769D01*
X27082674Y-4361058D01*
X27070393Y-4354573D01*
X27071801Y-4343859D01*
X27077558Y-4326525D01*
X27078401Y-4322112D01*
X27086817Y-4317682D01*
X27089274Y-4317565D01*
X27098920Y-4326371D01*
X27100147Y-4333875D01*
X27108851Y-4348290D01*
X27116457Y-4350184D01*
X27130872Y-4341481D01*
X27132767Y-4333875D01*
X27138312Y-4319221D01*
X27150013Y-4321318D01*
X27158787Y-4334764D01*
X27164687Y-4354078D01*
X27159373Y-4360507D01*
X27150345Y-4361058D01*
X27133873Y-4368842D01*
X27129485Y-4387088D01*
X27137246Y-4408134D01*
X27149843Y-4420363D01*
X27170350Y-4432260D01*
X27187942Y-4435677D01*
X27209810Y-4430084D01*
X27243147Y-4414954D01*
X27246646Y-4413257D01*
X27295866Y-4389344D01*
X27295866Y-4328616D01*
X27294768Y-4292828D01*
X27289608Y-4271618D01*
X27277588Y-4257853D01*
X27264861Y-4249572D01*
X27241906Y-4238055D01*
X27226529Y-4238866D01*
X27213213Y-4247910D01*
X27200443Y-4262217D01*
X27206229Y-4270247D01*
X27216198Y-4279448D01*
X27209921Y-4287355D01*
X27192619Y-4289168D01*
X27186893Y-4288032D01*
X27172139Y-4280470D01*
X27176863Y-4267909D01*
X27176967Y-4267783D01*
X27183466Y-4249236D01*
X27175598Y-4235678D01*
X27158850Y-4234932D01*
X27145435Y-4235407D01*
X27147364Y-4221551D01*
X27154680Y-4208832D01*
X27165240Y-4198416D01*
X27174845Y-4207183D01*
X27192047Y-4219201D01*
X27211360Y-4214536D01*
X27225692Y-4196210D01*
X27228630Y-4184274D01*
X27227941Y-4162324D01*
X27216084Y-4154810D01*
X27209510Y-4154465D01*
X27194088Y-4152115D01*
X27195607Y-4141090D01*
X27200530Y-4132719D01*
X27216284Y-4114213D01*
X27227321Y-4113693D01*
X27230627Y-4127282D01*
X27239330Y-4141698D01*
X27246936Y-4143592D01*
X27261352Y-4134888D01*
X27263246Y-4127282D01*
X27268133Y-4112507D01*
X27278504Y-4114516D01*
X27287925Y-4131905D01*
X27288144Y-4132719D01*
X27287456Y-4150747D01*
X27279807Y-4154465D01*
X27266149Y-4163587D01*
X27259920Y-4176884D01*
X27261341Y-4196464D01*
X27279485Y-4214475D01*
X27287721Y-4219774D01*
X27311055Y-4232637D01*
X27326851Y-4233693D01*
X27345984Y-4222703D01*
X27352119Y-4218362D01*
X27373979Y-4196653D01*
X27382582Y-4175273D01*
X27377191Y-4159507D01*
X27361014Y-4154465D01*
X27346178Y-4152100D01*
X27347802Y-4141027D01*
X27352859Y-4132353D01*
X27363647Y-4118429D01*
X27369143Y-4123202D01*
X27370058Y-4126916D01*
X27380704Y-4139988D01*
X27398269Y-4143032D01*
X27412618Y-4135964D01*
X27415472Y-4127282D01*
X27422299Y-4112828D01*
X27428158Y-4110972D01*
X27435469Y-4115337D01*
X27433689Y-4118127D01*
X27433384Y-4131201D01*
X27438645Y-4139873D01*
X27443653Y-4151033D01*
X27430225Y-4154428D01*
X27426921Y-4154465D01*
X27408916Y-4159452D01*
X27406561Y-4177820D01*
X27416223Y-4201173D01*
X27432985Y-4215514D01*
X27450347Y-4216827D01*
X27458288Y-4209787D01*
X27468090Y-4200559D01*
X27481128Y-4207864D01*
X27485939Y-4212505D01*
X27497561Y-4226040D01*
X27491419Y-4230281D01*
X27480310Y-4230578D01*
X27463438Y-4234243D01*
X27461539Y-4249399D01*
X27463119Y-4256521D01*
X27463802Y-4277837D01*
X27449075Y-4287829D01*
X27448040Y-4288109D01*
X27432733Y-4289006D01*
X27431048Y-4276283D01*
X27432768Y-4268580D01*
X27431330Y-4247044D01*
X27415793Y-4238394D01*
X27390170Y-4243485D01*
X27369261Y-4255074D01*
X27350820Y-4270849D01*
X27341965Y-4290311D01*
X27339405Y-4321652D01*
X27339359Y-4329551D01*
X27339359Y-4383550D01*
X27423627Y-4437542D01*
X27461392Y-4461235D01*
X27492221Y-4479638D01*
X27511608Y-4490105D01*
X27515601Y-4491536D01*
X27527658Y-4486070D01*
X27553343Y-4471456D01*
X27588034Y-4450374D01*
X27604723Y-4439889D01*
X27686139Y-4388241D01*
X27686722Y-4328064D01*
X27685976Y-4292522D01*
X27681009Y-4271506D01*
X27669041Y-4257843D01*
X27656299Y-4249572D01*
X27633344Y-4238055D01*
X27617967Y-4238866D01*
X27604651Y-4247910D01*
X27591881Y-4262217D01*
X27597668Y-4270247D01*
X27607636Y-4279448D01*
X27601360Y-4287355D01*
X27584057Y-4289168D01*
X27578332Y-4288032D01*
X27563577Y-4280470D01*
X27568301Y-4267909D01*
X27568405Y-4267783D01*
X27574905Y-4249236D01*
X27567037Y-4235678D01*
X27550289Y-4234932D01*
X27536873Y-4235407D01*
X27538802Y-4221551D01*
X27546118Y-4208832D01*
X27556679Y-4198416D01*
X27566283Y-4207183D01*
X27583485Y-4219201D01*
X27602798Y-4214536D01*
X27617130Y-4196210D01*
X27620069Y-4184274D01*
X27619379Y-4162324D01*
X27607522Y-4154810D01*
X27600948Y-4154465D01*
X27585526Y-4152115D01*
X27587045Y-4141090D01*
X27591968Y-4132719D01*
X27607722Y-4114213D01*
X27618760Y-4113693D01*
X27622065Y-4127282D01*
X27630769Y-4141698D01*
X27638375Y-4143592D01*
X27652790Y-4134888D01*
X27654685Y-4127282D01*
X27659572Y-4112507D01*
X27669942Y-4114516D01*
X27679363Y-4131905D01*
X27679582Y-4132719D01*
X27678712Y-4150885D01*
X27669977Y-4154465D01*
X27656412Y-4161921D01*
X27654808Y-4179824D01*
X27663748Y-4201474D01*
X27681815Y-4220174D01*
X27684200Y-4221703D01*
X27705831Y-4232813D01*
X27722198Y-4231698D01*
X27744003Y-4218045D01*
X27765652Y-4196432D01*
X27774040Y-4175098D01*
X27768456Y-4159393D01*
X27752452Y-4154465D01*
X27737616Y-4152100D01*
X27739240Y-4141027D01*
X27744297Y-4132353D01*
X27755085Y-4118429D01*
X27760582Y-4123202D01*
X27761497Y-4126916D01*
X27772142Y-4139988D01*
X27789707Y-4143032D01*
X27804056Y-4135964D01*
X27806911Y-4127282D01*
X27812782Y-4112812D01*
X27817784Y-4110972D01*
X27828348Y-4118594D01*
X27828657Y-4120956D01*
X27832244Y-4139309D01*
X27834953Y-4147346D01*
X27834993Y-4158841D01*
X27819018Y-4157938D01*
X27818643Y-4157840D01*
X27800797Y-4157815D01*
X27796038Y-4172769D01*
X27802497Y-4197197D01*
X27809085Y-4206657D01*
X27828769Y-4217447D01*
X27850231Y-4218717D01*
X27863089Y-4209903D01*
X27871911Y-4208323D01*
X27880734Y-4215340D01*
X27888030Y-4226959D01*
X27876912Y-4230484D01*
X27871312Y-4230578D01*
X27854540Y-4234495D01*
X27851865Y-4250380D01*
X27853065Y-4257761D01*
X27853322Y-4278496D01*
X27841061Y-4284900D01*
X27839041Y-4284945D01*
X27824863Y-4278666D01*
X27825115Y-4264696D01*
X27822135Y-4246512D01*
X27805652Y-4238366D01*
X27782165Y-4241755D01*
X27765970Y-4251050D01*
X27750970Y-4269730D01*
X27742649Y-4299993D01*
X27739877Y-4328438D01*
X27736234Y-4388241D01*
X27789136Y-4414464D01*
X27820642Y-4429183D01*
X27840620Y-4434433D01*
X27856695Y-4431047D01*
X27870686Y-4423396D01*
X27892845Y-4404139D01*
X27903041Y-4383599D01*
X27900105Y-4367376D01*
X27883688Y-4361058D01*
X27868216Y-4358656D01*
X27869844Y-4347494D01*
X27874500Y-4339589D01*
X27885886Y-4325536D01*
X27894307Y-4329917D01*
X27896879Y-4334153D01*
X27911831Y-4347738D01*
X27928278Y-4348466D01*
X27937243Y-4336398D01*
X27937390Y-4333875D01*
X27944217Y-4319420D01*
X27950076Y-4317565D01*
X27957387Y-4321929D01*
X27955607Y-4324719D01*
X27955302Y-4337793D01*
X27960563Y-4346466D01*
X27965631Y-4357715D01*
X27952111Y-4361035D01*
X27949595Y-4361058D01*
X27931449Y-4368520D01*
X27926529Y-4385792D01*
X27935123Y-4405202D01*
X27947549Y-4415042D01*
X27969872Y-4425010D01*
X27979293Y-4421838D01*
X27980883Y-4409988D01*
X27986755Y-4395518D01*
X27991757Y-4393678D01*
X28001553Y-4402418D01*
X28002630Y-4409081D01*
X28010851Y-4426542D01*
X28016222Y-4429970D01*
X28017865Y-4434299D01*
X28004170Y-4436312D01*
X27986032Y-4440169D01*
X27983231Y-4454408D01*
X27985348Y-4464354D01*
X27987323Y-4484628D01*
X27976624Y-4491301D01*
X27971235Y-4491537D01*
X27955688Y-4485906D01*
X27955594Y-4471290D01*
X27953285Y-4451705D01*
X27936514Y-4443453D01*
X27910027Y-4447672D01*
X27892349Y-4456125D01*
X27869690Y-4474315D01*
X27865221Y-4493405D01*
X27865998Y-4496935D01*
X27871069Y-4524079D01*
X27872002Y-4536480D01*
X27880222Y-4552390D01*
X27898094Y-4560745D01*
X27915906Y-4558770D01*
X27922723Y-4550981D01*
X27930853Y-4541764D01*
X27942663Y-4549106D01*
X27951667Y-4563997D01*
X27948714Y-4574354D01*
X27936562Y-4572575D01*
X27924887Y-4575506D01*
X27919419Y-4584368D01*
X27920754Y-4604683D01*
X27927651Y-4612074D01*
X27935321Y-4620218D01*
X27930125Y-4621850D01*
X27909357Y-4625689D01*
X27898968Y-4629098D01*
X27886071Y-4630778D01*
X27886469Y-4617629D01*
X27887728Y-4613450D01*
X27887080Y-4590376D01*
X27872716Y-4577181D01*
X27851638Y-4577142D01*
X27834754Y-4588667D01*
X27823634Y-4607609D01*
X27827949Y-4616142D01*
X27839143Y-4628982D01*
X27830432Y-4637676D01*
X27818325Y-4639103D01*
X27801597Y-4632337D01*
X27799297Y-4616968D01*
X27794940Y-4599210D01*
X27782446Y-4596344D01*
X27766345Y-4589338D01*
X27763418Y-4577315D01*
X27768847Y-4560064D01*
X27779923Y-4558174D01*
X27787470Y-4569132D01*
X27796271Y-4575569D01*
X27813240Y-4567965D01*
X27828684Y-4551073D01*
X27831221Y-4523684D01*
X27830686Y-4518424D01*
X27825539Y-4495912D01*
X27812903Y-4480225D01*
X27787247Y-4465734D01*
X27772480Y-4459175D01*
X27718479Y-4435944D01*
X27551389Y-4543388D01*
X27552917Y-4715294D01*
X27554446Y-4887200D01*
X27704431Y-4955764D01*
X27757002Y-4979597D01*
X27802459Y-4999829D01*
X27837202Y-5014887D01*
X27857627Y-5023196D01*
X27861360Y-5024328D01*
X27873088Y-5018843D01*
X27898355Y-5004216D01*
X27932487Y-4983194D01*
X27946339Y-4974401D01*
X28024377Y-4924473D01*
X28024377Y-4859998D01*
X28023419Y-4823109D01*
X28019120Y-4801745D01*
X28009337Y-4789718D01*
X27997887Y-4783453D01*
X27969933Y-4776626D01*
X27948259Y-4781327D01*
X27939170Y-4795704D01*
X27939598Y-4800567D01*
X27940009Y-4812398D01*
X27930397Y-4816980D01*
X27907489Y-4817569D01*
X27895301Y-4815528D01*
X27903539Y-4807855D01*
X27903636Y-4807793D01*
X27913411Y-4790716D01*
X27911868Y-4780088D01*
X27901440Y-4767813D01*
X27894725Y-4768294D01*
X27882264Y-4770044D01*
X27879880Y-4759473D01*
X27889196Y-4744293D01*
X27889602Y-4743912D01*
X27902298Y-4736592D01*
X27904770Y-4741950D01*
X27913770Y-4749998D01*
X27929235Y-4750534D01*
X27949032Y-4740667D01*
X27957285Y-4715662D01*
X27957499Y-4694056D01*
X27949451Y-4689175D01*
X27943693Y-4690856D01*
X27928803Y-4692228D01*
X27929801Y-4679646D01*
X27938385Y-4665510D01*
X27949236Y-4655665D01*
X27955434Y-4662791D01*
X27969025Y-4675042D01*
X27986299Y-4673086D01*
X27994443Y-4662889D01*
X28002473Y-4656915D01*
X28017872Y-4668325D01*
X28030360Y-4682363D01*
X28025973Y-4686883D01*
X28014280Y-4687256D01*
X27995593Y-4694270D01*
X27990879Y-4711481D01*
X27999319Y-4733146D01*
X28020094Y-4753522D01*
X28024084Y-4756030D01*
X28047559Y-4768067D01*
X28064145Y-4768127D01*
X28083887Y-4757124D01*
X28102790Y-4737262D01*
X28111072Y-4713742D01*
X28107575Y-4693828D01*
X28095339Y-4685335D01*
X28085222Y-4678051D01*
X28090730Y-4665510D01*
X28101493Y-4655668D01*
X28107660Y-4662791D01*
X28121632Y-4675154D01*
X28139525Y-4672608D01*
X28147685Y-4662791D01*
X28155161Y-4655868D01*
X28164735Y-4665510D01*
X28175593Y-4686073D01*
X28170650Y-4693542D01*
X28160293Y-4691188D01*
X28147452Y-4693205D01*
X28143147Y-4707788D01*
X28146727Y-4727794D01*
X28157540Y-4746079D01*
X28165891Y-4752582D01*
X28184317Y-4758517D01*
X28193872Y-4748455D01*
X28194237Y-4747528D01*
X28205233Y-4732843D01*
X28211027Y-4730750D01*
X28216434Y-4737480D01*
X28214659Y-4741623D01*
X28215521Y-4751642D01*
X28219454Y-4752496D01*
X28230529Y-4760150D01*
X28230969Y-4763028D01*
X28223006Y-4769028D01*
X28214751Y-4767337D01*
X28199099Y-4769785D01*
X28190099Y-4784150D01*
X28191980Y-4800734D01*
X28197684Y-4806451D01*
X28202134Y-4814568D01*
X28188406Y-4820643D01*
X28169711Y-4821349D01*
X28158633Y-4815555D01*
X28160872Y-4807558D01*
X28167118Y-4804587D01*
X28171073Y-4795286D01*
X28160874Y-4781814D01*
X28146681Y-4770121D01*
X28132965Y-4770146D01*
X28110433Y-4781958D01*
X28110037Y-4782192D01*
X28092106Y-4794287D01*
X28082863Y-4807841D01*
X28079959Y-4829627D01*
X28081010Y-4865793D01*
X28084180Y-4930376D01*
X28136335Y-4951735D01*
X28169569Y-4963900D01*
X28191539Y-4966844D01*
X28210319Y-4961290D01*
X28215166Y-4958817D01*
X28232676Y-4942517D01*
X28241538Y-4921399D01*
X28240472Y-4902765D01*
X28228199Y-4893916D01*
X28226550Y-4893849D01*
X28215866Y-4885857D01*
X28216945Y-4872102D01*
X28226226Y-4854233D01*
X28236668Y-4851698D01*
X28241836Y-4865901D01*
X28241842Y-4866666D01*
X28250546Y-4881081D01*
X28258152Y-4882976D01*
X28272568Y-4874272D01*
X28274462Y-4866666D01*
X28279349Y-4851890D01*
X28289720Y-4853900D01*
X28299140Y-4871288D01*
X28299359Y-4872102D01*
X28298436Y-4890276D01*
X28289032Y-4893849D01*
X28277333Y-4901805D01*
X28275338Y-4920182D01*
X28281578Y-4940742D01*
X28294587Y-4955248D01*
X28300342Y-4957347D01*
X28321896Y-4953855D01*
X28330244Y-4946567D01*
X28340031Y-4937814D01*
X28350409Y-4948215D01*
X28360556Y-4969148D01*
X28355249Y-4976430D01*
X28346238Y-4974316D01*
X28328882Y-4975456D01*
X28321572Y-4989421D01*
X28328122Y-5007167D01*
X28333041Y-5019865D01*
X28318814Y-5027254D01*
X28296347Y-5028759D01*
X28290247Y-5019164D01*
X28297005Y-5007059D01*
X28300803Y-4993340D01*
X28286148Y-4981270D01*
X28257745Y-4976410D01*
X28231974Y-4988956D01*
X28214163Y-5014739D01*
X28209222Y-5041506D01*
X28214840Y-5070696D01*
X28228595Y-5089641D01*
X28245838Y-5094874D01*
X28261923Y-5082925D01*
X28262809Y-5081485D01*
X28273106Y-5068732D01*
X28282416Y-5075020D01*
X28284970Y-5078695D01*
X28295283Y-5100171D01*
X28290578Y-5109223D01*
X28279487Y-5107225D01*
X28261936Y-5109947D01*
X28255784Y-5119001D01*
X28255788Y-5136265D01*
X28261633Y-5141470D01*
X28274114Y-5151063D01*
X28268799Y-5160299D01*
X28252717Y-5162691D01*
X28236711Y-5155808D01*
X28236862Y-5142498D01*
X28233485Y-5125448D01*
X28215721Y-5115348D01*
X28190619Y-5115480D01*
X28183571Y-5117668D01*
X28169538Y-5129664D01*
X28166209Y-5144978D01*
X28174858Y-5154428D01*
X28178415Y-5154808D01*
X28186202Y-5158130D01*
X28179073Y-5165208D01*
X28162298Y-5171708D01*
X28156469Y-5172853D01*
X28141040Y-5168889D01*
X28137721Y-5151732D01*
X28132252Y-5132281D01*
X28120294Y-5129005D01*
X28105502Y-5122131D01*
X28103580Y-5109977D01*
X28109016Y-5093987D01*
X28117567Y-5089391D01*
X28122229Y-5099768D01*
X28122236Y-5100441D01*
X28129912Y-5110169D01*
X28146661Y-5109080D01*
X28163061Y-5097802D01*
X28163125Y-5097723D01*
X28169370Y-5077963D01*
X28168915Y-5050538D01*
X28162276Y-5028549D01*
X28146787Y-5012570D01*
X28116777Y-4997121D01*
X28111146Y-4994710D01*
X28058520Y-4972476D01*
X27975300Y-5025794D01*
X27892081Y-5079113D01*
X27899850Y-5163172D01*
X27905671Y-5217072D01*
X27912830Y-5253829D01*
X27923624Y-5278028D01*
X27940346Y-5294252D01*
X27965291Y-5307084D01*
X27973603Y-5310509D01*
X28004138Y-5321864D01*
X28023310Y-5324604D01*
X28039673Y-5318854D01*
X28051332Y-5311620D01*
X28069826Y-5292756D01*
X28077073Y-5271927D01*
X28072763Y-5255568D01*
X28056586Y-5250118D01*
X28054278Y-5250426D01*
X28037454Y-5249521D01*
X28039397Y-5237845D01*
X28048703Y-5226475D01*
X28061826Y-5218117D01*
X28074818Y-5228302D01*
X28075886Y-5229652D01*
X28087537Y-5240773D01*
X28098310Y-5235327D01*
X28106356Y-5225537D01*
X28119987Y-5211315D01*
X28129377Y-5214450D01*
X28133372Y-5220100D01*
X28143020Y-5241533D01*
X28135575Y-5251251D01*
X28122236Y-5252667D01*
X28104853Y-5259960D01*
X28100787Y-5277004D01*
X28109795Y-5296551D01*
X28124094Y-5308028D01*
X28144501Y-5314926D01*
X28158276Y-5306097D01*
X28160039Y-5303782D01*
X28170900Y-5293259D01*
X28180737Y-5300651D01*
X28185457Y-5307842D01*
X28192673Y-5323684D01*
X28183630Y-5328574D01*
X28176695Y-5328780D01*
X28158912Y-5335557D01*
X28154856Y-5345090D01*
X28161682Y-5359544D01*
X28167541Y-5361400D01*
X28175430Y-5364667D01*
X28168314Y-5371676D01*
X28151439Y-5378239D01*
X28144781Y-5379570D01*
X28129720Y-5377078D01*
X28129628Y-5362667D01*
X28127241Y-5343253D01*
X28110414Y-5335067D01*
X28083984Y-5339266D01*
X28066580Y-5347582D01*
X28044953Y-5363697D01*
X28039019Y-5381775D01*
X28041394Y-5399265D01*
X28052503Y-5429683D01*
X28068617Y-5448464D01*
X28085596Y-5452098D01*
X28095064Y-5444774D01*
X28106858Y-5435142D01*
X28119657Y-5443941D01*
X28132059Y-5460931D01*
X28127300Y-5466075D01*
X28116891Y-5463227D01*
X28100660Y-5464840D01*
X28092552Y-5478657D01*
X28095271Y-5495818D01*
X28104246Y-5504639D01*
X28119509Y-5520629D01*
X28122236Y-5530476D01*
X28130952Y-5544420D01*
X28138546Y-5546246D01*
X28152962Y-5537542D01*
X28154856Y-5529936D01*
X28160401Y-5515282D01*
X28172102Y-5517380D01*
X28180876Y-5530825D01*
X28186745Y-5550128D01*
X28181108Y-5556554D01*
X28171166Y-5557119D01*
X28156972Y-5564639D01*
X28154603Y-5582523D01*
X28162808Y-5603762D01*
X28180336Y-5621345D01*
X28182894Y-5622817D01*
X28206584Y-5632018D01*
X28227673Y-5627902D01*
X28239979Y-5621572D01*
X28261904Y-5603220D01*
X28272595Y-5582447D01*
X28270827Y-5565138D01*
X28255379Y-5557176D01*
X28253380Y-5557119D01*
X28237908Y-5554718D01*
X28239536Y-5543556D01*
X28244192Y-5535651D01*
X28255577Y-5521598D01*
X28263998Y-5525979D01*
X28266571Y-5530214D01*
X28281523Y-5543800D01*
X28297969Y-5544528D01*
X28306934Y-5532460D01*
X28307082Y-5529936D01*
X28312627Y-5515282D01*
X28324328Y-5517380D01*
X28333102Y-5530825D01*
X28338830Y-5550109D01*
X28331768Y-5556519D01*
X28317955Y-5557119D01*
X28300683Y-5564548D01*
X28296442Y-5581773D01*
X28305202Y-5601207D01*
X28318180Y-5611606D01*
X28339724Y-5617847D01*
X28354846Y-5613939D01*
X28356721Y-5602029D01*
X28355547Y-5599861D01*
X28355564Y-5590332D01*
X28358191Y-5589739D01*
X28370234Y-5597911D01*
X28380672Y-5611486D01*
X28388381Y-5627760D01*
X28380034Y-5632933D01*
X28371235Y-5633232D01*
X28354714Y-5637249D01*
X28353354Y-5653278D01*
X28354466Y-5658129D01*
X28355166Y-5677796D01*
X28341359Y-5684479D01*
X28340554Y-5684545D01*
X28325571Y-5680158D01*
X28325487Y-5666584D01*
X28322624Y-5647678D01*
X28305834Y-5639053D01*
X28281206Y-5642500D01*
X28267493Y-5649546D01*
X28252533Y-5662502D01*
X28244795Y-5680611D01*
X28242075Y-5710691D01*
X28241897Y-5728624D01*
X28241953Y-5790895D01*
X28324842Y-5843107D01*
X28407732Y-5895318D01*
X28490605Y-5842683D01*
X28573478Y-5790047D01*
X28573478Y-5727265D01*
X28572399Y-5690629D01*
X28567501Y-5668809D01*
X28556293Y-5654912D01*
X28544402Y-5646840D01*
X28521424Y-5635791D01*
X28505503Y-5638193D01*
X28498057Y-5643531D01*
X28487217Y-5660199D01*
X28491699Y-5671014D01*
X28497977Y-5686577D01*
X28486334Y-5692835D01*
X28469323Y-5690525D01*
X28455017Y-5682965D01*
X28460015Y-5670437D01*
X28466597Y-5651661D01*
X28458185Y-5638372D01*
X28440688Y-5638051D01*
X28429214Y-5638216D01*
X28430914Y-5627030D01*
X28436810Y-5606278D01*
X28437561Y-5599723D01*
X28445862Y-5590023D01*
X28448435Y-5589739D01*
X28458081Y-5598546D01*
X28459308Y-5606049D01*
X28464816Y-5620218D01*
X28483339Y-5620139D01*
X28496475Y-5615759D01*
X28509664Y-5602347D01*
X28513643Y-5581951D01*
X28508457Y-5563831D01*
X28496201Y-5557119D01*
X28483921Y-5550635D01*
X28485328Y-5539920D01*
X28491085Y-5522587D01*
X28491928Y-5518174D01*
X28500344Y-5513744D01*
X28502801Y-5513626D01*
X28512448Y-5522433D01*
X28513674Y-5529936D01*
X28522378Y-5544352D01*
X28529984Y-5546246D01*
X28544400Y-5537542D01*
X28546294Y-5529936D01*
X28551839Y-5515282D01*
X28563541Y-5517380D01*
X28572314Y-5530825D01*
X28578183Y-5550128D01*
X28572547Y-5556554D01*
X28562604Y-5557119D01*
X28548410Y-5564639D01*
X28546041Y-5582523D01*
X28554247Y-5603762D01*
X28571774Y-5621345D01*
X28574332Y-5622817D01*
X28598023Y-5632018D01*
X28619111Y-5627902D01*
X28631417Y-5621572D01*
X28653343Y-5603220D01*
X28664033Y-5582447D01*
X28662266Y-5565138D01*
X28646817Y-5557176D01*
X28644818Y-5557119D01*
X28629346Y-5554718D01*
X28630974Y-5543556D01*
X28635630Y-5535651D01*
X28647016Y-5521598D01*
X28655437Y-5525979D01*
X28658009Y-5530214D01*
X28672961Y-5543800D01*
X28689408Y-5544528D01*
X28698373Y-5532460D01*
X28698520Y-5529936D01*
X28704065Y-5515282D01*
X28715767Y-5517380D01*
X28724540Y-5530825D01*
X28730268Y-5550109D01*
X28723206Y-5556519D01*
X28709394Y-5557119D01*
X28692122Y-5564548D01*
X28687881Y-5581773D01*
X28696640Y-5601207D01*
X28709618Y-5611606D01*
X28731162Y-5617847D01*
X28746285Y-5613939D01*
X28748160Y-5602029D01*
X28746986Y-5599861D01*
X28747002Y-5590332D01*
X28749630Y-5589739D01*
X28761672Y-5597911D01*
X28772110Y-5611486D01*
X28779820Y-5627760D01*
X28771472Y-5632933D01*
X28762673Y-5633232D01*
X28746152Y-5637249D01*
X28744792Y-5653278D01*
X28745905Y-5658129D01*
X28746605Y-5677796D01*
X28732798Y-5684479D01*
X28731992Y-5684545D01*
X28717009Y-5680158D01*
X28716925Y-5666584D01*
X28714063Y-5647678D01*
X28697272Y-5639053D01*
X28672644Y-5642500D01*
X28658932Y-5649546D01*
X28644060Y-5662385D01*
X28636306Y-5680304D01*
X28633504Y-5710052D01*
X28633281Y-5729484D01*
X28633281Y-5792614D01*
X28686216Y-5817408D01*
X28717532Y-5831340D01*
X28737046Y-5836221D01*
X28752479Y-5832586D01*
X28768311Y-5823095D01*
X28787125Y-5804112D01*
X28794710Y-5783234D01*
X28790697Y-5766791D01*
X28774715Y-5761117D01*
X28771915Y-5761470D01*
X28755091Y-5760565D01*
X28757034Y-5748890D01*
X28766340Y-5737519D01*
X28779463Y-5729162D01*
X28792455Y-5739346D01*
X28793523Y-5740697D01*
X28805174Y-5751818D01*
X28815947Y-5746371D01*
X28823993Y-5736582D01*
X28837624Y-5722360D01*
X28847014Y-5725494D01*
X28851009Y-5731145D01*
X28860784Y-5753131D01*
X28853588Y-5761950D01*
X28842591Y-5761470D01*
X28825901Y-5766182D01*
X28819606Y-5782407D01*
X28824144Y-5802325D01*
X28839438Y-5817845D01*
X28861264Y-5824333D01*
X28876620Y-5820703D01*
X28878798Y-5808966D01*
X28877465Y-5806454D01*
X28878373Y-5796958D01*
X28881561Y-5796332D01*
X28893894Y-5805037D01*
X28898513Y-5813531D01*
X28904620Y-5833665D01*
X28900062Y-5837386D01*
X28894163Y-5834341D01*
X28881878Y-5836866D01*
X28876268Y-5845670D01*
X28877603Y-5865985D01*
X28884500Y-5873376D01*
X28894832Y-5882030D01*
X28894240Y-5883960D01*
X28880346Y-5886533D01*
X28865417Y-5889330D01*
X28848393Y-5889094D01*
X28846802Y-5875736D01*
X28847622Y-5872344D01*
X28845856Y-5851921D01*
X28829109Y-5843913D01*
X28800860Y-5849239D01*
X28785767Y-5856000D01*
X28763025Y-5870297D01*
X28755925Y-5886069D01*
X28758881Y-5908435D01*
X28765416Y-5934880D01*
X28770963Y-5951003D01*
X28771117Y-5951276D01*
X28785115Y-5958459D01*
X28805494Y-5958156D01*
X28819379Y-5950800D01*
X28819939Y-5949629D01*
X28828760Y-5948049D01*
X28837583Y-5955066D01*
X28845012Y-5966846D01*
X28833689Y-5970246D01*
X28829429Y-5970304D01*
X28811044Y-5977248D01*
X28808852Y-5994166D01*
X28820301Y-6011623D01*
X28826207Y-6020941D01*
X28816882Y-6024740D01*
X28789218Y-6024236D01*
X28788225Y-6024177D01*
X28782862Y-6014890D01*
X28783245Y-6003769D01*
X28778282Y-5984216D01*
X28760067Y-5975921D01*
X28735258Y-5981394D01*
X28730710Y-5983969D01*
X28711791Y-6000395D01*
X28713623Y-6014033D01*
X28720267Y-6019234D01*
X28730843Y-6031783D01*
X28721771Y-6040358D01*
X28709771Y-6041757D01*
X28694753Y-6037699D01*
X28693622Y-6021581D01*
X28695064Y-6015217D01*
X28697481Y-5996355D01*
X28687877Y-5992732D01*
X28678387Y-5994780D01*
X28657491Y-5995752D01*
X28648960Y-5991030D01*
X28651027Y-5981855D01*
X28655027Y-5981178D01*
X28662369Y-5974754D01*
X28660928Y-5971056D01*
X28661937Y-5957071D01*
X28664584Y-5954808D01*
X28676099Y-5957800D01*
X28681200Y-5966155D01*
X28691436Y-5976908D01*
X28703881Y-5971051D01*
X28714724Y-5952870D01*
X28720155Y-5926652D01*
X28720267Y-5922210D01*
X28717695Y-5899982D01*
X28706541Y-5884289D01*
X28681643Y-5869004D01*
X28671046Y-5863738D01*
X28640568Y-5849897D01*
X28617725Y-5841264D01*
X28611113Y-5839825D01*
X28597648Y-5845499D01*
X28571210Y-5860597D01*
X28536752Y-5882234D01*
X28524892Y-5890035D01*
X28487316Y-5915835D01*
X28464168Y-5935066D01*
X28451349Y-5952545D01*
X28444760Y-5973088D01*
X28442369Y-5987018D01*
X28440325Y-6016977D01*
X28440202Y-6062014D01*
X28441916Y-6115553D01*
X28444613Y-6160933D01*
X28453871Y-6288073D01*
X28603089Y-6359036D01*
X28752306Y-6429998D01*
X28834006Y-6376842D01*
X28915705Y-6323686D01*
X28915846Y-6262415D01*
X28914630Y-6225701D01*
X28909201Y-6203662D01*
X28897209Y-6189307D01*
X28889373Y-6183707D01*
X28862456Y-6172676D01*
X28841348Y-6175171D01*
X28831596Y-6189588D01*
X28832542Y-6200143D01*
X28831024Y-6216603D01*
X28816901Y-6220390D01*
X28802302Y-6216347D01*
X28801195Y-6200280D01*
X28802788Y-6193207D01*
X28804834Y-6173080D01*
X28793888Y-6166370D01*
X28786257Y-6166023D01*
X28770471Y-6163808D01*
X28773707Y-6154433D01*
X28776923Y-6150785D01*
X28789836Y-6142508D01*
X28794568Y-6145348D01*
X28807361Y-6154116D01*
X28828033Y-6153366D01*
X28845325Y-6143911D01*
X28847081Y-6141559D01*
X28857225Y-6114685D01*
X28849440Y-6097250D01*
X28840354Y-6093187D01*
X28825707Y-6081219D01*
X28826095Y-6067226D01*
X28835447Y-6049743D01*
X28845890Y-6048284D01*
X28850746Y-6063525D01*
X28858619Y-6076334D01*
X28869775Y-6076470D01*
X28884529Y-6067002D01*
X28886085Y-6059363D01*
X28887880Y-6047287D01*
X28898484Y-6050488D01*
X28912971Y-6067385D01*
X28913463Y-6068164D01*
X28921222Y-6084455D01*
X28913233Y-6089626D01*
X28905205Y-6089910D01*
X28887421Y-6096896D01*
X28884088Y-6114307D01*
X28894658Y-6136823D01*
X28911833Y-6154217D01*
X28932744Y-6168674D01*
X28948766Y-6169763D01*
X28971412Y-6158231D01*
X28971636Y-6158099D01*
X28991464Y-6140075D01*
X29002298Y-6118443D01*
X29002620Y-6099649D01*
X28990915Y-6090140D01*
X28987680Y-6089910D01*
X28976996Y-6081918D01*
X28978075Y-6068164D01*
X28987356Y-6050295D01*
X28997798Y-6047759D01*
X29002966Y-6061963D01*
X29002972Y-6062727D01*
X29011676Y-6077143D01*
X29019282Y-6079037D01*
X29033698Y-6070333D01*
X29035592Y-6062727D01*
X29040479Y-6047952D01*
X29050850Y-6049961D01*
X29060271Y-6067350D01*
X29060489Y-6068164D01*
X29059620Y-6086330D01*
X29050884Y-6089910D01*
X29038857Y-6099312D01*
X29035592Y-6116361D01*
X29043138Y-6138338D01*
X29060624Y-6151390D01*
X29080324Y-6151865D01*
X29091316Y-6142722D01*
X29101110Y-6133843D01*
X29111539Y-6144277D01*
X29121686Y-6165210D01*
X29116379Y-6172492D01*
X29107369Y-6170378D01*
X29090012Y-6171518D01*
X29082702Y-6185482D01*
X29089252Y-6203228D01*
X29094114Y-6215845D01*
X29079515Y-6223428D01*
X29079325Y-6223478D01*
X29059085Y-6223894D01*
X29050074Y-6215801D01*
X29057302Y-6204156D01*
X29058809Y-6203172D01*
X29063567Y-6192878D01*
X29051935Y-6181013D01*
X29034743Y-6172822D01*
X29015646Y-6177250D01*
X29001358Y-6185017D01*
X28983418Y-6197766D01*
X28974145Y-6213350D01*
X28970742Y-6238904D01*
X28970353Y-6264061D01*
X28970353Y-6324789D01*
X29020905Y-6349350D01*
X29053759Y-6363618D01*
X29076624Y-6367704D01*
X29098029Y-6362833D01*
X29102455Y-6361071D01*
X29122745Y-6346094D01*
X29133573Y-6325968D01*
X29133537Y-6307381D01*
X29121235Y-6297023D01*
X29115979Y-6296503D01*
X29103698Y-6290018D01*
X29105105Y-6279304D01*
X29110862Y-6261971D01*
X29111705Y-6257557D01*
X29120121Y-6253128D01*
X29122579Y-6253010D01*
X29132225Y-6261817D01*
X29133452Y-6269320D01*
X29142156Y-6283735D01*
X29149762Y-6285630D01*
X29164177Y-6276926D01*
X29166072Y-6269320D01*
X29171617Y-6254666D01*
X29183318Y-6256763D01*
X29192092Y-6270209D01*
X29197960Y-6289511D01*
X29192324Y-6295938D01*
X29182382Y-6296503D01*
X29169871Y-6304849D01*
X29166241Y-6323693D01*
X29171349Y-6343748D01*
X29183271Y-6355143D01*
X29208515Y-6361277D01*
X29219414Y-6353512D01*
X29220438Y-6345433D01*
X29225325Y-6330657D01*
X29235696Y-6332667D01*
X29245116Y-6350056D01*
X29245335Y-6350869D01*
X29244827Y-6368242D01*
X29230294Y-6372616D01*
X29213232Y-6379692D01*
X29209565Y-6388926D01*
X29215436Y-6403396D01*
X29220438Y-6405236D01*
X29230996Y-6413510D01*
X29231311Y-6416109D01*
X29221967Y-6424141D01*
X29202797Y-6426982D01*
X29183713Y-6425031D01*
X29183003Y-6417062D01*
X29187189Y-6411431D01*
X29193264Y-6397371D01*
X29180896Y-6385658D01*
X29177758Y-6383924D01*
X29149355Y-6379064D01*
X29123584Y-6391610D01*
X29105773Y-6417393D01*
X29100832Y-6444160D01*
X29106450Y-6473350D01*
X29120205Y-6492295D01*
X29137448Y-6497528D01*
X29153532Y-6485580D01*
X29154419Y-6484139D01*
X29164715Y-6471386D01*
X29174025Y-6477674D01*
X29176580Y-6481349D01*
X29186905Y-6502204D01*
X29181476Y-6509405D01*
X29171600Y-6507063D01*
X29154659Y-6510200D01*
X29147897Y-6520343D01*
X29147171Y-6538668D01*
X29153242Y-6544124D01*
X29165657Y-6553101D01*
X29159331Y-6561310D01*
X29144332Y-6563675D01*
X29128396Y-6558581D01*
X29128545Y-6544921D01*
X29125844Y-6525452D01*
X29109146Y-6512907D01*
X29086036Y-6511552D01*
X29076086Y-6515431D01*
X29061567Y-6530117D01*
X29057756Y-6546760D01*
X29065868Y-6556922D01*
X29070024Y-6557462D01*
X29078070Y-6560646D01*
X29070978Y-6567550D01*
X29053951Y-6574198D01*
X29045988Y-6575826D01*
X29031114Y-6575085D01*
X29028968Y-6562370D01*
X29031560Y-6550300D01*
X29034715Y-6530136D01*
X29026753Y-6525334D01*
X29014589Y-6527798D01*
X28997307Y-6529502D01*
X28996030Y-6519508D01*
X28996677Y-6517723D01*
X29002275Y-6499939D01*
X29002972Y-6495438D01*
X29009783Y-6496377D01*
X29019828Y-6503548D01*
X29039674Y-6510348D01*
X29055902Y-6500007D01*
X29064653Y-6477129D01*
X29063395Y-6451552D01*
X29053427Y-6428327D01*
X29031818Y-6409523D01*
X29004611Y-6395130D01*
X28952899Y-6370909D01*
X28868689Y-6423411D01*
X28784480Y-6475912D01*
X28791023Y-6546589D01*
X28796505Y-6603155D01*
X28801839Y-6642219D01*
X28808882Y-6667932D01*
X28819493Y-6684446D01*
X28835529Y-6695912D01*
X28858849Y-6706482D01*
X28863434Y-6708390D01*
X28895778Y-6720963D01*
X28916020Y-6724951D01*
X28931836Y-6720814D01*
X28944512Y-6713245D01*
X28961807Y-6694432D01*
X28968340Y-6672371D01*
X28963322Y-6654574D01*
X28951324Y-6648526D01*
X28932838Y-6645227D01*
X28932932Y-6637623D01*
X28939884Y-6629588D01*
X28953126Y-6620663D01*
X28965781Y-6630153D01*
X28967496Y-6632306D01*
X28979147Y-6643427D01*
X28989919Y-6637981D01*
X28997965Y-6628191D01*
X29011597Y-6613969D01*
X29020986Y-6617104D01*
X29024982Y-6622755D01*
X29034759Y-6643852D01*
X29029097Y-6650914D01*
X29020382Y-6648802D01*
X29002810Y-6650177D01*
X28994721Y-6666825D01*
X28997248Y-6687034D01*
X29011397Y-6708040D01*
X29031677Y-6716070D01*
X29050121Y-6708310D01*
X29051754Y-6706293D01*
X29063675Y-6696485D01*
X29076506Y-6705242D01*
X29088867Y-6722911D01*
X29084877Y-6729922D01*
X29073237Y-6727344D01*
X29056977Y-6729107D01*
X29048836Y-6742878D01*
X29052450Y-6759386D01*
X29058473Y-6764985D01*
X29068804Y-6773640D01*
X29068212Y-6775569D01*
X29054280Y-6778161D01*
X29040204Y-6780815D01*
X29022789Y-6779385D01*
X29018419Y-6762413D01*
X29018457Y-6760979D01*
X29011391Y-6740757D01*
X28991989Y-6733935D01*
X28965681Y-6741371D01*
X28951935Y-6750464D01*
X28936110Y-6767716D01*
X28933058Y-6789232D01*
X28936027Y-6807547D01*
X28946451Y-6836236D01*
X28964102Y-6848330D01*
X28968037Y-6849079D01*
X28987961Y-6846138D01*
X28992099Y-6835487D01*
X28998663Y-6820554D01*
X29004785Y-6818421D01*
X29012096Y-6822785D01*
X29010316Y-6825575D01*
X29010011Y-6838650D01*
X29015271Y-6847322D01*
X29021007Y-6859178D01*
X29010382Y-6861914D01*
X28989809Y-6869443D01*
X28985542Y-6887314D01*
X28992494Y-6900447D01*
X28998506Y-6911786D01*
X28987813Y-6915928D01*
X28975789Y-6916280D01*
X28955928Y-6914433D01*
X28954369Y-6906886D01*
X28958850Y-6900729D01*
X28964835Y-6886833D01*
X28952694Y-6875071D01*
X28948404Y-6872679D01*
X28926740Y-6866189D01*
X28907203Y-6876404D01*
X28904247Y-6879008D01*
X28890606Y-6897724D01*
X28894507Y-6911166D01*
X28897685Y-6923298D01*
X28883647Y-6930231D01*
X28868453Y-6931484D01*
X28866158Y-6919964D01*
X28868710Y-6908125D01*
X28871543Y-6888516D01*
X28862957Y-6884194D01*
X28852359Y-6886389D01*
X28831463Y-6887361D01*
X28822932Y-6882640D01*
X28824816Y-6873374D01*
X28828358Y-6872787D01*
X28838477Y-6866942D01*
X28838585Y-6864632D01*
X28838913Y-6846323D01*
X28847570Y-6847283D01*
X28853465Y-6853897D01*
X28867103Y-6865709D01*
X28882975Y-6859764D01*
X28886113Y-6857475D01*
X28899258Y-6839572D01*
X28898829Y-6811571D01*
X28898325Y-6808945D01*
X28889437Y-6784977D01*
X28870396Y-6767305D01*
X28842548Y-6753080D01*
X28808240Y-6738566D01*
X28785672Y-6733599D01*
X28766627Y-6739092D01*
X28742890Y-6755953D01*
X28731050Y-6765434D01*
X28705654Y-6787825D01*
X28694577Y-6805470D01*
X28694006Y-6825625D01*
X28695341Y-6833392D01*
X28705920Y-6861547D01*
X28721991Y-6879802D01*
X28738837Y-6885491D01*
X28751743Y-6875952D01*
X28754808Y-6866985D01*
X28759585Y-6857980D01*
X28768804Y-6867406D01*
X28772007Y-6872421D01*
X28779884Y-6888926D01*
X28772224Y-6894219D01*
X28763852Y-6894534D01*
X28745714Y-6901507D01*
X28743645Y-6918455D01*
X28755061Y-6935852D01*
X28760169Y-6945385D01*
X28747089Y-6948759D01*
X28739769Y-6948900D01*
X28719476Y-6945610D01*
X28715757Y-6933086D01*
X28716724Y-6928653D01*
X28713876Y-6909217D01*
X28697184Y-6900195D01*
X28673083Y-6904157D01*
X28665471Y-6908199D01*
X28647865Y-6923304D01*
X28645389Y-6934720D01*
X28655027Y-6938027D01*
X28665832Y-6943024D01*
X28661639Y-6953477D01*
X28645407Y-6962580D01*
X28644206Y-6962910D01*
X28629184Y-6964077D01*
X28626973Y-6952430D01*
X28629498Y-6940745D01*
X28632331Y-6921136D01*
X28623745Y-6916814D01*
X28613147Y-6919009D01*
X28592251Y-6919981D01*
X28583720Y-6915260D01*
X28585398Y-6905986D01*
X28588805Y-6905407D01*
X28595337Y-6897463D01*
X28593720Y-6889097D01*
X28593775Y-6875111D01*
X28598591Y-6872787D01*
X28611942Y-6881354D01*
X28613998Y-6885617D01*
X28625958Y-6893208D01*
X28636651Y-6891395D01*
X28651008Y-6875321D01*
X28655027Y-6845676D01*
X28651878Y-6817506D01*
X28639141Y-6802133D01*
X28625982Y-6795966D01*
X28590700Y-6787736D01*
X28570076Y-6795347D01*
X28564309Y-6818724D01*
X28564345Y-6819325D01*
X28560526Y-6841276D01*
X28545568Y-6848106D01*
X28529842Y-6843385D01*
X28527517Y-6825881D01*
X28523977Y-6806943D01*
X28511733Y-6803492D01*
X28496940Y-6796617D01*
X28495018Y-6784463D01*
X28500454Y-6768473D01*
X28509006Y-6763877D01*
X28513668Y-6774255D01*
X28513674Y-6774928D01*
X28521185Y-6784805D01*
X28538023Y-6783260D01*
X28555651Y-6771268D01*
X28556735Y-6770013D01*
X28565386Y-6748406D01*
X28561218Y-6727556D01*
X28547370Y-6715191D01*
X28534544Y-6715403D01*
X28517077Y-6716490D01*
X28516030Y-6704149D01*
X28529639Y-6681865D01*
X28541494Y-6667949D01*
X28545504Y-6671437D01*
X28545949Y-6679786D01*
X28551868Y-6696281D01*
X28563890Y-6696265D01*
X28574774Y-6680398D01*
X28575764Y-6677068D01*
X28583015Y-6658526D01*
X28593706Y-6659118D01*
X28606874Y-6670855D01*
X28621010Y-6689095D01*
X28616357Y-6697695D01*
X28606097Y-6698815D01*
X28591730Y-6705849D01*
X28590040Y-6722153D01*
X28599503Y-6740531D01*
X28617679Y-6753450D01*
X28640282Y-6761198D01*
X28656684Y-6761646D01*
X28674021Y-6752634D01*
X28699430Y-6731999D01*
X28705417Y-6726880D01*
X28748847Y-6689705D01*
X28734964Y-6594633D01*
X28727826Y-6551177D01*
X28720603Y-6516206D01*
X28714475Y-6495131D01*
X28712519Y-6491732D01*
X28700085Y-6484507D01*
X28671683Y-6469935D01*
X28631049Y-6449876D01*
X28581917Y-6426189D01*
X28560375Y-6415952D01*
X28416793Y-6348000D01*
X28310289Y-6416213D01*
X28261292Y-6447617D01*
X28212845Y-6478707D01*
X28171455Y-6505305D01*
X28149419Y-6519495D01*
X28113264Y-6542748D01*
X28067765Y-6571918D01*
X28021917Y-6601237D01*
X28015594Y-6605273D01*
X27974260Y-6633207D01*
X27950177Y-6653689D01*
X27941073Y-6668842D01*
X27941309Y-6674681D01*
X27945206Y-6695288D01*
X27949913Y-6729164D01*
X27953295Y-6758618D01*
X27959030Y-6809380D01*
X27967043Y-6874812D01*
X27976441Y-6948067D01*
X27986328Y-7022302D01*
X27995809Y-7090671D01*
X28003892Y-7145688D01*
X28014911Y-7217432D01*
X28159306Y-7284322D01*
X28211537Y-7308075D01*
X28257421Y-7328114D01*
X28293050Y-7342794D01*
X28314514Y-7350471D01*
X28318279Y-7351212D01*
X28333542Y-7345577D01*
X28361693Y-7330545D01*
X28397621Y-7308924D01*
X28412252Y-7299564D01*
X28491647Y-7247916D01*
X28491787Y-7192081D01*
X28490269Y-7157036D01*
X28483586Y-7135980D01*
X28468886Y-7121279D01*
X28464100Y-7118014D01*
X28434109Y-7104513D01*
X28412121Y-7106281D01*
X28402058Y-7122470D01*
X28402079Y-7131383D01*
X28400128Y-7148953D01*
X28384917Y-7151532D01*
X28380333Y-7150774D01*
X28358919Y-7146794D01*
X28350575Y-7145261D01*
X28353201Y-7139835D01*
X28360315Y-7134677D01*
X28370089Y-7117600D01*
X28368546Y-7106971D01*
X28356969Y-7095197D01*
X28348804Y-7096784D01*
X28340646Y-7097424D01*
X28343291Y-7085711D01*
X28349490Y-7066399D01*
X28350575Y-7060102D01*
X28355804Y-7062163D01*
X28365028Y-7073241D01*
X28379390Y-7086457D01*
X28397227Y-7083310D01*
X28403744Y-7080021D01*
X28420268Y-7063475D01*
X28425092Y-7043014D01*
X28418415Y-7026371D01*
X28402218Y-7021087D01*
X28386137Y-7017845D01*
X28383195Y-7012932D01*
X28391586Y-7003630D01*
X28394710Y-7003267D01*
X28401204Y-6996605D01*
X28399505Y-6992393D01*
X28396529Y-6982129D01*
X28404668Y-6983730D01*
X28418269Y-6995214D01*
X28422771Y-7000548D01*
X28435506Y-7013432D01*
X28445908Y-7008524D01*
X28451292Y-7001998D01*
X28464587Y-6990552D01*
X28477428Y-6997718D01*
X28478475Y-6998821D01*
X28490939Y-7016647D01*
X28484665Y-7023575D01*
X28472900Y-7022772D01*
X28455895Y-7028495D01*
X28450479Y-7043414D01*
X28454473Y-7064356D01*
X28475805Y-7081982D01*
X28481209Y-7084896D01*
X28505998Y-7095847D01*
X28523276Y-7095434D01*
X28541686Y-7085273D01*
X28557562Y-7068588D01*
X28567038Y-7047365D01*
X28569055Y-7028049D01*
X28562554Y-7017085D01*
X28552794Y-7017664D01*
X28534754Y-7019554D01*
X28532245Y-7008911D01*
X28542563Y-6994572D01*
X28556709Y-6983431D01*
X28565949Y-6989466D01*
X28569768Y-6995866D01*
X28584160Y-7011737D01*
X28596460Y-7011269D01*
X28600661Y-6997830D01*
X28604561Y-6983133D01*
X28617299Y-6987016D01*
X28629397Y-6997830D01*
X28640242Y-7010999D01*
X28633407Y-7016431D01*
X28619838Y-7018217D01*
X28606056Y-7028177D01*
X28602935Y-7048110D01*
X28610788Y-7068862D01*
X28617867Y-7075943D01*
X28641534Y-7089004D01*
X28653305Y-7084419D01*
X28655027Y-7073943D01*
X28660572Y-7059289D01*
X28672273Y-7061387D01*
X28681047Y-7074832D01*
X28687030Y-7095206D01*
X28681259Y-7100112D01*
X28670926Y-7097036D01*
X28653375Y-7099759D01*
X28647223Y-7108812D01*
X28647226Y-7126076D01*
X28653071Y-7131282D01*
X28665553Y-7140874D01*
X28660237Y-7150111D01*
X28644156Y-7152503D01*
X28628149Y-7145619D01*
X28628300Y-7132309D01*
X28625831Y-7114803D01*
X28609104Y-7105863D01*
X28584419Y-7106967D01*
X28562072Y-7116785D01*
X28546231Y-7130338D01*
X28538219Y-7148797D01*
X28535552Y-7179328D01*
X28535421Y-7193617D01*
X28535421Y-7252986D01*
X28589846Y-7280565D01*
X28621651Y-7295881D01*
X28641550Y-7301704D01*
X28656755Y-7298901D01*
X28671395Y-7290371D01*
X28688006Y-7273362D01*
X28697687Y-7252383D01*
X28699404Y-7233721D01*
X28692123Y-7223663D01*
X28682210Y-7224664D01*
X28667968Y-7225666D01*
X28669382Y-7212735D01*
X28677768Y-7198986D01*
X28688619Y-7189141D01*
X28694818Y-7196267D01*
X28708408Y-7208518D01*
X28725683Y-7206562D01*
X28733826Y-7196365D01*
X28741566Y-7189936D01*
X28755961Y-7200507D01*
X28767618Y-7218175D01*
X28762333Y-7226890D01*
X28746387Y-7224257D01*
X28734314Y-7226647D01*
X28730476Y-7241557D01*
X28734171Y-7261679D01*
X28744693Y-7279708D01*
X28752306Y-7285661D01*
X28771527Y-7290715D01*
X28784727Y-7277889D01*
X28795023Y-7265136D01*
X28804334Y-7271424D01*
X28806888Y-7275099D01*
X28817213Y-7295954D01*
X28811784Y-7303155D01*
X28801908Y-7300813D01*
X28786257Y-7303261D01*
X28777256Y-7317626D01*
X28779137Y-7334210D01*
X28784841Y-7339927D01*
X28789151Y-7348050D01*
X28775106Y-7354239D01*
X28758496Y-7355656D01*
X28757301Y-7343917D01*
X28758626Y-7339384D01*
X28757466Y-7319453D01*
X28740565Y-7310547D01*
X28711621Y-7313936D01*
X28698325Y-7318673D01*
X28676420Y-7331086D01*
X28667387Y-7349272D01*
X28665901Y-7373114D01*
X28670741Y-7406960D01*
X28683100Y-7420725D01*
X28708343Y-7426860D01*
X28719242Y-7419094D01*
X28720267Y-7411015D01*
X28725261Y-7396268D01*
X28735748Y-7398270D01*
X28744919Y-7415514D01*
X28742330Y-7434844D01*
X28729877Y-7441679D01*
X28714219Y-7451080D01*
X28709280Y-7463412D01*
X28717703Y-7470663D01*
X28720267Y-7470818D01*
X28731072Y-7475815D01*
X28726878Y-7486268D01*
X28710646Y-7495371D01*
X28709445Y-7495702D01*
X28694051Y-7496636D01*
X28692338Y-7483954D01*
X28694057Y-7476248D01*
X28694084Y-7454993D01*
X28677095Y-7443739D01*
X28676483Y-7443542D01*
X28651201Y-7442824D01*
X28632755Y-7454180D01*
X28626561Y-7472268D01*
X28632828Y-7486582D01*
X28639882Y-7498627D01*
X28630493Y-7503008D01*
X28616971Y-7503438D01*
X28597143Y-7501374D01*
X28595776Y-7493557D01*
X28599071Y-7489044D01*
X28603716Y-7471211D01*
X28593322Y-7457453D01*
X28574244Y-7455755D01*
X28572946Y-7456217D01*
X28563365Y-7454309D01*
X28564906Y-7438138D01*
X28572176Y-7423353D01*
X28579065Y-7427569D01*
X28593920Y-7434792D01*
X28614666Y-7431556D01*
X28630467Y-7420780D01*
X28633132Y-7413001D01*
X28623907Y-7371341D01*
X28596307Y-7340054D01*
X28577951Y-7328974D01*
X28548670Y-7315702D01*
X28525966Y-7308284D01*
X28521468Y-7307719D01*
X28506024Y-7313291D01*
X28477669Y-7328147D01*
X28441579Y-7349498D01*
X28427443Y-7358394D01*
X28348237Y-7409070D01*
X28355082Y-7464409D01*
X28362411Y-7523413D01*
X28368281Y-7564699D01*
X28374175Y-7592096D01*
X28381573Y-7609431D01*
X28391958Y-7620533D01*
X28406812Y-7629231D01*
X28421664Y-7636426D01*
X28452782Y-7649810D01*
X28474907Y-7652949D01*
X28497632Y-7646890D01*
X28501860Y-7645181D01*
X28527509Y-7628773D01*
X28535417Y-7606120D01*
X28535421Y-7605415D01*
X28529890Y-7585048D01*
X28520129Y-7579551D01*
X28509445Y-7571559D01*
X28510524Y-7557804D01*
X28518883Y-7541547D01*
X28528718Y-7535865D01*
X28533383Y-7543396D01*
X28532703Y-7549004D01*
X28539188Y-7561812D01*
X28549013Y-7566111D01*
X28565176Y-7562568D01*
X28568041Y-7553165D01*
X28572909Y-7537810D01*
X28583264Y-7539495D01*
X28592730Y-7557030D01*
X28592938Y-7557804D01*
X28592015Y-7575978D01*
X28582611Y-7579551D01*
X28570912Y-7587507D01*
X28568916Y-7605884D01*
X28575157Y-7626444D01*
X28588166Y-7640950D01*
X28593921Y-7643049D01*
X28614579Y-7640614D01*
X28622064Y-7634472D01*
X28632626Y-7629253D01*
X28643727Y-7638839D01*
X28651891Y-7652022D01*
X28643103Y-7655631D01*
X28640690Y-7655664D01*
X28620117Y-7663193D01*
X28615850Y-7681064D01*
X28622803Y-7694197D01*
X28629884Y-7706776D01*
X28619012Y-7710028D01*
X28618302Y-7710030D01*
X28594634Y-7708198D01*
X28586758Y-7699909D01*
X28587526Y-7687956D01*
X28583540Y-7669030D01*
X28565717Y-7663246D01*
X28538087Y-7671353D01*
X28527989Y-7676908D01*
X28506336Y-7693572D01*
X28499285Y-7713277D01*
X28500489Y-7735085D01*
X28509532Y-7765999D01*
X28525287Y-7781158D01*
X28544018Y-7778306D01*
X28554592Y-7767760D01*
X28566878Y-7754809D01*
X28576098Y-7759886D01*
X28579177Y-7764450D01*
X28588962Y-7786222D01*
X28583743Y-7794984D01*
X28573066Y-7792927D01*
X28556918Y-7795001D01*
X28548278Y-7808885D01*
X28551581Y-7824861D01*
X28556502Y-7829225D01*
X28560812Y-7837348D01*
X28546767Y-7843537D01*
X28530147Y-7844934D01*
X28528938Y-7833254D01*
X28530155Y-7829098D01*
X28529660Y-7812010D01*
X28511481Y-7802314D01*
X28509474Y-7801792D01*
X28484574Y-7799113D01*
X28470799Y-7802071D01*
X28460679Y-7816340D01*
X28461223Y-7832738D01*
X28471994Y-7840510D01*
X28479780Y-7843832D01*
X28472651Y-7850910D01*
X28455877Y-7857410D01*
X28450048Y-7858555D01*
X28434619Y-7854591D01*
X28431300Y-7837434D01*
X28425830Y-7817983D01*
X28413873Y-7814707D01*
X28399081Y-7807833D01*
X28397159Y-7795679D01*
X28402595Y-7779689D01*
X28411146Y-7775093D01*
X28415808Y-7785470D01*
X28415815Y-7786143D01*
X28423409Y-7795951D01*
X28440256Y-7794605D01*
X28457457Y-7782922D01*
X28458016Y-7782263D01*
X28464929Y-7761106D01*
X28463618Y-7734299D01*
X28455691Y-7712426D01*
X28438672Y-7696160D01*
X28406849Y-7680272D01*
X28402698Y-7678530D01*
X28348420Y-7655974D01*
X28302700Y-7693438D01*
X28275893Y-7717247D01*
X28263084Y-7735879D01*
X28260340Y-7756462D01*
X28261359Y-7768409D01*
X28269913Y-7794563D01*
X28285081Y-7811118D01*
X28301579Y-7814763D01*
X28314120Y-7802185D01*
X28314347Y-7801609D01*
X28325444Y-7787746D01*
X28330634Y-7786143D01*
X28336040Y-7792874D01*
X28334265Y-7797017D01*
X28335127Y-7807036D01*
X28339060Y-7807890D01*
X28350036Y-7816295D01*
X28350575Y-7819927D01*
X28342634Y-7827111D01*
X28333854Y-7825546D01*
X28317705Y-7827621D01*
X28309065Y-7841505D01*
X28312369Y-7857481D01*
X28317290Y-7861845D01*
X28321600Y-7869968D01*
X28307554Y-7876157D01*
X28290935Y-7877554D01*
X28289725Y-7865874D01*
X28290943Y-7861717D01*
X28290515Y-7844800D01*
X28272638Y-7835051D01*
X28269502Y-7834221D01*
X28244210Y-7833377D01*
X28224035Y-7841336D01*
X28214846Y-7854342D01*
X28219635Y-7866145D01*
X28230237Y-7882107D01*
X28220734Y-7890268D01*
X28209474Y-7891868D01*
X28193042Y-7887606D01*
X28190445Y-7869717D01*
X28186905Y-7850779D01*
X28174661Y-7847327D01*
X28159868Y-7840453D01*
X28157946Y-7828299D01*
X28163383Y-7812309D01*
X28171934Y-7807713D01*
X28176596Y-7818090D01*
X28176603Y-7818763D01*
X28184279Y-7828491D01*
X28201027Y-7827402D01*
X28217428Y-7816124D01*
X28217491Y-7816045D01*
X28223637Y-7796408D01*
X28223171Y-7768103D01*
X28223123Y-7767783D01*
X28213101Y-7739483D01*
X28189665Y-7723403D01*
X28184730Y-7721576D01*
X28153110Y-7716832D01*
X28132298Y-7725909D01*
X28126295Y-7746439D01*
X28128160Y-7755059D01*
X28128050Y-7771256D01*
X28113114Y-7775270D01*
X28097621Y-7770635D01*
X28097430Y-7753213D01*
X28097788Y-7751806D01*
X28099268Y-7734839D01*
X28086969Y-7732950D01*
X28080471Y-7734476D01*
X28059527Y-7735481D01*
X28050929Y-7730756D01*
X28052812Y-7721490D01*
X28056355Y-7720904D01*
X28066198Y-7711928D01*
X28068036Y-7701875D01*
X28070185Y-7689838D01*
X28077552Y-7697602D01*
X28093794Y-7706866D01*
X28114607Y-7703050D01*
X28130245Y-7689441D01*
X28133109Y-7678852D01*
X28126005Y-7654828D01*
X28109202Y-7640935D01*
X28094521Y-7641063D01*
X28084849Y-7639048D01*
X28086241Y-7623903D01*
X28095063Y-7606621D01*
X28105595Y-7601097D01*
X28111308Y-7610377D01*
X28111363Y-7612171D01*
X28120170Y-7621817D01*
X28127673Y-7623044D01*
X28142088Y-7614340D01*
X28143983Y-7606734D01*
X28147360Y-7592235D01*
X28150196Y-7590424D01*
X28161992Y-7597190D01*
X28172719Y-7606734D01*
X28183307Y-7619315D01*
X28177234Y-7622920D01*
X28171943Y-7623044D01*
X28158016Y-7632368D01*
X28154856Y-7649735D01*
X28159009Y-7669058D01*
X28175500Y-7679482D01*
X28192209Y-7683432D01*
X28218328Y-7685441D01*
X28241299Y-7677986D01*
X28269823Y-7658070D01*
X28272892Y-7655618D01*
X28298649Y-7633127D01*
X28310440Y-7615211D01*
X28312212Y-7594110D01*
X28310741Y-7581145D01*
X28304569Y-7539247D01*
X28297692Y-7496727D01*
X28291087Y-7459159D01*
X28285733Y-7432117D01*
X28282659Y-7421211D01*
X28272402Y-7415898D01*
X28245941Y-7402944D01*
X28206723Y-7384018D01*
X28158199Y-7360788D01*
X28129756Y-7347240D01*
X27979613Y-7275843D01*
X27849222Y-7386623D01*
X27800137Y-7428515D01*
X27765364Y-7459158D01*
X27742591Y-7481320D01*
X27729502Y-7497767D01*
X27723784Y-7511267D01*
X27723121Y-7524587D01*
X27724496Y-7535759D01*
X27729016Y-7569090D01*
X27734287Y-7611759D01*
X27737064Y-7635790D01*
X27743966Y-7697466D01*
X27798058Y-7720736D01*
X27830280Y-7733739D01*
X27850442Y-7738003D01*
X27866158Y-7734053D01*
X27879127Y-7726331D01*
X27896325Y-7707468D01*
X27902982Y-7685033D01*
X27898349Y-7666582D01*
X27885742Y-7659741D01*
X27867177Y-7656307D01*
X27868154Y-7647928D01*
X27877998Y-7637390D01*
X27892595Y-7625095D01*
X27901378Y-7629008D01*
X27906498Y-7637390D01*
X27920889Y-7653261D01*
X27933189Y-7652793D01*
X27937390Y-7639354D01*
X27940767Y-7624854D01*
X27943604Y-7623044D01*
X27954571Y-7628929D01*
X27968040Y-7641544D01*
X27976754Y-7653330D01*
X27976223Y-7657023D01*
X27960773Y-7659272D01*
X27956418Y-7659741D01*
X27945228Y-7670218D01*
X27939520Y-7689613D01*
X27943655Y-7714774D01*
X27958727Y-7727385D01*
X27978185Y-7724177D01*
X27988639Y-7714134D01*
X28002366Y-7702127D01*
X28009766Y-7702669D01*
X28010640Y-7709740D01*
X28008547Y-7710030D01*
X28007437Y-7716861D01*
X28014890Y-7728376D01*
X28023975Y-7741447D01*
X28016976Y-7741774D01*
X28010373Y-7739433D01*
X27991063Y-7740209D01*
X27983952Y-7750336D01*
X27983956Y-7767600D01*
X27989800Y-7772806D01*
X28002448Y-7781734D01*
X27996721Y-7790365D01*
X27975600Y-7794298D01*
X27975243Y-7794298D01*
X27956895Y-7791799D01*
X27957404Y-7782933D01*
X27959068Y-7780790D01*
X27962931Y-7764872D01*
X27953008Y-7752949D01*
X27937165Y-7744672D01*
X27918561Y-7749538D01*
X27906662Y-7756258D01*
X27886226Y-7773764D01*
X27878310Y-7798304D01*
X27877587Y-7815211D01*
X27880355Y-7844355D01*
X27890361Y-7857913D01*
X27898031Y-7860459D01*
X27919575Y-7857019D01*
X27927932Y-7849735D01*
X27937720Y-7840982D01*
X27948097Y-7851383D01*
X27958244Y-7872316D01*
X27952938Y-7879598D01*
X27943927Y-7877484D01*
X27926570Y-7878624D01*
X27919260Y-7892589D01*
X27925810Y-7910334D01*
X27930632Y-7922892D01*
X27916094Y-7930527D01*
X27915426Y-7930704D01*
X27899255Y-7931788D01*
X27898486Y-7919475D01*
X27899410Y-7916384D01*
X27896883Y-7895921D01*
X27880664Y-7881629D01*
X27858750Y-7878122D01*
X27844272Y-7884580D01*
X27830281Y-7904724D01*
X27832495Y-7923527D01*
X27842249Y-7931168D01*
X27846063Y-7935955D01*
X27836812Y-7937511D01*
X27812526Y-7935882D01*
X27804409Y-7925269D01*
X27805311Y-7912391D01*
X27803856Y-7897699D01*
X27788603Y-7897178D01*
X27785245Y-7898006D01*
X27768388Y-7899458D01*
X27767557Y-7888941D01*
X27767995Y-7887757D01*
X27773593Y-7869973D01*
X27774291Y-7865472D01*
X27781073Y-7866337D01*
X27790601Y-7873130D01*
X27810653Y-7880627D01*
X27826881Y-7871435D01*
X27836708Y-7850575D01*
X27837556Y-7823066D01*
X27829170Y-7797975D01*
X27813304Y-7782827D01*
X27784844Y-7766427D01*
X27768526Y-7759413D01*
X27718242Y-7740209D01*
X27678308Y-7772530D01*
X27652643Y-7796513D01*
X27640984Y-7819063D01*
X27638375Y-7846996D01*
X27641016Y-7876426D01*
X27650620Y-7890247D01*
X27658818Y-7893079D01*
X27680363Y-7889639D01*
X27688720Y-7882354D01*
X27698507Y-7873602D01*
X27708885Y-7884003D01*
X27719032Y-7904936D01*
X27713725Y-7912218D01*
X27704714Y-7910104D01*
X27687358Y-7911244D01*
X27680048Y-7925208D01*
X27686598Y-7942954D01*
X27691460Y-7955571D01*
X27676861Y-7963154D01*
X27676671Y-7963204D01*
X27656353Y-7963765D01*
X27648617Y-7959095D01*
X27650501Y-7949829D01*
X27654043Y-7949243D01*
X27665107Y-7943592D01*
X27660990Y-7930679D01*
X27643700Y-7916566D01*
X27643116Y-7916251D01*
X27617869Y-7911724D01*
X27598566Y-7922769D01*
X27591986Y-7944650D01*
X27593108Y-7951201D01*
X27591202Y-7967514D01*
X27578572Y-7970989D01*
X27564443Y-7965803D01*
X27564997Y-7947525D01*
X27566558Y-7930688D01*
X27554598Y-7928617D01*
X27546810Y-7930422D01*
X27529455Y-7932168D01*
X27528102Y-7922263D01*
X27528783Y-7920377D01*
X27534504Y-7898428D01*
X27535079Y-7891909D01*
X27540084Y-7889455D01*
X27548798Y-7898609D01*
X27562085Y-7911107D01*
X27577382Y-7906333D01*
X27582704Y-7902611D01*
X27596298Y-7886431D01*
X27597032Y-7862350D01*
X27595161Y-7852655D01*
X27578646Y-7821035D01*
X27549775Y-7802818D01*
X27515177Y-7801963D01*
X27511896Y-7802909D01*
X27496669Y-7814041D01*
X27491670Y-7829138D01*
X27498648Y-7839563D01*
X27504271Y-7840510D01*
X27512058Y-7843832D01*
X27504929Y-7850910D01*
X27488154Y-7857410D01*
X27482325Y-7858555D01*
X27466896Y-7854591D01*
X27463577Y-7837434D01*
X27459390Y-7819218D01*
X27443898Y-7816861D01*
X27429204Y-7815332D01*
X27430306Y-7802380D01*
X27436276Y-7783900D01*
X27437219Y-7778486D01*
X27444001Y-7779351D01*
X27453529Y-7786143D01*
X27470781Y-7794133D01*
X27486674Y-7785708D01*
X27498698Y-7766635D01*
X27499203Y-7745282D01*
X27489352Y-7730195D01*
X27478765Y-7727721D01*
X27463977Y-7720844D01*
X27462056Y-7708693D01*
X27467532Y-7692529D01*
X27476095Y-7688342D01*
X27480708Y-7699427D01*
X27480712Y-7699954D01*
X27488112Y-7708107D01*
X27503613Y-7706601D01*
X27517167Y-7697755D01*
X27520128Y-7690853D01*
X27522390Y-7673598D01*
X27522846Y-7671197D01*
X27529692Y-7672451D01*
X27542553Y-7683439D01*
X27553869Y-7696904D01*
X27556825Y-7703817D01*
X27547961Y-7709341D01*
X27540515Y-7710030D01*
X27526038Y-7717000D01*
X27524382Y-7733205D01*
X27533966Y-7751586D01*
X27552825Y-7764943D01*
X27580141Y-7771349D01*
X27605503Y-7766058D01*
X27635312Y-7747008D01*
X27652537Y-7732837D01*
X27688446Y-7702057D01*
X27677181Y-7632649D01*
X27670707Y-7590613D01*
X27665449Y-7552646D01*
X27663019Y-7531620D01*
X27660288Y-7516360D01*
X27652692Y-7504970D01*
X27636170Y-7494937D01*
X27606657Y-7483747D01*
X27563178Y-7469847D01*
X27466235Y-7439695D01*
X27420960Y-7476795D01*
X27394148Y-7500827D01*
X27381669Y-7519590D01*
X27379680Y-7539760D01*
X27380547Y-7547024D01*
X27389507Y-7572785D01*
X27404590Y-7590465D01*
X27420674Y-7596320D01*
X27432637Y-7586603D01*
X27433107Y-7585456D01*
X27444103Y-7570771D01*
X27449897Y-7568678D01*
X27455304Y-7575408D01*
X27453529Y-7579551D01*
X27454391Y-7589570D01*
X27458324Y-7590424D01*
X27469300Y-7598829D01*
X27469839Y-7602461D01*
X27461897Y-7609645D01*
X27453117Y-7608081D01*
X27436969Y-7610155D01*
X27428329Y-7624039D01*
X27431632Y-7640015D01*
X27436554Y-7644379D01*
X27440864Y-7652502D01*
X27426818Y-7658691D01*
X27410199Y-7660088D01*
X27408989Y-7648408D01*
X27410207Y-7644252D01*
X27409711Y-7627164D01*
X27391532Y-7617468D01*
X27389525Y-7616946D01*
X27358978Y-7615017D01*
X27343530Y-7627414D01*
X27343548Y-7649127D01*
X27343642Y-7668102D01*
X27328371Y-7674430D01*
X27312205Y-7670004D01*
X27309709Y-7652251D01*
X27306169Y-7633313D01*
X27293924Y-7629861D01*
X27279132Y-7622987D01*
X27277210Y-7610833D01*
X27283080Y-7592954D01*
X27293090Y-7593602D01*
X27298999Y-7604016D01*
X27307872Y-7612063D01*
X27324370Y-7605549D01*
X27339497Y-7593255D01*
X27342078Y-7586521D01*
X27340105Y-7571567D01*
X27339359Y-7547995D01*
X27335046Y-7523903D01*
X27317951Y-7509609D01*
X27305130Y-7504506D01*
X27272918Y-7499397D01*
X27251769Y-7508057D01*
X27245469Y-7528318D01*
X27247424Y-7537593D01*
X27247314Y-7553791D01*
X27232377Y-7557804D01*
X27216885Y-7553170D01*
X27216694Y-7535747D01*
X27217052Y-7534341D01*
X27218531Y-7517373D01*
X27206232Y-7515485D01*
X27199735Y-7517010D01*
X27178791Y-7518015D01*
X27170193Y-7513290D01*
X27172076Y-7504025D01*
X27175618Y-7503438D01*
X27185462Y-7494462D01*
X27187300Y-7484410D01*
X27189449Y-7472372D01*
X27196816Y-7480137D01*
X27213058Y-7489400D01*
X27233871Y-7485584D01*
X27249509Y-7471976D01*
X27252373Y-7461387D01*
X27245269Y-7437362D01*
X27228465Y-7423469D01*
X27213785Y-7423597D01*
X27204113Y-7421582D01*
X27205505Y-7406437D01*
X27214327Y-7389156D01*
X27224859Y-7383631D01*
X27230572Y-7392912D01*
X27230627Y-7394705D01*
X27239433Y-7404352D01*
X27246936Y-7405578D01*
X27261352Y-7396875D01*
X27263246Y-7389268D01*
X27266623Y-7374769D01*
X27269460Y-7372958D01*
X27281256Y-7379724D01*
X27291983Y-7389268D01*
X27302571Y-7401849D01*
X27296498Y-7405455D01*
X27291206Y-7405578D01*
X27277279Y-7414902D01*
X27274120Y-7432269D01*
X27278273Y-7451593D01*
X27294764Y-7462016D01*
X27311472Y-7465967D01*
X27337304Y-7467992D01*
X27360058Y-7460748D01*
X27388247Y-7441259D01*
X27393022Y-7437456D01*
X27417926Y-7416308D01*
X27433879Y-7400579D01*
X27437054Y-7395604D01*
X27434108Y-7382257D01*
X27426834Y-7355685D01*
X27422361Y-7340339D01*
X27404454Y-7301464D01*
X27379925Y-7275784D01*
X27352695Y-7265442D01*
X27326683Y-7272582D01*
X27316226Y-7282304D01*
X27307225Y-7297562D01*
X27314847Y-7304940D01*
X27314895Y-7304956D01*
X27327898Y-7315196D01*
X27322890Y-7325721D01*
X27306868Y-7329465D01*
X27290345Y-7323571D01*
X27287839Y-7305000D01*
X27285474Y-7286512D01*
X27269337Y-7282727D01*
X27267067Y-7282930D01*
X27249988Y-7280769D01*
X27248820Y-7265856D01*
X27249307Y-7263902D01*
X27258136Y-7247226D01*
X27268701Y-7242459D01*
X27274108Y-7252532D01*
X27274120Y-7253352D01*
X27281762Y-7263119D01*
X27298612Y-7261894D01*
X27315552Y-7250394D01*
X27315826Y-7250068D01*
X27323801Y-7229333D01*
X27320179Y-7208067D01*
X27307889Y-7194364D01*
X27295419Y-7193691D01*
X27281487Y-7194517D01*
X27281039Y-7180512D01*
X27281914Y-7176967D01*
X27289719Y-7161858D01*
X27299497Y-7165647D01*
X27318706Y-7176419D01*
X27334543Y-7172966D01*
X27339359Y-7160929D01*
X27344641Y-7146344D01*
X27361461Y-7149189D01*
X27370730Y-7154490D01*
X27378569Y-7163690D01*
X27367730Y-7173616D01*
X27363556Y-7175928D01*
X27347713Y-7193587D01*
X27348976Y-7214829D01*
X27365803Y-7232049D01*
X27375703Y-7235889D01*
X27410216Y-7241430D01*
X27433760Y-7233819D01*
X27450756Y-7215700D01*
X27462581Y-7189886D01*
X27461013Y-7168609D01*
X27447322Y-7157945D01*
X27438700Y-7158018D01*
X27425340Y-7153971D01*
X27424661Y-7139183D01*
X27430895Y-7116736D01*
X27440300Y-7114913D01*
X27453463Y-7129103D01*
X27465855Y-7143306D01*
X27472213Y-7138936D01*
X27476365Y-7125591D01*
X27484303Y-7105123D01*
X27494761Y-7104435D01*
X27508672Y-7116659D01*
X27522662Y-7134140D01*
X27519532Y-7140438D01*
X27507029Y-7137346D01*
X27495206Y-7136927D01*
X27492525Y-7151628D01*
X27493437Y-7162152D01*
X27499947Y-7185239D01*
X27516121Y-7193177D01*
X27524205Y-7193549D01*
X27544268Y-7188979D01*
X27548670Y-7179958D01*
X27551586Y-7167674D01*
X27564422Y-7169982D01*
X27578572Y-7182676D01*
X27586153Y-7195538D01*
X27576164Y-7198971D01*
X27574466Y-7198986D01*
X27559761Y-7208045D01*
X27556825Y-7220732D01*
X27562508Y-7238460D01*
X27570417Y-7242645D01*
X27576077Y-7246405D01*
X27567698Y-7253352D01*
X27547293Y-7263224D01*
X27539209Y-7256754D01*
X27539005Y-7245614D01*
X27532486Y-7228636D01*
X27513987Y-7223136D01*
X27490545Y-7230047D01*
X27479903Y-7237774D01*
X27464188Y-7258586D01*
X27459910Y-7285606D01*
X27466634Y-7324302D01*
X27471618Y-7341988D01*
X27478661Y-7362535D01*
X27488051Y-7376717D01*
X27504444Y-7387674D01*
X27532498Y-7398543D01*
X27575648Y-7412090D01*
X27618181Y-7424059D01*
X27653412Y-7432124D01*
X27675778Y-7435084D01*
X27679883Y-7434567D01*
X27692430Y-7425903D01*
X27718158Y-7405763D01*
X27753742Y-7376828D01*
X27795854Y-7341777D01*
X27812762Y-7327509D01*
X27932783Y-7225846D01*
X27913872Y-7084655D01*
X27904321Y-7013569D01*
X27893463Y-6933097D01*
X27882833Y-6854608D01*
X27876173Y-6805627D01*
X27857385Y-6667790D01*
X27726133Y-6605924D01*
X27680764Y-6584617D01*
X27619799Y-6556101D01*
X27547375Y-6522304D01*
X27467629Y-6485156D01*
X27384700Y-6446585D01*
X27304027Y-6409125D01*
X27220613Y-6370492D01*
X27154588Y-6340202D01*
X27103637Y-6317401D01*
X27065441Y-6301234D01*
X27037686Y-6290847D01*
X27018055Y-6285385D01*
X27004231Y-6283995D01*
X26993897Y-6285822D01*
X26984738Y-6290011D01*
X26983265Y-6290822D01*
X26963110Y-6302844D01*
X26929161Y-6323949D01*
X26885848Y-6351352D01*
X26837597Y-6382270D01*
X26828315Y-6388261D01*
X26775935Y-6422001D01*
X26724100Y-6455198D01*
X26678578Y-6484169D01*
X26645140Y-6505230D01*
X26643469Y-6506270D01*
X26619287Y-6521478D01*
X26579627Y-6546616D01*
X26527321Y-6579880D01*
X26465201Y-6619467D01*
X26396098Y-6663574D01*
X26322844Y-6710397D01*
X26295524Y-6727877D01*
X26215957Y-6778759D01*
X26134578Y-6830727D01*
X26055298Y-6881291D01*
X25982026Y-6927957D01*
X25918673Y-6968235D01*
X25869147Y-6999633D01*
X25863311Y-7003323D01*
X25719240Y-7094362D01*
X25719240Y-8378373D01*
X25719217Y-8574154D01*
X25719140Y-8749339D01*
X25718993Y-8905078D01*
X25718762Y-9042522D01*
X25718431Y-9162821D01*
X25717986Y-9267125D01*
X25717411Y-9356585D01*
X25716693Y-9432350D01*
X25715816Y-9495572D01*
X25714764Y-9547400D01*
X25713524Y-9588986D01*
X25712081Y-9621479D01*
X25710419Y-9646029D01*
X25708523Y-9663788D01*
X25706380Y-9675905D01*
X25703973Y-9683531D01*
X25702313Y-9686549D01*
X25676997Y-9706572D01*
X25646579Y-9708419D01*
X25618447Y-9691719D01*
X25617629Y-9690831D01*
X25614901Y-9686569D01*
X25612461Y-9679369D01*
X25610294Y-9668073D01*
X25608384Y-9651522D01*
X25606714Y-9628558D01*
X25605268Y-9598023D01*
X25604032Y-9558758D01*
X25602988Y-9509605D01*
X25602120Y-9449404D01*
X25601414Y-9376999D01*
X25600853Y-9291230D01*
X25600420Y-9190939D01*
X25600101Y-9074968D01*
X25599878Y-8942158D01*
X25599737Y-8791351D01*
X25599661Y-8621388D01*
X25599634Y-8431110D01*
X25599633Y-8383001D01*
X25599633Y-7095056D01*
X25164724Y-6818104D01*
X25069034Y-6757146D01*
X24972297Y-6695480D01*
X24877442Y-6634977D01*
X24787402Y-6577507D01*
X24705105Y-6524942D01*
X24633483Y-6479152D01*
X24575465Y-6442007D01*
X24547665Y-6424175D01*
X24489555Y-6387059D01*
X24435693Y-6353033D01*
X24389507Y-6324234D01*
X24354425Y-6302797D01*
X24333874Y-6290858D01*
X24332895Y-6290343D01*
X24322218Y-6285328D01*
X24311359Y-6282743D01*
X24297701Y-6283516D01*
X24278626Y-6288574D01*
X24251516Y-6298844D01*
X24213752Y-6315253D01*
X24162717Y-6338728D01*
X24095792Y-6370197D01*
X24061063Y-6386613D01*
X23980985Y-6424356D01*
X23895069Y-6464633D01*
X23809308Y-6504651D01*
X23729694Y-6541614D01*
X23662218Y-6572728D01*
X23647878Y-6579298D01*
X23591011Y-6605468D01*
X23541085Y-6628756D01*
X23501444Y-6647576D01*
X23475432Y-6660343D01*
X23466543Y-6665245D01*
X23462787Y-6677714D01*
X23457088Y-6708122D01*
X23449932Y-6752796D01*
X23441802Y-6808065D01*
X23433185Y-6870256D01*
X23424563Y-6935697D01*
X23416422Y-7000716D01*
X23409247Y-7061641D01*
X23403523Y-7114800D01*
X23399733Y-7156521D01*
X23398369Y-7181801D01*
X23397793Y-7235293D01*
X23517399Y-7336475D01*
X23560722Y-7372566D01*
X23598525Y-7403011D01*
X23627573Y-7425284D01*
X23644632Y-7436859D01*
X23647317Y-7437927D01*
X23661852Y-7435054D01*
X23691612Y-7427163D01*
X23731074Y-7415747D01*
X23746116Y-7411208D01*
X23789262Y-7397600D01*
X23816286Y-7386809D01*
X23831947Y-7375580D01*
X23841003Y-7360654D01*
X23847255Y-7341988D01*
X23857803Y-7297800D01*
X23857503Y-7267238D01*
X23845922Y-7244837D01*
X23838970Y-7237774D01*
X23815629Y-7224757D01*
X23793949Y-7224587D01*
X23780969Y-7236329D01*
X23779868Y-7245614D01*
X23777469Y-7261635D01*
X23764361Y-7260881D01*
X23751174Y-7253352D01*
X23742328Y-7244560D01*
X23748456Y-7242645D01*
X23759493Y-7233418D01*
X23762048Y-7220732D01*
X23754699Y-7202605D01*
X23744406Y-7198986D01*
X23732868Y-7196126D01*
X23739006Y-7184256D01*
X23740301Y-7182676D01*
X23757038Y-7168605D01*
X23768617Y-7168694D01*
X23770203Y-7179958D01*
X23777245Y-7190446D01*
X23794668Y-7193549D01*
X23815167Y-7189075D01*
X23824053Y-7171440D01*
X23825436Y-7162152D01*
X23825650Y-7140546D01*
X23817601Y-7135665D01*
X23811844Y-7137346D01*
X23796663Y-7139839D01*
X23798522Y-7130125D01*
X23810201Y-7116659D01*
X23828441Y-7102523D01*
X23837041Y-7107176D01*
X23838161Y-7117436D01*
X23845666Y-7131023D01*
X23861017Y-7132508D01*
X23873471Y-7121074D01*
X23873823Y-7120154D01*
X23881653Y-7111169D01*
X23889709Y-7121582D01*
X23894212Y-7139183D01*
X23892015Y-7156007D01*
X23880173Y-7158018D01*
X23861972Y-7162712D01*
X23855384Y-7180458D01*
X23861679Y-7205180D01*
X23868117Y-7215700D01*
X23888436Y-7235991D01*
X23913204Y-7241375D01*
X23943170Y-7235889D01*
X23965384Y-7222098D01*
X23972605Y-7201461D01*
X23963293Y-7181584D01*
X23955317Y-7175928D01*
X23940848Y-7165316D01*
X23945369Y-7156363D01*
X23948143Y-7154490D01*
X23969525Y-7145378D01*
X23978835Y-7153586D01*
X23979514Y-7160929D01*
X23987058Y-7174868D01*
X24004307Y-7175330D01*
X24019376Y-7165647D01*
X24030145Y-7162497D01*
X24036959Y-7176967D01*
X24038219Y-7193486D01*
X24026468Y-7194586D01*
X24023453Y-7193691D01*
X24006764Y-7197031D01*
X23996649Y-7213718D01*
X23996037Y-7235657D01*
X24003047Y-7250068D01*
X24019896Y-7261764D01*
X24036836Y-7263199D01*
X24044750Y-7253657D01*
X24044753Y-7253352D01*
X24049780Y-7242567D01*
X24060264Y-7246749D01*
X24069311Y-7262969D01*
X24069566Y-7263902D01*
X24069530Y-7280078D01*
X24053933Y-7283127D01*
X24051806Y-7282930D01*
X24034208Y-7285653D01*
X24030810Y-7302623D01*
X24031033Y-7305000D01*
X24027879Y-7324404D01*
X24012005Y-7329465D01*
X23993813Y-7324122D01*
X23992061Y-7312881D01*
X24003978Y-7304492D01*
X24010625Y-7296421D01*
X23999744Y-7280711D01*
X23977922Y-7267727D01*
X23948294Y-7269355D01*
X23925411Y-7277825D01*
X23911873Y-7294912D01*
X23903062Y-7322131D01*
X23894573Y-7354148D01*
X23887560Y-7378639D01*
X23886112Y-7383155D01*
X23890878Y-7399172D01*
X23910182Y-7422884D01*
X23926926Y-7438540D01*
X23954752Y-7461119D01*
X23974255Y-7471245D01*
X23992816Y-7471507D01*
X24008918Y-7467294D01*
X24034981Y-7455071D01*
X24044401Y-7437105D01*
X24044753Y-7430937D01*
X24038505Y-7410187D01*
X24027667Y-7405578D01*
X24016389Y-7403676D01*
X24021850Y-7394438D01*
X24026890Y-7389268D01*
X24045488Y-7374571D01*
X24054342Y-7378454D01*
X24055627Y-7389268D01*
X24064330Y-7403684D01*
X24071936Y-7405578D01*
X24086406Y-7399707D01*
X24088246Y-7394705D01*
X24093148Y-7383833D01*
X24103499Y-7388061D01*
X24112771Y-7404340D01*
X24113368Y-7406437D01*
X24114095Y-7422962D01*
X24105088Y-7423597D01*
X24085462Y-7425749D01*
X24070539Y-7442927D01*
X24066500Y-7461387D01*
X24075045Y-7479016D01*
X24094184Y-7488683D01*
X24114170Y-7487097D01*
X24122057Y-7480137D01*
X24129571Y-7472438D01*
X24131573Y-7484410D01*
X24137146Y-7500546D01*
X24143255Y-7503438D01*
X24150060Y-7509949D01*
X24148680Y-7513290D01*
X24134697Y-7518693D01*
X24119138Y-7517010D01*
X24102180Y-7515534D01*
X24100295Y-7527840D01*
X24101821Y-7534341D01*
X24102358Y-7552603D01*
X24087779Y-7557793D01*
X24086496Y-7557804D01*
X24070866Y-7552859D01*
X24071449Y-7537593D01*
X24071040Y-7513892D01*
X24054541Y-7500885D01*
X24025951Y-7500940D01*
X24014879Y-7504110D01*
X23988905Y-7519132D01*
X23977382Y-7545127D01*
X23976486Y-7550317D01*
X23975938Y-7578649D01*
X23982018Y-7598453D01*
X23982118Y-7598579D01*
X23998494Y-7609906D01*
X24015263Y-7611046D01*
X24023006Y-7601372D01*
X24023007Y-7601297D01*
X24027408Y-7590336D01*
X24035941Y-7594472D01*
X24041603Y-7610126D01*
X24041663Y-7610833D01*
X24035770Y-7627507D01*
X24024948Y-7629861D01*
X24010835Y-7635964D01*
X24009164Y-7652251D01*
X24006064Y-7670721D01*
X23990502Y-7674430D01*
X23975192Y-7668037D01*
X23975325Y-7649127D01*
X23974267Y-7625076D01*
X23956814Y-7614445D01*
X23929348Y-7616946D01*
X23909808Y-7626311D01*
X23908207Y-7642730D01*
X23908666Y-7644252D01*
X23909999Y-7658936D01*
X23896746Y-7659828D01*
X23892055Y-7658691D01*
X23877477Y-7651719D01*
X23882319Y-7644379D01*
X23890965Y-7630012D01*
X23886084Y-7614265D01*
X23872109Y-7606855D01*
X23865756Y-7608081D01*
X23851541Y-7607819D01*
X23849034Y-7602461D01*
X23857075Y-7590987D01*
X23860549Y-7590424D01*
X23867043Y-7583763D01*
X23865344Y-7579551D01*
X23865541Y-7569502D01*
X23868976Y-7568678D01*
X23881567Y-7577309D01*
X23885262Y-7584144D01*
X23898125Y-7594625D01*
X23916876Y-7592412D01*
X23932240Y-7580401D01*
X23936020Y-7568299D01*
X23939277Y-7542347D01*
X23941960Y-7533232D01*
X23937345Y-7516946D01*
X23916466Y-7492951D01*
X23900268Y-7478725D01*
X23852638Y-7439695D01*
X23755695Y-7469860D01*
X23658752Y-7500024D01*
X23646012Y-7601894D01*
X23633273Y-7703763D01*
X23673196Y-7739064D01*
X23702151Y-7762741D01*
X23723745Y-7772900D01*
X23745729Y-7771662D01*
X23766777Y-7764666D01*
X23785516Y-7751074D01*
X23794569Y-7732641D01*
X23792410Y-7716565D01*
X23778358Y-7710030D01*
X23763660Y-7706130D01*
X23767544Y-7693392D01*
X23778358Y-7681294D01*
X23791526Y-7670449D01*
X23796958Y-7677284D01*
X23798745Y-7690853D01*
X23807166Y-7702659D01*
X23822881Y-7708361D01*
X23835843Y-7705637D01*
X23838161Y-7699954D01*
X23842575Y-7688423D01*
X23851125Y-7692252D01*
X23856772Y-7708142D01*
X23856817Y-7708693D01*
X23850924Y-7725367D01*
X23840108Y-7727721D01*
X23824517Y-7734794D01*
X23818571Y-7753344D01*
X23823434Y-7774825D01*
X23832199Y-7785708D01*
X23850535Y-7793937D01*
X23864074Y-7787197D01*
X23878033Y-7781195D01*
X23885821Y-7792192D01*
X23891766Y-7812063D01*
X23885639Y-7817803D01*
X23873499Y-7816522D01*
X23858476Y-7820482D01*
X23855296Y-7837434D01*
X23850799Y-7855919D01*
X23836548Y-7858555D01*
X23817985Y-7853016D01*
X23807561Y-7845661D01*
X23810547Y-7840823D01*
X23814602Y-7840510D01*
X23825879Y-7833365D01*
X23825252Y-7818380D01*
X23813710Y-7805223D01*
X23810859Y-7803912D01*
X23788537Y-7801319D01*
X23762921Y-7803910D01*
X23739611Y-7813101D01*
X23727746Y-7833178D01*
X23724456Y-7847292D01*
X23721500Y-7875302D01*
X23723587Y-7894060D01*
X23724106Y-7895061D01*
X23738770Y-7904260D01*
X23758428Y-7904600D01*
X23772240Y-7896716D01*
X23773685Y-7892158D01*
X23777563Y-7889489D01*
X23783794Y-7900313D01*
X23792455Y-7924029D01*
X23789213Y-7932691D01*
X23772306Y-7930483D01*
X23771204Y-7930198D01*
X23754237Y-7928718D01*
X23752349Y-7941019D01*
X23753876Y-7947525D01*
X23754340Y-7965959D01*
X23740301Y-7970989D01*
X23725672Y-7964793D01*
X23725765Y-7951201D01*
X23723387Y-7927367D01*
X23706606Y-7913194D01*
X23682200Y-7913419D01*
X23675757Y-7916251D01*
X23658163Y-7930316D01*
X23653692Y-7943332D01*
X23664352Y-7949239D01*
X23664830Y-7949243D01*
X23671635Y-7955754D01*
X23670256Y-7959095D01*
X23656203Y-7964690D01*
X23642202Y-7963204D01*
X23627447Y-7955641D01*
X23632171Y-7943080D01*
X23632275Y-7942954D01*
X23638775Y-7924407D01*
X23630906Y-7910849D01*
X23614159Y-7910104D01*
X23600743Y-7910578D01*
X23602672Y-7896722D01*
X23609988Y-7884003D01*
X23620549Y-7873587D01*
X23630153Y-7882354D01*
X23647216Y-7895614D01*
X23665148Y-7890864D01*
X23679063Y-7871065D01*
X23683797Y-7849845D01*
X23683455Y-7823434D01*
X23674156Y-7803336D01*
X23651612Y-7781236D01*
X23645981Y-7776540D01*
X23620435Y-7756804D01*
X23601533Y-7744587D01*
X23596353Y-7742650D01*
X23582256Y-7746939D01*
X23555987Y-7757845D01*
X23539697Y-7765279D01*
X23507032Y-7784073D01*
X23489818Y-7804615D01*
X23484163Y-7821569D01*
X23484378Y-7849750D01*
X23495354Y-7870529D01*
X23512689Y-7878867D01*
X23528828Y-7872668D01*
X23542178Y-7869215D01*
X23548749Y-7879178D01*
X23554507Y-7897590D01*
X23547536Y-7901182D01*
X23532769Y-7897781D01*
X23515831Y-7897067D01*
X23513279Y-7910591D01*
X23513562Y-7912391D01*
X23512976Y-7930595D01*
X23499327Y-7937340D01*
X23482061Y-7937511D01*
X23471757Y-7934726D01*
X23476624Y-7931168D01*
X23489209Y-7917493D01*
X23485471Y-7898829D01*
X23469971Y-7884807D01*
X23447013Y-7880694D01*
X23429196Y-7890544D01*
X23416499Y-7904799D01*
X23422325Y-7912798D01*
X23432293Y-7922000D01*
X23426017Y-7929907D01*
X23408715Y-7931720D01*
X23402989Y-7930584D01*
X23388235Y-7923022D01*
X23392959Y-7910460D01*
X23393063Y-7910334D01*
X23399562Y-7891787D01*
X23391694Y-7878230D01*
X23374946Y-7877484D01*
X23361534Y-7877969D01*
X23363462Y-7864239D01*
X23370975Y-7851383D01*
X23381045Y-7841195D01*
X23390502Y-7849846D01*
X23393135Y-7854173D01*
X23406172Y-7867008D01*
X23425012Y-7862229D01*
X23426170Y-7861617D01*
X23442860Y-7841960D01*
X23446558Y-7813197D01*
X23438233Y-7782895D01*
X23418857Y-7758619D01*
X23412422Y-7754391D01*
X23389313Y-7744380D01*
X23373191Y-7747568D01*
X23366076Y-7752774D01*
X23355012Y-7769180D01*
X23359805Y-7780790D01*
X23363098Y-7790863D01*
X23347926Y-7794242D01*
X23343630Y-7794298D01*
X23323091Y-7791061D01*
X23316243Y-7784784D01*
X23324557Y-7775538D01*
X23327116Y-7775270D01*
X23336763Y-7766463D01*
X23337990Y-7758960D01*
X23328925Y-7745677D01*
X23316243Y-7742650D01*
X23297897Y-7738645D01*
X23297249Y-7724695D01*
X23305107Y-7710083D01*
X23314812Y-7700094D01*
X23325476Y-7707847D01*
X23329692Y-7713393D01*
X23349066Y-7727508D01*
X23367605Y-7723769D01*
X23378770Y-7705308D01*
X23379353Y-7689613D01*
X23372384Y-7667989D01*
X23362454Y-7659741D01*
X23345135Y-7657492D01*
X23342650Y-7657023D01*
X23343904Y-7650177D01*
X23354892Y-7637316D01*
X23368357Y-7626000D01*
X23375269Y-7623044D01*
X23380793Y-7631908D01*
X23381483Y-7639354D01*
X23387138Y-7653957D01*
X23400290Y-7651780D01*
X23413363Y-7636636D01*
X23423640Y-7623930D01*
X23432960Y-7630283D01*
X23435484Y-7633917D01*
X23445849Y-7655503D01*
X23440228Y-7664264D01*
X23433389Y-7663819D01*
X23419418Y-7668019D01*
X23415853Y-7683989D01*
X23421854Y-7704883D01*
X23436583Y-7723857D01*
X23441161Y-7727258D01*
X23459005Y-7737484D01*
X23474695Y-7739604D01*
X23495979Y-7733051D01*
X23521892Y-7721346D01*
X23574232Y-7696831D01*
X23586604Y-7608289D01*
X23592357Y-7565689D01*
X23596682Y-7530940D01*
X23598845Y-7510036D01*
X23598962Y-7507475D01*
X23591036Y-7496583D01*
X23569172Y-7474560D01*
X23536232Y-7444090D01*
X23495075Y-7407853D01*
X23469113Y-7385711D01*
X23339278Y-7276221D01*
X23265239Y-7311929D01*
X23215302Y-7335721D01*
X23158707Y-7362258D01*
X23113245Y-7383250D01*
X23073788Y-7401970D01*
X23048647Y-7418142D01*
X23033790Y-7437508D01*
X23025182Y-7465816D01*
X23018790Y-7508810D01*
X23017414Y-7519748D01*
X23012465Y-7556468D01*
X23007720Y-7587296D01*
X23005968Y-7596926D01*
X23008951Y-7616782D01*
X23027600Y-7639803D01*
X23045322Y-7655089D01*
X23074883Y-7676435D01*
X23097904Y-7685110D01*
X23122945Y-7684096D01*
X23126664Y-7683432D01*
X23152617Y-7675596D01*
X23162875Y-7661888D01*
X23164017Y-7649735D01*
X23158048Y-7627980D01*
X23146930Y-7623044D01*
X23135653Y-7621142D01*
X23141114Y-7611903D01*
X23146154Y-7606734D01*
X23161936Y-7593529D01*
X23168677Y-7590424D01*
X23174201Y-7599288D01*
X23174890Y-7606734D01*
X23183594Y-7621150D01*
X23191200Y-7623044D01*
X23205670Y-7617173D01*
X23207510Y-7612171D01*
X23212412Y-7601298D01*
X23222763Y-7605526D01*
X23232035Y-7621805D01*
X23232632Y-7623903D01*
X23233358Y-7640428D01*
X23224352Y-7641063D01*
X23204726Y-7643215D01*
X23189803Y-7660392D01*
X23185764Y-7678852D01*
X23194309Y-7696482D01*
X23213447Y-7706148D01*
X23233434Y-7704563D01*
X23241321Y-7697602D01*
X23248834Y-7689904D01*
X23250837Y-7701875D01*
X23256410Y-7718012D01*
X23262518Y-7720904D01*
X23269323Y-7727415D01*
X23267944Y-7730756D01*
X23253960Y-7736159D01*
X23238402Y-7734476D01*
X23221443Y-7733000D01*
X23219559Y-7745305D01*
X23221085Y-7751806D01*
X23221622Y-7770069D01*
X23207043Y-7775259D01*
X23205759Y-7775270D01*
X23190129Y-7770325D01*
X23190713Y-7755059D01*
X23190304Y-7731358D01*
X23173805Y-7718351D01*
X23145215Y-7718405D01*
X23134143Y-7721576D01*
X23108169Y-7736598D01*
X23096646Y-7762593D01*
X23095750Y-7767783D01*
X23095201Y-7796115D01*
X23101281Y-7815918D01*
X23101382Y-7816045D01*
X23117758Y-7827372D01*
X23134527Y-7828511D01*
X23142270Y-7818838D01*
X23142270Y-7818763D01*
X23146671Y-7807801D01*
X23155205Y-7811938D01*
X23160867Y-7827592D01*
X23160927Y-7828299D01*
X23155034Y-7844973D01*
X23144212Y-7847327D01*
X23130099Y-7853430D01*
X23128427Y-7869717D01*
X23125328Y-7888187D01*
X23109766Y-7891895D01*
X23094455Y-7885503D01*
X23094588Y-7866593D01*
X23093530Y-7842542D01*
X23076078Y-7831911D01*
X23048612Y-7834412D01*
X23029072Y-7843776D01*
X23027471Y-7860195D01*
X23027930Y-7861717D01*
X23029263Y-7876402D01*
X23016010Y-7877294D01*
X23011318Y-7876157D01*
X22996741Y-7869185D01*
X23001583Y-7861845D01*
X23010229Y-7847478D01*
X23005347Y-7831731D01*
X22991373Y-7824321D01*
X22985019Y-7825546D01*
X22970355Y-7827132D01*
X22971513Y-7816627D01*
X22983552Y-7801956D01*
X22996557Y-7792199D01*
X23003749Y-7799679D01*
X23004633Y-7801889D01*
X23016940Y-7814751D01*
X23033368Y-7811361D01*
X23048624Y-7795070D01*
X23057413Y-7769230D01*
X23057514Y-7768409D01*
X23058050Y-7744576D01*
X23050309Y-7725940D01*
X23030360Y-7705371D01*
X23016173Y-7693438D01*
X22970452Y-7655974D01*
X22916175Y-7678530D01*
X22882586Y-7694663D01*
X22864361Y-7710660D01*
X22855793Y-7731748D01*
X22855255Y-7734299D01*
X22854194Y-7763249D01*
X22860857Y-7782263D01*
X22877890Y-7794335D01*
X22894919Y-7796103D01*
X22903044Y-7786749D01*
X22903058Y-7786143D01*
X22907459Y-7775182D01*
X22915993Y-7779318D01*
X22921655Y-7794972D01*
X22921714Y-7795679D01*
X22915821Y-7812353D01*
X22905000Y-7814707D01*
X22890199Y-7821691D01*
X22887573Y-7837434D01*
X22883076Y-7855919D01*
X22868825Y-7858555D01*
X22850262Y-7853016D01*
X22839838Y-7845661D01*
X22842824Y-7840823D01*
X22846879Y-7840510D01*
X22857688Y-7832647D01*
X22858163Y-7816228D01*
X22848074Y-7802071D01*
X22829565Y-7799079D01*
X22809399Y-7801792D01*
X22789859Y-7811156D01*
X22788259Y-7827576D01*
X22788717Y-7829098D01*
X22790051Y-7843782D01*
X22776798Y-7844674D01*
X22772106Y-7843537D01*
X22757528Y-7836565D01*
X22762371Y-7829225D01*
X22771017Y-7814858D01*
X22766135Y-7799111D01*
X22752160Y-7791701D01*
X22745807Y-7792927D01*
X22731455Y-7793386D01*
X22731815Y-7779830D01*
X22740324Y-7764397D01*
X22750493Y-7753961D01*
X22759851Y-7762758D01*
X22761879Y-7766104D01*
X22778737Y-7780549D01*
X22797194Y-7776976D01*
X22812260Y-7758091D01*
X22818338Y-7735475D01*
X22818164Y-7706311D01*
X22805758Y-7686581D01*
X22793217Y-7676621D01*
X22765953Y-7663678D01*
X22743504Y-7663827D01*
X22731473Y-7676140D01*
X22731169Y-7686904D01*
X22729912Y-7703136D01*
X22715081Y-7709410D01*
X22700571Y-7710030D01*
X22689058Y-7707016D01*
X22695542Y-7694836D01*
X22696070Y-7694197D01*
X22703527Y-7673471D01*
X22692647Y-7658714D01*
X22678183Y-7655664D01*
X22667144Y-7652916D01*
X22673175Y-7641255D01*
X22675146Y-7638839D01*
X22688994Y-7628699D01*
X22696809Y-7634472D01*
X22712602Y-7643145D01*
X22724952Y-7643049D01*
X22739944Y-7632516D01*
X22748671Y-7613103D01*
X22749665Y-7593050D01*
X22741458Y-7580592D01*
X22736262Y-7579551D01*
X22724895Y-7571843D01*
X22725935Y-7557804D01*
X22735216Y-7539935D01*
X22745657Y-7537400D01*
X22750826Y-7551603D01*
X22750832Y-7552368D01*
X22759536Y-7566783D01*
X22767142Y-7568678D01*
X22781557Y-7559974D01*
X22783452Y-7552368D01*
X22788182Y-7537562D01*
X22800257Y-7541217D01*
X22813548Y-7557804D01*
X22821307Y-7574095D01*
X22813319Y-7579266D01*
X22805291Y-7579551D01*
X22788302Y-7587455D01*
X22783385Y-7606154D01*
X22790886Y-7628129D01*
X22802480Y-7640528D01*
X22829116Y-7653323D01*
X22860131Y-7651574D01*
X22901041Y-7634945D01*
X22902027Y-7634443D01*
X22922672Y-7622553D01*
X22937083Y-7608820D01*
X22946983Y-7588903D01*
X22954096Y-7558465D01*
X22960144Y-7513164D01*
X22963790Y-7478889D01*
X22970826Y-7410211D01*
X22801474Y-7298367D01*
X22749897Y-7324503D01*
X22716237Y-7344587D01*
X22698009Y-7364827D01*
X22690794Y-7384903D01*
X22688871Y-7414558D01*
X22698022Y-7428517D01*
X22721527Y-7437471D01*
X22737497Y-7432929D01*
X22740723Y-7424607D01*
X22744601Y-7421938D01*
X22750832Y-7432762D01*
X22759952Y-7458859D01*
X22757082Y-7466946D01*
X22745524Y-7460052D01*
X22731233Y-7452619D01*
X22722814Y-7463636D01*
X22720813Y-7484823D01*
X22723327Y-7492044D01*
X22720409Y-7501051D01*
X22707248Y-7503438D01*
X22690450Y-7499074D01*
X22690542Y-7483226D01*
X22688823Y-7460158D01*
X22671934Y-7444869D01*
X22646297Y-7442547D01*
X22641699Y-7443762D01*
X22624809Y-7454898D01*
X22624803Y-7476196D01*
X22624816Y-7476248D01*
X22626676Y-7494292D01*
X22616066Y-7497189D01*
X22609428Y-7495702D01*
X22592611Y-7486875D01*
X22587667Y-7476318D01*
X22597557Y-7470837D01*
X22598606Y-7470818D01*
X22609248Y-7465011D01*
X22606135Y-7452929D01*
X22591909Y-7442582D01*
X22588996Y-7441679D01*
X22573710Y-7429916D01*
X22573954Y-7415514D01*
X22583248Y-7398159D01*
X22593711Y-7396338D01*
X22598606Y-7411015D01*
X22606189Y-7425455D01*
X22612741Y-7427325D01*
X22636043Y-7417637D01*
X22650087Y-7391290D01*
X22652972Y-7366666D01*
X22648677Y-7339749D01*
X22631522Y-7323755D01*
X22620548Y-7318673D01*
X22588018Y-7310314D01*
X22566137Y-7314728D01*
X22558600Y-7330646D01*
X22560246Y-7339384D01*
X22561774Y-7354396D01*
X22548781Y-7355448D01*
X22543767Y-7354239D01*
X22529189Y-7347267D01*
X22534032Y-7339927D01*
X22542357Y-7325587D01*
X22537850Y-7308994D01*
X22524741Y-7299844D01*
X22516965Y-7300813D01*
X22502781Y-7301746D01*
X22504236Y-7288425D01*
X22511985Y-7275099D01*
X22522055Y-7264910D01*
X22531513Y-7273562D01*
X22534146Y-7277889D01*
X22547528Y-7290759D01*
X22566567Y-7285661D01*
X22580243Y-7271425D01*
X22587444Y-7251437D01*
X22587466Y-7233005D01*
X22579605Y-7223433D01*
X22572486Y-7224257D01*
X22554495Y-7226213D01*
X22552008Y-7215647D01*
X22562912Y-7200507D01*
X22577870Y-7189831D01*
X22585047Y-7196365D01*
X22597744Y-7208550D01*
X22615165Y-7206507D01*
X22624055Y-7196267D01*
X22631531Y-7189344D01*
X22641105Y-7198986D01*
X22651963Y-7219549D01*
X22647020Y-7227018D01*
X22636663Y-7224664D01*
X22623051Y-7225873D01*
X22619103Y-7239727D01*
X22623784Y-7259939D01*
X22636060Y-7280221D01*
X22647478Y-7290371D01*
X22664369Y-7299832D01*
X22679816Y-7301404D01*
X22701033Y-7294221D01*
X22729027Y-7280565D01*
X22783452Y-7252986D01*
X22783452Y-7193617D01*
X22782027Y-7157395D01*
X22776097Y-7135662D01*
X22763177Y-7121254D01*
X22756801Y-7116785D01*
X22730309Y-7106072D01*
X22706457Y-7106641D01*
X22691549Y-7117016D01*
X22690568Y-7132293D01*
X22689303Y-7147290D01*
X22674712Y-7150833D01*
X22657033Y-7147246D01*
X22652972Y-7142289D01*
X22661311Y-7133982D01*
X22663846Y-7133746D01*
X22673492Y-7124939D01*
X22674719Y-7117436D01*
X22665654Y-7104153D01*
X22652972Y-7101126D01*
X22634580Y-7097076D01*
X22634126Y-7083182D01*
X22642465Y-7068506D01*
X22652634Y-7058071D01*
X22661992Y-7066867D01*
X22664019Y-7070213D01*
X22681282Y-7084352D01*
X22700407Y-7081987D01*
X22713971Y-7066278D01*
X22716079Y-7048057D01*
X22709107Y-7026447D01*
X22699184Y-7018217D01*
X22680551Y-7014793D01*
X22681440Y-7006535D01*
X22690802Y-6996504D01*
X22705571Y-6984855D01*
X22716537Y-6990429D01*
X22722651Y-6998304D01*
X22734500Y-7011585D01*
X22743251Y-7006343D01*
X22749085Y-6996912D01*
X22759847Y-6983050D01*
X22768982Y-6987850D01*
X22772213Y-6992393D01*
X22782539Y-7013249D01*
X22777086Y-7020435D01*
X22767142Y-7018072D01*
X22753361Y-7019210D01*
X22749271Y-7033086D01*
X22753800Y-7053538D01*
X22765879Y-7074406D01*
X22779020Y-7086474D01*
X22800859Y-7098362D01*
X22818170Y-7097096D01*
X22836105Y-7087410D01*
X22854694Y-7069345D01*
X22864527Y-7047093D01*
X22864044Y-7027708D01*
X22851684Y-7018247D01*
X22851410Y-7018217D01*
X22832924Y-7014919D01*
X22833017Y-7007315D01*
X22839969Y-6999280D01*
X22853212Y-6990355D01*
X22865866Y-6999845D01*
X22867581Y-7001998D01*
X22879606Y-7013623D01*
X22890323Y-7007642D01*
X22896102Y-7000548D01*
X22910252Y-6986368D01*
X22920717Y-6981447D01*
X22921843Y-6987769D01*
X22919368Y-6992393D01*
X22920230Y-7002413D01*
X22924163Y-7003267D01*
X22935245Y-7010310D01*
X22935678Y-7012932D01*
X22926785Y-7020396D01*
X22916655Y-7021087D01*
X22899787Y-7027514D01*
X22893820Y-7044939D01*
X22899194Y-7065296D01*
X22913496Y-7079147D01*
X22935322Y-7085634D01*
X22950678Y-7082005D01*
X22952856Y-7070268D01*
X22951523Y-7067755D01*
X22949338Y-7058274D01*
X22959080Y-7060882D01*
X22975288Y-7073943D01*
X22986132Y-7087112D01*
X22979297Y-7092544D01*
X22965728Y-7094330D01*
X22953517Y-7102863D01*
X22948415Y-7118644D01*
X22952296Y-7131542D01*
X22958439Y-7133746D01*
X22966867Y-7137009D01*
X22960084Y-7144016D01*
X22943132Y-7150596D01*
X22936477Y-7151916D01*
X22921602Y-7149683D01*
X22921680Y-7133645D01*
X22919212Y-7113317D01*
X22902172Y-7103867D01*
X22875821Y-7107241D01*
X22864268Y-7112392D01*
X22849159Y-7123047D01*
X22841190Y-7138533D01*
X22838169Y-7165303D01*
X22837818Y-7190169D01*
X22837818Y-7253791D01*
X22913117Y-7302501D01*
X22949415Y-7325075D01*
X22979453Y-7342095D01*
X22998089Y-7350699D01*
X23000653Y-7351212D01*
X23013434Y-7346946D01*
X23041571Y-7335450D01*
X23080709Y-7318671D01*
X23126490Y-7298561D01*
X23174557Y-7277067D01*
X23220554Y-7256141D01*
X23260124Y-7237730D01*
X23288910Y-7223786D01*
X23302556Y-7216257D01*
X23302877Y-7215977D01*
X23306075Y-7203300D01*
X23311687Y-7169568D01*
X23319634Y-7115329D01*
X23329841Y-7041131D01*
X23342229Y-6947522D01*
X23356721Y-6835050D01*
X23358839Y-6818421D01*
X23366825Y-6751290D01*
X23371171Y-6703060D01*
X23371990Y-6671215D01*
X23369399Y-6653234D01*
X23366593Y-6648374D01*
X23354293Y-6639300D01*
X23326262Y-6620380D01*
X23285167Y-6593360D01*
X23233679Y-6559985D01*
X23174467Y-6521998D01*
X23128358Y-6492650D01*
X22902417Y-6349309D01*
X22758667Y-6416396D01*
X22707052Y-6440749D01*
X22662440Y-6462297D01*
X22628578Y-6479193D01*
X22609212Y-6489588D01*
X22606354Y-6491521D01*
X22601032Y-6505283D01*
X22594121Y-6535188D01*
X22586801Y-6575813D01*
X22583903Y-6594673D01*
X22570014Y-6689786D01*
X22616580Y-6727943D01*
X22645567Y-6749934D01*
X22666008Y-6759281D01*
X22684902Y-6758547D01*
X22693397Y-6756071D01*
X22713956Y-6743394D01*
X22726426Y-6725440D01*
X22728561Y-6708593D01*
X22718117Y-6699236D01*
X22713532Y-6698815D01*
X22698211Y-6694966D01*
X22701715Y-6682400D01*
X22711999Y-6670855D01*
X22730302Y-6656697D01*
X22738908Y-6661350D01*
X22739959Y-6670990D01*
X22746688Y-6689550D01*
X22761230Y-6695301D01*
X22773794Y-6686616D01*
X22783608Y-6677432D01*
X22794042Y-6687764D01*
X22794159Y-6687941D01*
X22804344Y-6709604D01*
X22797842Y-6717717D01*
X22784329Y-6715403D01*
X22765838Y-6718009D01*
X22754968Y-6734167D01*
X22754859Y-6756150D01*
X22762138Y-6770013D01*
X22779490Y-6782728D01*
X22796674Y-6785066D01*
X22805152Y-6776053D01*
X22805198Y-6774928D01*
X22809600Y-6763966D01*
X22818133Y-6768102D01*
X22823795Y-6783756D01*
X22823855Y-6784463D01*
X22817962Y-6801137D01*
X22807140Y-6803492D01*
X22793027Y-6809594D01*
X22791356Y-6825881D01*
X22788256Y-6844352D01*
X22772694Y-6848060D01*
X22757551Y-6841981D01*
X22757341Y-6823522D01*
X22757789Y-6821672D01*
X22756197Y-6798675D01*
X22738455Y-6788270D01*
X22706884Y-6791576D01*
X22699822Y-6793743D01*
X22674490Y-6811574D01*
X22661303Y-6839317D01*
X22662293Y-6869078D01*
X22675184Y-6889518D01*
X22690683Y-6900936D01*
X22700280Y-6895891D01*
X22705539Y-6887263D01*
X22717209Y-6873267D01*
X22725729Y-6880103D01*
X22730770Y-6899970D01*
X22729469Y-6915837D01*
X22714021Y-6918717D01*
X22708647Y-6918076D01*
X22690366Y-6918124D01*
X22687104Y-6929803D01*
X22689567Y-6941510D01*
X22692128Y-6960690D01*
X22683060Y-6964642D01*
X22673949Y-6962723D01*
X22659200Y-6954948D01*
X22663127Y-6945269D01*
X22673930Y-6927420D01*
X22664501Y-6912469D01*
X22653760Y-6905829D01*
X22627968Y-6899186D01*
X22608318Y-6905950D01*
X22601259Y-6923269D01*
X22602149Y-6928653D01*
X22600631Y-6945113D01*
X22586508Y-6948900D01*
X22571908Y-6944858D01*
X22570801Y-6928791D01*
X22572394Y-6921717D01*
X22574432Y-6901574D01*
X22563528Y-6894867D01*
X22556199Y-6894534D01*
X22540446Y-6892255D01*
X22541644Y-6881415D01*
X22546866Y-6872421D01*
X22557654Y-6858497D01*
X22563150Y-6863271D01*
X22564065Y-6866985D01*
X22574132Y-6883169D01*
X22590449Y-6883234D01*
X22608056Y-6869694D01*
X22621989Y-6845062D01*
X22624608Y-6836309D01*
X22626906Y-6815365D01*
X22619339Y-6797427D01*
X22598422Y-6775508D01*
X22590944Y-6768804D01*
X22562650Y-6745254D01*
X22541214Y-6734705D01*
X22518425Y-6735968D01*
X22486075Y-6747848D01*
X22476036Y-6752121D01*
X22444449Y-6768452D01*
X22427838Y-6786371D01*
X22420740Y-6807987D01*
X22419022Y-6837078D01*
X22430042Y-6855299D01*
X22432760Y-6857475D01*
X22449837Y-6865920D01*
X22463148Y-6856778D01*
X22465408Y-6853897D01*
X22477168Y-6844309D01*
X22481267Y-6854471D01*
X22480287Y-6864632D01*
X22487306Y-6872452D01*
X22490515Y-6872787D01*
X22497320Y-6879298D01*
X22495941Y-6882640D01*
X22481952Y-6888057D01*
X22466514Y-6886389D01*
X22450254Y-6884628D01*
X22447461Y-6895434D01*
X22450163Y-6908125D01*
X22452945Y-6927747D01*
X22444499Y-6932123D01*
X22435226Y-6930231D01*
X22420567Y-6922207D01*
X22424366Y-6911166D01*
X22427548Y-6895351D01*
X22414626Y-6879008D01*
X22394506Y-6866529D01*
X22373777Y-6870973D01*
X22370469Y-6872679D01*
X22354812Y-6884752D01*
X22357721Y-6897782D01*
X22360023Y-6900729D01*
X22365676Y-6911788D01*
X22354695Y-6915911D01*
X22342240Y-6916280D01*
X22322189Y-6914385D01*
X22320968Y-6907372D01*
X22324599Y-6903232D01*
X22336914Y-6882388D01*
X22331573Y-6866810D01*
X22314569Y-6861914D01*
X22298809Y-6859608D01*
X22301970Y-6849468D01*
X22305454Y-6845089D01*
X22319302Y-6834949D01*
X22327117Y-6840722D01*
X22342885Y-6851713D01*
X22361209Y-6845528D01*
X22376850Y-6825296D01*
X22382816Y-6807482D01*
X22385898Y-6778965D01*
X22377798Y-6760485D01*
X22366938Y-6750464D01*
X22339526Y-6735718D01*
X22316538Y-6735306D01*
X22303310Y-6748337D01*
X22302165Y-6761281D01*
X22300287Y-6779163D01*
X22285253Y-6781876D01*
X22280418Y-6781082D01*
X22259005Y-6777102D01*
X22250661Y-6775569D01*
X22253286Y-6770143D01*
X22260400Y-6764985D01*
X22270143Y-6750133D01*
X22266578Y-6734059D01*
X22253340Y-6726033D01*
X22245636Y-6727344D01*
X22230900Y-6728951D01*
X22232253Y-6718139D01*
X22242367Y-6705242D01*
X22255626Y-6696503D01*
X22267119Y-6706293D01*
X22284608Y-6716145D01*
X22303638Y-6710568D01*
X22315218Y-6693157D01*
X22315901Y-6686778D01*
X22313650Y-6661088D01*
X22305022Y-6651621D01*
X22296872Y-6651395D01*
X22284580Y-6647996D01*
X22288430Y-6632112D01*
X22293891Y-6622755D01*
X22303553Y-6612897D01*
X22314278Y-6620587D01*
X22318925Y-6626679D01*
X22332108Y-6640216D01*
X22344364Y-6635879D01*
X22349566Y-6630976D01*
X22364563Y-6620801D01*
X22377899Y-6628444D01*
X22379160Y-6629771D01*
X22388108Y-6641903D01*
X22380295Y-6646918D01*
X22367549Y-6648526D01*
X22353239Y-6658076D01*
X22351082Y-6677590D01*
X22360286Y-6699555D01*
X22374361Y-6713245D01*
X22391661Y-6722838D01*
X22407973Y-6724641D01*
X22430956Y-6718194D01*
X22455547Y-6708345D01*
X22481966Y-6696603D01*
X22499873Y-6684498D01*
X22511401Y-6667577D01*
X22518683Y-6641387D01*
X22523851Y-6601478D01*
X22527830Y-6557462D01*
X22534844Y-6475912D01*
X22450577Y-6423332D01*
X22366309Y-6370752D01*
X22314430Y-6395051D01*
X22280432Y-6413981D01*
X22262181Y-6433331D01*
X22255477Y-6451552D01*
X22255048Y-6480798D01*
X22265026Y-6502195D01*
X22281528Y-6510868D01*
X22297775Y-6504602D01*
X22311891Y-6497922D01*
X22320067Y-6509144D01*
X22325809Y-6527533D01*
X22318715Y-6531104D01*
X22303425Y-6527574D01*
X22287299Y-6525744D01*
X22284335Y-6536192D01*
X22287313Y-6550300D01*
X22290343Y-6570631D01*
X22281913Y-6576079D01*
X22269887Y-6574542D01*
X22248329Y-6570544D01*
X22239788Y-6568977D01*
X22242413Y-6563550D01*
X22249527Y-6558393D01*
X22260895Y-6542876D01*
X22255478Y-6527025D01*
X22237306Y-6516798D01*
X22220821Y-6515959D01*
X22198581Y-6522781D01*
X22192836Y-6538765D01*
X22193035Y-6541540D01*
X22188339Y-6559696D01*
X22174007Y-6563675D01*
X22155371Y-6560009D01*
X22156753Y-6548226D01*
X22164902Y-6538837D01*
X22171376Y-6521937D01*
X22163143Y-6508539D01*
X22146265Y-6507450D01*
X22132852Y-6507935D01*
X22134781Y-6494204D01*
X22142293Y-6481349D01*
X22152363Y-6471160D01*
X22161821Y-6479812D01*
X22164454Y-6484139D01*
X22180160Y-6496355D01*
X22198124Y-6491171D01*
X22213433Y-6471718D01*
X22220396Y-6448487D01*
X22220096Y-6421791D01*
X22206175Y-6402138D01*
X22194778Y-6393283D01*
X22170036Y-6379298D01*
X22150513Y-6379653D01*
X22141513Y-6383711D01*
X22126265Y-6395685D01*
X22129693Y-6408910D01*
X22131684Y-6411431D01*
X22137478Y-6422722D01*
X22126180Y-6426717D01*
X22116076Y-6426982D01*
X22095013Y-6423419D01*
X22087561Y-6416109D01*
X22095836Y-6405552D01*
X22098435Y-6405236D01*
X22108081Y-6396429D01*
X22109308Y-6388926D01*
X22100121Y-6375676D01*
X22086230Y-6372616D01*
X22070679Y-6369918D01*
X22073969Y-6359627D01*
X22075262Y-6358024D01*
X22082160Y-6342169D01*
X22080218Y-6336277D01*
X22081372Y-6329692D01*
X22085749Y-6329123D01*
X22096991Y-6337899D01*
X22098435Y-6345433D01*
X22103942Y-6359601D01*
X22122466Y-6359523D01*
X22135602Y-6355143D01*
X22148790Y-6341731D01*
X22152770Y-6321335D01*
X22147584Y-6303214D01*
X22135328Y-6296503D01*
X22123047Y-6290018D01*
X22124455Y-6279304D01*
X22130212Y-6261971D01*
X22131055Y-6257557D01*
X22139471Y-6253128D01*
X22141928Y-6253010D01*
X22151574Y-6261817D01*
X22152801Y-6269320D01*
X22161505Y-6283735D01*
X22169111Y-6285630D01*
X22183527Y-6276926D01*
X22185421Y-6269320D01*
X22190966Y-6254666D01*
X22202667Y-6256763D01*
X22211441Y-6270209D01*
X22217310Y-6289511D01*
X22211673Y-6295938D01*
X22201731Y-6296503D01*
X22187664Y-6304085D01*
X22185249Y-6322062D01*
X22193291Y-6343285D01*
X22210597Y-6360601D01*
X22212625Y-6361754D01*
X22231033Y-6369161D01*
X22249843Y-6368536D01*
X22276587Y-6358873D01*
X22294175Y-6350859D01*
X22348520Y-6325405D01*
X22348520Y-6263275D01*
X22347287Y-6226397D01*
X22341999Y-6204226D01*
X22330278Y-6189785D01*
X22321226Y-6183261D01*
X22296227Y-6171763D01*
X22274427Y-6175884D01*
X22271595Y-6177332D01*
X22256683Y-6190011D01*
X22260738Y-6203120D01*
X22267527Y-6219144D01*
X22256252Y-6225638D01*
X22238929Y-6223316D01*
X22224623Y-6215756D01*
X22229621Y-6203228D01*
X22236120Y-6184681D01*
X22228252Y-6171123D01*
X22211504Y-6170378D01*
X22198233Y-6170678D01*
X22198759Y-6159938D01*
X22211547Y-6145154D01*
X22225345Y-6138033D01*
X22231056Y-6145266D01*
X22243702Y-6152916D01*
X22259297Y-6150424D01*
X22275435Y-6137874D01*
X22283425Y-6118218D01*
X22282099Y-6099573D01*
X22270293Y-6090054D01*
X22267989Y-6089910D01*
X22257304Y-6081918D01*
X22258384Y-6068164D01*
X22267664Y-6050295D01*
X22278106Y-6047759D01*
X22283274Y-6061963D01*
X22283281Y-6062727D01*
X22291984Y-6077143D01*
X22299591Y-6079037D01*
X22314006Y-6070333D01*
X22315901Y-6062727D01*
X22320787Y-6047952D01*
X22331158Y-6049961D01*
X22340579Y-6067350D01*
X22340798Y-6068164D01*
X22339928Y-6086330D01*
X22331192Y-6089910D01*
X22317330Y-6097240D01*
X22315749Y-6114932D01*
X22324932Y-6136538D01*
X22343363Y-6155613D01*
X22347237Y-6158099D01*
X22369976Y-6169722D01*
X22386005Y-6168731D01*
X22406836Y-6154378D01*
X22407040Y-6154217D01*
X22427897Y-6131392D01*
X22435271Y-6109592D01*
X22428614Y-6094138D01*
X22413668Y-6089910D01*
X22398810Y-6087506D01*
X22400593Y-6076335D01*
X22405410Y-6068164D01*
X22419942Y-6050839D01*
X22430754Y-6047156D01*
X22432922Y-6058699D01*
X22432788Y-6059363D01*
X22439273Y-6072172D01*
X22449098Y-6076470D01*
X22465261Y-6072927D01*
X22468127Y-6063525D01*
X22472995Y-6048170D01*
X22483350Y-6049855D01*
X22492816Y-6067390D01*
X22493024Y-6068164D01*
X22492124Y-6086339D01*
X22483077Y-6089910D01*
X22465885Y-6098382D01*
X22460086Y-6117800D01*
X22468241Y-6138979D01*
X22487069Y-6151619D01*
X22508734Y-6154753D01*
X22523390Y-6147262D01*
X22524305Y-6145348D01*
X22533126Y-6143768D01*
X22541950Y-6150785D01*
X22549255Y-6162415D01*
X22538123Y-6165932D01*
X22532616Y-6166023D01*
X22516203Y-6169522D01*
X22514128Y-6184223D01*
X22516085Y-6193207D01*
X22518060Y-6213481D01*
X22507360Y-6220154D01*
X22501972Y-6220390D01*
X22486424Y-6214759D01*
X22486330Y-6200143D01*
X22483910Y-6180627D01*
X22467502Y-6172272D01*
X22442652Y-6176682D01*
X22429500Y-6183707D01*
X22413922Y-6196920D01*
X22405920Y-6214810D01*
X22403139Y-6244369D01*
X22402961Y-6262415D01*
X22402837Y-6287750D01*
X22404295Y-6306068D01*
X22410189Y-6320728D01*
X22423372Y-6335091D01*
X22446698Y-6352520D01*
X22483019Y-6376374D01*
X22519840Y-6400072D01*
X22566117Y-6429959D01*
X22720996Y-6356496D01*
X22875875Y-6283034D01*
X22875912Y-6281573D01*
X22946551Y-6281573D01*
X23177609Y-6430584D01*
X23261438Y-6483881D01*
X23329001Y-6525173D01*
X23379962Y-6554268D01*
X23413981Y-6570973D01*
X23430413Y-6575169D01*
X23445036Y-6569652D01*
X23476946Y-6555931D01*
X23523762Y-6535083D01*
X23583105Y-6508187D01*
X23652595Y-6476321D01*
X23729852Y-6440562D01*
X23805541Y-6405248D01*
X23889778Y-6365822D01*
X23970075Y-6328287D01*
X24043735Y-6293899D01*
X24108058Y-6263918D01*
X24160344Y-6239601D01*
X24197895Y-6222208D01*
X24216008Y-6213898D01*
X24273092Y-6188044D01*
X24273092Y-6184499D01*
X24359850Y-6184499D01*
X24596458Y-6335485D01*
X24762163Y-6441191D01*
X24910476Y-6535721D01*
X25042305Y-6619642D01*
X25158561Y-6693524D01*
X25260154Y-6757934D01*
X25347993Y-6813441D01*
X25422988Y-6860612D01*
X25486049Y-6900017D01*
X25538086Y-6932222D01*
X25580008Y-6957797D01*
X25612725Y-6977310D01*
X25637147Y-6991328D01*
X25654183Y-7000420D01*
X25664744Y-7005155D01*
X25669739Y-7006100D01*
X25670005Y-7005987D01*
X25684056Y-6997305D01*
X25711005Y-6980238D01*
X25745478Y-6958194D01*
X25751859Y-6954094D01*
X25784058Y-6933456D01*
X25830166Y-6903988D01*
X25885739Y-6868526D01*
X25946335Y-6829904D01*
X26001945Y-6794500D01*
X26126014Y-6715549D01*
X26247475Y-6638246D01*
X26364240Y-6563918D01*
X26474222Y-6493895D01*
X26575335Y-6429506D01*
X26665491Y-6372079D01*
X26742603Y-6322944D01*
X26804586Y-6283429D01*
X26831148Y-6266484D01*
X26959023Y-6184878D01*
X26956190Y-5716848D01*
X26953392Y-5254441D01*
X27045551Y-5254441D01*
X27051217Y-6189473D01*
X27295866Y-6303404D01*
X27376143Y-6340855D01*
X27461545Y-6380812D01*
X27546325Y-6420579D01*
X27624740Y-6457461D01*
X27691044Y-6488760D01*
X27709051Y-6497292D01*
X27765407Y-6523682D01*
X27815563Y-6546517D01*
X27855972Y-6564234D01*
X27883085Y-6575269D01*
X27892680Y-6578229D01*
X27906001Y-6572870D01*
X27934577Y-6557338D01*
X27975467Y-6533370D01*
X28025729Y-6502701D01*
X28082424Y-6467067D01*
X28099272Y-6456293D01*
X28159482Y-6417714D01*
X28216025Y-6381610D01*
X28265411Y-6350197D01*
X28304151Y-6325696D01*
X28328757Y-6310323D01*
X28331547Y-6308617D01*
X28372322Y-6283856D01*
X28372181Y-6113489D01*
X28372041Y-5943121D01*
X28209097Y-5837107D01*
X28157511Y-5859393D01*
X28122976Y-5877497D01*
X28103768Y-5897303D01*
X28096030Y-5915707D01*
X28091609Y-5944076D01*
X28100211Y-5963555D01*
X28103639Y-5967240D01*
X28120208Y-5978629D01*
X28135831Y-5972507D01*
X28138000Y-5970757D01*
X28151513Y-5961918D01*
X28154856Y-5962647D01*
X28158279Y-5976795D01*
X28161152Y-5984932D01*
X28161280Y-5996323D01*
X28145603Y-5995614D01*
X28143902Y-5995180D01*
X28126436Y-5994053D01*
X28123399Y-6006644D01*
X28123836Y-6009565D01*
X28123250Y-6027770D01*
X28109601Y-6034515D01*
X28092335Y-6034686D01*
X28082031Y-6031901D01*
X28086898Y-6028343D01*
X28099404Y-6014290D01*
X28095496Y-5994080D01*
X28084875Y-5981754D01*
X28063739Y-5974940D01*
X28042686Y-5982147D01*
X28029715Y-5998763D01*
X28029737Y-6013559D01*
X28030859Y-6028098D01*
X28017155Y-6028725D01*
X28013721Y-6027878D01*
X27998640Y-6020312D01*
X28002980Y-6007943D01*
X28003337Y-6007509D01*
X28009836Y-5988962D01*
X28001968Y-5975404D01*
X27985220Y-5974658D01*
X27971805Y-5975133D01*
X27973733Y-5961277D01*
X27981050Y-5948558D01*
X27991584Y-5938116D01*
X28001272Y-5947003D01*
X28019164Y-5956556D01*
X28033892Y-5954425D01*
X28052514Y-5938951D01*
X28058557Y-5913272D01*
X28052362Y-5884675D01*
X28034270Y-5860448D01*
X28029318Y-5856810D01*
X28002445Y-5845614D01*
X27978861Y-5845862D01*
X27964641Y-5856229D01*
X27964117Y-5871008D01*
X27962431Y-5886658D01*
X27948262Y-5891202D01*
X27930255Y-5887643D01*
X27927589Y-5877882D01*
X27939346Y-5869980D01*
X27946942Y-5858050D01*
X27945195Y-5847511D01*
X27931611Y-5834765D01*
X27921492Y-5835735D01*
X27907498Y-5838537D01*
X27906352Y-5828266D01*
X27911370Y-5813531D01*
X27922687Y-5798301D01*
X27933728Y-5799621D01*
X27937390Y-5812642D01*
X27945071Y-5826667D01*
X27964476Y-5826477D01*
X27979116Y-5819400D01*
X27988638Y-5803620D01*
X27989224Y-5781245D01*
X27981914Y-5762463D01*
X27972728Y-5756916D01*
X27954022Y-5753553D01*
X27954490Y-5745717D01*
X27963020Y-5736529D01*
X27981618Y-5721831D01*
X27990472Y-5725715D01*
X27991757Y-5736529D01*
X28000460Y-5750944D01*
X28008067Y-5752839D01*
X28022482Y-5744135D01*
X28024377Y-5736529D01*
X28030248Y-5722059D01*
X28035250Y-5720219D01*
X28045841Y-5723738D01*
X28046123Y-5724766D01*
X28049507Y-5737542D01*
X28052770Y-5746636D01*
X28053553Y-5758869D01*
X28041897Y-5757235D01*
X28027873Y-5758513D01*
X28023198Y-5772601D01*
X28027100Y-5793065D01*
X28038806Y-5813466D01*
X28049829Y-5823381D01*
X28066417Y-5832221D01*
X28083070Y-5833447D01*
X28107120Y-5826463D01*
X28131379Y-5816745D01*
X28187476Y-5793432D01*
X28187476Y-5729922D01*
X28186581Y-5693544D01*
X28182160Y-5672242D01*
X28171609Y-5659363D01*
X28156297Y-5650287D01*
X28132707Y-5640291D01*
X28116696Y-5642326D01*
X28104649Y-5650691D01*
X28091992Y-5664918D01*
X28097839Y-5672901D01*
X28107807Y-5682102D01*
X28101531Y-5690010D01*
X28084229Y-5691823D01*
X28078503Y-5690687D01*
X28063749Y-5683124D01*
X28068473Y-5670563D01*
X28068577Y-5670437D01*
X28074963Y-5650587D01*
X28064169Y-5635949D01*
X28051936Y-5633232D01*
X28041876Y-5625025D01*
X28042973Y-5611486D01*
X28052253Y-5593617D01*
X28062695Y-5591081D01*
X28067863Y-5605285D01*
X28067870Y-5606049D01*
X28073377Y-5620218D01*
X28091901Y-5620139D01*
X28105037Y-5615759D01*
X28118096Y-5602417D01*
X28122167Y-5582035D01*
X28117225Y-5563885D01*
X28105193Y-5557119D01*
X28093506Y-5551456D01*
X28095575Y-5533728D01*
X28098195Y-5517030D01*
X28088534Y-5515932D01*
X28086497Y-5516669D01*
X28067240Y-5518423D01*
X28062423Y-5507561D01*
X28068666Y-5496357D01*
X28072390Y-5482745D01*
X28057003Y-5470137D01*
X28030662Y-5465060D01*
X28011575Y-5476753D01*
X28005747Y-5500698D01*
X28006990Y-5507771D01*
X28006938Y-5525844D01*
X27991920Y-5530713D01*
X27975467Y-5523768D01*
X27973269Y-5508578D01*
X27968245Y-5489973D01*
X27957186Y-5486304D01*
X27936694Y-5481870D01*
X27930909Y-5478149D01*
X27931197Y-5470798D01*
X27935578Y-5470133D01*
X27946659Y-5464739D01*
X27946976Y-5461978D01*
X27947267Y-5443749D01*
X27955822Y-5444939D01*
X27961983Y-5452119D01*
X27978836Y-5464009D01*
X27994512Y-5458309D01*
X28004966Y-5438986D01*
X28006149Y-5410005D01*
X28005992Y-5408987D01*
X27998779Y-5386238D01*
X27982166Y-5369004D01*
X27950558Y-5351606D01*
X27948514Y-5350644D01*
X27917503Y-5337378D01*
X27894800Y-5333671D01*
X27873419Y-5340973D01*
X27846372Y-5360734D01*
X27828832Y-5375493D01*
X27806676Y-5396543D01*
X27798767Y-5413605D01*
X27801680Y-5435366D01*
X27803149Y-5440658D01*
X27816293Y-5465651D01*
X27834871Y-5479666D01*
X27852863Y-5479338D01*
X27859974Y-5472406D01*
X27871581Y-5469643D01*
X27880734Y-5476773D01*
X27888141Y-5488451D01*
X27876776Y-5491823D01*
X27872579Y-5491880D01*
X27855659Y-5500019D01*
X27849880Y-5517673D01*
X27857089Y-5534696D01*
X27863996Y-5539045D01*
X27865069Y-5543187D01*
X27848704Y-5545388D01*
X27828147Y-5542968D01*
X27823994Y-5531348D01*
X27825115Y-5525999D01*
X27822596Y-5506422D01*
X27806920Y-5497529D01*
X27784906Y-5501410D01*
X27772462Y-5509845D01*
X27759287Y-5528354D01*
X27763161Y-5539465D01*
X27773617Y-5555261D01*
X27764092Y-5562576D01*
X27753085Y-5563333D01*
X27736358Y-5556566D01*
X27734057Y-5541198D01*
X27729158Y-5522321D01*
X27719924Y-5517599D01*
X27699761Y-5515493D01*
X27695077Y-5514880D01*
X27692958Y-5505914D01*
X27699108Y-5490141D01*
X27709352Y-5474333D01*
X27717022Y-5477020D01*
X27722115Y-5485307D01*
X27735465Y-5496761D01*
X27749093Y-5490456D01*
X27759552Y-5470058D01*
X27763418Y-5441349D01*
X27759848Y-5413648D01*
X27745675Y-5398418D01*
X27734373Y-5393312D01*
X27699090Y-5385082D01*
X27678467Y-5392693D01*
X27672699Y-5416070D01*
X27672735Y-5416671D01*
X27668557Y-5439100D01*
X27655650Y-5445324D01*
X27640378Y-5438682D01*
X27637600Y-5423099D01*
X27631903Y-5403958D01*
X27620123Y-5400837D01*
X27605331Y-5393963D01*
X27603409Y-5381809D01*
X27608845Y-5365819D01*
X27617396Y-5361223D01*
X27622058Y-5371600D01*
X27622065Y-5372273D01*
X27629575Y-5382151D01*
X27646414Y-5380606D01*
X27664041Y-5368614D01*
X27665125Y-5367359D01*
X27673596Y-5346038D01*
X27669657Y-5325121D01*
X27656352Y-5312459D01*
X27643836Y-5312463D01*
X27629436Y-5313455D01*
X27628947Y-5299523D01*
X27629671Y-5296607D01*
X27638494Y-5279535D01*
X27649038Y-5274271D01*
X27654648Y-5283827D01*
X27654685Y-5285287D01*
X27660931Y-5296058D01*
X27674424Y-5293874D01*
X27687292Y-5281411D01*
X27690827Y-5272991D01*
X27697183Y-5257035D01*
X27707312Y-5260558D01*
X27713842Y-5266778D01*
X27728991Y-5285668D01*
X27725731Y-5294733D01*
X27714488Y-5296160D01*
X27701370Y-5305613D01*
X27698178Y-5323344D01*
X27702826Y-5343821D01*
X27711770Y-5350675D01*
X27733009Y-5353492D01*
X27748422Y-5357013D01*
X27772171Y-5354877D01*
X27802391Y-5335791D01*
X27810943Y-5328555D01*
X27835777Y-5303808D01*
X27847057Y-5281381D01*
X27849411Y-5251667D01*
X27849355Y-5248823D01*
X27846273Y-5210684D01*
X27839663Y-5165642D01*
X27835764Y-5145631D01*
X27823221Y-5087524D01*
X27524117Y-4948962D01*
X27426443Y-5011110D01*
X27380082Y-5040644D01*
X27322168Y-5077589D01*
X27259462Y-5117630D01*
X27198725Y-5156452D01*
X27187160Y-5163849D01*
X27045551Y-5254441D01*
X26953392Y-5254441D01*
X26953358Y-5248818D01*
X26481890Y-4949072D01*
X26331956Y-5019066D01*
X26267313Y-5050423D01*
X26218448Y-5076660D01*
X26186900Y-5096892D01*
X26174355Y-5109786D01*
X26170203Y-5130361D01*
X26166307Y-5165575D01*
X26163428Y-5208329D01*
X26163148Y-5214546D01*
X26159608Y-5298581D01*
X26198229Y-5330149D01*
X26227306Y-5350409D01*
X26251637Y-5356920D01*
X26270661Y-5354956D01*
X26298186Y-5343093D01*
X26310668Y-5324817D01*
X26306116Y-5305471D01*
X26293074Y-5294849D01*
X26278605Y-5284237D01*
X26283126Y-5275284D01*
X26285900Y-5273412D01*
X26307282Y-5264299D01*
X26316592Y-5272507D01*
X26317270Y-5279851D01*
X26325016Y-5293376D01*
X26341445Y-5295011D01*
X26356044Y-5284126D01*
X26365860Y-5279164D01*
X26372829Y-5286845D01*
X26381836Y-5307749D01*
X26374254Y-5315139D01*
X26362111Y-5312898D01*
X26344777Y-5316007D01*
X26334284Y-5332546D01*
X26333664Y-5354535D01*
X26340803Y-5368989D01*
X26357653Y-5380685D01*
X26374593Y-5382120D01*
X26382507Y-5372578D01*
X26382510Y-5372273D01*
X26391004Y-5362014D01*
X26395196Y-5361400D01*
X26402507Y-5365765D01*
X26400727Y-5368555D01*
X26400443Y-5381619D01*
X26405787Y-5390428D01*
X26410919Y-5400936D01*
X26398550Y-5402894D01*
X26392101Y-5402301D01*
X26372396Y-5404320D01*
X26366932Y-5419802D01*
X26366975Y-5423099D01*
X26361617Y-5441931D01*
X26347947Y-5445250D01*
X26330224Y-5439917D01*
X26332789Y-5427205D01*
X26339478Y-5419655D01*
X26344950Y-5404831D01*
X26333953Y-5393085D01*
X26311757Y-5387114D01*
X26283637Y-5389610D01*
X26281716Y-5390134D01*
X26256379Y-5401232D01*
X26245477Y-5420353D01*
X26243134Y-5435848D01*
X26245527Y-5468432D01*
X26257218Y-5492980D01*
X26274984Y-5502753D01*
X26275109Y-5502753D01*
X26283277Y-5493793D01*
X26284651Y-5484268D01*
X26288555Y-5472854D01*
X26294747Y-5476113D01*
X26307517Y-5497143D01*
X26304293Y-5513254D01*
X26290087Y-5518555D01*
X26272913Y-5525711D01*
X26270518Y-5541198D01*
X26265822Y-5559353D01*
X26251490Y-5563333D01*
X26232997Y-5558635D01*
X26233063Y-5547579D01*
X26241157Y-5540809D01*
X26251362Y-5527810D01*
X26241029Y-5512741D01*
X26230714Y-5505545D01*
X26205655Y-5497246D01*
X26186098Y-5502691D01*
X26178480Y-5519310D01*
X26179460Y-5525999D01*
X26177942Y-5542459D01*
X26163819Y-5546246D01*
X26149219Y-5542203D01*
X26148113Y-5526136D01*
X26149706Y-5519063D01*
X26151752Y-5498936D01*
X26140805Y-5492226D01*
X26133175Y-5491880D01*
X26117404Y-5489668D01*
X26120667Y-5480341D01*
X26123841Y-5476773D01*
X26138564Y-5468471D01*
X26144601Y-5472406D01*
X26159856Y-5481761D01*
X26178375Y-5474645D01*
X26194516Y-5454426D01*
X26200281Y-5439155D01*
X26204422Y-5416124D01*
X26199888Y-5398883D01*
X26183361Y-5379856D01*
X26168348Y-5366230D01*
X26142021Y-5345054D01*
X26120818Y-5331639D01*
X26113687Y-5329233D01*
X26096739Y-5333450D01*
X26068464Y-5344693D01*
X26051166Y-5352694D01*
X26021207Y-5369110D01*
X26006559Y-5384160D01*
X26002079Y-5403863D01*
X26001945Y-5410322D01*
X26007607Y-5442301D01*
X26022051Y-5464227D01*
X26036740Y-5470133D01*
X26044233Y-5461185D01*
X26045438Y-5452011D01*
X26048681Y-5440445D01*
X26055682Y-5445289D01*
X26062348Y-5462675D01*
X26063581Y-5469162D01*
X26059547Y-5485531D01*
X26047897Y-5487910D01*
X26033099Y-5494027D01*
X26031306Y-5508578D01*
X26026609Y-5526733D01*
X26012277Y-5530713D01*
X25993730Y-5526010D01*
X25994110Y-5514828D01*
X26002653Y-5507752D01*
X26006141Y-5495146D01*
X25996599Y-5481106D01*
X25976383Y-5468590D01*
X25955147Y-5467983D01*
X25940703Y-5478011D01*
X25938797Y-5490547D01*
X25937451Y-5506851D01*
X25922507Y-5512742D01*
X25906804Y-5512768D01*
X25896500Y-5509983D01*
X25901367Y-5506425D01*
X25913947Y-5492792D01*
X25910756Y-5474739D01*
X25894379Y-5461628D01*
X25880548Y-5453385D01*
X25886298Y-5442327D01*
X25888943Y-5439803D01*
X25901300Y-5432899D01*
X25904085Y-5437085D01*
X25912720Y-5445738D01*
X25931043Y-5448207D01*
X25947682Y-5443731D01*
X25951095Y-5440232D01*
X25956614Y-5424605D01*
X25962919Y-5399265D01*
X25964973Y-5374792D01*
X25954432Y-5358595D01*
X25937995Y-5347582D01*
X25908445Y-5335941D01*
X25885525Y-5337135D01*
X25874192Y-5350023D01*
X25874808Y-5362132D01*
X25873142Y-5377592D01*
X25859740Y-5380093D01*
X25845357Y-5373779D01*
X25845582Y-5354674D01*
X25845828Y-5353677D01*
X25846873Y-5334717D01*
X25833516Y-5328894D01*
X25829059Y-5328780D01*
X25813281Y-5326462D01*
X25814638Y-5315523D01*
X25819623Y-5307034D01*
X25833557Y-5290076D01*
X25842103Y-5285287D01*
X25846330Y-5292004D01*
X25844747Y-5295409D01*
X25844176Y-5308264D01*
X25857863Y-5313335D01*
X25879100Y-5308612D01*
X25882774Y-5306801D01*
X25898307Y-5290820D01*
X25902581Y-5270900D01*
X25896031Y-5254859D01*
X25879621Y-5250426D01*
X25863664Y-5247919D01*
X25860592Y-5242271D01*
X25868938Y-5231361D01*
X25872107Y-5230921D01*
X25878601Y-5224259D01*
X25876902Y-5220047D01*
X25873926Y-5209783D01*
X25882066Y-5211384D01*
X25895667Y-5222868D01*
X25900168Y-5228202D01*
X25912903Y-5241086D01*
X25923305Y-5236178D01*
X25928689Y-5229652D01*
X25941984Y-5218207D01*
X25954825Y-5225372D01*
X25955872Y-5226475D01*
X25968336Y-5244301D01*
X25962062Y-5251229D01*
X25950297Y-5250426D01*
X25932881Y-5254521D01*
X25927112Y-5270309D01*
X25932721Y-5291286D01*
X25949441Y-5310954D01*
X25952890Y-5313388D01*
X25970534Y-5323513D01*
X25986113Y-5325706D01*
X26007185Y-5319362D01*
X26035106Y-5306780D01*
X26064846Y-5291817D01*
X26084496Y-5279950D01*
X26089166Y-5275274D01*
X26090788Y-5262375D01*
X26094923Y-5233250D01*
X26100815Y-5193171D01*
X26103713Y-5173805D01*
X26118024Y-5078632D01*
X26033157Y-5024751D01*
X25948291Y-4970871D01*
X25894734Y-4993128D01*
X25861350Y-5009248D01*
X25843316Y-5025421D01*
X25834877Y-5046949D01*
X25834536Y-5048597D01*
X25833475Y-5077547D01*
X25840138Y-5096561D01*
X25857171Y-5108633D01*
X25874200Y-5110401D01*
X25882325Y-5101047D01*
X25882339Y-5100441D01*
X25886740Y-5089480D01*
X25895274Y-5093616D01*
X25900935Y-5109270D01*
X25900995Y-5109977D01*
X25895102Y-5126651D01*
X25884281Y-5129005D01*
X25869480Y-5135989D01*
X25866854Y-5151732D01*
X25862357Y-5170217D01*
X25848106Y-5172853D01*
X25829543Y-5167314D01*
X25819119Y-5159959D01*
X25822105Y-5155121D01*
X25826160Y-5154808D01*
X25836969Y-5146945D01*
X25837444Y-5130526D01*
X25827354Y-5116369D01*
X25808846Y-5113377D01*
X25788680Y-5116090D01*
X25769141Y-5125453D01*
X25767539Y-5141871D01*
X25768000Y-5143400D01*
X25768795Y-5158797D01*
X25755026Y-5160180D01*
X25735715Y-5156521D01*
X25730113Y-5155473D01*
X25732739Y-5150026D01*
X25739852Y-5144865D01*
X25749595Y-5130013D01*
X25746030Y-5113939D01*
X25732792Y-5105914D01*
X25725088Y-5107225D01*
X25710874Y-5106962D01*
X25708366Y-5101605D01*
X25716407Y-5090131D01*
X25719881Y-5089568D01*
X25726375Y-5082907D01*
X25724676Y-5078695D01*
X25721951Y-5068552D01*
X25730101Y-5070049D01*
X25742906Y-5081388D01*
X25745511Y-5084723D01*
X25763765Y-5095603D01*
X25783303Y-5090700D01*
X25794817Y-5073220D01*
X25795353Y-5067547D01*
X25798911Y-5040664D01*
X25801782Y-5031098D01*
X25798432Y-5013739D01*
X25780678Y-4996588D01*
X25755528Y-4983667D01*
X25729988Y-4979002D01*
X25716673Y-4982209D01*
X25702996Y-4994236D01*
X25708192Y-5007809D01*
X25714174Y-5022978D01*
X25703138Y-5029045D01*
X25681905Y-5024843D01*
X25668790Y-5016309D01*
X25673750Y-5009252D01*
X25686640Y-4993038D01*
X25681551Y-4977485D01*
X25661177Y-4969993D01*
X25659436Y-4969962D01*
X25638187Y-4976694D01*
X25632050Y-4991956D01*
X25643723Y-5008348D01*
X25645123Y-5009252D01*
X25649225Y-5017948D01*
X25636968Y-5024843D01*
X25613837Y-5028900D01*
X25604460Y-5021738D01*
X25610681Y-5007809D01*
X25615513Y-4994065D01*
X25601400Y-4981791D01*
X25600049Y-4981057D01*
X25580599Y-4975251D01*
X25559771Y-4982263D01*
X25544290Y-4992404D01*
X25522049Y-5013511D01*
X25517198Y-5031334D01*
X25517393Y-5031886D01*
X25522866Y-5056952D01*
X25523520Y-5067443D01*
X25531962Y-5085751D01*
X25550893Y-5093417D01*
X25570723Y-5088147D01*
X25577714Y-5080402D01*
X25587714Y-5068369D01*
X25597193Y-5075674D01*
X25599268Y-5078695D01*
X25609581Y-5100171D01*
X25604876Y-5109223D01*
X25593785Y-5107225D01*
X25576234Y-5109947D01*
X25570082Y-5119001D01*
X25570086Y-5136265D01*
X25575931Y-5141470D01*
X25588412Y-5151063D01*
X25583097Y-5160299D01*
X25567015Y-5162691D01*
X25551059Y-5155935D01*
X25551323Y-5141983D01*
X25549618Y-5125509D01*
X25530193Y-5116090D01*
X25505293Y-5113411D01*
X25491519Y-5116369D01*
X25481398Y-5130638D01*
X25481942Y-5147036D01*
X25492713Y-5154808D01*
X25500500Y-5158130D01*
X25493371Y-5165208D01*
X25476596Y-5171708D01*
X25470767Y-5172853D01*
X25455338Y-5168889D01*
X25452019Y-5151732D01*
X25446549Y-5132281D01*
X25434592Y-5129005D01*
X25419800Y-5122131D01*
X25417878Y-5109977D01*
X25423314Y-5093987D01*
X25431865Y-5089391D01*
X25436527Y-5099768D01*
X25436534Y-5100441D01*
X25444128Y-5110249D01*
X25460975Y-5108902D01*
X25478176Y-5097220D01*
X25478735Y-5096561D01*
X25485617Y-5075720D01*
X25484490Y-5049361D01*
X25476290Y-5027601D01*
X25458366Y-5011051D01*
X25425086Y-4994560D01*
X25424143Y-4994161D01*
X25370285Y-4971406D01*
X25202193Y-5080058D01*
X25214326Y-5177670D01*
X25220744Y-5221864D01*
X25227669Y-5257674D01*
X25233981Y-5279708D01*
X25236355Y-5283720D01*
X25251784Y-5292906D01*
X25279074Y-5306171D01*
X25292101Y-5311958D01*
X25321311Y-5323530D01*
X25339818Y-5325931D01*
X25356560Y-5319317D01*
X25366162Y-5313271D01*
X25384438Y-5294393D01*
X25391639Y-5273211D01*
X25387513Y-5256252D01*
X25371810Y-5250048D01*
X25368576Y-5250426D01*
X25351752Y-5249521D01*
X25353695Y-5237845D01*
X25363001Y-5226475D01*
X25376124Y-5218117D01*
X25389116Y-5228302D01*
X25390184Y-5229652D01*
X25401835Y-5240773D01*
X25412608Y-5235327D01*
X25420653Y-5225537D01*
X25434285Y-5211315D01*
X25443675Y-5214450D01*
X25447670Y-5220100D01*
X25457445Y-5242086D01*
X25450249Y-5250906D01*
X25439252Y-5250426D01*
X25422562Y-5255138D01*
X25416267Y-5271363D01*
X25420804Y-5291280D01*
X25436099Y-5306801D01*
X25457925Y-5313288D01*
X25473281Y-5309659D01*
X25475459Y-5297922D01*
X25474126Y-5295409D01*
X25474143Y-5285880D01*
X25476770Y-5285287D01*
X25488813Y-5293459D01*
X25499250Y-5307034D01*
X25506960Y-5323308D01*
X25498613Y-5328481D01*
X25489814Y-5328780D01*
X25473293Y-5332797D01*
X25471933Y-5348826D01*
X25473045Y-5353677D01*
X25473745Y-5373344D01*
X25459938Y-5380027D01*
X25459133Y-5380093D01*
X25444204Y-5375800D01*
X25444183Y-5361681D01*
X25441286Y-5342821D01*
X25424414Y-5333780D01*
X25399606Y-5335867D01*
X25377101Y-5347143D01*
X25357877Y-5366305D01*
X25354798Y-5389648D01*
X25356423Y-5399457D01*
X25362553Y-5425214D01*
X25367778Y-5440232D01*
X25380985Y-5447423D01*
X25400012Y-5447391D01*
X25413486Y-5440899D01*
X25414788Y-5437085D01*
X25420868Y-5433491D01*
X25429930Y-5439803D01*
X25438676Y-5451975D01*
X25428124Y-5460196D01*
X25424494Y-5461628D01*
X25407606Y-5475606D01*
X25405168Y-5493650D01*
X25417506Y-5506425D01*
X25421320Y-5511212D01*
X25412069Y-5512768D01*
X25387615Y-5511153D01*
X25379420Y-5500972D01*
X25380076Y-5490547D01*
X25374940Y-5473890D01*
X25357588Y-5466981D01*
X25335835Y-5471096D01*
X25322274Y-5481106D01*
X25311711Y-5499642D01*
X25316220Y-5507752D01*
X25327414Y-5520591D01*
X25318703Y-5529286D01*
X25306596Y-5530713D01*
X25289868Y-5523947D01*
X25287567Y-5508578D01*
X25282543Y-5489973D01*
X25271484Y-5486304D01*
X25250992Y-5481870D01*
X25245207Y-5478149D01*
X25245665Y-5470879D01*
X25250518Y-5470133D01*
X25258975Y-5464150D01*
X25257589Y-5460011D01*
X25258597Y-5446026D01*
X25261245Y-5443764D01*
X25272760Y-5446755D01*
X25277861Y-5455110D01*
X25288097Y-5465863D01*
X25300542Y-5460006D01*
X25311385Y-5441826D01*
X25316816Y-5415608D01*
X25316928Y-5411165D01*
X25314356Y-5388937D01*
X25303202Y-5373245D01*
X25278304Y-5357959D01*
X25267707Y-5352694D01*
X25237085Y-5338839D01*
X25213952Y-5330208D01*
X25207173Y-5328780D01*
X25189064Y-5336271D01*
X25164133Y-5354869D01*
X25138593Y-5378761D01*
X25118655Y-5402136D01*
X25110532Y-5419182D01*
X25110531Y-5419200D01*
X25117009Y-5450311D01*
X25133777Y-5473262D01*
X25153305Y-5481006D01*
X25172151Y-5476508D01*
X25177387Y-5471204D01*
X25186209Y-5469624D01*
X25195032Y-5476641D01*
X25202337Y-5488271D01*
X25191205Y-5491788D01*
X25185698Y-5491880D01*
X25169285Y-5495378D01*
X25167210Y-5510080D01*
X25169167Y-5519063D01*
X25170085Y-5540843D01*
X25156963Y-5546267D01*
X25145852Y-5543528D01*
X25140434Y-5532218D01*
X25140864Y-5523167D01*
X25135392Y-5506793D01*
X25117058Y-5499748D01*
X25093379Y-5503772D01*
X25082878Y-5509735D01*
X25069605Y-5523948D01*
X25075006Y-5537004D01*
X25075582Y-5537588D01*
X25087654Y-5554379D01*
X25080134Y-5562269D01*
X25067383Y-5563333D01*
X25050656Y-5556566D01*
X25048355Y-5541198D01*
X25043520Y-5522887D01*
X25028786Y-5518555D01*
X25012882Y-5511042D01*
X25012424Y-5493627D01*
X25024126Y-5476113D01*
X25032543Y-5474651D01*
X25034222Y-5484268D01*
X25038848Y-5500092D01*
X25043764Y-5502753D01*
X25061558Y-5493096D01*
X25073298Y-5468620D01*
X25075760Y-5436066D01*
X25075739Y-5435848D01*
X25069359Y-5409366D01*
X25052242Y-5395288D01*
X25037157Y-5390134D01*
X25008833Y-5386989D01*
X24986088Y-5392489D01*
X24974196Y-5403938D01*
X24978429Y-5418644D01*
X24979395Y-5419655D01*
X24989997Y-5435617D01*
X24980494Y-5443778D01*
X24969234Y-5445378D01*
X24952803Y-5441117D01*
X24950206Y-5423227D01*
X24947924Y-5405633D01*
X24931980Y-5401846D01*
X24926772Y-5402301D01*
X24909378Y-5402172D01*
X24910218Y-5394128D01*
X24913086Y-5390428D01*
X24920071Y-5374525D01*
X24918146Y-5368555D01*
X24919300Y-5361970D01*
X24923677Y-5361400D01*
X24935647Y-5368681D01*
X24936363Y-5372273D01*
X24944006Y-5382040D01*
X24960856Y-5380815D01*
X24977795Y-5369316D01*
X24978070Y-5368989D01*
X24986044Y-5348254D01*
X24982422Y-5326988D01*
X24970132Y-5313285D01*
X24957663Y-5312612D01*
X24943730Y-5313438D01*
X24943283Y-5299433D01*
X24944157Y-5295889D01*
X24951963Y-5280780D01*
X24961740Y-5284569D01*
X24980949Y-5295341D01*
X24996786Y-5291887D01*
X25001603Y-5279851D01*
X25006884Y-5265265D01*
X25023704Y-5268110D01*
X25032973Y-5273412D01*
X25040813Y-5282611D01*
X25029973Y-5292537D01*
X25025799Y-5294849D01*
X25012050Y-5310501D01*
X25009127Y-5330844D01*
X25016780Y-5346859D01*
X25027336Y-5350675D01*
X25047372Y-5353460D01*
X25062720Y-5357013D01*
X25086158Y-5354958D01*
X25116092Y-5336235D01*
X25126001Y-5327888D01*
X25166221Y-5292574D01*
X25158600Y-5210099D01*
X25152243Y-5153694D01*
X25144599Y-5115293D01*
X25134331Y-5091157D01*
X25120102Y-5077544D01*
X25109623Y-5073032D01*
X25090915Y-5065615D01*
X25057291Y-5050912D01*
X25013452Y-5031023D01*
X24964096Y-5008049D01*
X24962105Y-5007110D01*
X24838293Y-4948712D01*
X24601904Y-5099022D01*
X24365515Y-5249333D01*
X24362683Y-5716916D01*
X24359850Y-6184499D01*
X24273092Y-6184499D01*
X24273092Y-5253628D01*
X24177951Y-5192789D01*
X24132929Y-5164026D01*
X24076100Y-5127759D01*
X24014001Y-5088160D01*
X23953172Y-5049398D01*
X23938934Y-5040330D01*
X23795059Y-4948710D01*
X23650792Y-5015155D01*
X23598569Y-5039829D01*
X23553024Y-5062514D01*
X23518052Y-5081182D01*
X23497544Y-5093808D01*
X23494322Y-5096637D01*
X23487722Y-5114036D01*
X23481041Y-5146874D01*
X23475482Y-5188880D01*
X23474333Y-5200927D01*
X23466548Y-5290180D01*
X23506449Y-5326747D01*
X23534477Y-5349395D01*
X23556256Y-5357933D01*
X23575368Y-5356325D01*
X23602483Y-5344505D01*
X23618256Y-5331161D01*
X23625513Y-5315814D01*
X23617046Y-5301935D01*
X23607383Y-5293942D01*
X23592081Y-5280464D01*
X23589855Y-5274658D01*
X23589904Y-5274656D01*
X23605388Y-5270957D01*
X23614369Y-5267814D01*
X23628906Y-5268823D01*
X23631568Y-5278687D01*
X23639775Y-5293836D01*
X23647878Y-5296160D01*
X23662348Y-5290289D01*
X23664188Y-5285287D01*
X23669132Y-5274445D01*
X23679530Y-5278658D01*
X23688728Y-5294916D01*
X23689202Y-5296607D01*
X23690146Y-5312648D01*
X23677696Y-5313275D01*
X23675508Y-5312612D01*
X23658819Y-5315953D01*
X23648703Y-5332639D01*
X23648092Y-5354578D01*
X23655101Y-5368989D01*
X23671951Y-5380685D01*
X23688891Y-5382120D01*
X23696804Y-5372578D01*
X23696808Y-5372273D01*
X23701209Y-5361312D01*
X23709743Y-5365448D01*
X23715405Y-5381102D01*
X23715464Y-5381809D01*
X23709571Y-5398483D01*
X23698750Y-5400837D01*
X23683949Y-5407821D01*
X23681323Y-5423564D01*
X23677512Y-5441495D01*
X23660921Y-5443644D01*
X23659577Y-5443401D01*
X23638910Y-5439513D01*
X23631568Y-5438155D01*
X23634194Y-5432728D01*
X23641308Y-5427571D01*
X23650707Y-5411737D01*
X23645855Y-5393516D01*
X23630068Y-5383336D01*
X23627181Y-5383147D01*
X23605287Y-5386869D01*
X23583346Y-5393751D01*
X23563384Y-5406184D01*
X23555990Y-5427848D01*
X23555455Y-5441349D01*
X23559562Y-5469281D01*
X23569507Y-5489812D01*
X23581729Y-5498712D01*
X23592664Y-5491754D01*
X23594523Y-5487730D01*
X23604826Y-5475822D01*
X23611138Y-5476383D01*
X23616198Y-5489367D01*
X23614794Y-5492631D01*
X23616966Y-5501863D01*
X23621866Y-5502753D01*
X23629304Y-5507402D01*
X23627176Y-5510769D01*
X23610252Y-5517947D01*
X23600899Y-5518924D01*
X23586410Y-5527343D01*
X23584816Y-5541198D01*
X23580120Y-5559353D01*
X23565788Y-5563333D01*
X23547295Y-5558635D01*
X23547361Y-5547579D01*
X23555455Y-5540809D01*
X23565660Y-5527810D01*
X23555327Y-5512741D01*
X23545012Y-5505545D01*
X23520315Y-5497538D01*
X23500265Y-5502748D01*
X23491936Y-5518815D01*
X23492299Y-5523120D01*
X23491042Y-5539352D01*
X23476211Y-5545626D01*
X23461701Y-5546246D01*
X23450188Y-5543232D01*
X23456673Y-5531052D01*
X23457200Y-5530412D01*
X23464632Y-5509795D01*
X23454164Y-5494950D01*
X23440215Y-5491880D01*
X23429936Y-5489160D01*
X23437204Y-5477788D01*
X23438139Y-5476773D01*
X23452862Y-5468471D01*
X23458899Y-5472406D01*
X23474214Y-5481423D01*
X23493296Y-5474483D01*
X23509967Y-5454967D01*
X23515507Y-5441414D01*
X23519694Y-5419892D01*
X23515149Y-5402852D01*
X23498714Y-5383139D01*
X23483273Y-5368388D01*
X23457094Y-5346203D01*
X23435829Y-5331929D01*
X23427985Y-5329075D01*
X23411033Y-5333385D01*
X23382752Y-5344688D01*
X23365464Y-5352694D01*
X23335584Y-5369016D01*
X23320953Y-5383956D01*
X23316410Y-5403644D01*
X23316243Y-5411165D01*
X23320511Y-5438234D01*
X23330774Y-5457920D01*
X23343221Y-5465937D01*
X23354041Y-5457999D01*
X23355310Y-5455110D01*
X23365614Y-5443203D01*
X23371926Y-5443764D01*
X23376985Y-5456747D01*
X23375582Y-5460011D01*
X23377475Y-5469429D01*
X23381483Y-5470133D01*
X23388928Y-5476404D01*
X23387550Y-5479986D01*
X23373561Y-5485403D01*
X23358123Y-5483735D01*
X23341675Y-5482068D01*
X23339113Y-5493354D01*
X23341446Y-5504172D01*
X23343178Y-5524091D01*
X23331814Y-5530520D01*
X23326739Y-5530713D01*
X23308085Y-5526040D01*
X23308341Y-5514905D01*
X23316951Y-5507752D01*
X23320439Y-5495146D01*
X23310897Y-5481106D01*
X23289167Y-5467380D01*
X23267978Y-5468265D01*
X23254541Y-5481900D01*
X23253273Y-5495983D01*
X23251175Y-5513419D01*
X23236458Y-5515649D01*
X23222317Y-5517119D01*
X23222844Y-5532208D01*
X23223599Y-5534677D01*
X23224795Y-5552688D01*
X23213679Y-5557119D01*
X23200678Y-5565459D01*
X23196712Y-5584298D01*
X23201756Y-5604365D01*
X23213836Y-5615759D01*
X23239080Y-5621894D01*
X23249979Y-5614129D01*
X23251003Y-5606049D01*
X23255890Y-5591274D01*
X23266261Y-5593283D01*
X23275682Y-5610672D01*
X23275900Y-5611486D01*
X23275109Y-5629605D01*
X23266937Y-5633232D01*
X23248139Y-5641130D01*
X23244352Y-5659094D01*
X23250296Y-5670437D01*
X23255159Y-5683054D01*
X23240560Y-5690637D01*
X23240370Y-5690687D01*
X23221035Y-5691272D01*
X23211355Y-5684502D01*
X23216547Y-5675176D01*
X23221034Y-5672901D01*
X23226758Y-5664515D01*
X23214224Y-5650691D01*
X23197296Y-5640378D01*
X23180035Y-5642153D01*
X23162576Y-5650287D01*
X23144945Y-5661228D01*
X23135609Y-5675060D01*
X23131965Y-5698438D01*
X23131397Y-5729922D01*
X23131397Y-5793432D01*
X23187494Y-5816745D01*
X23220617Y-5829638D01*
X23241378Y-5833973D01*
X23257159Y-5830308D01*
X23269710Y-5822944D01*
X23285251Y-5805811D01*
X23292249Y-5784904D01*
X23290063Y-5767436D01*
X23278053Y-5760620D01*
X23275210Y-5760994D01*
X23263114Y-5757873D01*
X23266962Y-5741329D01*
X23273115Y-5731092D01*
X23283192Y-5720888D01*
X23292643Y-5729548D01*
X23295236Y-5733810D01*
X23310252Y-5750176D01*
X23322749Y-5750186D01*
X23327116Y-5736529D01*
X23330493Y-5722029D01*
X23333330Y-5720219D01*
X23344297Y-5726104D01*
X23357766Y-5738719D01*
X23366480Y-5750505D01*
X23365949Y-5754198D01*
X23350499Y-5756447D01*
X23346145Y-5756916D01*
X23333959Y-5767193D01*
X23328943Y-5788148D01*
X23332140Y-5809593D01*
X23339757Y-5819400D01*
X23363498Y-5828336D01*
X23378714Y-5822538D01*
X23381483Y-5812642D01*
X23387354Y-5798172D01*
X23392356Y-5796332D01*
X23402947Y-5799851D01*
X23403229Y-5800879D01*
X23406612Y-5813660D01*
X23409829Y-5822626D01*
X23409059Y-5836371D01*
X23393519Y-5839825D01*
X23374901Y-5846355D01*
X23370609Y-5856135D01*
X23376481Y-5870605D01*
X23381483Y-5872445D01*
X23392045Y-5880224D01*
X23392356Y-5882642D01*
X23383329Y-5890221D01*
X23370611Y-5891202D01*
X23354605Y-5884318D01*
X23354756Y-5871008D01*
X23352342Y-5853453D01*
X23335645Y-5844571D01*
X23310873Y-5845768D01*
X23287910Y-5855888D01*
X23269231Y-5872885D01*
X23263299Y-5895746D01*
X23263978Y-5913784D01*
X23272123Y-5942661D01*
X23287643Y-5958516D01*
X23305763Y-5958403D01*
X23317658Y-5946909D01*
X23327446Y-5938157D01*
X23337823Y-5948558D01*
X23347970Y-5969490D01*
X23342664Y-5976773D01*
X23333653Y-5974658D01*
X23316323Y-5976040D01*
X23308490Y-5989700D01*
X23315016Y-6006046D01*
X23326317Y-6022336D01*
X23317789Y-6029942D01*
X23305376Y-6030884D01*
X23289441Y-6025790D01*
X23289589Y-6012130D01*
X23286702Y-5992695D01*
X23270262Y-5979003D01*
X23248423Y-5975507D01*
X23233998Y-5981754D01*
X23220007Y-6001898D01*
X23222221Y-6020701D01*
X23231975Y-6028343D01*
X23235789Y-6033130D01*
X23226538Y-6034686D01*
X23202252Y-6033057D01*
X23194135Y-6022443D01*
X23195037Y-6009565D01*
X23193442Y-5994755D01*
X23177820Y-5994455D01*
X23175830Y-5994956D01*
X23157310Y-5998511D01*
X23154711Y-5990962D01*
X23159850Y-5976353D01*
X23168699Y-5964994D01*
X23182142Y-5971811D01*
X23198150Y-5978500D01*
X23215234Y-5967240D01*
X23226625Y-5948404D01*
X23224711Y-5922585D01*
X23222843Y-5915707D01*
X23210902Y-5891241D01*
X23187999Y-5872475D01*
X23161361Y-5859393D01*
X23109776Y-5837107D01*
X22946832Y-5943121D01*
X22946692Y-6112347D01*
X22946551Y-6281573D01*
X22875912Y-6281573D01*
X22879088Y-6156571D01*
X22880619Y-6084554D01*
G37*
%TD*%
D10*
%TO.C,_1*%
X112000000Y27916667D03*
X112000000Y34416667D03*
%TD*%
D11*
%TO.C,TRRS1*%
X111950000Y48566667D03*
X111950000Y41566667D03*
D12*
X114250000Y38866667D03*
X109650000Y38866667D03*
X109650000Y39966667D03*
X114250000Y39966667D03*
X114250000Y43966667D03*
X109650000Y43966667D03*
X114250000Y46966667D03*
X109650000Y46966667D03*
%TD*%
D13*
%TO.C,S9*%
X40600000Y61616667D03*
D14*
X40600000Y55666667D03*
D13*
X35600000Y59416667D03*
D15*
X35100000Y55666667D03*
D13*
X40600000Y61616667D03*
X45600000Y59416667D03*
D15*
X46100000Y55666667D03*
D16*
X43875000Y61616667D03*
X32325000Y59416667D03*
%TD*%
D17*
%TO.C,_4*%
X105000000Y-3000000D03*
%TD*%
%TO.C,_2*%
X117000000Y19000000D03*
%TD*%
D13*
%TO.C,S17*%
X105253307Y-20607902D03*
D14*
X103613265Y-26327409D03*
D13*
X109453214Y-24100864D03*
D15*
X108900204Y-27843414D03*
X98326326Y-24811404D03*
D13*
X105253307Y-20607902D03*
X99840597Y-21344491D03*
D18*
X108401439Y-21510614D03*
X96692465Y-20441779D03*
%TD*%
D19*
%TO.C,O2*%
X110000000Y8000000D03*
D20*
X112540000Y8000000D03*
X115080000Y8000000D03*
X117620000Y8000000D03*
%TD*%
D21*
%TO.C,ROT1*%
X99120000Y2526667D03*
X99120000Y13726667D03*
D11*
X92120000Y5626667D03*
X92120000Y10626667D03*
D22*
X106620000Y5626667D03*
D10*
X106620000Y10626667D03*
X106620000Y8126667D03*
%TD*%
D13*
%TO.C,S5*%
X25000000Y34750000D03*
X20000000Y36950000D03*
D14*
X20000000Y31000000D03*
D13*
X15000000Y34750000D03*
D15*
X14500000Y31000000D03*
X25500000Y31000000D03*
D13*
X20000000Y36950000D03*
D16*
X23275000Y36950000D03*
X11725000Y34750000D03*
%TD*%
D14*
%TO.C,S4*%
X20000000Y12000000D03*
D13*
X15000000Y15750000D03*
X20000000Y17950000D03*
X20000000Y17950000D03*
X25000000Y15750000D03*
D15*
X14500000Y12000000D03*
X25500000Y12000000D03*
D16*
X23275000Y17950000D03*
X11725000Y15750000D03*
%TD*%
D23*
%TO.C,MCU1*%
X91380000Y49636667D03*
D24*
X91380000Y47096667D03*
X91380000Y44556667D03*
X91380000Y42016667D03*
X91380000Y39476667D03*
X91380000Y36936667D03*
X91380000Y34396667D03*
X91380000Y31856667D03*
X91380000Y29316667D03*
X91380000Y26776667D03*
X91380000Y24236667D03*
X91608600Y21696667D03*
X106620000Y21696667D03*
X106620000Y24236667D03*
X106620000Y26776667D03*
X106620000Y29316667D03*
X106620000Y31856667D03*
X106620000Y34396667D03*
X106620000Y36936667D03*
X106620000Y39476667D03*
X106620000Y42016667D03*
X106620000Y44556667D03*
X106620000Y47096667D03*
X106620000Y49636667D03*
X93920000Y21696667D03*
X96460000Y21696667D03*
X99000000Y21696667D03*
X101540000Y21696667D03*
X104080000Y21696667D03*
%TD*%
D13*
%TO.C,S6*%
X25000000Y53750000D03*
X20000000Y55950000D03*
X20000000Y55950000D03*
D15*
X25500000Y50000000D03*
D14*
X20000000Y50000000D03*
D15*
X14500000Y50000000D03*
D13*
X15000000Y53750000D03*
D16*
X23275000Y55950000D03*
X11725000Y53750000D03*
%TD*%
D15*
%TO.C,S1*%
X-5500000Y0D03*
X5500000Y0D03*
D14*
X0Y0D03*
D13*
X0Y5950000D03*
X-5000000Y3750000D03*
X0Y5950000D03*
X5000000Y3750000D03*
D16*
X3275000Y5950000D03*
X-8275000Y3750000D03*
%TD*%
D15*
%TO.C,S10*%
X65500000Y12000000D03*
D13*
X60000000Y17950000D03*
X65000000Y15750000D03*
X60000000Y17950000D03*
D15*
X54500000Y12000000D03*
D13*
X55000000Y15750000D03*
D14*
X60000000Y12000000D03*
D16*
X63275000Y17950000D03*
X51725000Y15750000D03*
%TD*%
D13*
%TO.C,S14*%
X85000000Y31916667D03*
X80000000Y34116667D03*
D14*
X80000000Y28166667D03*
D15*
X74500000Y28166667D03*
D13*
X80000000Y34116667D03*
X75000000Y31916667D03*
D15*
X85500000Y28166667D03*
D16*
X83275000Y34116667D03*
X71725000Y31916667D03*
%TD*%
D15*
%TO.C,S15*%
X85500000Y47166667D03*
D13*
X80000000Y53116667D03*
X80000000Y53116667D03*
X85000000Y50916667D03*
X75000000Y50916667D03*
D15*
X74500000Y47166667D03*
D14*
X80000000Y47166667D03*
D16*
X83275000Y53116667D03*
X71725000Y50916667D03*
%TD*%
D13*
%TO.C,S16*%
X82103842Y-16884239D03*
X87064685Y-19171166D03*
X77066208Y-18996642D03*
D15*
X87499162Y-22929321D03*
X76500838Y-22737345D03*
D14*
X82000000Y-22833333D03*
D13*
X82103842Y-16884239D03*
D25*
X85378343Y-16941396D03*
X73791707Y-18939485D03*
%TD*%
D13*
%TO.C,S18*%
X127306892Y-29677289D03*
D15*
X119611867Y-32214823D03*
D13*
X130613410Y-34025500D03*
X121867213Y-29177404D03*
D14*
X124422275Y-34881276D03*
D13*
X127306892Y-29677289D03*
D15*
X129232683Y-37547729D03*
D26*
X130171272Y-31265040D03*
X119002833Y-27589652D03*
%TD*%
D27*
%TO.C,_6*%
X10100000Y29000000D03*
%TD*%
%TO.C,_7*%
X45000000Y0D03*
%TD*%
D13*
%TO.C,S13*%
X85000000Y12916667D03*
D15*
X85500000Y9166667D03*
D13*
X80000000Y15116667D03*
D14*
X80000000Y9166667D03*
D15*
X74500000Y9166667D03*
D13*
X75000000Y12916667D03*
X80000000Y15116667D03*
D16*
X83275000Y15116667D03*
X71725000Y12916667D03*
%TD*%
D27*
%TO.C,_5*%
X69000000Y41000000D03*
%TD*%
D15*
%TO.C,S2*%
X-5500000Y19000000D03*
D13*
X0Y24950000D03*
X0Y24950000D03*
X5000000Y22750000D03*
X-5000000Y22750000D03*
D15*
X5500000Y19000000D03*
D14*
X0Y19000000D03*
D16*
X3275000Y24950000D03*
X-8275000Y22750000D03*
%TD*%
D13*
%TO.C,S11*%
X55000000Y34750000D03*
X65000000Y34750000D03*
X60000000Y36950000D03*
D14*
X60000000Y31000000D03*
D15*
X54500000Y31000000D03*
X65500000Y31000000D03*
D13*
X60000000Y36950000D03*
D16*
X63275000Y36950000D03*
X51725000Y34750000D03*
%TD*%
D17*
%TO.C,_3*%
X117000000Y-7000000D03*
%TD*%
D28*
%TO.C,J5*%
X117000000Y13499620D03*
X117000000Y14500380D03*
%TD*%
D15*
%TO.C,S7*%
X45700000Y17666667D03*
D14*
X40200000Y17666667D03*
D15*
X34700000Y17666667D03*
D13*
X40200000Y23616667D03*
X40200000Y23616667D03*
X45200000Y21416667D03*
X35200000Y21416667D03*
D16*
X43475000Y23616667D03*
X31925000Y21416667D03*
%TD*%
D28*
%TO.C,J4*%
X115000000Y13499620D03*
X115000000Y14500380D03*
%TD*%
%TO.C,J3*%
X113000000Y13499620D03*
X113000000Y14500380D03*
%TD*%
%TO.C,J2*%
X111000000Y13499620D03*
X111000000Y14500380D03*
%TD*%
D13*
%TO.C,S12*%
X60000000Y55950000D03*
D14*
X60000000Y50000000D03*
D13*
X55000000Y53750000D03*
D15*
X54500000Y50000000D03*
D13*
X60000000Y55950000D03*
X65000000Y53750000D03*
D15*
X65500000Y50000000D03*
D16*
X63275000Y55950000D03*
X51725000Y53750000D03*
%TD*%
D15*
%TO.C,S3*%
X-5500000Y38000000D03*
D13*
X-5000000Y41750000D03*
D15*
X5500000Y38000000D03*
D14*
X0Y38000000D03*
D13*
X0Y43950000D03*
X5000000Y41750000D03*
X0Y43950000D03*
D16*
X3275000Y43950000D03*
X-8275000Y41750000D03*
%TD*%
D13*
%TO.C,S8*%
X35400000Y40416667D03*
X40400000Y42616667D03*
X45400000Y40416667D03*
D15*
X45900000Y36666667D03*
D13*
X40400000Y42616667D03*
D15*
X34900000Y36666667D03*
D14*
X40400000Y36666667D03*
D16*
X43675000Y42616667D03*
X32125000Y40416667D03*
%TD*%
M02*
