%TF.GenerationSoftware,KiCad,Pcbnew,6.0.11+dfsg-1*%
%TF.CreationDate,2023-05-21T18:00:47+03:00*%
%TF.ProjectId,pcb,7063622e-6b69-4636-9164-5f7063625858,v1.0.0*%
%TF.SameCoordinates,Original*%
%TF.FileFunction,Legend,Top*%
%TF.FilePolarity,Positive*%
%FSLAX46Y46*%
G04 Gerber Fmt 4.6, Leading zero omitted, Abs format (unit mm)*
G04 Created by KiCad (PCBNEW 6.0.11+dfsg-1) date 2023-05-21 18:00:47*
%MOMM*%
%LPD*%
G01*
G04 APERTURE LIST*
%ADD10C,0.200000*%
%ADD11C,0.150000*%
%ADD12C,0.120000*%
%ADD13C,0.100000*%
%ADD14C,2.000000*%
G04 APERTURE END LIST*
D10*
X206327619Y-145232380D02*
X205994285Y-144756190D01*
X205756190Y-145232380D02*
X205756190Y-144232380D01*
X206137142Y-144232380D01*
X206232380Y-144280000D01*
X206280000Y-144327619D01*
X206327619Y-144422857D01*
X206327619Y-144565714D01*
X206280000Y-144660952D01*
X206232380Y-144708571D01*
X206137142Y-144756190D01*
X205756190Y-144756190D01*
X206946666Y-144232380D02*
X207137142Y-144232380D01*
X207232380Y-144280000D01*
X207327619Y-144375238D01*
X207375238Y-144565714D01*
X207375238Y-144899047D01*
X207327619Y-145089523D01*
X207232380Y-145184761D01*
X207137142Y-145232380D01*
X206946666Y-145232380D01*
X206851428Y-145184761D01*
X206756190Y-145089523D01*
X206708571Y-144899047D01*
X206708571Y-144565714D01*
X206756190Y-144375238D01*
X206851428Y-144280000D01*
X206946666Y-144232380D01*
X207660952Y-144232380D02*
X208232380Y-144232380D01*
X207946666Y-145232380D02*
X207946666Y-144232380D01*
X208518095Y-144946666D02*
X208994285Y-144946666D01*
X208422857Y-145232380D02*
X208756190Y-144232380D01*
X209089523Y-145232380D01*
X209994285Y-145232380D02*
X209660952Y-144756190D01*
X209422857Y-145232380D02*
X209422857Y-144232380D01*
X209803809Y-144232380D01*
X209899047Y-144280000D01*
X209946666Y-144327619D01*
X209994285Y-144422857D01*
X209994285Y-144565714D01*
X209946666Y-144660952D01*
X209899047Y-144708571D01*
X209803809Y-144756190D01*
X209422857Y-144756190D01*
X210613333Y-144756190D02*
X210613333Y-145232380D01*
X210280000Y-144232380D02*
X210613333Y-144756190D01*
X210946666Y-144232380D01*
D11*
%TO.C,_1*%
X221255380Y-114057791D02*
X220779190Y-114391125D01*
X221255380Y-114629220D02*
X220255380Y-114629220D01*
X220255380Y-114248268D01*
X220303000Y-114153030D01*
X220350619Y-114105411D01*
X220445857Y-114057791D01*
X220588714Y-114057791D01*
X220683952Y-114105411D01*
X220731571Y-114153030D01*
X220779190Y-114248268D01*
X220779190Y-114629220D01*
X220731571Y-113629220D02*
X220731571Y-113295887D01*
X221255380Y-113153030D02*
X221255380Y-113629220D01*
X220255380Y-113629220D01*
X220255380Y-113153030D01*
X221207761Y-112772077D02*
X221255380Y-112629220D01*
X221255380Y-112391125D01*
X221207761Y-112295887D01*
X221160142Y-112248268D01*
X221064904Y-112200649D01*
X220969666Y-112200649D01*
X220874428Y-112248268D01*
X220826809Y-112295887D01*
X220779190Y-112391125D01*
X220731571Y-112581601D01*
X220683952Y-112676839D01*
X220636333Y-112724458D01*
X220541095Y-112772077D01*
X220445857Y-112772077D01*
X220350619Y-112724458D01*
X220303000Y-112676839D01*
X220255380Y-112581601D01*
X220255380Y-112343506D01*
X220303000Y-112200649D01*
X220731571Y-111772077D02*
X220731571Y-111438744D01*
X221255380Y-111295887D02*
X221255380Y-111772077D01*
X220255380Y-111772077D01*
X220255380Y-111295887D01*
X220255380Y-111010172D02*
X220255380Y-110438744D01*
X221255380Y-110724458D02*
X220255380Y-110724458D01*
%TO.C,J8*%
%TO.C,_6*%
%TO.C,_2*%
%TO.C,J2*%
%TO.C,J3*%
%TO.C,J5*%
%TO.C,_7*%
%TO.C,*%
%TO.C,J4*%
%TO.C,J1*%
%TO.C,_4*%
%TO.C,J7*%
%TO.C,*%
%TO.C,_3*%
%TO.C,J6*%
%TO.C,_5*%
%TO.C,_1*%
X222553000Y-115605411D02*
X222303000Y-115605411D01*
X219053000Y-115605411D02*
X219303000Y-115605411D01*
X222553000Y-109605411D02*
X222553000Y-115605411D01*
X219053000Y-109605411D02*
X219053000Y-115605411D01*
X222553000Y-109605411D02*
X222303000Y-109605411D01*
X219053000Y-109605411D02*
X219303000Y-109605411D01*
D12*
%TO.C,O2*%
X227753000Y-137102078D02*
X227753000Y-134442078D01*
X217565069Y-137102078D02*
X217565069Y-134442078D01*
X217565069Y-137102078D02*
X227753000Y-137102078D01*
X217565069Y-134442078D02*
X227753000Y-134442078D01*
%TO.C,ROT1*%
X215123000Y-139745411D02*
X215423000Y-139445411D01*
X201823000Y-129745411D02*
X205923000Y-129745411D01*
X214023000Y-141445411D02*
X214023000Y-129745411D01*
X209923000Y-141445411D02*
X214023000Y-141445411D01*
X201823000Y-132345411D02*
X201823000Y-129745411D01*
X207923000Y-136145411D02*
X207923000Y-135145411D01*
X209923000Y-129745411D02*
X214023000Y-129745411D01*
X201823000Y-141545411D02*
X201823000Y-138945411D01*
X215423000Y-139445411D02*
X215723000Y-139745411D01*
X205923000Y-141545411D02*
X201823000Y-141545411D01*
X215723000Y-139745411D02*
X215123000Y-139745411D01*
X208423000Y-135645411D02*
X207423000Y-135645411D01*
X201823000Y-136945411D02*
X201823000Y-134345411D01*
X210923000Y-135645411D02*
G75*
G03*
X210923000Y-135645411I-3000000J0D01*
G01*
D11*
%TO.C,LED3*%
X146903000Y-96605411D02*
X151903000Y-96605411D01*
X151903000Y-91605411D02*
X146903000Y-91605411D01*
X151903000Y-96605411D02*
X151903000Y-91605411D01*
X147653000Y-95855411D02*
X151153000Y-95855411D01*
X151153000Y-92355411D02*
X147653000Y-92355411D01*
X147653000Y-92355411D02*
X147653000Y-95855411D01*
X151153000Y-95855411D02*
X151153000Y-92355411D01*
X146903000Y-91605411D02*
X146903000Y-96605411D01*
G36*
X154403000Y-95392911D02*
G01*
X153403000Y-96305411D01*
X153403000Y-94480411D01*
X154403000Y-95392911D01*
G37*
D13*
X154403000Y-95392911D02*
X153403000Y-96305411D01*
X153403000Y-94480411D01*
X154403000Y-95392911D01*
D11*
%TO.C,LED4*%
X150753000Y-130355411D02*
X147253000Y-130355411D01*
X147253000Y-133855411D02*
X150753000Y-133855411D01*
X150753000Y-133855411D02*
X150753000Y-130355411D01*
X146503000Y-129605411D02*
X146503000Y-134605411D01*
X151503000Y-134605411D02*
X151503000Y-129605411D01*
X147253000Y-130355411D02*
X147253000Y-133855411D01*
X146503000Y-134605411D02*
X151503000Y-134605411D01*
X151503000Y-129605411D02*
X146503000Y-129605411D01*
G36*
X154003000Y-133392911D02*
G01*
X153003000Y-134305411D01*
X153003000Y-132480411D01*
X154003000Y-133392911D01*
G37*
D13*
X154003000Y-133392911D02*
X153003000Y-134305411D01*
X153003000Y-132480411D01*
X154003000Y-133392911D01*
D11*
%TO.C,LED5*%
X186303000Y-100105411D02*
X186303000Y-105105411D01*
X190553000Y-104355411D02*
X190553000Y-100855411D01*
X191303000Y-100105411D02*
X186303000Y-100105411D01*
X187053000Y-100855411D02*
X187053000Y-104355411D01*
X186303000Y-105105411D02*
X191303000Y-105105411D01*
X190553000Y-100855411D02*
X187053000Y-100855411D01*
X191303000Y-105105411D02*
X191303000Y-100105411D01*
X187053000Y-104355411D02*
X190553000Y-104355411D01*
G36*
X193803000Y-103892911D02*
G01*
X192803000Y-104805411D01*
X192803000Y-102980411D01*
X193803000Y-103892911D01*
G37*
D13*
X193803000Y-103892911D02*
X192803000Y-104805411D01*
X192803000Y-102980411D01*
X193803000Y-103892911D01*
D11*
%TO.C,LED2*%
X126303000Y-135272078D02*
X126303000Y-140272078D01*
X130553000Y-139522078D02*
X130553000Y-136022078D01*
X130553000Y-136022078D02*
X127053000Y-136022078D01*
X131303000Y-140272078D02*
X131303000Y-135272078D01*
X131303000Y-135272078D02*
X126303000Y-135272078D01*
X127053000Y-139522078D02*
X130553000Y-139522078D01*
X127053000Y-136022078D02*
X127053000Y-139522078D01*
X126303000Y-140272078D02*
X131303000Y-140272078D01*
G36*
X133803000Y-139059578D02*
G01*
X132803000Y-139972078D01*
X132803000Y-138147078D01*
X133803000Y-139059578D01*
G37*
D13*
X133803000Y-139059578D02*
X132803000Y-139972078D01*
X132803000Y-138147078D01*
X133803000Y-139059578D01*
D11*
%TO.C,LED6*%
X191303000Y-138105411D02*
X186303000Y-138105411D01*
X190553000Y-142355411D02*
X190553000Y-138855411D01*
X187053000Y-138855411D02*
X187053000Y-142355411D01*
X186303000Y-143105411D02*
X191303000Y-143105411D01*
X190553000Y-138855411D02*
X187053000Y-138855411D01*
X187053000Y-142355411D02*
X190553000Y-142355411D01*
X186303000Y-138105411D02*
X186303000Y-143105411D01*
X191303000Y-143105411D02*
X191303000Y-138105411D01*
G36*
X193803000Y-141892911D02*
G01*
X192803000Y-142805411D01*
X192803000Y-140980411D01*
X193803000Y-141892911D01*
G37*
D13*
X193803000Y-141892911D02*
X192803000Y-142805411D01*
X192803000Y-140980411D01*
X193803000Y-141892911D01*
D11*
%TO.C,LED1*%
X127053000Y-98022078D02*
X127053000Y-101522078D01*
X131303000Y-102272078D02*
X131303000Y-97272078D01*
X130553000Y-101522078D02*
X130553000Y-98022078D01*
X131303000Y-97272078D02*
X126303000Y-97272078D01*
X127053000Y-101522078D02*
X130553000Y-101522078D01*
X126303000Y-102272078D02*
X131303000Y-102272078D01*
X126303000Y-97272078D02*
X126303000Y-102272078D01*
X130553000Y-98022078D02*
X127053000Y-98022078D01*
G36*
X133803000Y-101059578D02*
G01*
X132803000Y-101972078D01*
X132803000Y-100147078D01*
X133803000Y-101059578D01*
G37*
D13*
X133803000Y-101059578D02*
X132803000Y-101972078D01*
X132803000Y-100147078D01*
X133803000Y-101059578D01*
%TD*%
D14*
%TO.C,_1*%
X220803000Y-115855411D03*
X220803000Y-109355411D03*
%TD*%
M02*
