%TF.GenerationSoftware,KiCad,Pcbnew,6.0.11+dfsg-1*%
%TF.CreationDate,2023-05-12T21:12:11+03:00*%
%TF.ProjectId,pcb,7063622e-6b69-4636-9164-5f7063625858,v1.0.0*%
%TF.SameCoordinates,Original*%
%TF.FileFunction,Copper,L2,Bot*%
%TF.FilePolarity,Positive*%
%FSLAX46Y46*%
G04 Gerber Fmt 4.6, Leading zero omitted, Abs format (unit mm)*
G04 Created by KiCad (PCBNEW 6.0.11+dfsg-1) date 2023-05-12 21:12:11*
%MOMM*%
%LPD*%
G01*
G04 APERTURE LIST*
G04 Aperture macros list*
%AMRotRect*
0 Rectangle, with rotation*
0 The origin of the aperture is its center*
0 $1 length*
0 $2 width*
0 $3 Rotation angle, in degrees counterclockwise*
0 Add horizontal line*
21,1,$1,$2,0,0,$3*%
G04 Aperture macros list end*
%TA.AperFunction,ComponentPad*%
%ADD10C,2.000000*%
%TD*%
%TA.AperFunction,ComponentPad*%
%ADD11O,1.600000X2.200000*%
%TD*%
%TA.AperFunction,SMDPad,CuDef*%
%ADD12R,1.143000X0.635000*%
%TD*%
%TA.AperFunction,SMDPad,CuDef*%
%ADD13R,2.600000X2.600000*%
%TD*%
%TA.AperFunction,ComponentPad*%
%ADD14C,4.000000*%
%TD*%
%TA.AperFunction,SMDPad,CuDef*%
%ADD15RotRect,2.600000X2.600000X344.000000*%
%TD*%
%TA.AperFunction,ComponentPad*%
%ADD16R,1.700000X1.700000*%
%TD*%
%TA.AperFunction,ComponentPad*%
%ADD17O,1.700000X1.700000*%
%TD*%
%TA.AperFunction,ComponentPad*%
%ADD18R,3.200000X2.000000*%
%TD*%
%TA.AperFunction,ComponentPad*%
%ADD19C,1.500000*%
%TD*%
%TA.AperFunction,ComponentPad*%
%ADD20R,2.000000X2.000000*%
%TD*%
%TA.AperFunction,ComponentPad*%
%ADD21R,1.752600X1.752600*%
%TD*%
%TA.AperFunction,ComponentPad*%
%ADD22C,1.752600*%
%TD*%
%TA.AperFunction,SMDPad,CuDef*%
%ADD23RotRect,2.600000X2.600000X359.000000*%
%TD*%
%TA.AperFunction,SMDPad,CuDef*%
%ADD24RotRect,2.600000X2.600000X331.000000*%
%TD*%
%TA.AperFunction,ViaPad*%
%ADD25C,0.800000*%
%TD*%
%TA.AperFunction,Conductor*%
%ADD26C,0.250000*%
%TD*%
%TA.AperFunction,Conductor*%
%ADD27C,0.254000*%
%TD*%
G04 APERTURE END LIST*
D10*
%TO.P,_1,1*%
%TO.N,ST*%
X112000000Y27916667D03*
%TO.P,_1,2*%
%TO.N,GND*%
X112000000Y34416667D03*
%TD*%
D11*
%TO.P,TRRS1,1*%
%TO.N,GND*%
X114250000Y38866667D03*
X109650000Y38866667D03*
%TO.P,TRRS1,2*%
X109650000Y39966667D03*
X114250000Y39966667D03*
%TO.P,TRRS1,3*%
%TO.N,F6*%
X114250000Y43966667D03*
X109650000Y43966667D03*
%TO.P,TRRS1,4*%
%TO.N,VCC*%
X114250000Y46966667D03*
X109650000Y46966667D03*
%TD*%
D12*
%TO.P,J8,1*%
%TO.N,T3*%
X115000000Y11499620D03*
%TO.P,J8,2*%
%TO.N,B2*%
X115000000Y12500380D03*
%TD*%
D13*
%TO.P,S9,1*%
%TO.N,D7*%
X37325000Y61616667D03*
%TO.P,S9,2*%
%TO.N,GND*%
X48875000Y59416667D03*
%TD*%
D14*
%TO.P,_4,*%
%TO.N,*%
X105000000Y-3000000D03*
%TD*%
%TO.P,_2,*%
%TO.N,*%
X117000000Y19000000D03*
%TD*%
D15*
%TO.P,S17,1*%
%TO.N,F5*%
X102105175Y-19705190D03*
%TO.P,S17,2*%
%TO.N,GND*%
X112601346Y-25003577D03*
%TD*%
D16*
%TO.P,O2,1*%
%TO.N,T1*%
X110000000Y8000000D03*
D17*
%TO.P,O2,2*%
%TO.N,T2*%
X112540000Y8000000D03*
%TO.P,O2,3*%
%TO.N,T3*%
X115080000Y8000000D03*
%TO.P,O2,4*%
%TO.N,T4*%
X117620000Y8000000D03*
%TD*%
D12*
%TO.P,J7,1*%
%TO.N,T2*%
X113000000Y11499620D03*
%TO.P,J7,2*%
%TO.N,VCC*%
X113000000Y12500380D03*
%TD*%
D18*
%TO.P,ROT1,*%
%TO.N,*%
X99120000Y2526667D03*
X99120000Y13726667D03*
D19*
%TO.P,ROT1,1*%
%TO.N,O1*%
X92120000Y5626667D03*
%TO.P,ROT1,2*%
%TO.N,O2*%
X92120000Y10626667D03*
D20*
%TO.P,ROT1,A*%
%TO.N,O3*%
X106620000Y5626667D03*
D10*
%TO.P,ROT1,B*%
%TO.N,O5*%
X106620000Y10626667D03*
%TO.P,ROT1,C*%
%TO.N,O4*%
X106620000Y8126667D03*
%TD*%
D13*
%TO.P,S5,1*%
%TO.N,D5*%
X16725000Y36950000D03*
%TO.P,S5,2*%
%TO.N,GND*%
X28275000Y34750000D03*
%TD*%
%TO.P,S4,1*%
%TO.N,C7*%
X16725000Y17950000D03*
%TO.P,S4,2*%
%TO.N,GND*%
X28275000Y15750000D03*
%TD*%
D21*
%TO.P,MCU1,1*%
%TO.N,D3*%
X91380000Y49636667D03*
D22*
%TO.P,MCU1,2*%
%TO.N,D2*%
X91380000Y47096667D03*
%TO.P,MCU1,3*%
%TO.N,GND*%
X91380000Y44556667D03*
%TO.P,MCU1,4*%
X91380000Y42016667D03*
%TO.P,MCU1,5*%
%TO.N,D1*%
X91380000Y39476667D03*
%TO.P,MCU1,6*%
%TO.N,D0*%
X91380000Y36936667D03*
%TO.P,MCU1,7*%
%TO.N,D4*%
X91380000Y34396667D03*
%TO.P,MCU1,8*%
%TO.N,C6*%
X91380000Y31856667D03*
%TO.P,MCU1,9*%
%TO.N,D7*%
X91380000Y29316667D03*
%TO.P,MCU1,10*%
%TO.N,E6*%
X91380000Y26776667D03*
%TO.P,MCU1,11*%
%TO.N,B4*%
X91380000Y24236667D03*
%TO.P,MCU1,12*%
%TO.N,B5*%
X91608600Y21696667D03*
%TO.P,MCU1,13*%
%TO.N,B6*%
X106620000Y21696667D03*
%TO.P,MCU1,14*%
%TO.N,B2*%
X106620000Y24236667D03*
%TO.P,MCU1,15*%
%TO.N,B3*%
X106620000Y26776667D03*
%TO.P,MCU1,16*%
%TO.N,B1*%
X106620000Y29316667D03*
%TO.P,MCU1,17*%
%TO.N,F7*%
X106620000Y31856667D03*
%TO.P,MCU1,18*%
%TO.N,F6*%
X106620000Y34396667D03*
%TO.P,MCU1,19*%
%TO.N,F5*%
X106620000Y36936667D03*
%TO.P,MCU1,20*%
%TO.N,F4*%
X106620000Y39476667D03*
%TO.P,MCU1,21*%
%TO.N,VCC*%
X106620000Y42016667D03*
%TO.P,MCU1,22*%
%TO.N,ST*%
X106620000Y44556667D03*
%TO.P,MCU1,23*%
%TO.N,GND*%
X106620000Y47096667D03*
%TO.P,MCU1,24*%
%TO.N,B0*%
X106620000Y49636667D03*
%TO.P,MCU1,25*%
%TO.N,B7*%
X93920000Y21696667D03*
%TO.P,MCU1,26*%
%TO.N,D5*%
X96460000Y21696667D03*
%TO.P,MCU1,27*%
%TO.N,C7*%
X99000000Y21696667D03*
%TO.P,MCU1,28*%
%TO.N,F1*%
X101540000Y21696667D03*
%TO.P,MCU1,29*%
%TO.N,F0*%
X104080000Y21696667D03*
%TD*%
D13*
%TO.P,S6,1*%
%TO.N,B7*%
X16725000Y55950000D03*
%TO.P,S6,2*%
%TO.N,GND*%
X28275000Y53750000D03*
%TD*%
%TO.P,S1,1*%
%TO.N,B6*%
X-3275000Y5950000D03*
%TO.P,S1,2*%
%TO.N,GND*%
X8275000Y3750000D03*
%TD*%
%TO.P,S10,1*%
%TO.N,B4*%
X56725000Y17950000D03*
%TO.P,S10,2*%
%TO.N,GND*%
X68275000Y15750000D03*
%TD*%
%TO.P,S14,1*%
%TO.N,C6*%
X76725000Y34116667D03*
%TO.P,S14,2*%
%TO.N,GND*%
X88275000Y31916667D03*
%TD*%
%TO.P,S15,1*%
%TO.N,D2*%
X76725000Y53116667D03*
%TO.P,S15,2*%
%TO.N,GND*%
X88275000Y50916667D03*
%TD*%
D23*
%TO.P,S16,1*%
%TO.N,F4*%
X78829341Y-16827083D03*
%TO.P,S16,2*%
%TO.N,GND*%
X90339186Y-19228323D03*
%TD*%
D24*
%TO.P,S18,1*%
%TO.N,F7*%
X124442513Y-28089537D03*
%TO.P,S18,2*%
%TO.N,GND*%
X133477789Y-35613252D03*
%TD*%
D12*
%TO.P,J6,1*%
%TO.N,T1*%
X111000000Y11499620D03*
%TO.P,J6,2*%
%TO.N,GND*%
X111000000Y12500380D03*
%TD*%
D13*
%TO.P,S13,1*%
%TO.N,B5*%
X76725000Y15116667D03*
%TO.P,S13,2*%
%TO.N,GND*%
X88275000Y12916667D03*
%TD*%
%TO.P,S2,1*%
%TO.N,F0*%
X-3275000Y24950000D03*
%TO.P,S2,2*%
%TO.N,GND*%
X8275000Y22750000D03*
%TD*%
%TO.P,S11,1*%
%TO.N,D4*%
X56725000Y36950000D03*
%TO.P,S11,2*%
%TO.N,GND*%
X68275000Y34750000D03*
%TD*%
D14*
%TO.P,_3,*%
%TO.N,*%
X117000000Y-7000000D03*
%TD*%
D13*
%TO.P,S7,1*%
%TO.N,E6*%
X36925000Y23616667D03*
%TO.P,S7,2*%
%TO.N,GND*%
X48475000Y21416667D03*
%TD*%
D12*
%TO.P,J9,1*%
%TO.N,T4*%
X117000000Y11499620D03*
%TO.P,J9,2*%
%TO.N,B3*%
X117000000Y12500380D03*
%TD*%
D13*
%TO.P,S12,1*%
%TO.N,D1*%
X56725000Y55950000D03*
%TO.P,S12,2*%
%TO.N,GND*%
X68275000Y53750000D03*
%TD*%
%TO.P,S3,1*%
%TO.N,F1*%
X-3275000Y43950000D03*
%TO.P,S3,2*%
%TO.N,GND*%
X8275000Y41750000D03*
%TD*%
%TO.P,S8,1*%
%TO.N,D0*%
X37125000Y42616667D03*
%TO.P,S8,2*%
%TO.N,GND*%
X48675000Y40416667D03*
%TD*%
D25*
%TO.N,GND*%
X20387840Y9414472D03*
X19812000Y46990000D03*
X80586596Y25671501D03*
X19558000Y28448000D03*
X68326000Y-13716000D03*
X60246470Y9390253D03*
X82804000Y-25654000D03*
X0Y35052000D03*
X40688746Y34028571D03*
X60198000Y46990000D03*
X0Y-2794000D03*
X81026000Y44450000D03*
X93980000Y-19558000D03*
X59944000Y28448000D03*
X123190000Y-37846000D03*
X40132000Y52832000D03*
X0Y16002000D03*
X39878000Y15240000D03*
X115824000Y-26162000D03*
X103378000Y-29210000D03*
X80264000Y11684000D03*
%TO.N,B6*%
X-254000Y2794000D03*
%TO.N,F0*%
X-254000Y21844000D03*
%TO.N,F1*%
X-254000Y41148000D03*
%TO.N,C7*%
X20320000Y14986000D03*
%TO.N,D5*%
X20066000Y33782000D03*
%TO.N,B7*%
X19812000Y53086000D03*
%TO.N,E6*%
X40386000Y21082000D03*
%TO.N,D0*%
X40132000Y39624000D03*
%TO.N,D7*%
X40640000Y58674000D03*
%TO.N,B4*%
X60198000Y15240000D03*
%TO.N,D4*%
X59944000Y34290000D03*
%TO.N,D1*%
X60452000Y53086000D03*
%TO.N,B5*%
X80008488Y12706048D03*
%TO.N,C6*%
X80264000Y31496000D03*
%TO.N,D2*%
X79756000Y50292000D03*
%TO.N,F4*%
X82550000Y-19558000D03*
%TO.N,F5*%
X104648000Y-23368000D03*
%TO.N,F7*%
X125984000Y-32004000D03*
%TD*%
D26*
%TO.N,GND*%
X68326000Y-13716000D02*
X56896000Y-2286000D01*
X68275000Y34750000D02*
X67520999Y35504001D01*
X28275000Y26589000D02*
X28275000Y28529000D01*
X28275000Y26589000D02*
X28275000Y15750000D01*
X46866333Y38608000D02*
X48675000Y40416667D01*
X85754901Y29396568D02*
X88275000Y31916667D01*
X60198000Y46990000D02*
X65078999Y51870999D01*
X56896000Y-2286000D02*
X24130000Y-2286000D01*
X113759769Y-26162000D02*
X112601346Y-25003577D01*
X86280333Y10922000D02*
X88275000Y12916667D01*
X28275000Y28529000D02*
X48663000Y28529000D01*
X84337358Y10922000D02*
X86280333Y10922000D01*
X66334342Y13809342D02*
X68275000Y15750000D01*
X40132000Y52832000D02*
X40725991Y52832000D01*
X88209000Y23063000D02*
X88275000Y22997000D01*
X5638657Y39878000D02*
X6403000Y39878000D01*
X19950658Y46990000D02*
X24776658Y51816000D01*
X90339186Y-19228323D02*
X90339186Y-21828640D01*
X111000000Y12500380D02*
X110353760Y12500380D01*
X8275000Y26563000D02*
X28249000Y26563000D01*
X81026000Y44450000D02*
X85613666Y49037666D01*
X90339186Y-21828640D02*
X86513826Y-25654000D01*
X91115667Y42281000D02*
X91380000Y42016667D01*
X41533990Y15240000D02*
X45851990Y19558000D01*
X28275000Y53750000D02*
X28275000Y34750000D01*
X112601346Y-26355967D02*
X109747313Y-29210000D01*
X133477789Y-35613252D02*
X133186540Y-35904501D01*
X127090501Y-37846000D02*
X123190000Y-37846000D01*
D27*
X107877300Y45839367D02*
X106620000Y47096667D01*
D26*
X60246470Y9390253D02*
X60350911Y9390253D01*
X68275000Y23063000D02*
X88209000Y23063000D01*
X48875000Y59416667D02*
X48875000Y40616667D01*
X68275000Y23063000D02*
X68275000Y26873000D01*
X48675000Y40416667D02*
X48675000Y28541000D01*
X46616333Y19558000D02*
X48475000Y21416667D01*
X45851990Y19558000D02*
X46616333Y19558000D01*
X6395999Y20870999D02*
X8275000Y22750000D01*
X84311663Y29396568D02*
X85754901Y29396568D01*
X48675000Y28541000D02*
X48675000Y28287000D01*
X115824000Y-26162000D02*
X113759769Y-26162000D01*
X112000000Y36516667D02*
X109650000Y38866667D01*
X60350911Y9390253D02*
X64770000Y13809342D01*
X112601346Y-25003577D02*
X112601346Y-26355967D01*
X4868999Y20870999D02*
X6395999Y20870999D01*
X80264000Y11684000D02*
X83575358Y11684000D01*
D27*
X114250000Y38866667D02*
X114250000Y39966667D01*
D26*
X86513826Y-25654000D02*
X82804000Y-25654000D01*
X48675000Y26831000D02*
X68233000Y26831000D01*
D27*
X107877300Y41739367D02*
X107877300Y45839367D01*
D26*
X121243104Y-19247412D02*
X121532108Y-19528942D01*
X41522561Y34028571D02*
X46101990Y38608000D01*
X19812000Y46990000D02*
X19950658Y46990000D01*
X88275000Y42281000D02*
X91115667Y42281000D01*
X80586596Y25671501D02*
X84311663Y29396568D01*
X0Y16002000D02*
X4868999Y20870999D01*
X93650323Y-19228323D02*
X90339186Y-19228323D01*
X85613666Y49037666D02*
X86395999Y49037666D01*
X48675000Y26831000D02*
X48675000Y21616667D01*
X110353760Y12500380D02*
X108771000Y10917620D01*
X48675000Y28287000D02*
X48675000Y26831000D01*
X133186540Y-35904501D02*
X129032000Y-35904501D01*
X88275000Y42281000D02*
X88275000Y50916667D01*
X24776658Y51816000D02*
X26341000Y51816000D01*
X6403000Y39878000D02*
X8275000Y41750000D01*
X129032000Y-35904501D02*
X127090501Y-37846000D01*
X108771000Y10917620D02*
X108771000Y-6775308D01*
X28275000Y34750000D02*
X28275000Y28529000D01*
X0Y35052000D02*
X812657Y35052000D01*
X66395999Y51870999D02*
X68275000Y53750000D01*
X65631656Y32870999D02*
X66395999Y32870999D01*
X86395999Y49037666D02*
X88275000Y50916667D01*
X67520999Y52995999D02*
X68275000Y53750000D01*
X93980000Y-19558000D02*
X93650323Y-19228323D01*
X0Y-2794000D02*
X966657Y-2794000D01*
X19558000Y28448000D02*
X20408658Y28448000D01*
X59944000Y28448000D02*
X61208657Y28448000D01*
X112000000Y34416667D02*
X112000000Y36516667D01*
X64770000Y13809342D02*
X66334342Y13809342D01*
X8275000Y26563000D02*
X8275000Y22750000D01*
X20387840Y9414472D02*
X24203269Y13229901D01*
X46101990Y38608000D02*
X46866333Y38608000D01*
X46862333Y57404000D02*
X48875000Y59416667D01*
X812657Y35052000D02*
X5638657Y39878000D01*
X6557000Y2032000D02*
X8275000Y3750000D01*
X25754901Y13229901D02*
X28275000Y15750000D01*
X109747313Y-29210000D02*
X103378000Y-29210000D01*
X83575358Y11684000D02*
X84337358Y10922000D01*
X966657Y-2794000D02*
X5792657Y2032000D01*
X66395999Y32870999D02*
X68275000Y34750000D01*
X24831657Y32870999D02*
X26395999Y32870999D01*
X26395999Y32870999D02*
X28275000Y34750000D01*
X28249000Y26563000D02*
X28275000Y26589000D01*
X68275000Y26873000D02*
X68275000Y34750000D01*
X61208657Y28448000D02*
X65631656Y32870999D01*
D27*
X109650000Y38866667D02*
X109650000Y39966667D01*
X109650000Y39966667D02*
X107877300Y41739367D01*
D26*
X20408658Y28448000D02*
X24831657Y32870999D01*
X48675000Y21616667D02*
X48475000Y21416667D01*
D27*
X114250000Y38866667D02*
X109650000Y38866667D01*
D26*
X48663000Y28529000D02*
X48675000Y28541000D01*
X88275000Y22997000D02*
X88275000Y31916667D01*
X24130000Y-2286000D02*
X18094000Y3750000D01*
X40688746Y34028571D02*
X41522561Y34028571D01*
X8275000Y22750000D02*
X8275000Y3750000D01*
X121905766Y-19797766D02*
X134747000Y-32639000D01*
X88275000Y31916667D02*
X88275000Y42281000D01*
X134747000Y-34344041D02*
X133477789Y-35613252D01*
X39878000Y15240000D02*
X41533990Y15240000D01*
X40725991Y52832000D02*
X45297991Y57404000D01*
X68275000Y15750000D02*
X68275000Y23063000D01*
X68233000Y26831000D02*
X68275000Y26873000D01*
X121532108Y-19528942D02*
X121852403Y-19767027D01*
X5792657Y2032000D02*
X6557000Y2032000D01*
X65078999Y51870999D02*
X66395999Y51870999D01*
X26341000Y51816000D02*
X28275000Y53750000D01*
X88275000Y12916667D02*
X88275000Y22997000D01*
X18094000Y3750000D02*
X8275000Y3750000D01*
X121852403Y-19767027D02*
X121905766Y-19797766D01*
X45297991Y57404000D02*
X46862333Y57404000D01*
X108771000Y-6775308D02*
X121243104Y-19247412D01*
X67520999Y35504001D02*
X67520999Y52995999D01*
X48875000Y40616667D02*
X48675000Y40416667D01*
X24203269Y13229901D02*
X25754901Y13229901D01*
X134747000Y-32639000D02*
X134747000Y-34344041D01*
X8275000Y41750000D02*
X8275000Y26563000D01*
%TO.N,B2*%
X115000000Y12500380D02*
X115000000Y15856667D01*
X115000000Y15856667D02*
X106620000Y24236667D01*
%TO.N,B3*%
X117000000Y12500380D02*
X116078000Y13422380D01*
X106620000Y26011930D02*
X106620000Y26776667D01*
X116078000Y13422380D02*
X116078000Y16553930D01*
X116078000Y16553930D02*
X106620000Y26011930D01*
%TO.N,T1*%
X110000000Y10499620D02*
X111000000Y11499620D01*
X110000000Y8000000D02*
X110000000Y10499620D01*
%TO.N,T2*%
X112540000Y11039620D02*
X113000000Y11499620D01*
X112540000Y8000000D02*
X112540000Y11039620D01*
%TO.N,VCC*%
X112178500Y12500380D02*
X112030931Y12352811D01*
X116078000Y21590000D02*
X115475000Y22193000D01*
X119379000Y8020931D02*
X119379000Y20110667D01*
X111311000Y8509069D02*
X111311000Y7490931D01*
X112030931Y12352811D02*
X112030931Y9229000D01*
X117899667Y21590000D02*
X116078000Y21590000D01*
X113000000Y12500380D02*
X112178500Y12500380D01*
X115475000Y45741667D02*
X114250000Y46966667D01*
X111311000Y7490931D02*
X112030931Y6771000D01*
X118129069Y6771000D02*
X119379000Y8020931D01*
X119379000Y20110667D02*
X117899667Y21590000D01*
X112030931Y6771000D02*
X118129069Y6771000D01*
X112030931Y9229000D02*
X111311000Y8509069D01*
X115475000Y22193000D02*
X115475000Y45741667D01*
%TO.N,T3*%
X115080000Y8000000D02*
X115080000Y11419620D01*
X115080000Y11419620D02*
X115000000Y11499620D01*
%TO.N,T4*%
X117620000Y8000000D02*
X117620000Y10879620D01*
X117620000Y10879620D02*
X117000000Y11499620D01*
%TO.N,B6*%
X-3275000Y5950000D02*
X-3275000Y5815000D01*
X-3275000Y5815000D02*
X-254000Y2794000D01*
%TO.N,F0*%
X-3275000Y24950000D02*
X-3275000Y24865000D01*
X-3275000Y24865000D02*
X-254000Y21844000D01*
%TO.N,F1*%
X-3275000Y43950000D02*
X-473000Y41148000D01*
X-473000Y41148000D02*
X-254000Y41148000D01*
%TO.N,C7*%
X19689000Y14986000D02*
X20320000Y14986000D01*
X16725000Y17950000D02*
X19689000Y14986000D01*
%TO.N,D5*%
X16725000Y36950000D02*
X16898000Y36950000D01*
X16898000Y36950000D02*
X20066000Y33782000D01*
%TO.N,B7*%
X16948000Y55950000D02*
X19812000Y53086000D01*
X16725000Y55950000D02*
X16948000Y55950000D01*
%TO.N,E6*%
X39459667Y21082000D02*
X40386000Y21082000D01*
X36925000Y23616667D02*
X39459667Y21082000D01*
%TO.N,D0*%
X37139333Y42616667D02*
X40132000Y39624000D01*
X37125000Y42616667D02*
X37139333Y42616667D01*
%TO.N,D7*%
X37325000Y61616667D02*
X37697333Y61616667D01*
X37697333Y61616667D02*
X40640000Y58674000D01*
%TO.N,B4*%
X59435000Y15240000D02*
X60198000Y15240000D01*
X56725000Y17950000D02*
X59435000Y15240000D01*
%TO.N,D4*%
X57284000Y36950000D02*
X59944000Y34290000D01*
X56725000Y36950000D02*
X57284000Y36950000D01*
%TO.N,D1*%
X59589000Y53086000D02*
X60452000Y53086000D01*
X56725000Y55950000D02*
X59589000Y53086000D01*
%TO.N,B5*%
X79135619Y12706048D02*
X80008488Y12706048D01*
X76725000Y15116667D02*
X79135619Y12706048D01*
%TO.N,C6*%
X79345667Y31496000D02*
X80264000Y31496000D01*
X76725000Y34116667D02*
X79345667Y31496000D01*
%TO.N,D2*%
X76725000Y53116667D02*
X76931333Y53116667D01*
X76931333Y53116667D02*
X79756000Y50292000D01*
%TO.N,F4*%
X97141000Y2399000D02*
X97141000Y15105667D01*
X100255300Y15105667D02*
X100255300Y33111967D01*
X78829341Y-16827083D02*
X78829341Y-15912659D01*
X78829341Y-15912659D02*
X97141000Y2399000D01*
X100255300Y33111967D02*
X106620000Y39476667D01*
X82550000Y-19558000D02*
X81560258Y-19558000D01*
X81560258Y-19558000D02*
X78829341Y-16827083D01*
X97141000Y15105667D02*
X100255300Y15105667D01*
%TO.N,F5*%
X104648000Y-23368000D02*
X102105175Y-20825175D01*
X102795300Y21176704D02*
X102795300Y33111967D01*
X102105175Y20486579D02*
X102795300Y21176704D01*
X102105175Y-19705190D02*
X102105175Y20486579D01*
X102105175Y-20825175D02*
X102105175Y-19705190D01*
X102795300Y33111967D02*
X106620000Y36936667D01*
%TO.N,F7*%
X104140000Y5080000D02*
X104140000Y19981404D01*
X124442513Y-28089537D02*
X124442513Y-30462513D01*
X105335300Y21176704D02*
X105335300Y30571967D01*
X124442513Y-30462513D02*
X125984000Y-32004000D01*
X108208000Y-11855024D02*
X108208000Y1012000D01*
X108208000Y1012000D02*
X104140000Y5080000D01*
X105335300Y30571967D02*
X106620000Y31856667D01*
X124442513Y-28089537D02*
X108208000Y-11855024D01*
X104140000Y19981404D02*
X105335300Y21176704D01*
%TD*%
%TA.AperFunction,Conductor*%
%TO.N,C7*%
G36*
X20151953Y15339934D02*
G01*
X20496225Y15008864D01*
X20508858Y14996715D01*
X20512446Y14988511D01*
X20509181Y14980172D01*
X20506662Y14978187D01*
X20044452Y14707431D01*
X20035582Y14706206D01*
X20030811Y14708741D01*
X19981113Y14752460D01*
X19980803Y14752733D01*
X19926919Y14788219D01*
X19874641Y14813382D01*
X19873828Y14813676D01*
X19823228Y14831949D01*
X19823213Y14831954D01*
X19823105Y14831993D01*
X19771449Y14847820D01*
X19771318Y14847862D01*
X19719195Y14864508D01*
X19718448Y14864774D01*
X19664901Y14885967D01*
X19663760Y14886491D01*
X19607755Y14915950D01*
X19606510Y14916708D01*
X19546921Y14958259D01*
X19545805Y14959142D01*
X19512533Y14988956D01*
X19490315Y15008865D01*
X19486441Y15016938D01*
X19489850Y15025851D01*
X19650448Y15186449D01*
X19658721Y15189876D01*
X19666073Y15187277D01*
X19710135Y15151683D01*
X19759118Y15131208D01*
X19760146Y15131162D01*
X19760148Y15131161D01*
X19789605Y15129829D01*
X19805771Y15129098D01*
X19826586Y15135027D01*
X19850399Y15141810D01*
X19850401Y15141811D01*
X19851030Y15141990D01*
X19895828Y15166521D01*
X19941101Y15199325D01*
X19951018Y15207336D01*
X19987746Y15237007D01*
X19987785Y15237039D01*
X20036566Y15276101D01*
X20037069Y15276482D01*
X20049924Y15285683D01*
X20088648Y15313401D01*
X20089625Y15314028D01*
X20138047Y15341663D01*
X20146928Y15342787D01*
X20151953Y15339934D01*
G37*
%TD.AperFunction*%
%TD*%
%TA.AperFunction,Conductor*%
%TO.N,D5*%
G36*
X19604037Y34421315D02*
G01*
X19632807Y34394551D01*
X19662050Y34367346D01*
X19662236Y34367201D01*
X19662243Y34367195D01*
X19722019Y34320604D01*
X19722024Y34320601D01*
X19722262Y34320415D01*
X19722523Y34320252D01*
X19722525Y34320251D01*
X19777890Y34285760D01*
X19777897Y34285756D01*
X19778175Y34285583D01*
X19831550Y34260222D01*
X19831836Y34260121D01*
X19831844Y34260118D01*
X19883931Y34241784D01*
X19884153Y34241706D01*
X19937745Y34227407D01*
X19994085Y34214700D01*
X19994089Y34214697D01*
X19994089Y34214699D01*
X20054797Y34200987D01*
X20055130Y34200906D01*
X20121811Y34183617D01*
X20122367Y34183457D01*
X20189253Y34162373D01*
X20196114Y34156617D01*
X20197434Y34151443D01*
X20207183Y33652744D01*
X20203918Y33644405D01*
X20195256Y33640817D01*
X19696557Y33650566D01*
X19688353Y33654154D01*
X19685627Y33658746D01*
X19664541Y33725637D01*
X19664375Y33726218D01*
X19647100Y33792843D01*
X19647012Y33793202D01*
X19633300Y33853910D01*
X19633301Y33853910D01*
X19633299Y33853914D01*
X19620623Y33910116D01*
X19620592Y33910254D01*
X19606293Y33963846D01*
X19606215Y33964068D01*
X19587881Y34016155D01*
X19587878Y34016163D01*
X19587777Y34016449D01*
X19562416Y34069824D01*
X19562243Y34070102D01*
X19562239Y34070109D01*
X19527748Y34125474D01*
X19527747Y34125476D01*
X19527584Y34125737D01*
X19507548Y34151443D01*
X19480804Y34185756D01*
X19480798Y34185763D01*
X19480653Y34185949D01*
X19426683Y34243964D01*
X19423558Y34252353D01*
X19426977Y34260204D01*
X19587795Y34421022D01*
X19596068Y34424449D01*
X19604037Y34421315D01*
G37*
%TD.AperFunction*%
%TD*%
%TA.AperFunction,Conductor*%
%TO.N,B7*%
G36*
X19350037Y53725315D02*
G01*
X19378807Y53698551D01*
X19408050Y53671346D01*
X19408236Y53671201D01*
X19408243Y53671195D01*
X19468019Y53624604D01*
X19468024Y53624601D01*
X19468262Y53624415D01*
X19468523Y53624252D01*
X19468525Y53624251D01*
X19523890Y53589760D01*
X19523897Y53589756D01*
X19524175Y53589583D01*
X19577550Y53564222D01*
X19577836Y53564121D01*
X19577844Y53564118D01*
X19629931Y53545784D01*
X19630153Y53545706D01*
X19683745Y53531407D01*
X19740085Y53518700D01*
X19740089Y53518697D01*
X19740089Y53518699D01*
X19800797Y53504987D01*
X19801130Y53504906D01*
X19867811Y53487617D01*
X19868367Y53487457D01*
X19935253Y53466373D01*
X19942114Y53460617D01*
X19943434Y53455443D01*
X19953183Y52956744D01*
X19949918Y52948405D01*
X19941256Y52944817D01*
X19442557Y52954566D01*
X19434353Y52958154D01*
X19431627Y52962746D01*
X19410541Y53029637D01*
X19410375Y53030218D01*
X19393100Y53096843D01*
X19393012Y53097202D01*
X19379300Y53157910D01*
X19379301Y53157910D01*
X19379299Y53157914D01*
X19366623Y53214116D01*
X19366592Y53214254D01*
X19352293Y53267846D01*
X19352215Y53268068D01*
X19333881Y53320155D01*
X19333878Y53320163D01*
X19333777Y53320449D01*
X19308416Y53373824D01*
X19308243Y53374102D01*
X19308239Y53374109D01*
X19273748Y53429474D01*
X19273747Y53429476D01*
X19273584Y53429737D01*
X19253548Y53455443D01*
X19226804Y53489756D01*
X19226798Y53489763D01*
X19226653Y53489949D01*
X19172683Y53547964D01*
X19169558Y53556353D01*
X19172977Y53564204D01*
X19333795Y53725022D01*
X19342068Y53728449D01*
X19350037Y53725315D01*
G37*
%TD.AperFunction*%
%TD*%
%TA.AperFunction,Conductor*%
%TO.N,E6*%
G36*
X40217702Y21436175D02*
G01*
X40456016Y21207000D01*
X40577231Y21090433D01*
X40580819Y21082229D01*
X40577231Y21073567D01*
X40217703Y20727826D01*
X40209364Y20724561D01*
X40204191Y20725881D01*
X40141994Y20758263D01*
X40141465Y20758556D01*
X40132739Y20763688D01*
X40082061Y20793496D01*
X40081785Y20793666D01*
X40029190Y20826881D01*
X40029188Y20826884D01*
X40029187Y20826883D01*
X39980437Y20857689D01*
X39980427Y20857695D01*
X39980359Y20857738D01*
X39932352Y20885523D01*
X39932150Y20885620D01*
X39932144Y20885623D01*
X39882339Y20909493D01*
X39882064Y20909625D01*
X39826389Y20929435D01*
X39800557Y20935436D01*
X39762524Y20944271D01*
X39762521Y20944271D01*
X39762222Y20944341D01*
X39761913Y20944379D01*
X39761909Y20944380D01*
X39717886Y20949837D01*
X39686461Y20953733D01*
X39640212Y20955403D01*
X39607278Y20956593D01*
X39599134Y20960316D01*
X39596000Y20968285D01*
X39596000Y21195715D01*
X39599427Y21203988D01*
X39607278Y21207407D01*
X39630870Y21208259D01*
X39686461Y21210266D01*
X39717886Y21214162D01*
X39761909Y21219619D01*
X39761913Y21219620D01*
X39762222Y21219658D01*
X39762521Y21219728D01*
X39762524Y21219728D01*
X39826070Y21234490D01*
X39826068Y21234490D01*
X39826389Y21234564D01*
X39882064Y21254374D01*
X39901766Y21263817D01*
X39932144Y21278376D01*
X39932150Y21278379D01*
X39932352Y21278476D01*
X39980359Y21306261D01*
X40029187Y21337116D01*
X40081785Y21370333D01*
X40082061Y21370503D01*
X40141465Y21405443D01*
X40141994Y21405736D01*
X40204191Y21438119D01*
X40213112Y21438900D01*
X40217702Y21436175D01*
G37*
%TD.AperFunction*%
%TD*%
%TA.AperFunction,Conductor*%
%TO.N,D0*%
G36*
X39670037Y40263315D02*
G01*
X39698807Y40236551D01*
X39728050Y40209346D01*
X39728236Y40209201D01*
X39728243Y40209195D01*
X39788019Y40162604D01*
X39788024Y40162601D01*
X39788262Y40162415D01*
X39788523Y40162252D01*
X39788525Y40162251D01*
X39843890Y40127760D01*
X39843897Y40127756D01*
X39844175Y40127583D01*
X39897550Y40102222D01*
X39897836Y40102121D01*
X39897844Y40102118D01*
X39949931Y40083784D01*
X39950153Y40083706D01*
X40003745Y40069407D01*
X40060085Y40056700D01*
X40060089Y40056697D01*
X40060089Y40056699D01*
X40120797Y40042987D01*
X40121130Y40042906D01*
X40187811Y40025617D01*
X40188367Y40025457D01*
X40255253Y40004373D01*
X40262114Y39998617D01*
X40263434Y39993443D01*
X40273183Y39494744D01*
X40269918Y39486405D01*
X40261256Y39482817D01*
X39762557Y39492566D01*
X39754353Y39496154D01*
X39751627Y39500746D01*
X39730541Y39567637D01*
X39730375Y39568218D01*
X39713100Y39634843D01*
X39713012Y39635202D01*
X39699300Y39695910D01*
X39699301Y39695910D01*
X39699299Y39695914D01*
X39686623Y39752116D01*
X39686592Y39752254D01*
X39672293Y39805846D01*
X39672215Y39806068D01*
X39653881Y39858155D01*
X39653878Y39858163D01*
X39653777Y39858449D01*
X39628416Y39911824D01*
X39628243Y39912102D01*
X39628239Y39912109D01*
X39593748Y39967474D01*
X39593747Y39967476D01*
X39593584Y39967737D01*
X39573548Y39993443D01*
X39546804Y40027756D01*
X39546798Y40027763D01*
X39546653Y40027949D01*
X39492683Y40085964D01*
X39489558Y40094353D01*
X39492977Y40102204D01*
X39653795Y40263022D01*
X39662068Y40266449D01*
X39670037Y40263315D01*
G37*
%TD.AperFunction*%
%TD*%
%TA.AperFunction,Conductor*%
%TO.N,D7*%
G36*
X40178037Y59313315D02*
G01*
X40206807Y59286551D01*
X40236050Y59259346D01*
X40236236Y59259201D01*
X40236243Y59259195D01*
X40296019Y59212604D01*
X40296024Y59212601D01*
X40296262Y59212415D01*
X40296523Y59212252D01*
X40296525Y59212251D01*
X40351890Y59177760D01*
X40351897Y59177756D01*
X40352175Y59177583D01*
X40405550Y59152222D01*
X40405836Y59152121D01*
X40405844Y59152118D01*
X40457931Y59133784D01*
X40458153Y59133706D01*
X40511745Y59119407D01*
X40568085Y59106700D01*
X40568089Y59106697D01*
X40568089Y59106699D01*
X40628797Y59092987D01*
X40629130Y59092906D01*
X40695811Y59075617D01*
X40696367Y59075457D01*
X40763253Y59054373D01*
X40770114Y59048617D01*
X40771434Y59043443D01*
X40781183Y58544744D01*
X40777918Y58536405D01*
X40769256Y58532817D01*
X40270557Y58542566D01*
X40262353Y58546154D01*
X40259627Y58550746D01*
X40238541Y58617637D01*
X40238375Y58618218D01*
X40221100Y58684843D01*
X40221012Y58685202D01*
X40207300Y58745910D01*
X40207301Y58745910D01*
X40207299Y58745914D01*
X40194623Y58802116D01*
X40194592Y58802254D01*
X40180293Y58855846D01*
X40180215Y58856068D01*
X40161881Y58908155D01*
X40161878Y58908163D01*
X40161777Y58908449D01*
X40136416Y58961824D01*
X40136243Y58962102D01*
X40136239Y58962109D01*
X40101748Y59017474D01*
X40101747Y59017476D01*
X40101584Y59017737D01*
X40081548Y59043443D01*
X40054804Y59077756D01*
X40054798Y59077763D01*
X40054653Y59077949D01*
X40000683Y59135964D01*
X39997558Y59144353D01*
X40000977Y59152204D01*
X40161795Y59313022D01*
X40170068Y59316449D01*
X40178037Y59313315D01*
G37*
%TD.AperFunction*%
%TD*%
%TA.AperFunction,Conductor*%
%TO.N,B6*%
G36*
X-715963Y3433315D02*
G01*
X-685318Y3404807D01*
X-657949Y3379346D01*
X-657763Y3379201D01*
X-657756Y3379195D01*
X-597980Y3332604D01*
X-597975Y3332601D01*
X-597737Y3332415D01*
X-597476Y3332252D01*
X-597474Y3332251D01*
X-542109Y3297760D01*
X-542102Y3297756D01*
X-541824Y3297583D01*
X-488449Y3272222D01*
X-488163Y3272121D01*
X-488155Y3272118D01*
X-436068Y3253784D01*
X-435846Y3253706D01*
X-382254Y3239407D01*
X-325914Y3226700D01*
X-325910Y3226697D01*
X-325910Y3226699D01*
X-265202Y3212987D01*
X-264843Y3212899D01*
X-198217Y3195624D01*
X-197637Y3195458D01*
X-130747Y3174373D01*
X-123886Y3168617D01*
X-122566Y3163443D01*
X-112817Y2664744D01*
X-116082Y2656405D01*
X-124744Y2652817D01*
X-623443Y2662566D01*
X-631647Y2666154D01*
X-634373Y2670747D01*
X-655458Y2737637D01*
X-655624Y2738217D01*
X-672899Y2804843D01*
X-672987Y2805202D01*
X-686699Y2865910D01*
X-686698Y2865910D01*
X-686700Y2865914D01*
X-699376Y2922116D01*
X-699407Y2922254D01*
X-713706Y2975846D01*
X-713784Y2976068D01*
X-732118Y3028155D01*
X-732121Y3028163D01*
X-732222Y3028449D01*
X-757583Y3081824D01*
X-757756Y3082102D01*
X-757760Y3082109D01*
X-792251Y3137474D01*
X-792252Y3137476D01*
X-792415Y3137737D01*
X-812451Y3163443D01*
X-839195Y3197756D01*
X-839201Y3197763D01*
X-839346Y3197949D01*
X-877914Y3239407D01*
X-893315Y3255963D01*
X-896441Y3264354D01*
X-893022Y3272205D01*
X-732205Y3433022D01*
X-723932Y3436449D01*
X-715963Y3433315D01*
G37*
%TD.AperFunction*%
%TD*%
%TA.AperFunction,Conductor*%
%TO.N,VCC*%
G36*
X114997130Y47229374D02*
G01*
X115005334Y47225786D01*
X115008121Y47220993D01*
X115053581Y47067231D01*
X115053833Y47066212D01*
X115082876Y46921212D01*
X115083006Y46920423D01*
X115100202Y46788170D01*
X115100241Y46787831D01*
X115112404Y46664739D01*
X115126349Y46547575D01*
X115148922Y46433004D01*
X115186982Y46317531D01*
X115247390Y46197661D01*
X115337004Y46069901D01*
X115373209Y46029818D01*
X115455233Y45939008D01*
X115458236Y45930572D01*
X115454824Y45922893D01*
X115293774Y45761843D01*
X115285501Y45758416D01*
X115277660Y45761433D01*
X115146765Y45879662D01*
X115019005Y45969276D01*
X114899135Y46029684D01*
X114783662Y46067744D01*
X114669091Y46090317D01*
X114551927Y46104262D01*
X114428835Y46116425D01*
X114428522Y46116461D01*
X114296240Y46133661D01*
X114295457Y46133789D01*
X114270619Y46138764D01*
X114150454Y46162833D01*
X114149435Y46163085D01*
X113995674Y46208546D01*
X113988712Y46214178D01*
X113987293Y46219537D01*
X113967396Y47237344D01*
X113970661Y47245683D01*
X113979323Y47249271D01*
X114997130Y47229374D01*
G37*
%TD.AperFunction*%
%TD*%
%TA.AperFunction,Conductor*%
%TO.N,T3*%
G36*
X115202162Y9686573D02*
G01*
X115205573Y9678904D01*
X115215302Y9490601D01*
X115244473Y9327127D01*
X115289914Y9191726D01*
X115349021Y9076548D01*
X115419195Y8973741D01*
X115497832Y8875455D01*
X115497864Y8875417D01*
X115582213Y8773984D01*
X115582451Y8773688D01*
X115669850Y8661357D01*
X115670317Y8660713D01*
X115738492Y8559073D01*
X115758218Y8529663D01*
X115758775Y8528744D01*
X115840898Y8378034D01*
X115841847Y8369130D01*
X115839057Y8364326D01*
X115088433Y7583769D01*
X115080229Y7580181D01*
X115071567Y7583769D01*
X114320943Y8364326D01*
X114317678Y8372665D01*
X114319102Y8378034D01*
X114401224Y8528744D01*
X114401781Y8529663D01*
X114421507Y8559073D01*
X114489682Y8660713D01*
X114490149Y8661357D01*
X114577548Y8773688D01*
X114577786Y8773984D01*
X114662135Y8875417D01*
X114662167Y8875455D01*
X114740804Y8973741D01*
X114810978Y9076548D01*
X114870085Y9191726D01*
X114915526Y9327127D01*
X114944697Y9490601D01*
X114954427Y9678904D01*
X114958276Y9686989D01*
X114966111Y9690000D01*
X115193889Y9690000D01*
X115202162Y9686573D01*
G37*
%TD.AperFunction*%
%TD*%
%TA.AperFunction,Conductor*%
%TO.N,T4*%
G36*
X117742162Y9686573D02*
G01*
X117745573Y9678904D01*
X117755302Y9490601D01*
X117784473Y9327127D01*
X117829914Y9191726D01*
X117889021Y9076548D01*
X117959195Y8973741D01*
X118037832Y8875455D01*
X118037864Y8875417D01*
X118122213Y8773984D01*
X118122451Y8773688D01*
X118209850Y8661357D01*
X118210317Y8660713D01*
X118278492Y8559073D01*
X118298218Y8529663D01*
X118298775Y8528744D01*
X118380898Y8378034D01*
X118381847Y8369130D01*
X118379057Y8364326D01*
X117628433Y7583769D01*
X117620229Y7580181D01*
X117611567Y7583769D01*
X116860943Y8364326D01*
X116857678Y8372665D01*
X116859102Y8378034D01*
X116941224Y8528744D01*
X116941781Y8529663D01*
X116961507Y8559073D01*
X117029682Y8660713D01*
X117030149Y8661357D01*
X117117548Y8773688D01*
X117117786Y8773984D01*
X117202135Y8875417D01*
X117202167Y8875455D01*
X117280804Y8973741D01*
X117350978Y9076548D01*
X117410085Y9191726D01*
X117455526Y9327127D01*
X117484697Y9490601D01*
X117494427Y9678904D01*
X117498276Y9686989D01*
X117506111Y9690000D01*
X117733889Y9690000D01*
X117742162Y9686573D01*
G37*
%TD.AperFunction*%
%TD*%
%TA.AperFunction,Conductor*%
%TO.N,F0*%
G36*
X-715963Y22483315D02*
G01*
X-685318Y22454807D01*
X-657949Y22429346D01*
X-657763Y22429201D01*
X-657756Y22429195D01*
X-597980Y22382604D01*
X-597975Y22382601D01*
X-597737Y22382415D01*
X-597476Y22382252D01*
X-597474Y22382251D01*
X-542109Y22347760D01*
X-542102Y22347756D01*
X-541824Y22347583D01*
X-488449Y22322222D01*
X-488163Y22322121D01*
X-488155Y22322118D01*
X-436068Y22303784D01*
X-435846Y22303706D01*
X-382254Y22289407D01*
X-325914Y22276700D01*
X-325910Y22276697D01*
X-325910Y22276699D01*
X-265202Y22262987D01*
X-264843Y22262899D01*
X-198217Y22245624D01*
X-197637Y22245458D01*
X-130747Y22224373D01*
X-123886Y22218617D01*
X-122566Y22213443D01*
X-112817Y21714744D01*
X-116082Y21706405D01*
X-124744Y21702817D01*
X-623443Y21712566D01*
X-631647Y21716154D01*
X-634373Y21720747D01*
X-655458Y21787637D01*
X-655624Y21788217D01*
X-672899Y21854843D01*
X-672987Y21855202D01*
X-686699Y21915910D01*
X-686698Y21915910D01*
X-686700Y21915914D01*
X-699376Y21972116D01*
X-699407Y21972254D01*
X-713706Y22025846D01*
X-713784Y22026068D01*
X-732118Y22078155D01*
X-732121Y22078163D01*
X-732222Y22078449D01*
X-757583Y22131824D01*
X-757756Y22132102D01*
X-757760Y22132109D01*
X-792251Y22187474D01*
X-792252Y22187476D01*
X-792415Y22187737D01*
X-812451Y22213443D01*
X-839195Y22247756D01*
X-839201Y22247763D01*
X-839346Y22247949D01*
X-877914Y22289407D01*
X-893315Y22305963D01*
X-896441Y22314354D01*
X-893022Y22322205D01*
X-732205Y22483022D01*
X-723932Y22486449D01*
X-715963Y22483315D01*
G37*
%TD.AperFunction*%
%TD*%
%TA.AperFunction,Conductor*%
%TO.N,F1*%
G36*
X-814761Y41667246D02*
G01*
X-766009Y41622678D01*
X-713057Y41584089D01*
X-662842Y41557236D01*
X-614041Y41540326D01*
X-565332Y41531568D01*
X-537496Y41530231D01*
X-515650Y41529182D01*
X-515646Y41529182D01*
X-515396Y41529170D01*
X-494611Y41530029D01*
X-463070Y41531333D01*
X-463054Y41531334D01*
X-462910Y41531340D01*
X-462763Y41531353D01*
X-462746Y41531354D01*
X-422800Y41534860D01*
X-406552Y41536286D01*
X-345124Y41542205D01*
X-344888Y41542226D01*
X-285222Y41546718D01*
X-276716Y41543922D01*
X-273621Y41539729D01*
X-74161Y41082442D01*
X-73994Y41073488D01*
X-80629Y41066866D01*
X-348138Y40962428D01*
X-545263Y40885469D01*
X-554216Y40885653D01*
X-558496Y40888866D01*
X-610538Y40951144D01*
X-610996Y40951728D01*
X-656396Y41013652D01*
X-656789Y41014223D01*
X-693787Y41071514D01*
X-694052Y41071945D01*
X-726053Y41126543D01*
X-726147Y41126706D01*
X-756522Y41180498D01*
X-788470Y41235032D01*
X-788532Y41235138D01*
X-825500Y41292383D01*
X-870790Y41354060D01*
X-927767Y41421995D01*
X-991961Y41489750D01*
X-995164Y41498113D01*
X-991741Y41506070D01*
X-830927Y41666884D01*
X-822654Y41670311D01*
X-814761Y41667246D01*
G37*
%TD.AperFunction*%
%TD*%
%TA.AperFunction,Conductor*%
%TO.N,F7*%
G36*
X125522037Y-31364685D02*
G01*
X125552812Y-31393314D01*
X125580050Y-31418653D01*
X125580236Y-31418798D01*
X125580243Y-31418804D01*
X125640019Y-31465395D01*
X125640024Y-31465398D01*
X125640262Y-31465584D01*
X125640523Y-31465747D01*
X125640525Y-31465748D01*
X125695890Y-31500239D01*
X125695897Y-31500243D01*
X125696175Y-31500416D01*
X125749550Y-31525777D01*
X125749836Y-31525878D01*
X125749844Y-31525881D01*
X125801931Y-31544215D01*
X125802153Y-31544293D01*
X125855745Y-31558592D01*
X125912085Y-31571299D01*
X125912089Y-31571302D01*
X125912089Y-31571300D01*
X125972797Y-31585012D01*
X125973156Y-31585100D01*
X126039781Y-31602375D01*
X126040362Y-31602541D01*
X126107254Y-31623627D01*
X126114114Y-31629383D01*
X126115434Y-31634557D01*
X126125183Y-32133256D01*
X126121918Y-32141595D01*
X126113256Y-32145183D01*
X125614557Y-32135434D01*
X125606353Y-32131846D01*
X125603627Y-32127254D01*
X125582541Y-32060362D01*
X125582375Y-32059781D01*
X125565100Y-31993156D01*
X125565012Y-31992797D01*
X125551300Y-31932089D01*
X125551301Y-31932089D01*
X125551299Y-31932085D01*
X125538623Y-31875883D01*
X125538592Y-31875745D01*
X125524293Y-31822153D01*
X125524215Y-31821931D01*
X125505881Y-31769844D01*
X125505878Y-31769836D01*
X125505777Y-31769550D01*
X125480416Y-31716175D01*
X125480243Y-31715897D01*
X125480239Y-31715890D01*
X125445748Y-31660525D01*
X125445747Y-31660523D01*
X125445584Y-31660262D01*
X125421516Y-31629383D01*
X125398804Y-31600243D01*
X125398798Y-31600236D01*
X125398653Y-31600050D01*
X125360085Y-31558592D01*
X125344685Y-31542037D01*
X125341559Y-31533646D01*
X125344978Y-31525795D01*
X125505795Y-31364978D01*
X125514068Y-31361551D01*
X125522037Y-31364685D01*
G37*
%TD.AperFunction*%
%TD*%
%TA.AperFunction,Conductor*%
%TO.N,D2*%
G36*
X79294037Y50931315D02*
G01*
X79322807Y50904551D01*
X79352050Y50877346D01*
X79352236Y50877201D01*
X79352243Y50877195D01*
X79412019Y50830604D01*
X79412024Y50830601D01*
X79412262Y50830415D01*
X79412523Y50830252D01*
X79412525Y50830251D01*
X79467890Y50795760D01*
X79467897Y50795756D01*
X79468175Y50795583D01*
X79521550Y50770222D01*
X79521836Y50770121D01*
X79521844Y50770118D01*
X79573931Y50751784D01*
X79574153Y50751706D01*
X79627745Y50737407D01*
X79684085Y50724700D01*
X79684089Y50724697D01*
X79684089Y50724699D01*
X79744797Y50710987D01*
X79745130Y50710906D01*
X79811811Y50693617D01*
X79812367Y50693457D01*
X79879253Y50672373D01*
X79886114Y50666617D01*
X79887434Y50661443D01*
X79897183Y50162744D01*
X79893918Y50154405D01*
X79885256Y50150817D01*
X79386557Y50160566D01*
X79378353Y50164154D01*
X79375627Y50168746D01*
X79354541Y50235637D01*
X79354375Y50236218D01*
X79337100Y50302843D01*
X79337012Y50303202D01*
X79323300Y50363910D01*
X79323301Y50363910D01*
X79323299Y50363914D01*
X79310623Y50420116D01*
X79310592Y50420254D01*
X79296293Y50473846D01*
X79296215Y50474068D01*
X79277881Y50526155D01*
X79277878Y50526163D01*
X79277777Y50526449D01*
X79252416Y50579824D01*
X79252243Y50580102D01*
X79252239Y50580109D01*
X79217748Y50635474D01*
X79217747Y50635476D01*
X79217584Y50635737D01*
X79197548Y50661443D01*
X79170804Y50695756D01*
X79170798Y50695763D01*
X79170653Y50695949D01*
X79116683Y50753964D01*
X79113558Y50762353D01*
X79116977Y50770204D01*
X79277795Y50931022D01*
X79286068Y50934449D01*
X79294037Y50931315D01*
G37*
%TD.AperFunction*%
%TD*%
%TA.AperFunction,Conductor*%
%TO.N,F4*%
G36*
X106925992Y39782982D02*
G01*
X106929580Y39774320D01*
X106925864Y39584228D01*
X106909692Y38756900D01*
X106907748Y38657474D01*
X106904160Y38649270D01*
X106899354Y38646479D01*
X106728611Y38596224D01*
X106727561Y38595967D01*
X106674952Y38585639D01*
X106567263Y38564500D01*
X106566470Y38564373D01*
X106456505Y38550786D01*
X106420255Y38546307D01*
X106419872Y38546266D01*
X106283837Y38533986D01*
X106154352Y38519863D01*
X106154156Y38519826D01*
X106154153Y38519826D01*
X106028117Y38496312D01*
X106028115Y38496311D01*
X106027764Y38496246D01*
X105900233Y38455465D01*
X105767918Y38389852D01*
X105626976Y38291740D01*
X105482284Y38161314D01*
X105481821Y38160897D01*
X105473381Y38157903D01*
X105465714Y38161314D01*
X105304647Y38322381D01*
X105301220Y38330654D01*
X105304230Y38338488D01*
X105434828Y38483371D01*
X105434829Y38483373D01*
X105435073Y38483643D01*
X105533185Y38624585D01*
X105598798Y38756900D01*
X105639579Y38884431D01*
X105663196Y39011019D01*
X105677319Y39140504D01*
X105689599Y39276539D01*
X105689640Y39276922D01*
X105707704Y39423124D01*
X105707835Y39423943D01*
X105739300Y39584228D01*
X105739557Y39585278D01*
X105789812Y39756021D01*
X105795435Y39762989D01*
X105800805Y39764415D01*
X106548586Y39779033D01*
X106917653Y39786247D01*
X106925992Y39782982D01*
G37*
%TD.AperFunction*%
%TD*%
%TA.AperFunction,Conductor*%
%TO.N,F4*%
G36*
X82381703Y-19203826D02*
G01*
X82741231Y-19549567D01*
X82744819Y-19557771D01*
X82741231Y-19566433D01*
X82381703Y-19912174D01*
X82373365Y-19915439D01*
X82368191Y-19914119D01*
X82305994Y-19881736D01*
X82305465Y-19881443D01*
X82296739Y-19876311D01*
X82246061Y-19846503D01*
X82245785Y-19846333D01*
X82193190Y-19813118D01*
X82193188Y-19813115D01*
X82193187Y-19813116D01*
X82144437Y-19782310D01*
X82144427Y-19782304D01*
X82144359Y-19782261D01*
X82096352Y-19754476D01*
X82096150Y-19754379D01*
X82096144Y-19754376D01*
X82046339Y-19730506D01*
X82046064Y-19730374D01*
X81990389Y-19710564D01*
X81964557Y-19704563D01*
X81926524Y-19695728D01*
X81926521Y-19695728D01*
X81926222Y-19695658D01*
X81925913Y-19695620D01*
X81925909Y-19695619D01*
X81881886Y-19690162D01*
X81850461Y-19686266D01*
X81794870Y-19684259D01*
X81771278Y-19683407D01*
X81763134Y-19679684D01*
X81760000Y-19671715D01*
X81760000Y-19444285D01*
X81763427Y-19436012D01*
X81771278Y-19432593D01*
X81804212Y-19431403D01*
X81850461Y-19429733D01*
X81881886Y-19425837D01*
X81925909Y-19420380D01*
X81925913Y-19420379D01*
X81926222Y-19420341D01*
X81926521Y-19420271D01*
X81926524Y-19420271D01*
X81990070Y-19405509D01*
X81990068Y-19405509D01*
X81990389Y-19405435D01*
X82046064Y-19385625D01*
X82065766Y-19376182D01*
X82096144Y-19361623D01*
X82096150Y-19361620D01*
X82096352Y-19361523D01*
X82144359Y-19333738D01*
X82193187Y-19302883D01*
X82245785Y-19269666D01*
X82246061Y-19269496D01*
X82305465Y-19234556D01*
X82305994Y-19234263D01*
X82313879Y-19230158D01*
X82368191Y-19201881D01*
X82377111Y-19201100D01*
X82381703Y-19203826D01*
G37*
%TD.AperFunction*%
%TD*%
%TA.AperFunction,Conductor*%
%TO.N,F5*%
G36*
X104186037Y-22728685D02*
G01*
X104216812Y-22757314D01*
X104244050Y-22782653D01*
X104244236Y-22782798D01*
X104244243Y-22782804D01*
X104304019Y-22829395D01*
X104304024Y-22829398D01*
X104304262Y-22829584D01*
X104304523Y-22829747D01*
X104304525Y-22829748D01*
X104359890Y-22864239D01*
X104359897Y-22864243D01*
X104360175Y-22864416D01*
X104413550Y-22889777D01*
X104413836Y-22889878D01*
X104413844Y-22889881D01*
X104465931Y-22908215D01*
X104466153Y-22908293D01*
X104519745Y-22922592D01*
X104576085Y-22935299D01*
X104576089Y-22935302D01*
X104576089Y-22935300D01*
X104636797Y-22949012D01*
X104637156Y-22949100D01*
X104703781Y-22966375D01*
X104704362Y-22966541D01*
X104771254Y-22987627D01*
X104778114Y-22993383D01*
X104779434Y-22998557D01*
X104789183Y-23497256D01*
X104785918Y-23505595D01*
X104777256Y-23509183D01*
X104278557Y-23499434D01*
X104270353Y-23495846D01*
X104267627Y-23491254D01*
X104246541Y-23424362D01*
X104246375Y-23423781D01*
X104229100Y-23357156D01*
X104229012Y-23356797D01*
X104215300Y-23296089D01*
X104215301Y-23296089D01*
X104215299Y-23296085D01*
X104202623Y-23239883D01*
X104202592Y-23239745D01*
X104188293Y-23186153D01*
X104188215Y-23185931D01*
X104169881Y-23133844D01*
X104169878Y-23133836D01*
X104169777Y-23133550D01*
X104144416Y-23080175D01*
X104144243Y-23079897D01*
X104144239Y-23079890D01*
X104109748Y-23024525D01*
X104109747Y-23024523D01*
X104109584Y-23024262D01*
X104085516Y-22993383D01*
X104062804Y-22964243D01*
X104062798Y-22964236D01*
X104062653Y-22964050D01*
X104024085Y-22922592D01*
X104008685Y-22906037D01*
X104005559Y-22897646D01*
X104008978Y-22889795D01*
X104169795Y-22728978D01*
X104178068Y-22725551D01*
X104186037Y-22728685D01*
G37*
%TD.AperFunction*%
%TD*%
%TA.AperFunction,Conductor*%
%TO.N,F5*%
G36*
X106925992Y37242982D02*
G01*
X106929580Y37234320D01*
X106925864Y37044228D01*
X106909692Y36216900D01*
X106907748Y36117474D01*
X106904160Y36109270D01*
X106899354Y36106479D01*
X106728611Y36056224D01*
X106727561Y36055967D01*
X106674952Y36045639D01*
X106567263Y36024500D01*
X106566470Y36024373D01*
X106456505Y36010786D01*
X106420255Y36006307D01*
X106419872Y36006266D01*
X106283837Y35993986D01*
X106154352Y35979863D01*
X106154156Y35979826D01*
X106154153Y35979826D01*
X106028117Y35956312D01*
X106028115Y35956311D01*
X106027764Y35956246D01*
X105900233Y35915465D01*
X105767918Y35849852D01*
X105626976Y35751740D01*
X105482284Y35621314D01*
X105481821Y35620897D01*
X105473381Y35617903D01*
X105465714Y35621314D01*
X105304647Y35782381D01*
X105301220Y35790654D01*
X105304230Y35798488D01*
X105434828Y35943371D01*
X105434829Y35943373D01*
X105435073Y35943643D01*
X105533185Y36084585D01*
X105598798Y36216900D01*
X105639579Y36344431D01*
X105663196Y36471019D01*
X105677319Y36600504D01*
X105689599Y36736539D01*
X105689640Y36736922D01*
X105707704Y36883124D01*
X105707835Y36883943D01*
X105739300Y37044228D01*
X105739557Y37045278D01*
X105789812Y37216021D01*
X105795435Y37222989D01*
X105800805Y37224415D01*
X106548586Y37239033D01*
X106917653Y37246247D01*
X106925992Y37242982D01*
G37*
%TD.AperFunction*%
%TD*%
%TA.AperFunction,Conductor*%
%TO.N,F7*%
G36*
X106925992Y32162982D02*
G01*
X106929580Y32154320D01*
X106925864Y31964228D01*
X106909692Y31136900D01*
X106907748Y31037474D01*
X106904160Y31029270D01*
X106899354Y31026479D01*
X106728611Y30976224D01*
X106727561Y30975967D01*
X106674952Y30965639D01*
X106567263Y30944500D01*
X106566470Y30944373D01*
X106456505Y30930786D01*
X106420255Y30926307D01*
X106419872Y30926266D01*
X106283837Y30913986D01*
X106154352Y30899863D01*
X106154156Y30899826D01*
X106154153Y30899826D01*
X106028117Y30876312D01*
X106028115Y30876311D01*
X106027764Y30876246D01*
X105900233Y30835465D01*
X105767918Y30769852D01*
X105626976Y30671740D01*
X105482284Y30541314D01*
X105481821Y30540897D01*
X105473381Y30537903D01*
X105465714Y30541314D01*
X105304647Y30702381D01*
X105301220Y30710654D01*
X105304230Y30718488D01*
X105434828Y30863371D01*
X105434829Y30863373D01*
X105435073Y30863643D01*
X105533185Y31004585D01*
X105598798Y31136900D01*
X105639579Y31264431D01*
X105663196Y31391019D01*
X105677319Y31520504D01*
X105689599Y31656539D01*
X105689640Y31656922D01*
X105707704Y31803124D01*
X105707835Y31803943D01*
X105739300Y31964228D01*
X105739557Y31965278D01*
X105789812Y32136021D01*
X105795435Y32142989D01*
X105800805Y32144415D01*
X106548586Y32159033D01*
X106917653Y32166247D01*
X106925992Y32162982D01*
G37*
%TD.AperFunction*%
%TD*%
%TA.AperFunction,Conductor*%
%TO.N,C6*%
G36*
X80095702Y31850175D02*
G01*
X80334016Y31621000D01*
X80455231Y31504433D01*
X80458819Y31496229D01*
X80455231Y31487567D01*
X80095703Y31141826D01*
X80087364Y31138561D01*
X80082191Y31139881D01*
X80019994Y31172263D01*
X80019465Y31172556D01*
X80010739Y31177688D01*
X79960061Y31207496D01*
X79959785Y31207666D01*
X79907190Y31240881D01*
X79907188Y31240884D01*
X79907187Y31240883D01*
X79858437Y31271689D01*
X79858427Y31271695D01*
X79858359Y31271738D01*
X79810352Y31299523D01*
X79810150Y31299620D01*
X79810144Y31299623D01*
X79760339Y31323493D01*
X79760064Y31323625D01*
X79704389Y31343435D01*
X79678557Y31349436D01*
X79640524Y31358271D01*
X79640521Y31358271D01*
X79640222Y31358341D01*
X79639913Y31358379D01*
X79639909Y31358380D01*
X79595886Y31363837D01*
X79564461Y31367733D01*
X79518212Y31369403D01*
X79485278Y31370593D01*
X79477134Y31374316D01*
X79474000Y31382285D01*
X79474000Y31609715D01*
X79477427Y31617988D01*
X79485278Y31621407D01*
X79508870Y31622259D01*
X79564461Y31624266D01*
X79595886Y31628162D01*
X79639909Y31633619D01*
X79639913Y31633620D01*
X79640222Y31633658D01*
X79640521Y31633728D01*
X79640524Y31633728D01*
X79704070Y31648490D01*
X79704068Y31648490D01*
X79704389Y31648564D01*
X79760064Y31668374D01*
X79779766Y31677817D01*
X79810144Y31692376D01*
X79810150Y31692379D01*
X79810352Y31692476D01*
X79858359Y31720261D01*
X79907187Y31751116D01*
X79959785Y31784333D01*
X79960061Y31784503D01*
X80019465Y31819443D01*
X80019994Y31819736D01*
X80082191Y31852119D01*
X80091112Y31852900D01*
X80095702Y31850175D01*
G37*
%TD.AperFunction*%
%TD*%
%TA.AperFunction,Conductor*%
%TO.N,B5*%
G36*
X79840190Y13060223D02*
G01*
X80078504Y12831048D01*
X80199719Y12714481D01*
X80203307Y12706277D01*
X80199719Y12697615D01*
X79840191Y12351874D01*
X79831852Y12348609D01*
X79826679Y12349929D01*
X79764482Y12382311D01*
X79763953Y12382604D01*
X79755227Y12387736D01*
X79704549Y12417544D01*
X79704273Y12417714D01*
X79651678Y12450929D01*
X79651676Y12450932D01*
X79651675Y12450931D01*
X79602925Y12481737D01*
X79602915Y12481743D01*
X79602847Y12481786D01*
X79554840Y12509571D01*
X79554638Y12509668D01*
X79554632Y12509671D01*
X79504827Y12533541D01*
X79504552Y12533673D01*
X79448877Y12553483D01*
X79423045Y12559484D01*
X79385012Y12568319D01*
X79385009Y12568319D01*
X79384710Y12568389D01*
X79384401Y12568427D01*
X79384397Y12568428D01*
X79340374Y12573885D01*
X79308949Y12577781D01*
X79262700Y12579451D01*
X79229766Y12580641D01*
X79221622Y12584364D01*
X79218488Y12592333D01*
X79218488Y12819763D01*
X79221915Y12828036D01*
X79229766Y12831455D01*
X79253358Y12832307D01*
X79308949Y12834314D01*
X79340374Y12838210D01*
X79384397Y12843667D01*
X79384401Y12843668D01*
X79384710Y12843706D01*
X79385009Y12843776D01*
X79385012Y12843776D01*
X79448558Y12858538D01*
X79448556Y12858538D01*
X79448877Y12858612D01*
X79504552Y12878422D01*
X79524254Y12887865D01*
X79554632Y12902424D01*
X79554638Y12902427D01*
X79554840Y12902524D01*
X79602847Y12930309D01*
X79651675Y12961164D01*
X79704273Y12994381D01*
X79704549Y12994551D01*
X79763953Y13029491D01*
X79764482Y13029784D01*
X79826679Y13062167D01*
X79835600Y13062948D01*
X79840190Y13060223D01*
G37*
%TD.AperFunction*%
%TD*%
%TA.AperFunction,Conductor*%
%TO.N,D1*%
G36*
X60283702Y53440175D02*
G01*
X60522016Y53211000D01*
X60643231Y53094433D01*
X60646819Y53086229D01*
X60643231Y53077567D01*
X60283703Y52731826D01*
X60275364Y52728561D01*
X60270191Y52729881D01*
X60207994Y52762263D01*
X60207465Y52762556D01*
X60198739Y52767688D01*
X60148061Y52797496D01*
X60147785Y52797666D01*
X60095190Y52830881D01*
X60095188Y52830884D01*
X60095187Y52830883D01*
X60046437Y52861689D01*
X60046427Y52861695D01*
X60046359Y52861738D01*
X59998352Y52889523D01*
X59998150Y52889620D01*
X59998144Y52889623D01*
X59948339Y52913493D01*
X59948064Y52913625D01*
X59892389Y52933435D01*
X59866557Y52939436D01*
X59828524Y52948271D01*
X59828521Y52948271D01*
X59828222Y52948341D01*
X59827913Y52948379D01*
X59827909Y52948380D01*
X59783886Y52953837D01*
X59752461Y52957733D01*
X59706212Y52959403D01*
X59673278Y52960593D01*
X59665134Y52964316D01*
X59662000Y52972285D01*
X59662000Y53199715D01*
X59665427Y53207988D01*
X59673278Y53211407D01*
X59696870Y53212259D01*
X59752461Y53214266D01*
X59783886Y53218162D01*
X59827909Y53223619D01*
X59827913Y53223620D01*
X59828222Y53223658D01*
X59828521Y53223728D01*
X59828524Y53223728D01*
X59892070Y53238490D01*
X59892068Y53238490D01*
X59892389Y53238564D01*
X59948064Y53258374D01*
X59967766Y53267817D01*
X59998144Y53282376D01*
X59998150Y53282379D01*
X59998352Y53282476D01*
X60046359Y53310261D01*
X60095187Y53341116D01*
X60147785Y53374333D01*
X60148061Y53374503D01*
X60207465Y53409443D01*
X60207994Y53409736D01*
X60270191Y53442119D01*
X60279112Y53442900D01*
X60283702Y53440175D01*
G37*
%TD.AperFunction*%
%TD*%
%TA.AperFunction,Conductor*%
%TO.N,D4*%
G36*
X59482037Y34929315D02*
G01*
X59510807Y34902551D01*
X59540050Y34875346D01*
X59540236Y34875201D01*
X59540243Y34875195D01*
X59600019Y34828604D01*
X59600024Y34828601D01*
X59600262Y34828415D01*
X59600523Y34828252D01*
X59600525Y34828251D01*
X59655890Y34793760D01*
X59655897Y34793756D01*
X59656175Y34793583D01*
X59709550Y34768222D01*
X59709836Y34768121D01*
X59709844Y34768118D01*
X59761931Y34749784D01*
X59762153Y34749706D01*
X59815745Y34735407D01*
X59872085Y34722700D01*
X59872089Y34722697D01*
X59872089Y34722699D01*
X59932797Y34708987D01*
X59933130Y34708906D01*
X59999811Y34691617D01*
X60000367Y34691457D01*
X60067253Y34670373D01*
X60074114Y34664617D01*
X60075434Y34659443D01*
X60085183Y34160744D01*
X60081918Y34152405D01*
X60073256Y34148817D01*
X59574557Y34158566D01*
X59566353Y34162154D01*
X59563627Y34166746D01*
X59542541Y34233637D01*
X59542375Y34234218D01*
X59525100Y34300843D01*
X59525012Y34301202D01*
X59511300Y34361910D01*
X59511301Y34361910D01*
X59511299Y34361914D01*
X59498623Y34418116D01*
X59498592Y34418254D01*
X59484293Y34471846D01*
X59484215Y34472068D01*
X59465881Y34524155D01*
X59465878Y34524163D01*
X59465777Y34524449D01*
X59440416Y34577824D01*
X59440243Y34578102D01*
X59440239Y34578109D01*
X59405748Y34633474D01*
X59405747Y34633476D01*
X59405584Y34633737D01*
X59385548Y34659443D01*
X59358804Y34693756D01*
X59358798Y34693763D01*
X59358653Y34693949D01*
X59304683Y34751964D01*
X59301558Y34760353D01*
X59304977Y34768204D01*
X59465795Y34929022D01*
X59474068Y34932449D01*
X59482037Y34929315D01*
G37*
%TD.AperFunction*%
%TD*%
%TA.AperFunction,Conductor*%
%TO.N,B4*%
G36*
X60030147Y15593748D02*
G01*
X60339309Y15296441D01*
X60386858Y15250715D01*
X60390446Y15242511D01*
X60387181Y15234172D01*
X60384662Y15232187D01*
X59922175Y14961269D01*
X59913304Y14960044D01*
X59908860Y14962302D01*
X59858493Y15003440D01*
X59858492Y15003441D01*
X59857992Y15003849D01*
X59801246Y15032163D01*
X59744572Y15046939D01*
X59744146Y15046984D01*
X59744143Y15046985D01*
X59687825Y15052994D01*
X59687823Y15052994D01*
X59687618Y15053016D01*
X59666902Y15053814D01*
X59630177Y15055228D01*
X59629989Y15055236D01*
X59572027Y15058399D01*
X59570924Y15058512D01*
X59512511Y15067303D01*
X59510692Y15067728D01*
X59451114Y15086761D01*
X59449012Y15087667D01*
X59387418Y15121725D01*
X59385548Y15123011D01*
X59330207Y15169566D01*
X59326082Y15177514D01*
X59328786Y15186051D01*
X59329466Y15186792D01*
X59489893Y15347219D01*
X59498166Y15350646D01*
X59505384Y15348154D01*
X59555835Y15308601D01*
X59556789Y15308284D01*
X59556790Y15308284D01*
X59578237Y15301169D01*
X59609386Y15290836D01*
X59610651Y15290981D01*
X59610653Y15290981D01*
X59639256Y15294263D01*
X59659278Y15296561D01*
X59706911Y15321081D01*
X59738567Y15347219D01*
X59753452Y15359509D01*
X59753457Y15359513D01*
X59753684Y15359701D01*
X59800997Y15407728D01*
X59850129Y15460335D01*
X59850394Y15460609D01*
X59902471Y15512847D01*
X59903239Y15513552D01*
X59959502Y15560732D01*
X59960929Y15561756D01*
X60015945Y15595304D01*
X60024792Y15596686D01*
X60030147Y15593748D01*
G37*
%TD.AperFunction*%
%TD*%
%TA.AperFunction,Conductor*%
%TO.N,GND*%
G36*
X40313921Y53187776D02*
G01*
X40360651Y53161688D01*
X40361515Y53161155D01*
X40411841Y53127024D01*
X40412238Y53126743D01*
X40460058Y53091322D01*
X40500218Y53061946D01*
X40505947Y53057755D01*
X40550546Y53029180D01*
X40594687Y53008592D01*
X40595328Y53008454D01*
X40595327Y53008454D01*
X40638318Y52999179D01*
X40638320Y52999179D01*
X40639200Y52998989D01*
X40649374Y52999964D01*
X40683968Y53003277D01*
X40683970Y53003277D01*
X40684915Y53003368D01*
X40685783Y53003756D01*
X40685786Y53003757D01*
X40731953Y53024408D01*
X40731952Y53024408D01*
X40732662Y53024725D01*
X40775081Y53059368D01*
X40783655Y53061946D01*
X40790753Y53058578D01*
X40951386Y52897945D01*
X40954813Y52889672D01*
X40950997Y52881027D01*
X40895254Y52830191D01*
X40894333Y52829434D01*
X40835240Y52785672D01*
X40834219Y52784995D01*
X40779241Y52752585D01*
X40778298Y52752086D01*
X40726212Y52727471D01*
X40725602Y52727204D01*
X40675052Y52706827D01*
X40625194Y52687321D01*
X40575285Y52665303D01*
X40524285Y52637272D01*
X40471151Y52599724D01*
X40421199Y52554867D01*
X40412755Y52551889D01*
X40407469Y52553477D01*
X39945338Y52824187D01*
X39939932Y52831325D01*
X39941157Y52840196D01*
X39943142Y52842715D01*
X39991566Y52889282D01*
X40300109Y53185993D01*
X40308447Y53189258D01*
X40313921Y53187776D01*
G37*
%TD.AperFunction*%
%TD*%
%TA.AperFunction,Conductor*%
%TO.N,GND*%
G36*
X67864037Y-13076685D02*
G01*
X67894812Y-13105314D01*
X67922050Y-13130653D01*
X67922236Y-13130798D01*
X67922243Y-13130804D01*
X67982019Y-13177395D01*
X67982024Y-13177398D01*
X67982262Y-13177584D01*
X67982523Y-13177747D01*
X67982525Y-13177748D01*
X68037890Y-13212239D01*
X68037897Y-13212243D01*
X68038175Y-13212416D01*
X68091550Y-13237777D01*
X68091836Y-13237878D01*
X68091844Y-13237881D01*
X68143931Y-13256215D01*
X68144153Y-13256293D01*
X68197745Y-13270592D01*
X68254085Y-13283299D01*
X68254089Y-13283302D01*
X68254089Y-13283300D01*
X68314797Y-13297012D01*
X68315156Y-13297100D01*
X68381781Y-13314375D01*
X68382362Y-13314541D01*
X68449254Y-13335627D01*
X68456114Y-13341383D01*
X68457434Y-13346557D01*
X68467183Y-13845256D01*
X68463918Y-13853595D01*
X68455256Y-13857183D01*
X67956557Y-13847434D01*
X67948353Y-13843846D01*
X67945627Y-13839254D01*
X67924541Y-13772362D01*
X67924375Y-13771781D01*
X67907100Y-13705156D01*
X67907012Y-13704797D01*
X67893300Y-13644089D01*
X67893301Y-13644089D01*
X67893299Y-13644085D01*
X67880623Y-13587883D01*
X67880592Y-13587745D01*
X67866293Y-13534153D01*
X67866215Y-13533931D01*
X67847881Y-13481844D01*
X67847878Y-13481836D01*
X67847777Y-13481550D01*
X67822416Y-13428175D01*
X67822243Y-13427897D01*
X67822239Y-13427890D01*
X67787748Y-13372525D01*
X67787747Y-13372523D01*
X67787584Y-13372262D01*
X67763516Y-13341383D01*
X67740804Y-13312243D01*
X67740798Y-13312236D01*
X67740653Y-13312050D01*
X67702085Y-13270592D01*
X67686685Y-13254037D01*
X67683559Y-13245646D01*
X67686978Y-13237795D01*
X67847795Y-13076978D01*
X67856068Y-13073551D01*
X67864037Y-13076685D01*
G37*
%TD.AperFunction*%
%TD*%
%TA.AperFunction,Conductor*%
%TO.N,GND*%
G36*
X60676205Y47629022D02*
G01*
X60837022Y47468205D01*
X60840449Y47459932D01*
X60837315Y47451963D01*
X60821914Y47435407D01*
X60783346Y47393949D01*
X60783201Y47393763D01*
X60783195Y47393756D01*
X60762845Y47367647D01*
X60736415Y47333737D01*
X60736252Y47333476D01*
X60736251Y47333474D01*
X60701760Y47278109D01*
X60701756Y47278102D01*
X60701583Y47277824D01*
X60676222Y47224449D01*
X60676121Y47224163D01*
X60676118Y47224155D01*
X60657784Y47172068D01*
X60657706Y47171846D01*
X60643407Y47118254D01*
X60643376Y47118116D01*
X60630700Y47061914D01*
X60630697Y47061910D01*
X60630699Y47061910D01*
X60616987Y47001202D01*
X60616899Y47000843D01*
X60599624Y46934217D01*
X60599458Y46933637D01*
X60578373Y46866747D01*
X60572617Y46859886D01*
X60567443Y46858566D01*
X60068744Y46848817D01*
X60060405Y46852082D01*
X60056817Y46860744D01*
X60066566Y47359443D01*
X60070154Y47367647D01*
X60074747Y47370373D01*
X60141637Y47391458D01*
X60142217Y47391624D01*
X60208843Y47408899D01*
X60209202Y47408987D01*
X60269910Y47422699D01*
X60269910Y47422698D01*
X60269914Y47422700D01*
X60326254Y47435407D01*
X60379846Y47449706D01*
X60380068Y47449784D01*
X60432155Y47468118D01*
X60432163Y47468121D01*
X60432449Y47468222D01*
X60485824Y47493583D01*
X60486102Y47493756D01*
X60486109Y47493760D01*
X60541474Y47528251D01*
X60541476Y47528252D01*
X60541737Y47528415D01*
X60541975Y47528601D01*
X60541980Y47528604D01*
X60601756Y47575195D01*
X60601763Y47575201D01*
X60601949Y47575346D01*
X60629318Y47600807D01*
X60659963Y47629315D01*
X60668354Y47632441D01*
X60676205Y47629022D01*
G37*
%TD.AperFunction*%
%TD*%
%TA.AperFunction,Conductor*%
%TO.N,GND*%
G36*
X20358113Y47558350D02*
G01*
X20518923Y47397540D01*
X20522350Y47389267D01*
X20519170Y47381249D01*
X20485246Y47345204D01*
X20458570Y47316861D01*
X20458563Y47316853D01*
X20458435Y47316717D01*
X20458311Y47316565D01*
X20405176Y47251488D01*
X20405170Y47251480D01*
X20405032Y47251311D01*
X20363611Y47191428D01*
X20331041Y47135204D01*
X20304191Y47080771D01*
X20304141Y47080658D01*
X20279931Y47026263D01*
X20279908Y47026210D01*
X20279885Y47026159D01*
X20255189Y46969950D01*
X20255055Y46969657D01*
X20226784Y46909830D01*
X20226522Y46909309D01*
X20191554Y46843954D01*
X20191203Y46843342D01*
X20150587Y46777337D01*
X20143332Y46772087D01*
X20137978Y46772072D01*
X19652095Y46884783D01*
X19644810Y46889990D01*
X19643454Y46899267D01*
X19646271Y46909562D01*
X19775087Y47380438D01*
X19780575Y47387514D01*
X19785621Y47389027D01*
X19793188Y47389514D01*
X19849499Y47393137D01*
X19849825Y47393152D01*
X19898949Y47394678D01*
X19914529Y47395162D01*
X19914603Y47395164D01*
X19973431Y47396618D01*
X19973437Y47396618D01*
X19973549Y47396621D01*
X20019039Y47399107D01*
X20027968Y47399595D01*
X20027970Y47399595D01*
X20028168Y47399606D01*
X20028363Y47399631D01*
X20028376Y47399632D01*
X20056171Y47403173D01*
X20079950Y47406202D01*
X20080265Y47406279D01*
X20080272Y47406280D01*
X20104626Y47412210D01*
X20130435Y47418494D01*
X20181161Y47438564D01*
X20181526Y47438772D01*
X20233346Y47468315D01*
X20233352Y47468319D01*
X20233666Y47468498D01*
X20233962Y47468720D01*
X20289256Y47510202D01*
X20289261Y47510207D01*
X20289490Y47510378D01*
X20341914Y47558682D01*
X20350318Y47561767D01*
X20358113Y47558350D01*
G37*
%TD.AperFunction*%
%TD*%
%TA.AperFunction,Conductor*%
%TO.N,GND*%
G36*
X81504205Y45089022D02*
G01*
X81665022Y44928205D01*
X81668449Y44919932D01*
X81665315Y44911963D01*
X81649914Y44895407D01*
X81611346Y44853949D01*
X81611201Y44853763D01*
X81611195Y44853756D01*
X81590845Y44827647D01*
X81564415Y44793737D01*
X81564252Y44793476D01*
X81564251Y44793474D01*
X81529760Y44738109D01*
X81529756Y44738102D01*
X81529583Y44737824D01*
X81504222Y44684449D01*
X81504121Y44684163D01*
X81504118Y44684155D01*
X81485784Y44632068D01*
X81485706Y44631846D01*
X81471407Y44578254D01*
X81471376Y44578116D01*
X81458700Y44521914D01*
X81458697Y44521910D01*
X81458699Y44521910D01*
X81444987Y44461202D01*
X81444899Y44460843D01*
X81427624Y44394217D01*
X81427458Y44393637D01*
X81406373Y44326747D01*
X81400617Y44319886D01*
X81395443Y44318566D01*
X80896744Y44308817D01*
X80888405Y44312082D01*
X80884817Y44320744D01*
X80894566Y44819443D01*
X80898154Y44827647D01*
X80902747Y44830373D01*
X80969637Y44851458D01*
X80970217Y44851624D01*
X81036843Y44868899D01*
X81037202Y44868987D01*
X81097910Y44882699D01*
X81097910Y44882698D01*
X81097914Y44882700D01*
X81154254Y44895407D01*
X81207846Y44909706D01*
X81208068Y44909784D01*
X81260155Y44928118D01*
X81260163Y44928121D01*
X81260449Y44928222D01*
X81313824Y44953583D01*
X81314102Y44953756D01*
X81314109Y44953760D01*
X81369474Y44988251D01*
X81369476Y44988252D01*
X81369737Y44988415D01*
X81369975Y44988601D01*
X81369980Y44988604D01*
X81429756Y45035195D01*
X81429763Y45035201D01*
X81429949Y45035346D01*
X81457318Y45060807D01*
X81487963Y45089315D01*
X81496354Y45092441D01*
X81504205Y45089022D01*
G37*
%TD.AperFunction*%
%TD*%
%TA.AperFunction,Conductor*%
%TO.N,GND*%
G36*
X123371808Y-37489881D02*
G01*
X123426828Y-37518527D01*
X123434005Y-37522263D01*
X123434534Y-37522556D01*
X123493938Y-37557496D01*
X123494214Y-37557666D01*
X123546809Y-37590881D01*
X123546811Y-37590884D01*
X123546812Y-37590883D01*
X123595640Y-37621738D01*
X123643647Y-37649523D01*
X123643849Y-37649620D01*
X123643855Y-37649623D01*
X123674233Y-37664182D01*
X123693935Y-37673625D01*
X123749610Y-37693435D01*
X123749931Y-37693509D01*
X123749929Y-37693509D01*
X123813475Y-37708271D01*
X123813478Y-37708271D01*
X123813777Y-37708341D01*
X123814086Y-37708379D01*
X123814090Y-37708380D01*
X123858113Y-37713837D01*
X123889538Y-37717733D01*
X123936068Y-37719413D01*
X123968722Y-37720593D01*
X123976866Y-37724316D01*
X123980000Y-37732285D01*
X123980000Y-37959715D01*
X123976573Y-37967988D01*
X123968722Y-37971407D01*
X123945541Y-37972244D01*
X123889538Y-37974266D01*
X123858113Y-37978162D01*
X123814090Y-37983619D01*
X123814086Y-37983620D01*
X123813777Y-37983658D01*
X123813478Y-37983728D01*
X123813475Y-37983728D01*
X123775442Y-37992563D01*
X123749610Y-37998564D01*
X123693935Y-38018374D01*
X123693660Y-38018506D01*
X123643855Y-38042376D01*
X123643849Y-38042379D01*
X123643647Y-38042476D01*
X123595640Y-38070261D01*
X123546812Y-38101116D01*
X123494214Y-38134333D01*
X123493938Y-38134503D01*
X123443260Y-38164311D01*
X123434534Y-38169443D01*
X123434005Y-38169736D01*
X123371809Y-38202119D01*
X123362889Y-38202900D01*
X123358298Y-38200175D01*
X122998769Y-37854433D01*
X122995181Y-37846229D01*
X122998769Y-37837567D01*
X123358297Y-37491826D01*
X123366636Y-37488561D01*
X123371808Y-37489881D01*
G37*
%TD.AperFunction*%
%TD*%
%TA.AperFunction,Conductor*%
%TO.N,GND*%
G36*
X106657794Y47399690D02*
G01*
X107439197Y47384415D01*
X107447400Y47380827D01*
X107450190Y47376023D01*
X107500441Y47205450D01*
X107500697Y47204407D01*
X107532263Y47044284D01*
X107532394Y47043471D01*
X107550633Y46897424D01*
X107550674Y46897046D01*
X107563178Y46761167D01*
X107577549Y46631830D01*
X107601411Y46505383D01*
X107642407Y46377984D01*
X107708180Y46245789D01*
X107806370Y46104959D01*
X107833934Y46074393D01*
X107937181Y45959901D01*
X107940176Y45951463D01*
X107936765Y45943793D01*
X107772874Y45779902D01*
X107764601Y45776475D01*
X107756766Y45779486D01*
X107700109Y45830577D01*
X107611707Y45910296D01*
X107470877Y46008486D01*
X107338682Y46074259D01*
X107211283Y46115255D01*
X107210936Y46115321D01*
X107210930Y46115322D01*
X107158549Y46125207D01*
X107084836Y46139117D01*
X107084447Y46139160D01*
X106955574Y46153480D01*
X106955499Y46153488D01*
X106955435Y46153494D01*
X106955406Y46153497D01*
X106819620Y46165992D01*
X106819242Y46166033D01*
X106748346Y46174887D01*
X106673183Y46184274D01*
X106672394Y46184401D01*
X106512253Y46215971D01*
X106511222Y46216223D01*
X106340644Y46266477D01*
X106333676Y46272102D01*
X106332252Y46277471D01*
X106330288Y46377984D01*
X106314112Y47205450D01*
X106310420Y47394320D01*
X106313685Y47402659D01*
X106322347Y47406247D01*
X106657794Y47399690D01*
G37*
%TD.AperFunction*%
%TD*%
%TA.AperFunction,Conductor*%
%TO.N,GND*%
G36*
X115655703Y-25807826D02*
G01*
X116015231Y-26153567D01*
X116018819Y-26161771D01*
X116015231Y-26170433D01*
X115655703Y-26516174D01*
X115647365Y-26519439D01*
X115642191Y-26518119D01*
X115579994Y-26485736D01*
X115579465Y-26485443D01*
X115570739Y-26480311D01*
X115520061Y-26450503D01*
X115519785Y-26450333D01*
X115467190Y-26417118D01*
X115467188Y-26417115D01*
X115467187Y-26417116D01*
X115418437Y-26386310D01*
X115418427Y-26386304D01*
X115418359Y-26386261D01*
X115370352Y-26358476D01*
X115370150Y-26358379D01*
X115370144Y-26358376D01*
X115320339Y-26334506D01*
X115320064Y-26334374D01*
X115264389Y-26314564D01*
X115238557Y-26308563D01*
X115200524Y-26299728D01*
X115200521Y-26299728D01*
X115200222Y-26299658D01*
X115199913Y-26299620D01*
X115199909Y-26299619D01*
X115155886Y-26294162D01*
X115124461Y-26290266D01*
X115068870Y-26288259D01*
X115045278Y-26287407D01*
X115037134Y-26283684D01*
X115034000Y-26275715D01*
X115034000Y-26048285D01*
X115037427Y-26040012D01*
X115045278Y-26036593D01*
X115078212Y-26035403D01*
X115124461Y-26033733D01*
X115155886Y-26029837D01*
X115199909Y-26024380D01*
X115199913Y-26024379D01*
X115200222Y-26024341D01*
X115200521Y-26024271D01*
X115200524Y-26024271D01*
X115264070Y-26009509D01*
X115264068Y-26009509D01*
X115264389Y-26009435D01*
X115320064Y-25989625D01*
X115339766Y-25980182D01*
X115370144Y-25965623D01*
X115370150Y-25965620D01*
X115370352Y-25965523D01*
X115418359Y-25937738D01*
X115467187Y-25906883D01*
X115519785Y-25873666D01*
X115520061Y-25873496D01*
X115579465Y-25838556D01*
X115579994Y-25838263D01*
X115587879Y-25834158D01*
X115642191Y-25805881D01*
X115651111Y-25805100D01*
X115655703Y-25807826D01*
G37*
%TD.AperFunction*%
%TD*%
%TA.AperFunction,Conductor*%
%TO.N,GND*%
G36*
X110405693Y39129207D02*
G01*
X110453730Y38966729D01*
X110482954Y38820822D01*
X110500225Y38687990D01*
X110512404Y38564739D01*
X110519424Y38505760D01*
X110526349Y38447575D01*
X110548922Y38333004D01*
X110586982Y38217531D01*
X110647390Y38097661D01*
X110737004Y37969901D01*
X110773209Y37929818D01*
X110855233Y37839008D01*
X110858236Y37830572D01*
X110854824Y37822893D01*
X110693774Y37661843D01*
X110685501Y37658416D01*
X110677660Y37661433D01*
X110546765Y37779662D01*
X110419005Y37869276D01*
X110299135Y37929684D01*
X110183662Y37967744D01*
X110069091Y37990317D01*
X109951927Y38004262D01*
X109828835Y38016425D01*
X109828522Y38016461D01*
X109696240Y38033661D01*
X109695457Y38033789D01*
X109670619Y38038764D01*
X109550454Y38062833D01*
X109549435Y38063085D01*
X109395674Y38108546D01*
X109388712Y38114178D01*
X109387293Y38119537D01*
X109379772Y38504263D01*
X109375038Y38746424D01*
X109367158Y39149509D01*
X110405693Y39129207D01*
G37*
%TD.AperFunction*%
%TD*%
%TA.AperFunction,Conductor*%
%TO.N,GND*%
G36*
X60779594Y9979803D02*
G01*
X60940398Y9818999D01*
X60943825Y9810726D01*
X60940654Y9802716D01*
X60881248Y9739461D01*
X60829153Y9675069D01*
X60789122Y9615932D01*
X60758140Y9560173D01*
X60733197Y9505918D01*
X60733149Y9505798D01*
X60711281Y9451294D01*
X60711270Y9451265D01*
X60689423Y9394536D01*
X60689337Y9394319D01*
X60664586Y9333687D01*
X60664378Y9333207D01*
X60637666Y9275310D01*
X60633713Y9266743D01*
X60633412Y9266139D01*
X60597610Y9199018D01*
X60590693Y9193331D01*
X60585357Y9192984D01*
X60148210Y9266139D01*
X60093408Y9275310D01*
X60085814Y9280056D01*
X60083884Y9289231D01*
X60185384Y9777633D01*
X60190422Y9785035D01*
X60195382Y9786861D01*
X60260845Y9795077D01*
X60261282Y9795123D01*
X60295363Y9798106D01*
X60327234Y9800895D01*
X60387264Y9805413D01*
X60442764Y9810877D01*
X60462148Y9814056D01*
X60495075Y9819457D01*
X60495080Y9819458D01*
X60495360Y9819504D01*
X60495636Y9819579D01*
X60495639Y9819580D01*
X60519175Y9826006D01*
X60546676Y9833515D01*
X60564188Y9840841D01*
X60597984Y9854978D01*
X60597988Y9854980D01*
X60598337Y9855126D01*
X60651968Y9886558D01*
X60709193Y9930029D01*
X60725307Y9944926D01*
X60763379Y9980121D01*
X60771780Y9983221D01*
X60779594Y9979803D01*
G37*
%TD.AperFunction*%
%TD*%
%TA.AperFunction,Conductor*%
%TO.N,GND*%
G36*
X80445809Y12040119D02*
G01*
X80508005Y12007736D01*
X80508534Y12007443D01*
X80567938Y11972503D01*
X80568214Y11972333D01*
X80620809Y11939118D01*
X80620811Y11939115D01*
X80620812Y11939116D01*
X80669640Y11908261D01*
X80717647Y11880476D01*
X80717849Y11880379D01*
X80717855Y11880376D01*
X80748233Y11865817D01*
X80767935Y11856374D01*
X80823610Y11836564D01*
X80823931Y11836490D01*
X80823929Y11836490D01*
X80887475Y11821728D01*
X80887478Y11821728D01*
X80887777Y11821658D01*
X80888086Y11821620D01*
X80888090Y11821619D01*
X80932113Y11816162D01*
X80963538Y11812266D01*
X81019541Y11810244D01*
X81042722Y11809407D01*
X81050866Y11805684D01*
X81054000Y11797715D01*
X81054000Y11570285D01*
X81050573Y11562012D01*
X81042722Y11558593D01*
X81010068Y11557413D01*
X80963538Y11555733D01*
X80932113Y11551837D01*
X80888090Y11546380D01*
X80888086Y11546379D01*
X80887777Y11546341D01*
X80887478Y11546271D01*
X80887475Y11546271D01*
X80849442Y11537436D01*
X80823610Y11531435D01*
X80767935Y11511625D01*
X80767660Y11511493D01*
X80717855Y11487623D01*
X80717849Y11487620D01*
X80717647Y11487523D01*
X80669640Y11459738D01*
X80620812Y11428883D01*
X80568214Y11395666D01*
X80567938Y11395496D01*
X80517260Y11365688D01*
X80508534Y11360556D01*
X80508005Y11360263D01*
X80445809Y11327881D01*
X80436889Y11327100D01*
X80432297Y11329826D01*
X80072769Y11675567D01*
X80069181Y11683771D01*
X80072769Y11692433D01*
X80193984Y11809000D01*
X80432297Y12038174D01*
X80440635Y12041439D01*
X80445809Y12040119D01*
G37*
%TD.AperFunction*%
%TD*%
%TA.AperFunction,Conductor*%
%TO.N,GND*%
G36*
X108623756Y41173311D02*
G01*
X108754551Y41055115D01*
X108882201Y40965421D01*
X109001949Y40904854D01*
X109117291Y40866578D01*
X109117639Y40866509D01*
X109117645Y40866507D01*
X109231511Y40843803D01*
X109231722Y40843761D01*
X109348737Y40829568D01*
X109348799Y40829562D01*
X109348832Y40829558D01*
X109471659Y40817182D01*
X109472011Y40817141D01*
X109604104Y40799771D01*
X109604887Y40799641D01*
X109749725Y40770498D01*
X109750737Y40770247D01*
X109904329Y40724790D01*
X109911290Y40719156D01*
X109912707Y40713800D01*
X109926431Y40011779D01*
X109932842Y39683825D01*
X109255478Y39697067D01*
X109094106Y39700221D01*
X108902867Y39703960D01*
X108894663Y39707548D01*
X108891877Y39712338D01*
X108846419Y39865929D01*
X108846168Y39866941D01*
X108817025Y40011779D01*
X108816895Y40012562D01*
X108799525Y40144655D01*
X108799484Y40145007D01*
X108787109Y40267821D01*
X108787108Y40267832D01*
X108787098Y40267929D01*
X108772905Y40384944D01*
X108750088Y40499375D01*
X108711812Y40614717D01*
X108651245Y40734465D01*
X108561551Y40862115D01*
X108443356Y40992911D01*
X108440352Y41001346D01*
X108443764Y41009028D01*
X108607639Y41172903D01*
X108615912Y41176330D01*
X108623756Y41173311D01*
G37*
%TD.AperFunction*%
%TD*%
%TA.AperFunction,Conductor*%
%TO.N,GND*%
G36*
X114438328Y39070222D02*
G01*
X114641231Y38875100D01*
X114644819Y38866896D01*
X114641231Y38858234D01*
X114257903Y38489606D01*
X114246318Y38478465D01*
X114246318Y38478466D01*
X114245337Y38477523D01*
X114245336Y38477522D01*
X113907461Y38152602D01*
X113899122Y38149337D01*
X113893766Y38150754D01*
X113753021Y38227214D01*
X113752127Y38227752D01*
X113629091Y38309569D01*
X113628446Y38310031D01*
X113522766Y38391147D01*
X113522488Y38391367D01*
X113426846Y38469499D01*
X113426811Y38469528D01*
X113334033Y38542233D01*
X113236983Y38607014D01*
X113236665Y38607174D01*
X113236659Y38607177D01*
X113128740Y38661317D01*
X113128738Y38661318D01*
X113128359Y38661508D01*
X113127963Y38661638D01*
X113127958Y38661640D01*
X113001256Y38703225D01*
X113001252Y38703226D01*
X113000856Y38703356D01*
X112847171Y38730195D01*
X112724476Y38736404D01*
X112671109Y38739105D01*
X112663019Y38742946D01*
X112660000Y38750790D01*
X112660000Y38982544D01*
X112663427Y38990817D01*
X112671109Y38994229D01*
X112711292Y38996262D01*
X112847171Y39003138D01*
X113000856Y39029977D01*
X113001252Y39030107D01*
X113001256Y39030108D01*
X113127958Y39071693D01*
X113127963Y39071695D01*
X113128359Y39071825D01*
X113172834Y39094137D01*
X113236659Y39126156D01*
X113236665Y39126159D01*
X113236983Y39126319D01*
X113334033Y39191100D01*
X113426811Y39263805D01*
X113468359Y39297747D01*
X113522488Y39341966D01*
X113522766Y39342186D01*
X113628456Y39423310D01*
X113629077Y39423755D01*
X113752557Y39505867D01*
X113901289Y39586667D01*
X114438328Y39070222D01*
G37*
%TD.AperFunction*%
%TD*%
%TA.AperFunction,Conductor*%
%TO.N,GND*%
G36*
X110142875Y39508348D02*
G01*
X110146978Y39506119D01*
X110147872Y39505581D01*
X110270908Y39423764D01*
X110271553Y39423302D01*
X110377233Y39342186D01*
X110377511Y39341966D01*
X110431640Y39297747D01*
X110473188Y39263805D01*
X110565966Y39191100D01*
X110663016Y39126319D01*
X110663334Y39126159D01*
X110663340Y39126156D01*
X110771259Y39072016D01*
X110771640Y39071825D01*
X110772036Y39071695D01*
X110772041Y39071693D01*
X110898743Y39030108D01*
X110898747Y39030107D01*
X110899143Y39029977D01*
X111052828Y39003138D01*
X111189455Y38996225D01*
X111228891Y38994229D01*
X111236981Y38990388D01*
X111240000Y38982544D01*
X111240000Y38750790D01*
X111236573Y38742517D01*
X111228891Y38739105D01*
X111176126Y38736435D01*
X111052828Y38730195D01*
X110899143Y38703356D01*
X110898747Y38703226D01*
X110898743Y38703225D01*
X110772041Y38661640D01*
X110772036Y38661638D01*
X110771640Y38661508D01*
X110771261Y38661318D01*
X110771259Y38661317D01*
X110663340Y38607177D01*
X110663334Y38607174D01*
X110663016Y38607014D01*
X110565966Y38542233D01*
X110473188Y38469528D01*
X110377377Y38391257D01*
X110271230Y38309783D01*
X110147442Y38227466D01*
X109998711Y38146667D01*
X109258443Y38858548D01*
X109254855Y38866752D01*
X109255833Y38871668D01*
X109256292Y38872718D01*
X109998711Y39586667D01*
X110142875Y39508348D01*
G37*
%TD.AperFunction*%
%TD*%
%TA.AperFunction,Conductor*%
%TO.N,GND*%
G36*
X40870555Y34384690D02*
G01*
X40932751Y34352307D01*
X40933280Y34352014D01*
X40992684Y34317074D01*
X40992960Y34316904D01*
X41045555Y34283689D01*
X41045557Y34283686D01*
X41045558Y34283687D01*
X41094386Y34252832D01*
X41142393Y34225047D01*
X41142595Y34224950D01*
X41142601Y34224947D01*
X41172979Y34210388D01*
X41192681Y34200945D01*
X41248356Y34181135D01*
X41248677Y34181061D01*
X41248675Y34181061D01*
X41312221Y34166299D01*
X41312224Y34166299D01*
X41312523Y34166229D01*
X41312832Y34166191D01*
X41312836Y34166190D01*
X41356859Y34160733D01*
X41388284Y34156837D01*
X41444287Y34154815D01*
X41467468Y34153978D01*
X41475612Y34150255D01*
X41478746Y34142286D01*
X41478746Y33914856D01*
X41475319Y33906583D01*
X41467468Y33903164D01*
X41434814Y33901984D01*
X41388284Y33900304D01*
X41356859Y33896408D01*
X41312836Y33890951D01*
X41312832Y33890950D01*
X41312523Y33890912D01*
X41312224Y33890842D01*
X41312221Y33890842D01*
X41274188Y33882007D01*
X41248356Y33876006D01*
X41192681Y33856196D01*
X41192406Y33856064D01*
X41142601Y33832194D01*
X41142595Y33832191D01*
X41142393Y33832094D01*
X41094386Y33804309D01*
X41045558Y33773454D01*
X40992960Y33740237D01*
X40992684Y33740067D01*
X40942006Y33710259D01*
X40933280Y33705127D01*
X40932751Y33704834D01*
X40870555Y33672452D01*
X40861635Y33671671D01*
X40857043Y33674397D01*
X40497515Y34020138D01*
X40493927Y34028342D01*
X40497515Y34037004D01*
X40618730Y34153571D01*
X40857043Y34382745D01*
X40865381Y34386010D01*
X40870555Y34384690D01*
G37*
%TD.AperFunction*%
%TD*%
%TA.AperFunction,Conductor*%
%TO.N,GND*%
G36*
X40059809Y15596119D02*
G01*
X40122005Y15563736D01*
X40122534Y15563443D01*
X40181938Y15528503D01*
X40182214Y15528333D01*
X40234809Y15495118D01*
X40234811Y15495115D01*
X40234812Y15495116D01*
X40283640Y15464261D01*
X40331647Y15436476D01*
X40331849Y15436379D01*
X40331855Y15436376D01*
X40362233Y15421817D01*
X40381935Y15412374D01*
X40437610Y15392564D01*
X40437931Y15392490D01*
X40437929Y15392490D01*
X40501475Y15377728D01*
X40501478Y15377728D01*
X40501777Y15377658D01*
X40502086Y15377620D01*
X40502090Y15377619D01*
X40546113Y15372162D01*
X40577538Y15368266D01*
X40633541Y15366244D01*
X40656722Y15365407D01*
X40664866Y15361684D01*
X40668000Y15353715D01*
X40668000Y15126285D01*
X40664573Y15118012D01*
X40656722Y15114593D01*
X40624068Y15113413D01*
X40577538Y15111733D01*
X40546113Y15107837D01*
X40502090Y15102380D01*
X40502086Y15102379D01*
X40501777Y15102341D01*
X40501478Y15102271D01*
X40501475Y15102271D01*
X40463442Y15093436D01*
X40437610Y15087435D01*
X40381935Y15067625D01*
X40381660Y15067493D01*
X40331855Y15043623D01*
X40331849Y15043620D01*
X40331647Y15043523D01*
X40283640Y15015738D01*
X40234812Y14984883D01*
X40182214Y14951666D01*
X40181938Y14951496D01*
X40131260Y14921688D01*
X40122534Y14916556D01*
X40122005Y14916263D01*
X40059809Y14883881D01*
X40050889Y14883100D01*
X40046297Y14885826D01*
X39686769Y15231567D01*
X39683181Y15239771D01*
X39686769Y15248433D01*
X39807984Y15365000D01*
X40046297Y15594174D01*
X40054635Y15597439D01*
X40059809Y15596119D01*
G37*
%TD.AperFunction*%
%TD*%
%TA.AperFunction,Conductor*%
%TO.N,B2*%
G36*
X106679483Y24539266D02*
G01*
X107439195Y24524415D01*
X107447398Y24520827D01*
X107450188Y24516022D01*
X107500442Y24345280D01*
X107500699Y24344231D01*
X107532164Y24183943D01*
X107532295Y24183124D01*
X107550359Y24036922D01*
X107550400Y24036539D01*
X107562680Y23900504D01*
X107576803Y23771019D01*
X107600420Y23644431D01*
X107641201Y23516900D01*
X107706814Y23384585D01*
X107804926Y23243643D01*
X107805170Y23243373D01*
X107805171Y23243371D01*
X107935770Y23098488D01*
X107938764Y23090048D01*
X107935353Y23082381D01*
X107774287Y22921315D01*
X107766014Y22917888D01*
X107758180Y22920897D01*
X107613288Y23051501D01*
X107613023Y23051740D01*
X107472081Y23149852D01*
X107339766Y23215465D01*
X107212235Y23256246D01*
X107211884Y23256311D01*
X107211882Y23256312D01*
X107085846Y23279826D01*
X107085843Y23279826D01*
X107085647Y23279863D01*
X106956162Y23293986D01*
X106820127Y23306266D01*
X106819744Y23306307D01*
X106783494Y23310786D01*
X106673529Y23324373D01*
X106672736Y23324500D01*
X106565047Y23345639D01*
X106512438Y23355967D01*
X106511388Y23356224D01*
X106340646Y23406479D01*
X106333678Y23412102D01*
X106332252Y23417474D01*
X106330309Y23516900D01*
X106314136Y24344231D01*
X106310420Y24534320D01*
X106313685Y24542659D01*
X106322347Y24546247D01*
X106679483Y24539266D01*
G37*
%TD.AperFunction*%
%TD*%
%TA.AperFunction,Conductor*%
%TO.N,GND*%
G36*
X109999375Y39246989D02*
G01*
X109977548Y39234878D01*
X109951595Y39217241D01*
X109923029Y39194075D01*
X109893364Y39165373D01*
X109864112Y39131133D01*
X109836786Y39091347D01*
X109812899Y39046013D01*
X109793963Y38995124D01*
X109781493Y38938677D01*
X109777000Y38876667D01*
X109523000Y38876667D01*
X109518506Y38938677D01*
X109506036Y38995124D01*
X109487100Y39046013D01*
X109463213Y39091347D01*
X109435887Y39131133D01*
X109406635Y39165373D01*
X109376970Y39194075D01*
X109348404Y39217241D01*
X109322451Y39234878D01*
X109300625Y39246989D01*
X109650000Y40366667D01*
X109999375Y39246989D01*
G37*
%TD.AperFunction*%
%TD*%
%TA.AperFunction,Conductor*%
%TO.N,B3*%
G36*
X106576159Y27203884D02*
G01*
X106578012Y27202648D01*
X107442567Y26498153D01*
X107446816Y26490270D01*
X107446141Y26485000D01*
X107399161Y26358833D01*
X107399012Y26358455D01*
X107348120Y26235064D01*
X107300552Y26119955D01*
X107260812Y26011224D01*
X107233315Y25906761D01*
X107222479Y25804456D01*
X107232722Y25702199D01*
X107268460Y25597880D01*
X107334111Y25489388D01*
X107355589Y25464732D01*
X107426918Y25382850D01*
X107429768Y25374361D01*
X107426369Y25366892D01*
X107265367Y25205890D01*
X107257094Y25202463D01*
X107249048Y25205668D01*
X107099723Y25347097D01*
X107099721Y25347099D01*
X107099612Y25347202D01*
X106959336Y25464849D01*
X106926033Y25489388D01*
X106832744Y25558125D01*
X106832618Y25558218D01*
X106715591Y25634750D01*
X106604387Y25701885D01*
X106602741Y25702867D01*
X106495275Y25766983D01*
X106494993Y25767157D01*
X106384243Y25837561D01*
X106383716Y25837917D01*
X106267363Y25921087D01*
X106266742Y25921563D01*
X106140769Y26025015D01*
X106140178Y26025534D01*
X106039784Y26119955D01*
X106006903Y26150879D01*
X106003224Y26159043D01*
X106004613Y26164940D01*
X106042294Y26235064D01*
X106560315Y27199116D01*
X106567249Y27204782D01*
X106576159Y27203884D01*
G37*
%TD.AperFunction*%
%TD*%
%TA.AperFunction,Conductor*%
%TO.N,T1*%
G36*
X110122162Y9686573D02*
G01*
X110125573Y9678904D01*
X110135302Y9490601D01*
X110164473Y9327127D01*
X110209914Y9191726D01*
X110269021Y9076548D01*
X110339195Y8973741D01*
X110417832Y8875455D01*
X110417864Y8875417D01*
X110502213Y8773984D01*
X110502451Y8773688D01*
X110589850Y8661357D01*
X110590317Y8660713D01*
X110658492Y8559073D01*
X110678218Y8529663D01*
X110678775Y8528744D01*
X110760898Y8378034D01*
X110761847Y8369130D01*
X110759057Y8364326D01*
X110008433Y7583769D01*
X110000229Y7580181D01*
X109991567Y7583769D01*
X109240943Y8364326D01*
X109237678Y8372665D01*
X109239102Y8378034D01*
X109321224Y8528744D01*
X109321781Y8529663D01*
X109341507Y8559073D01*
X109409682Y8660713D01*
X109410149Y8661357D01*
X109497548Y8773688D01*
X109497786Y8773984D01*
X109582135Y8875417D01*
X109582167Y8875455D01*
X109660804Y8973741D01*
X109730978Y9076548D01*
X109790085Y9191726D01*
X109835526Y9327127D01*
X109864697Y9490601D01*
X109874427Y9678904D01*
X109878276Y9686989D01*
X109886111Y9690000D01*
X110113889Y9690000D01*
X110122162Y9686573D01*
G37*
%TD.AperFunction*%
%TD*%
%TA.AperFunction,Conductor*%
%TO.N,T2*%
G36*
X112662162Y9686573D02*
G01*
X112665573Y9678904D01*
X112669584Y9601280D01*
X112675302Y9490601D01*
X112704473Y9327127D01*
X112749914Y9191726D01*
X112809021Y9076548D01*
X112879195Y8973741D01*
X112957832Y8875455D01*
X112957864Y8875417D01*
X113042213Y8773984D01*
X113042451Y8773688D01*
X113129850Y8661357D01*
X113130317Y8660713D01*
X113198492Y8559073D01*
X113218218Y8529663D01*
X113218775Y8528744D01*
X113300898Y8378034D01*
X113301847Y8369130D01*
X113299057Y8364326D01*
X112548433Y7583769D01*
X112540229Y7580181D01*
X112531567Y7583769D01*
X111780943Y8364326D01*
X111777678Y8372665D01*
X111779102Y8378034D01*
X111853059Y8513760D01*
X111855060Y8516435D01*
X112269749Y8931124D01*
X112271675Y8932680D01*
X112289059Y8943905D01*
X112289871Y8944429D01*
X112314831Y8976091D01*
X112315746Y8977121D01*
X112321569Y8982944D01*
X112321847Y8983334D01*
X112321852Y8983339D01*
X112334364Y9000848D01*
X112334695Y9001289D01*
X112367487Y9042886D01*
X112368087Y9043647D01*
X112370568Y9050712D01*
X112372088Y9053639D01*
X112375880Y9058945D01*
X112376444Y9059734D01*
X112391900Y9111413D01*
X112392070Y9111937D01*
X112409705Y9162156D01*
X112409949Y9162851D01*
X112410013Y9163586D01*
X112410409Y9168156D01*
X112410410Y9168168D01*
X112410431Y9168416D01*
X112410431Y9171668D01*
X112410922Y9175020D01*
X112412366Y9179847D01*
X112412366Y9179849D01*
X112412644Y9180778D01*
X112410440Y9236875D01*
X112410431Y9237334D01*
X112410431Y9601280D01*
X112410447Y9601884D01*
X112414427Y9678904D01*
X112418276Y9686989D01*
X112426111Y9690000D01*
X112653889Y9690000D01*
X112662162Y9686573D01*
G37*
%TD.AperFunction*%
%TD*%
%TA.AperFunction,Conductor*%
%TO.N,GND*%
G36*
X109508840Y40283280D02*
G01*
X109608232Y40172622D01*
X109689821Y40074431D01*
X109759003Y39985089D01*
X109821173Y39900980D01*
X109881727Y39818488D01*
X109946059Y39733996D01*
X109946101Y39733944D01*
X109946103Y39733942D01*
X109976043Y39697239D01*
X110019566Y39643886D01*
X110019637Y39643806D01*
X110107583Y39544611D01*
X110107598Y39544595D01*
X110107643Y39544544D01*
X110107689Y39544496D01*
X110107704Y39544480D01*
X110141469Y39509418D01*
X110141472Y39509416D01*
X110215685Y39432352D01*
X109650000Y38466667D01*
X108936008Y39209131D01*
X108932743Y39217469D01*
X108934226Y39222943D01*
X108996628Y39334666D01*
X108997175Y39335550D01*
X109071909Y39445198D01*
X109072214Y39445626D01*
X109073969Y39447967D01*
X109149153Y39548289D01*
X109220389Y39643886D01*
X109221690Y39645632D01*
X109221696Y39645641D01*
X109221782Y39645756D01*
X109283570Y39739844D01*
X109328139Y39832576D01*
X109349108Y39925975D01*
X109340102Y40022066D01*
X109294740Y40122872D01*
X109206645Y40230417D01*
X109386250Y40410022D01*
X109508840Y40283280D01*
G37*
%TD.AperFunction*%
%TD*%
%TA.AperFunction,Conductor*%
%TO.N,GND*%
G36*
X103559808Y-28853881D02*
G01*
X103614828Y-28882527D01*
X103622005Y-28886263D01*
X103622534Y-28886556D01*
X103681938Y-28921496D01*
X103682214Y-28921666D01*
X103734809Y-28954881D01*
X103734811Y-28954884D01*
X103734812Y-28954883D01*
X103783640Y-28985738D01*
X103831647Y-29013523D01*
X103831849Y-29013620D01*
X103831855Y-29013623D01*
X103862233Y-29028182D01*
X103881935Y-29037625D01*
X103937610Y-29057435D01*
X103937931Y-29057509D01*
X103937929Y-29057509D01*
X104001475Y-29072271D01*
X104001478Y-29072271D01*
X104001777Y-29072341D01*
X104002086Y-29072379D01*
X104002090Y-29072380D01*
X104046113Y-29077837D01*
X104077538Y-29081733D01*
X104124068Y-29083413D01*
X104156722Y-29084593D01*
X104164866Y-29088316D01*
X104168000Y-29096285D01*
X104168000Y-29323715D01*
X104164573Y-29331988D01*
X104156722Y-29335407D01*
X104133541Y-29336244D01*
X104077538Y-29338266D01*
X104046113Y-29342162D01*
X104002090Y-29347619D01*
X104002086Y-29347620D01*
X104001777Y-29347658D01*
X104001478Y-29347728D01*
X104001475Y-29347728D01*
X103963442Y-29356563D01*
X103937610Y-29362564D01*
X103881935Y-29382374D01*
X103881660Y-29382506D01*
X103831855Y-29406376D01*
X103831849Y-29406379D01*
X103831647Y-29406476D01*
X103783640Y-29434261D01*
X103734812Y-29465116D01*
X103682214Y-29498333D01*
X103681938Y-29498503D01*
X103631260Y-29528311D01*
X103622534Y-29533443D01*
X103622005Y-29533736D01*
X103559809Y-29566119D01*
X103550889Y-29566900D01*
X103546298Y-29564175D01*
X103186769Y-29218433D01*
X103183181Y-29210229D01*
X103186769Y-29201567D01*
X103546297Y-28855826D01*
X103554636Y-28852561D01*
X103559808Y-28853881D01*
G37*
%TD.AperFunction*%
%TD*%
%TA.AperFunction,Conductor*%
%TO.N,GND*%
G36*
X20866045Y10053494D02*
G01*
X21026862Y9892677D01*
X21030289Y9884404D01*
X21027155Y9876435D01*
X21011754Y9859879D01*
X20973186Y9818421D01*
X20973041Y9818235D01*
X20973035Y9818228D01*
X20952685Y9792119D01*
X20926255Y9758209D01*
X20926092Y9757948D01*
X20926091Y9757946D01*
X20891600Y9702581D01*
X20891596Y9702574D01*
X20891423Y9702296D01*
X20866062Y9648921D01*
X20865961Y9648635D01*
X20865958Y9648627D01*
X20847624Y9596540D01*
X20847546Y9596318D01*
X20833247Y9542726D01*
X20833216Y9542588D01*
X20820540Y9486386D01*
X20820537Y9486382D01*
X20820539Y9486382D01*
X20806827Y9425674D01*
X20806739Y9425315D01*
X20789464Y9358689D01*
X20789298Y9358109D01*
X20768213Y9291219D01*
X20762457Y9284358D01*
X20757283Y9283038D01*
X20258584Y9273289D01*
X20250245Y9276554D01*
X20246657Y9285216D01*
X20256406Y9783915D01*
X20259994Y9792119D01*
X20264587Y9794845D01*
X20331477Y9815930D01*
X20332057Y9816096D01*
X20398683Y9833371D01*
X20399042Y9833459D01*
X20459750Y9847171D01*
X20459750Y9847170D01*
X20459754Y9847172D01*
X20516094Y9859879D01*
X20569686Y9874178D01*
X20569908Y9874256D01*
X20621995Y9892590D01*
X20622003Y9892593D01*
X20622289Y9892694D01*
X20675664Y9918055D01*
X20675942Y9918228D01*
X20675949Y9918232D01*
X20731314Y9952723D01*
X20731316Y9952724D01*
X20731577Y9952887D01*
X20731815Y9953073D01*
X20731820Y9953076D01*
X20791596Y9999667D01*
X20791603Y9999673D01*
X20791789Y9999818D01*
X20819158Y10025279D01*
X20849803Y10053787D01*
X20858194Y10056913D01*
X20866045Y10053494D01*
G37*
%TD.AperFunction*%
%TD*%
%TA.AperFunction,Conductor*%
%TO.N,GND*%
G36*
X112122184Y36403240D02*
G01*
X112125594Y36395594D01*
X112137648Y36170839D01*
X112173417Y35978054D01*
X112229040Y35818872D01*
X112301252Y35683853D01*
X112386787Y35563557D01*
X112482379Y35448546D01*
X112584629Y35329534D01*
X112584900Y35329205D01*
X112690394Y35196965D01*
X112690916Y35196258D01*
X112796516Y35041297D01*
X112797109Y35040330D01*
X112895870Y34860093D01*
X112896840Y34851191D01*
X112894042Y34846361D01*
X112008433Y33925436D01*
X112000229Y33921848D01*
X111991567Y33925436D01*
X111105958Y34846361D01*
X111102693Y34854700D01*
X111104130Y34860093D01*
X111202890Y35040330D01*
X111203483Y35041297D01*
X111309083Y35196258D01*
X111309605Y35196965D01*
X111415099Y35329205D01*
X111415370Y35329534D01*
X111517620Y35448546D01*
X111613212Y35563557D01*
X111698747Y35683853D01*
X111770959Y35818872D01*
X111826582Y35978054D01*
X111862351Y36170839D01*
X111874406Y36395594D01*
X111878271Y36403671D01*
X111886089Y36406667D01*
X112113911Y36406667D01*
X112122184Y36403240D01*
G37*
%TD.AperFunction*%
%TD*%
%TA.AperFunction,Conductor*%
%TO.N,GND*%
G36*
X60125809Y28804119D02*
G01*
X60188005Y28771736D01*
X60188534Y28771443D01*
X60247938Y28736503D01*
X60248214Y28736333D01*
X60300809Y28703118D01*
X60300811Y28703115D01*
X60300812Y28703116D01*
X60349640Y28672261D01*
X60397647Y28644476D01*
X60397849Y28644379D01*
X60397855Y28644376D01*
X60428233Y28629817D01*
X60447935Y28620374D01*
X60503610Y28600564D01*
X60503931Y28600490D01*
X60503929Y28600490D01*
X60567475Y28585728D01*
X60567478Y28585728D01*
X60567777Y28585658D01*
X60568086Y28585620D01*
X60568090Y28585619D01*
X60612113Y28580162D01*
X60643538Y28576266D01*
X60699541Y28574244D01*
X60722722Y28573407D01*
X60730866Y28569684D01*
X60734000Y28561715D01*
X60734000Y28334285D01*
X60730573Y28326012D01*
X60722722Y28322593D01*
X60690068Y28321413D01*
X60643538Y28319733D01*
X60612113Y28315837D01*
X60568090Y28310380D01*
X60568086Y28310379D01*
X60567777Y28310341D01*
X60567478Y28310271D01*
X60567475Y28310271D01*
X60529442Y28301436D01*
X60503610Y28295435D01*
X60447935Y28275625D01*
X60447660Y28275493D01*
X60397855Y28251623D01*
X60397849Y28251620D01*
X60397647Y28251523D01*
X60349640Y28223738D01*
X60300812Y28192883D01*
X60248214Y28159666D01*
X60247938Y28159496D01*
X60197260Y28129688D01*
X60188534Y28124556D01*
X60188005Y28124263D01*
X60125809Y28091881D01*
X60116889Y28091100D01*
X60112297Y28093826D01*
X59752769Y28439567D01*
X59749181Y28447771D01*
X59752769Y28456433D01*
X59873984Y28573000D01*
X60112297Y28802174D01*
X60120635Y28805439D01*
X60125809Y28804119D01*
G37*
%TD.AperFunction*%
%TD*%
%TA.AperFunction,Conductor*%
%TO.N,GND*%
G36*
X19739809Y28804119D02*
G01*
X19802005Y28771736D01*
X19802534Y28771443D01*
X19861938Y28736503D01*
X19862214Y28736333D01*
X19914809Y28703118D01*
X19914811Y28703115D01*
X19914812Y28703116D01*
X19963640Y28672261D01*
X20011647Y28644476D01*
X20011849Y28644379D01*
X20011855Y28644376D01*
X20042233Y28629817D01*
X20061935Y28620374D01*
X20117610Y28600564D01*
X20117931Y28600490D01*
X20117929Y28600490D01*
X20181475Y28585728D01*
X20181478Y28585728D01*
X20181777Y28585658D01*
X20182086Y28585620D01*
X20182090Y28585619D01*
X20226113Y28580162D01*
X20257538Y28576266D01*
X20313541Y28574244D01*
X20336722Y28573407D01*
X20344866Y28569684D01*
X20348000Y28561715D01*
X20348000Y28334285D01*
X20344573Y28326012D01*
X20336722Y28322593D01*
X20304068Y28321413D01*
X20257538Y28319733D01*
X20226113Y28315837D01*
X20182090Y28310380D01*
X20182086Y28310379D01*
X20181777Y28310341D01*
X20181478Y28310271D01*
X20181475Y28310271D01*
X20143442Y28301436D01*
X20117610Y28295435D01*
X20061935Y28275625D01*
X20061660Y28275493D01*
X20011855Y28251623D01*
X20011849Y28251620D01*
X20011647Y28251523D01*
X19963640Y28223738D01*
X19914812Y28192883D01*
X19862214Y28159666D01*
X19861938Y28159496D01*
X19811260Y28129688D01*
X19802534Y28124556D01*
X19802005Y28124263D01*
X19739809Y28091881D01*
X19730889Y28091100D01*
X19726297Y28093826D01*
X19366769Y28439567D01*
X19363181Y28447771D01*
X19366769Y28456433D01*
X19487984Y28573000D01*
X19726297Y28802174D01*
X19734635Y28805439D01*
X19739809Y28804119D01*
G37*
%TD.AperFunction*%
%TD*%
%TA.AperFunction,Conductor*%
%TO.N,GND*%
G36*
X181808Y-2437881D02*
G01*
X236828Y-2466527D01*
X244005Y-2470263D01*
X244534Y-2470556D01*
X303938Y-2505496D01*
X304214Y-2505666D01*
X356809Y-2538881D01*
X356811Y-2538884D01*
X356812Y-2538883D01*
X405640Y-2569738D01*
X453647Y-2597523D01*
X453849Y-2597620D01*
X453855Y-2597623D01*
X484233Y-2612182D01*
X503935Y-2621625D01*
X559610Y-2641435D01*
X559931Y-2641509D01*
X559929Y-2641509D01*
X623475Y-2656271D01*
X623478Y-2656271D01*
X623777Y-2656341D01*
X624086Y-2656379D01*
X624090Y-2656380D01*
X668113Y-2661837D01*
X699538Y-2665733D01*
X746068Y-2667413D01*
X778722Y-2668593D01*
X786866Y-2672316D01*
X790000Y-2680285D01*
X790000Y-2907715D01*
X786573Y-2915988D01*
X778722Y-2919407D01*
X755541Y-2920244D01*
X699538Y-2922266D01*
X668113Y-2926162D01*
X624090Y-2931619D01*
X624086Y-2931620D01*
X623777Y-2931658D01*
X623478Y-2931728D01*
X623475Y-2931728D01*
X585442Y-2940563D01*
X559610Y-2946564D01*
X503935Y-2966374D01*
X503660Y-2966506D01*
X453855Y-2990376D01*
X453849Y-2990379D01*
X453647Y-2990476D01*
X405640Y-3018261D01*
X356812Y-3049116D01*
X304214Y-3082333D01*
X303938Y-3082503D01*
X253260Y-3112311D01*
X244534Y-3117443D01*
X244005Y-3117736D01*
X181809Y-3150119D01*
X172889Y-3150900D01*
X168298Y-3148175D01*
X-191231Y-2802433D01*
X-194819Y-2794229D01*
X-191231Y-2785567D01*
X168297Y-2439826D01*
X176636Y-2436561D01*
X181808Y-2437881D01*
G37*
%TD.AperFunction*%
%TD*%
%TA.AperFunction,Conductor*%
%TO.N,GND*%
G36*
X93408139Y-19104850D02*
G01*
X93408527Y-19104863D01*
X93480205Y-19108696D01*
X93485837Y-19108997D01*
X93486280Y-19109029D01*
X93552699Y-19115116D01*
X93553092Y-19115159D01*
X93611815Y-19122551D01*
X93612073Y-19122586D01*
X93666434Y-19130662D01*
X93666480Y-19130669D01*
X93719424Y-19138750D01*
X93719494Y-19138760D01*
X93774042Y-19146173D01*
X93774057Y-19146175D01*
X93774169Y-19146190D01*
X93833733Y-19152314D01*
X93833807Y-19152319D01*
X93833824Y-19152320D01*
X93901188Y-19156464D01*
X93901208Y-19156465D01*
X93901293Y-19156470D01*
X93901392Y-19156472D01*
X93901394Y-19156472D01*
X93971146Y-19157829D01*
X93979351Y-19161416D01*
X93982238Y-19166570D01*
X94117514Y-19684464D01*
X94116289Y-19693335D01*
X94109151Y-19698741D01*
X94105966Y-19699119D01*
X93610485Y-19689433D01*
X93602281Y-19685845D01*
X93599584Y-19681343D01*
X93585120Y-19636726D01*
X93585045Y-19636485D01*
X93569874Y-19585992D01*
X93554914Y-19538370D01*
X93554908Y-19538354D01*
X93554867Y-19538222D01*
X93538409Y-19494135D01*
X93518845Y-19454559D01*
X93494523Y-19420322D01*
X93463787Y-19392251D01*
X93424983Y-19371176D01*
X93424337Y-19371000D01*
X93424333Y-19370998D01*
X93389050Y-19361363D01*
X93376458Y-19357924D01*
X93327361Y-19354153D01*
X93319375Y-19350102D01*
X93316557Y-19342487D01*
X93316557Y-19115219D01*
X93319984Y-19106946D01*
X93328451Y-19103521D01*
X93408139Y-19104850D01*
G37*
%TD.AperFunction*%
%TD*%
%TA.AperFunction,Conductor*%
%TO.N,GND*%
G36*
X181809Y35408119D02*
G01*
X244005Y35375736D01*
X244534Y35375443D01*
X303938Y35340503D01*
X304214Y35340333D01*
X356809Y35307118D01*
X356811Y35307115D01*
X356812Y35307116D01*
X405640Y35276261D01*
X453647Y35248476D01*
X453849Y35248379D01*
X453855Y35248376D01*
X484233Y35233817D01*
X503935Y35224374D01*
X559610Y35204564D01*
X559931Y35204490D01*
X559929Y35204490D01*
X623475Y35189728D01*
X623478Y35189728D01*
X623777Y35189658D01*
X624086Y35189620D01*
X624090Y35189619D01*
X668113Y35184162D01*
X699538Y35180266D01*
X755541Y35178244D01*
X778722Y35177407D01*
X786866Y35173684D01*
X790000Y35165715D01*
X790000Y34938285D01*
X786573Y34930012D01*
X778722Y34926593D01*
X746068Y34925413D01*
X699538Y34923733D01*
X668113Y34919837D01*
X624090Y34914380D01*
X624086Y34914379D01*
X623777Y34914341D01*
X623478Y34914271D01*
X623475Y34914271D01*
X585442Y34905436D01*
X559610Y34899435D01*
X503935Y34879625D01*
X503660Y34879493D01*
X453855Y34855623D01*
X453849Y34855620D01*
X453647Y34855523D01*
X405640Y34827738D01*
X356812Y34796883D01*
X304214Y34763666D01*
X303938Y34763496D01*
X253260Y34733688D01*
X244534Y34728556D01*
X244005Y34728263D01*
X181809Y34695881D01*
X172889Y34695100D01*
X168297Y34697826D01*
X-191231Y35043567D01*
X-194819Y35051771D01*
X-191231Y35060433D01*
X-70016Y35177000D01*
X168297Y35406174D01*
X176635Y35409439D01*
X181809Y35408119D01*
G37*
%TD.AperFunction*%
%TD*%
%TA.AperFunction,Conductor*%
%TO.N,GND*%
G36*
X478205Y16641022D02*
G01*
X639022Y16480205D01*
X642449Y16471932D01*
X639315Y16463963D01*
X623914Y16447407D01*
X585346Y16405949D01*
X585201Y16405763D01*
X585195Y16405756D01*
X564845Y16379647D01*
X538415Y16345737D01*
X538252Y16345476D01*
X538251Y16345474D01*
X503760Y16290109D01*
X503756Y16290102D01*
X503583Y16289824D01*
X478222Y16236449D01*
X478121Y16236163D01*
X478118Y16236155D01*
X459784Y16184068D01*
X459706Y16183846D01*
X445407Y16130254D01*
X445376Y16130116D01*
X432700Y16073914D01*
X432697Y16073910D01*
X432699Y16073910D01*
X418987Y16013202D01*
X418899Y16012843D01*
X401624Y15946217D01*
X401458Y15945637D01*
X380373Y15878747D01*
X374617Y15871886D01*
X369443Y15870566D01*
X-129256Y15860817D01*
X-137595Y15864082D01*
X-141183Y15872744D01*
X-131434Y16371443D01*
X-127846Y16379647D01*
X-123253Y16382373D01*
X-56367Y16403457D01*
X-55787Y16403623D01*
X10843Y16420899D01*
X11202Y16420987D01*
X71910Y16434699D01*
X71910Y16434698D01*
X71914Y16434700D01*
X128254Y16447407D01*
X181846Y16461706D01*
X182068Y16461784D01*
X234155Y16480118D01*
X234163Y16480121D01*
X234449Y16480222D01*
X287824Y16505583D01*
X288102Y16505756D01*
X288109Y16505760D01*
X343474Y16540251D01*
X343476Y16540252D01*
X343737Y16540415D01*
X343975Y16540601D01*
X343980Y16540604D01*
X403756Y16587195D01*
X403763Y16587201D01*
X403949Y16587346D01*
X431318Y16612807D01*
X461963Y16641315D01*
X470354Y16644441D01*
X478205Y16641022D01*
G37*
%TD.AperFunction*%
%TD*%
%TA.AperFunction,Conductor*%
%TO.N,GND*%
G36*
X81064801Y26310523D02*
G01*
X81225618Y26149706D01*
X81229045Y26141433D01*
X81225911Y26133464D01*
X81210510Y26116908D01*
X81171942Y26075450D01*
X81171797Y26075264D01*
X81171791Y26075257D01*
X81151441Y26049148D01*
X81125011Y26015238D01*
X81124848Y26014977D01*
X81124847Y26014975D01*
X81090356Y25959610D01*
X81090352Y25959603D01*
X81090179Y25959325D01*
X81064818Y25905950D01*
X81064717Y25905664D01*
X81064714Y25905656D01*
X81046380Y25853569D01*
X81046302Y25853347D01*
X81032003Y25799755D01*
X81031972Y25799617D01*
X81019296Y25743415D01*
X81019293Y25743411D01*
X81019295Y25743411D01*
X81005583Y25682703D01*
X81005495Y25682344D01*
X80988220Y25615718D01*
X80988054Y25615138D01*
X80966969Y25548248D01*
X80961213Y25541387D01*
X80956039Y25540067D01*
X80457340Y25530318D01*
X80449001Y25533583D01*
X80445413Y25542245D01*
X80455162Y26040944D01*
X80458750Y26049148D01*
X80463343Y26051874D01*
X80530233Y26072959D01*
X80530813Y26073125D01*
X80597439Y26090400D01*
X80597798Y26090488D01*
X80658506Y26104200D01*
X80658506Y26104199D01*
X80658510Y26104201D01*
X80714850Y26116908D01*
X80768442Y26131207D01*
X80768664Y26131285D01*
X80820751Y26149619D01*
X80820759Y26149622D01*
X80821045Y26149723D01*
X80874420Y26175084D01*
X80874698Y26175257D01*
X80874705Y26175261D01*
X80930070Y26209752D01*
X80930072Y26209753D01*
X80930333Y26209916D01*
X80930571Y26210102D01*
X80930576Y26210105D01*
X80990352Y26256696D01*
X80990359Y26256702D01*
X80990545Y26256847D01*
X81017914Y26282308D01*
X81048559Y26310816D01*
X81056950Y26313942D01*
X81064801Y26310523D01*
G37*
%TD.AperFunction*%
%TD*%
%TA.AperFunction,Conductor*%
%TO.N,GND*%
G36*
X91251470Y42880014D02*
G01*
X91255233Y42875908D01*
X91778515Y41921549D01*
X91792288Y41896430D01*
X91793261Y41887528D01*
X91787249Y41880334D01*
X90787464Y41381937D01*
X90778531Y41381313D01*
X90773889Y41384218D01*
X90660501Y41499890D01*
X90659952Y41500489D01*
X90560340Y41617334D01*
X90560099Y41617628D01*
X90473128Y41728117D01*
X90392212Y41830193D01*
X90310738Y41921798D01*
X90221974Y42001024D01*
X90221570Y42001279D01*
X90221565Y42001283D01*
X90119657Y42065668D01*
X90119187Y42065965D01*
X89995645Y42114712D01*
X89995137Y42114815D01*
X89995134Y42114816D01*
X89845031Y42145276D01*
X89845025Y42145277D01*
X89844615Y42145360D01*
X89807905Y42147468D01*
X89670396Y42155367D01*
X89662333Y42159263D01*
X89659367Y42167048D01*
X89659367Y42394826D01*
X89662794Y42403099D01*
X89670528Y42406514D01*
X89885945Y42416439D01*
X89885951Y42416440D01*
X89886242Y42416453D01*
X89886529Y42416497D01*
X89886539Y42416498D01*
X89988972Y42432207D01*
X90074277Y42445288D01*
X90232395Y42488721D01*
X90232690Y42488838D01*
X90232694Y42488839D01*
X90369307Y42542880D01*
X90369310Y42542881D01*
X90369519Y42542964D01*
X90369715Y42543060D01*
X90369724Y42543064D01*
X90494492Y42604192D01*
X90494506Y42604199D01*
X90494573Y42604232D01*
X90616346Y42668667D01*
X90616578Y42668787D01*
X90644163Y42682605D01*
X90743817Y42732525D01*
X90744522Y42732848D01*
X90793409Y42753321D01*
X90886034Y42792109D01*
X90887086Y42792491D01*
X91051966Y42843650D01*
X91053142Y42843949D01*
X91242687Y42881756D01*
X91251470Y42880014D01*
G37*
%TD.AperFunction*%
%TD*%
%TA.AperFunction,Conductor*%
%TO.N,GND*%
G36*
X82985808Y-25297881D02*
G01*
X83040828Y-25326527D01*
X83048005Y-25330263D01*
X83048534Y-25330556D01*
X83107938Y-25365496D01*
X83108214Y-25365666D01*
X83160809Y-25398881D01*
X83160811Y-25398884D01*
X83160812Y-25398883D01*
X83209640Y-25429738D01*
X83257647Y-25457523D01*
X83257849Y-25457620D01*
X83257855Y-25457623D01*
X83288233Y-25472182D01*
X83307935Y-25481625D01*
X83363610Y-25501435D01*
X83363931Y-25501509D01*
X83363929Y-25501509D01*
X83427475Y-25516271D01*
X83427478Y-25516271D01*
X83427777Y-25516341D01*
X83428086Y-25516379D01*
X83428090Y-25516380D01*
X83472113Y-25521837D01*
X83503538Y-25525733D01*
X83550068Y-25527413D01*
X83582722Y-25528593D01*
X83590866Y-25532316D01*
X83594000Y-25540285D01*
X83594000Y-25767715D01*
X83590573Y-25775988D01*
X83582722Y-25779407D01*
X83559541Y-25780244D01*
X83503538Y-25782266D01*
X83472113Y-25786162D01*
X83428090Y-25791619D01*
X83428086Y-25791620D01*
X83427777Y-25791658D01*
X83427478Y-25791728D01*
X83427475Y-25791728D01*
X83389442Y-25800563D01*
X83363610Y-25806564D01*
X83307935Y-25826374D01*
X83307660Y-25826506D01*
X83257855Y-25850376D01*
X83257849Y-25850379D01*
X83257647Y-25850476D01*
X83209640Y-25878261D01*
X83160812Y-25909116D01*
X83108214Y-25942333D01*
X83107938Y-25942503D01*
X83057260Y-25972311D01*
X83048534Y-25977443D01*
X83048005Y-25977736D01*
X82985809Y-26010119D01*
X82976889Y-26010900D01*
X82972298Y-26008175D01*
X82612769Y-25662433D01*
X82609181Y-25654229D01*
X82612769Y-25645567D01*
X82972297Y-25299826D01*
X82980636Y-25296561D01*
X82985808Y-25297881D01*
G37*
%TD.AperFunction*%
%TD*%
%TA.AperFunction,Conductor*%
%TO.N,GND*%
G36*
X114246410Y40346054D02*
G01*
X114250000Y40337621D01*
X114250000Y39166667D01*
X114174484Y39154711D01*
X114118324Y39122259D01*
X114076387Y39074435D01*
X114043541Y39016363D01*
X114014654Y38953167D01*
X113984596Y38889971D01*
X113948233Y38831899D01*
X113900434Y38784075D01*
X113836067Y38751623D01*
X113750000Y38739667D01*
X113750000Y38993667D01*
X113827695Y39004060D01*
X113866411Y39033397D01*
X113872457Y39078909D01*
X113852143Y39137829D01*
X113811777Y39207390D01*
X113757669Y39284825D01*
X113696128Y39367366D01*
X113644657Y39437083D01*
X113644657Y39437085D01*
X113633590Y39452074D01*
X113633331Y39452440D01*
X113576259Y39536295D01*
X113575748Y39537116D01*
X113534294Y39610369D01*
X113533202Y39619257D01*
X113536044Y39624241D01*
X114229867Y40345731D01*
X114238071Y40349319D01*
X114246410Y40346054D01*
G37*
%TD.AperFunction*%
%TD*%
%TA.AperFunction,Conductor*%
%TO.N,GND*%
G36*
X114374390Y39953240D02*
G01*
X114377786Y39945813D01*
X114381493Y39894656D01*
X114393963Y39838209D01*
X114394105Y39837827D01*
X114394106Y39837824D01*
X114409156Y39797378D01*
X114412899Y39787320D01*
X114436786Y39741986D01*
X114464112Y39702200D01*
X114493364Y39667960D01*
X114523029Y39639258D01*
X114523220Y39639103D01*
X114523228Y39639096D01*
X114541226Y39624501D01*
X114551595Y39616092D01*
X114551794Y39615957D01*
X114551795Y39615956D01*
X114575581Y39599792D01*
X114577548Y39598455D01*
X114577783Y39598325D01*
X114577784Y39598324D01*
X114591044Y39590967D01*
X114596616Y39583956D01*
X114596537Y39577251D01*
X114256838Y38488582D01*
X114256398Y38487172D01*
X114256022Y38485967D01*
X114250286Y38479090D01*
X114246823Y38478402D01*
X114246414Y38478160D01*
X113900625Y39586345D01*
X113922451Y39598455D01*
X113948404Y39616092D01*
X113976970Y39639258D01*
X114006635Y39667960D01*
X114035887Y39702200D01*
X114063213Y39741986D01*
X114087100Y39787320D01*
X114106036Y39838209D01*
X114118506Y39894656D01*
X114123000Y39956667D01*
X114366117Y39956667D01*
X114374390Y39953240D01*
G37*
%TD.AperFunction*%
%TD*%
M02*
