%TF.GenerationSoftware,KiCad,Pcbnew,6.0.11+dfsg-1*%
%TF.CreationDate,2023-05-12T21:12:11+03:00*%
%TF.ProjectId,pcb,7063622e-6b69-4636-9164-5f7063625858,v1.0.0*%
%TF.SameCoordinates,Original*%
%TF.FileFunction,Copper,L1,Top*%
%TF.FilePolarity,Positive*%
%FSLAX46Y46*%
G04 Gerber Fmt 4.6, Leading zero omitted, Abs format (unit mm)*
G04 Created by KiCad (PCBNEW 6.0.11+dfsg-1) date 2023-05-12 21:12:11*
%MOMM*%
%LPD*%
G01*
G04 APERTURE LIST*
G04 Aperture macros list*
%AMRotRect*
0 Rectangle, with rotation*
0 The origin of the aperture is its center*
0 $1 length*
0 $2 width*
0 $3 Rotation angle, in degrees counterclockwise*
0 Add horizontal line*
21,1,$1,$2,0,0,$3*%
G04 Aperture macros list end*
%TA.AperFunction,ComponentPad*%
%ADD10C,2.000000*%
%TD*%
%TA.AperFunction,ComponentPad*%
%ADD11O,1.600000X2.200000*%
%TD*%
%TA.AperFunction,SMDPad,CuDef*%
%ADD12R,2.600000X2.600000*%
%TD*%
%TA.AperFunction,ComponentPad*%
%ADD13C,4.000000*%
%TD*%
%TA.AperFunction,SMDPad,CuDef*%
%ADD14RotRect,2.600000X2.600000X344.000000*%
%TD*%
%TA.AperFunction,ComponentPad*%
%ADD15R,1.700000X1.700000*%
%TD*%
%TA.AperFunction,ComponentPad*%
%ADD16O,1.700000X1.700000*%
%TD*%
%TA.AperFunction,ComponentPad*%
%ADD17R,3.200000X2.000000*%
%TD*%
%TA.AperFunction,ComponentPad*%
%ADD18C,1.500000*%
%TD*%
%TA.AperFunction,ComponentPad*%
%ADD19R,2.000000X2.000000*%
%TD*%
%TA.AperFunction,ComponentPad*%
%ADD20R,1.752600X1.752600*%
%TD*%
%TA.AperFunction,ComponentPad*%
%ADD21C,1.752600*%
%TD*%
%TA.AperFunction,SMDPad,CuDef*%
%ADD22RotRect,2.600000X2.600000X359.000000*%
%TD*%
%TA.AperFunction,SMDPad,CuDef*%
%ADD23RotRect,2.600000X2.600000X331.000000*%
%TD*%
%TA.AperFunction,SMDPad,CuDef*%
%ADD24R,1.143000X0.635000*%
%TD*%
%TA.AperFunction,ViaPad*%
%ADD25C,0.800000*%
%TD*%
%TA.AperFunction,Conductor*%
%ADD26C,0.250000*%
%TD*%
%TA.AperFunction,Conductor*%
%ADD27C,0.254000*%
%TD*%
G04 APERTURE END LIST*
D10*
%TO.P,_1,1*%
%TO.N,ST*%
X112000000Y27916667D03*
%TO.P,_1,2*%
%TO.N,GND*%
X112000000Y34416667D03*
%TD*%
D11*
%TO.P,TRRS1,1*%
%TO.N,GND*%
X114250000Y38866667D03*
X109650000Y38866667D03*
%TO.P,TRRS1,2*%
X109650000Y39966667D03*
X114250000Y39966667D03*
%TO.P,TRRS1,3*%
%TO.N,F6*%
X114250000Y43966667D03*
X109650000Y43966667D03*
%TO.P,TRRS1,4*%
%TO.N,VCC*%
X114250000Y46966667D03*
X109650000Y46966667D03*
%TD*%
D12*
%TO.P,S9,1*%
%TO.N,D7*%
X43875000Y61616667D03*
%TO.P,S9,2*%
%TO.N,GND*%
X32325000Y59416667D03*
%TD*%
D13*
%TO.P,_4,*%
%TO.N,*%
X105000000Y-3000000D03*
%TD*%
%TO.P,_2,*%
%TO.N,*%
X117000000Y19000000D03*
%TD*%
D14*
%TO.P,S17,1*%
%TO.N,F5*%
X108401439Y-21510614D03*
%TO.P,S17,2*%
%TO.N,GND*%
X96692465Y-20441779D03*
%TD*%
D15*
%TO.P,O2,1*%
%TO.N,T1*%
X110000000Y8000000D03*
D16*
%TO.P,O2,2*%
%TO.N,T2*%
X112540000Y8000000D03*
%TO.P,O2,3*%
%TO.N,T3*%
X115080000Y8000000D03*
%TO.P,O2,4*%
%TO.N,T4*%
X117620000Y8000000D03*
%TD*%
D17*
%TO.P,ROT1,*%
%TO.N,*%
X99120000Y2526667D03*
X99120000Y13726667D03*
D18*
%TO.P,ROT1,1*%
%TO.N,O1*%
X92120000Y5626667D03*
%TO.P,ROT1,2*%
%TO.N,O2*%
X92120000Y10626667D03*
D19*
%TO.P,ROT1,A*%
%TO.N,O3*%
X106620000Y5626667D03*
D10*
%TO.P,ROT1,B*%
%TO.N,O5*%
X106620000Y10626667D03*
%TO.P,ROT1,C*%
%TO.N,O4*%
X106620000Y8126667D03*
%TD*%
D12*
%TO.P,S5,1*%
%TO.N,D5*%
X23275000Y36950000D03*
%TO.P,S5,2*%
%TO.N,GND*%
X11725000Y34750000D03*
%TD*%
%TO.P,S4,1*%
%TO.N,C7*%
X23275000Y17950000D03*
%TO.P,S4,2*%
%TO.N,GND*%
X11725000Y15750000D03*
%TD*%
D20*
%TO.P,MCU1,1*%
%TO.N,D3*%
X91380000Y49636667D03*
D21*
%TO.P,MCU1,2*%
%TO.N,D2*%
X91380000Y47096667D03*
%TO.P,MCU1,3*%
%TO.N,GND*%
X91380000Y44556667D03*
%TO.P,MCU1,4*%
X91380000Y42016667D03*
%TO.P,MCU1,5*%
%TO.N,D1*%
X91380000Y39476667D03*
%TO.P,MCU1,6*%
%TO.N,D0*%
X91380000Y36936667D03*
%TO.P,MCU1,7*%
%TO.N,D4*%
X91380000Y34396667D03*
%TO.P,MCU1,8*%
%TO.N,C6*%
X91380000Y31856667D03*
%TO.P,MCU1,9*%
%TO.N,D7*%
X91380000Y29316667D03*
%TO.P,MCU1,10*%
%TO.N,E6*%
X91380000Y26776667D03*
%TO.P,MCU1,11*%
%TO.N,B4*%
X91380000Y24236667D03*
%TO.P,MCU1,12*%
%TO.N,B5*%
X91608600Y21696667D03*
%TO.P,MCU1,13*%
%TO.N,B6*%
X106620000Y21696667D03*
%TO.P,MCU1,14*%
%TO.N,B2*%
X106620000Y24236667D03*
%TO.P,MCU1,15*%
%TO.N,B3*%
X106620000Y26776667D03*
%TO.P,MCU1,16*%
%TO.N,B1*%
X106620000Y29316667D03*
%TO.P,MCU1,17*%
%TO.N,F7*%
X106620000Y31856667D03*
%TO.P,MCU1,18*%
%TO.N,F6*%
X106620000Y34396667D03*
%TO.P,MCU1,19*%
%TO.N,F5*%
X106620000Y36936667D03*
%TO.P,MCU1,20*%
%TO.N,F4*%
X106620000Y39476667D03*
%TO.P,MCU1,21*%
%TO.N,VCC*%
X106620000Y42016667D03*
%TO.P,MCU1,22*%
%TO.N,ST*%
X106620000Y44556667D03*
%TO.P,MCU1,23*%
%TO.N,GND*%
X106620000Y47096667D03*
%TO.P,MCU1,24*%
%TO.N,B0*%
X106620000Y49636667D03*
%TO.P,MCU1,25*%
%TO.N,B7*%
X93920000Y21696667D03*
%TO.P,MCU1,26*%
%TO.N,D5*%
X96460000Y21696667D03*
%TO.P,MCU1,27*%
%TO.N,C7*%
X99000000Y21696667D03*
%TO.P,MCU1,28*%
%TO.N,F1*%
X101540000Y21696667D03*
%TO.P,MCU1,29*%
%TO.N,F0*%
X104080000Y21696667D03*
%TD*%
D12*
%TO.P,S6,1*%
%TO.N,B7*%
X23275000Y55950000D03*
%TO.P,S6,2*%
%TO.N,GND*%
X11725000Y53750000D03*
%TD*%
%TO.P,S1,1*%
%TO.N,B6*%
X3275000Y5950000D03*
%TO.P,S1,2*%
%TO.N,GND*%
X-8275000Y3750000D03*
%TD*%
%TO.P,S10,1*%
%TO.N,B4*%
X63275000Y17950000D03*
%TO.P,S10,2*%
%TO.N,GND*%
X51725000Y15750000D03*
%TD*%
%TO.P,S14,1*%
%TO.N,C6*%
X83275000Y34116667D03*
%TO.P,S14,2*%
%TO.N,GND*%
X71725000Y31916667D03*
%TD*%
%TO.P,S15,1*%
%TO.N,D2*%
X83275000Y53116667D03*
%TO.P,S15,2*%
%TO.N,GND*%
X71725000Y50916667D03*
%TD*%
D22*
%TO.P,S16,1*%
%TO.N,F4*%
X85378343Y-16941396D03*
%TO.P,S16,2*%
%TO.N,GND*%
X73791707Y-18939485D03*
%TD*%
D23*
%TO.P,S18,1*%
%TO.N,F7*%
X130171272Y-31265040D03*
%TO.P,S18,2*%
%TO.N,GND*%
X119002833Y-27589652D03*
%TD*%
D24*
%TO.P,J1,1*%
%TO.N,O1*%
X109000000Y13499620D03*
%TO.P,J1,2*%
%TO.N,GND*%
X109000000Y14500380D03*
%TD*%
D12*
%TO.P,S13,1*%
%TO.N,B5*%
X83275000Y15116667D03*
%TO.P,S13,2*%
%TO.N,GND*%
X71725000Y12916667D03*
%TD*%
%TO.P,S2,1*%
%TO.N,F0*%
X3275000Y24950000D03*
%TO.P,S2,2*%
%TO.N,GND*%
X-8275000Y22750000D03*
%TD*%
%TO.P,S11,1*%
%TO.N,D4*%
X63275000Y36950000D03*
%TO.P,S11,2*%
%TO.N,GND*%
X51725000Y34750000D03*
%TD*%
D13*
%TO.P,_3,*%
%TO.N,*%
X117000000Y-7000000D03*
%TD*%
D24*
%TO.P,J5,1*%
%TO.N,O3*%
X117000000Y13499620D03*
%TO.P,J5,2*%
%TO.N,B1*%
X117000000Y14500380D03*
%TD*%
D12*
%TO.P,S7,1*%
%TO.N,E6*%
X43475000Y23616667D03*
%TO.P,S7,2*%
%TO.N,GND*%
X31925000Y21416667D03*
%TD*%
D24*
%TO.P,J4,1*%
%TO.N,O4*%
X115000000Y13499620D03*
%TO.P,J4,2*%
%TO.N,GND*%
X115000000Y14500380D03*
%TD*%
%TO.P,J3,1*%
%TO.N,O5*%
X113000000Y13499620D03*
%TO.P,J3,2*%
%TO.N,B3*%
X113000000Y14500380D03*
%TD*%
%TO.P,J2,1*%
%TO.N,O2*%
X111000000Y13499620D03*
%TO.P,J2,2*%
%TO.N,B2*%
X111000000Y14500380D03*
%TD*%
D12*
%TO.P,S12,1*%
%TO.N,D1*%
X63275000Y55950000D03*
%TO.P,S12,2*%
%TO.N,GND*%
X51725000Y53750000D03*
%TD*%
%TO.P,S3,1*%
%TO.N,F1*%
X3275000Y43950000D03*
%TO.P,S3,2*%
%TO.N,GND*%
X-8275000Y41750000D03*
%TD*%
%TO.P,S8,1*%
%TO.N,D0*%
X43675000Y42616667D03*
%TO.P,S8,2*%
%TO.N,GND*%
X32125000Y40416667D03*
%TD*%
D25*
%TO.N,GND*%
X20387840Y9414472D03*
X19812000Y46990000D03*
X80586596Y25671501D03*
X19558000Y28448000D03*
X68326000Y-13716000D03*
X60246470Y9390253D03*
X82804000Y-25654000D03*
X0Y35052000D03*
X40688746Y34028571D03*
X60198000Y46990000D03*
X0Y-2794000D03*
X81026000Y44450000D03*
X93980000Y-19558000D03*
X59944000Y28448000D03*
X123190000Y-37846000D03*
X40132000Y52832000D03*
X0Y16002000D03*
X39878000Y15240000D03*
X115824000Y-26162000D03*
X103378000Y-29210000D03*
X80264000Y11684000D03*
%TO.N,B6*%
X-254000Y2794000D03*
%TO.N,F0*%
X-254000Y21844000D03*
%TO.N,F1*%
X-254000Y41148000D03*
%TO.N,C7*%
X20320000Y14986000D03*
%TO.N,D5*%
X20066000Y33782000D03*
%TO.N,B7*%
X19812000Y53086000D03*
%TO.N,E6*%
X40386000Y21082000D03*
%TO.N,D0*%
X40132000Y39624000D03*
%TO.N,D7*%
X40640000Y58674000D03*
%TO.N,B4*%
X60198000Y15240000D03*
%TO.N,D4*%
X59944000Y34290000D03*
%TO.N,D1*%
X60452000Y53086000D03*
%TO.N,B5*%
X80008488Y12706048D03*
%TO.N,C6*%
X80264000Y31496000D03*
%TO.N,D2*%
X79756000Y50292000D03*
%TO.N,F4*%
X82550000Y-19558000D03*
%TO.N,F5*%
X104648000Y-23368000D03*
%TO.N,F7*%
X125984000Y-32004000D03*
%TD*%
D26*
%TO.N,O1*%
X108166380Y13499620D02*
X109000000Y13499620D01*
X90991000Y6755667D02*
X90991000Y12759000D01*
X92120000Y5626667D02*
X90991000Y6755667D01*
X90991000Y12759000D02*
X93472000Y15240000D01*
X93472000Y15240000D02*
X106426000Y15240000D01*
X106426000Y15240000D02*
X108166380Y13499620D01*
%TO.N,GND*%
X109000000Y21121330D02*
X107139963Y22981367D01*
X118381966Y-28210519D02*
X119002833Y-27589652D01*
X35426334Y57537666D02*
X40132000Y52832000D01*
X39666009Y15240000D02*
X39878000Y15240000D01*
X104648000Y24433404D02*
X104648000Y28194000D01*
X75505432Y29396568D02*
X79230499Y25671501D01*
X104810033Y28031967D02*
X104648000Y28194000D01*
X53604001Y32870999D02*
X55168343Y32870999D01*
X-254000Y-2794000D02*
X0Y-2794000D01*
X34645099Y37896568D02*
X36209441Y37896568D01*
X40077438Y34028571D02*
X40688746Y34028571D01*
X51725000Y15750000D02*
X54245099Y13229901D01*
X11725000Y15750000D02*
X14245099Y13229901D01*
X31925000Y21416667D02*
X34037667Y19304000D01*
X53604001Y51870999D02*
X55168343Y51870999D01*
X115000000Y14500380D02*
X115000000Y16064000D01*
X79230499Y25671501D02*
X80586596Y25671501D01*
X15218099Y13229901D02*
X19033528Y9414472D01*
X104648000Y45124667D02*
X106620000Y47096667D01*
X15572099Y51229901D02*
X19812000Y46990000D01*
X79556675Y11684000D02*
X80264000Y11684000D01*
X-5754901Y39229901D02*
X-4190559Y39229901D01*
X71725000Y50916667D02*
X74245099Y48396568D01*
X60049342Y46990000D02*
X60198000Y46990000D01*
X118381966Y-33037966D02*
X118381966Y-28210519D01*
X-6395999Y20870999D02*
X-4868999Y20870999D01*
X11725000Y53750000D02*
X14245099Y51229901D01*
X103378000Y-29210000D02*
X100985579Y-29210000D01*
X-5754901Y1229901D02*
X-4277901Y1229901D01*
X100985579Y-29210000D02*
X96692465Y-24916886D01*
X34037667Y19304000D02*
X35602009Y19304000D01*
X-4190559Y39229901D02*
X-12658Y35052000D01*
X71725000Y12916667D02*
X73604001Y11037666D01*
X79756009Y44450000D02*
X81026000Y44450000D01*
X-8275000Y3750000D02*
X-5754901Y1229901D01*
X74245099Y29396568D02*
X75505432Y29396568D01*
X68568222Y-13716000D02*
X73791707Y-18939485D01*
X55168343Y32870999D02*
X59591342Y28448000D01*
X104648000Y28194000D02*
X104648000Y45124667D01*
X11725000Y34750000D02*
X14245099Y32229901D01*
X34204001Y57537666D02*
X35426334Y57537666D01*
X-4868999Y20870999D02*
X0Y16002000D01*
X51725000Y34750000D02*
X53604001Y32870999D01*
X14245099Y13229901D02*
X15218099Y13229901D01*
X15776099Y32229901D02*
X19558000Y28448000D01*
X51725000Y53750000D02*
X53604001Y51870999D01*
X-8275000Y41750000D02*
X-5754901Y39229901D01*
X123190000Y-37846000D02*
X118381966Y-33037966D01*
X-4277901Y1229901D02*
X-254000Y-2794000D01*
X75809441Y48396568D02*
X79756009Y44450000D01*
X71725000Y31916667D02*
X74245099Y29396568D01*
X109000000Y14500380D02*
X109000000Y21121330D01*
X107139963Y28031967D02*
X104810033Y28031967D01*
X77678150Y-25654000D02*
X73791707Y-21767557D01*
X59649089Y9390253D02*
X60246470Y9390253D01*
X117251652Y-27589652D02*
X115824000Y-26162000D01*
X55809441Y13229901D02*
X59649089Y9390253D01*
X115000000Y16064000D02*
X114046000Y17018000D01*
X94863779Y-20441779D02*
X93980000Y-19558000D01*
X106100037Y22981367D02*
X104648000Y24433404D01*
X114046000Y21125930D02*
X107139963Y28031967D01*
X32125000Y40416667D02*
X34645099Y37896568D01*
X114046000Y17018000D02*
X114046000Y21125930D01*
X-12658Y35052000D02*
X0Y35052000D01*
X54245099Y13229901D02*
X55809441Y13229901D01*
X96692465Y-24916886D02*
X96692465Y-20441779D01*
X35602009Y19304000D02*
X39666009Y15240000D01*
X78910341Y11037666D02*
X79556675Y11684000D01*
X73791707Y-21767557D02*
X73791707Y-18939485D01*
X74245099Y48396568D02*
X75809441Y48396568D01*
X107139963Y22981367D02*
X106100037Y22981367D01*
X119002833Y-27589652D02*
X117251652Y-27589652D01*
X19033528Y9414472D02*
X20387840Y9414472D01*
X82804000Y-25654000D02*
X77678150Y-25654000D01*
X96692465Y-20441779D02*
X94863779Y-20441779D01*
X55168343Y51870999D02*
X60049342Y46990000D01*
X14245099Y51229901D02*
X15572099Y51229901D01*
X59591342Y28448000D02*
X59944000Y28448000D01*
X14245099Y32229901D02*
X15776099Y32229901D01*
X-8275000Y22750000D02*
X-6395999Y20870999D01*
X32325000Y59416667D02*
X34204001Y57537666D01*
X73604001Y11037666D02*
X78910341Y11037666D01*
X68326000Y-13716000D02*
X68568222Y-13716000D01*
X36209441Y37896568D02*
X40077438Y34028571D01*
%TO.N,O2*%
X93499000Y12005667D02*
X109506047Y12005667D01*
X109506047Y12005667D02*
X111000000Y13499620D01*
X92120000Y10626667D02*
X93499000Y12005667D01*
%TO.N,B2*%
X111000000Y14500380D02*
X111000000Y19856667D01*
X111000000Y19856667D02*
X106620000Y24236667D01*
%TO.N,O5*%
X106620000Y10626667D02*
X110127047Y10626667D01*
X110127047Y10626667D02*
X113000000Y13499620D01*
%TO.N,B3*%
X113000000Y20396667D02*
X106620000Y26776667D01*
X113000000Y14500380D02*
X113000000Y20396667D01*
%TO.N,O4*%
X108616000Y10122667D02*
X111623047Y10122667D01*
X106620000Y8126667D02*
X108616000Y10122667D01*
X111623047Y10122667D02*
X115000000Y13499620D01*
%TO.N,O3*%
X106620000Y5626667D02*
X107999000Y7005667D01*
X107999000Y8397667D02*
X109220000Y9618667D01*
X109220000Y9618667D02*
X113119047Y9618667D01*
X113119047Y9618667D02*
X117000000Y13499620D01*
X107999000Y7005667D02*
X107999000Y8397667D01*
%TO.N,B1*%
X117000000Y14500380D02*
X117000000Y15635585D01*
X117000000Y15635585D02*
X114621000Y18014585D01*
X114621000Y21523000D02*
X106827333Y29316667D01*
X114621000Y18014585D02*
X114621000Y21523000D01*
X106827333Y29316667D02*
X106620000Y29316667D01*
D27*
%TO.N,VCC*%
X114250000Y46966667D02*
X109650000Y46966667D01*
X108469000Y45785667D02*
X108469000Y43865667D01*
X108469000Y43865667D02*
X106620000Y42016667D01*
X109650000Y46966667D02*
X108469000Y45785667D01*
D26*
%TO.N,B6*%
X89727764Y16313944D02*
X91213820Y17800000D01*
X91213820Y17800000D02*
X102723333Y17800000D01*
X8880472Y5950000D02*
X10277306Y4553166D01*
X-254000Y2794000D02*
X2902000Y5950000D01*
X86348986Y4553166D02*
X89727764Y7931944D01*
X3275000Y5950000D02*
X8880472Y5950000D01*
X10277306Y4553166D02*
X86348986Y4553166D01*
X89727764Y7931944D02*
X89727764Y16313944D01*
X2902000Y5950000D02*
X3275000Y5950000D01*
X102723333Y17800000D02*
X106620000Y21696667D01*
%TO.N,F0*%
X89223764Y8140708D02*
X89223764Y16522708D01*
X5457309Y24950000D02*
X8116999Y22290310D01*
X8116999Y7426237D02*
X10486070Y5057166D01*
X10486070Y5057166D02*
X86140222Y5057166D01*
X86140222Y5057166D02*
X89223764Y8140708D01*
X2852000Y24950000D02*
X3275000Y24950000D01*
X8116999Y22290310D02*
X8116999Y7426237D01*
X3275000Y24950000D02*
X5457309Y24950000D01*
X100687333Y18304000D02*
X104080000Y21696667D01*
X-254000Y21844000D02*
X2852000Y24950000D01*
X89223764Y16522708D02*
X91005056Y18304000D01*
X91005056Y18304000D02*
X100687333Y18304000D01*
%TO.N,F1*%
X8620999Y40786310D02*
X8620999Y7635001D01*
X88719764Y16731472D02*
X90796292Y18808000D01*
X8620999Y7635001D02*
X10694834Y5561166D01*
X3275000Y43950000D02*
X5457309Y43950000D01*
X85931458Y5561166D02*
X88719764Y8349472D01*
X5457309Y43950000D02*
X8620999Y40786310D01*
X473000Y41148000D02*
X3275000Y43950000D01*
X98651333Y18808000D02*
X101540000Y21696667D01*
X88719764Y8349472D02*
X88719764Y16731472D01*
X90796292Y18808000D02*
X98651333Y18808000D01*
X-254000Y41148000D02*
X473000Y41148000D01*
X10694834Y5561166D02*
X85931458Y5561166D01*
%TO.N,C7*%
X28577306Y6065166D02*
X85722694Y6065166D01*
X27432000Y7210472D02*
X28577306Y6065166D01*
X25457309Y17950000D02*
X27432000Y15975309D01*
X23275000Y17950000D02*
X25457309Y17950000D01*
X20320000Y14986000D02*
X20320000Y14995000D01*
X88215764Y16940236D02*
X90587528Y19312000D01*
X88215764Y8558236D02*
X88215764Y16940236D01*
X85722694Y6065166D02*
X88215764Y8558236D01*
X96615333Y19312000D02*
X99000000Y21696667D01*
X20320000Y14995000D02*
X23275000Y17950000D01*
X27432000Y15975309D02*
X27432000Y7210472D01*
X90587528Y19312000D02*
X96615333Y19312000D01*
%TO.N,D5*%
X20066000Y33782000D02*
X23234000Y36950000D01*
X27940000Y34467309D02*
X27940000Y7415236D01*
X85513930Y6569166D02*
X87626000Y8681236D01*
X94579333Y19816000D02*
X96460000Y21696667D01*
X23234000Y36950000D02*
X23275000Y36950000D01*
X28786070Y6569166D02*
X85513930Y6569166D01*
X23275000Y36950000D02*
X25457309Y36950000D01*
X25457309Y36950000D02*
X27940000Y34467309D01*
X27940000Y7415236D02*
X28786070Y6569166D01*
X87626000Y17063236D02*
X90378764Y19816000D01*
X87626000Y8681236D02*
X87626000Y17063236D01*
X90378764Y19816000D02*
X94579333Y19816000D01*
%TO.N,B7*%
X25457309Y55950000D02*
X28448000Y52959309D01*
X93726000Y20320000D02*
X93920000Y20514000D01*
X28448000Y52959309D02*
X28448000Y7620000D01*
X87122000Y8890000D02*
X87122000Y17272000D01*
X22676000Y55950000D02*
X23275000Y55950000D01*
X19812000Y53086000D02*
X22676000Y55950000D01*
X85305166Y7073166D02*
X87122000Y8890000D01*
X90170000Y20320000D02*
X93726000Y20320000D01*
X28448000Y7620000D02*
X28994834Y7073166D01*
X28994834Y7073166D02*
X85305166Y7073166D01*
X23275000Y55950000D02*
X25457309Y55950000D01*
X87122000Y17272000D02*
X90170000Y20320000D01*
X93920000Y20514000D02*
X93920000Y21696667D01*
%TO.N,E6*%
X43475000Y23616667D02*
X44599000Y24740667D01*
X44599000Y24740667D02*
X89344000Y24740667D01*
X40940333Y21082000D02*
X43475000Y23616667D01*
X40386000Y21082000D02*
X40940333Y21082000D01*
X89344000Y24740667D02*
X91380000Y26776667D01*
%TO.N,D0*%
X43124667Y42616667D02*
X43675000Y42616667D01*
X40132000Y39624000D02*
X43124667Y42616667D01*
X74245624Y37846000D02*
X90470667Y37846000D01*
X43675000Y42616667D02*
X69474957Y42616667D01*
X69474957Y42616667D02*
X74245624Y37846000D01*
X90470667Y37846000D02*
X91380000Y36936667D01*
%TO.N,D7*%
X92710000Y50800000D02*
X92710000Y30646667D01*
X65360999Y57829001D02*
X68326000Y54864000D01*
X43875000Y61616667D02*
X48202050Y61616667D01*
X79090024Y54864000D02*
X79221692Y54995668D01*
X68326000Y54864000D02*
X79090024Y54864000D01*
X40640000Y58674000D02*
X43582667Y61616667D01*
X51989716Y57829001D02*
X65360999Y57829001D01*
X43582667Y61616667D02*
X43875000Y61616667D01*
X92710000Y30646667D02*
X91380000Y29316667D01*
X48202050Y61616667D02*
X51989716Y57829001D01*
X88514332Y54995668D02*
X92710000Y50800000D01*
X79221692Y54995668D02*
X88514332Y54995668D01*
%TO.N,B4*%
X61832691Y15240000D02*
X63275000Y16682309D01*
X63275000Y19333000D02*
X68178667Y24236667D01*
X63275000Y16682309D02*
X63275000Y17950000D01*
X68178667Y24236667D02*
X91380000Y24236667D01*
X63275000Y17950000D02*
X63275000Y19333000D01*
X60198000Y15240000D02*
X61832691Y15240000D01*
%TO.N,D4*%
X88826667Y36950000D02*
X91380000Y34396667D01*
X59944000Y34290000D02*
X60615000Y34290000D01*
X63275000Y36950000D02*
X88826667Y36950000D01*
X60615000Y34290000D02*
X63275000Y36950000D01*
%TO.N,D1*%
X66879001Y52246999D02*
X79649333Y39476667D01*
X63275000Y55950000D02*
X65457309Y55950000D01*
X66879001Y54528308D02*
X66879001Y52246999D01*
X65457309Y55950000D02*
X66879001Y54528308D01*
X60452000Y53086000D02*
X60452000Y53127000D01*
X79649333Y39476667D02*
X91380000Y39476667D01*
X60452000Y53127000D02*
X63275000Y55950000D01*
%TO.N,B5*%
X87736667Y21696667D02*
X91608600Y21696667D01*
X83275000Y17235000D02*
X87736667Y21696667D01*
X80008488Y12706048D02*
X80864381Y12706048D01*
X80864381Y12706048D02*
X83275000Y15116667D01*
X83275000Y15116667D02*
X83275000Y17235000D01*
%TO.N,C6*%
X80264000Y31496000D02*
X80654333Y31496000D01*
X80654333Y31496000D02*
X83275000Y34116667D01*
X83275000Y34116667D02*
X89120000Y34116667D01*
X89120000Y34116667D02*
X91380000Y31856667D01*
%TO.N,D2*%
X80450333Y50292000D02*
X83275000Y53116667D01*
X79756000Y50292000D02*
X80450333Y50292000D01*
X83275000Y53116667D02*
X85457309Y53116667D01*
X91380000Y47193976D02*
X91380000Y47096667D01*
X85457309Y53116667D02*
X91380000Y47193976D01*
%TO.N,F4*%
X82761739Y-19558000D02*
X82550000Y-19558000D01*
X85378343Y-16941396D02*
X82761739Y-19558000D01*
%TO.N,F5*%
X108401439Y-21510614D02*
X106544053Y-23368000D01*
X106544053Y-23368000D02*
X104648000Y-23368000D01*
%TO.N,F7*%
X125984000Y-32004000D02*
X129432312Y-32004000D01*
X129432312Y-32004000D02*
X130171272Y-31265040D01*
D27*
%TO.N,ST*%
X109629809Y33139367D02*
X106099209Y33139367D01*
X112000000Y27916667D02*
X112000000Y30769176D01*
X105156000Y34082576D02*
X105156000Y43092667D01*
X106099209Y33139367D02*
X105156000Y34082576D01*
X112000000Y30769176D02*
X109629809Y33139367D01*
X105156000Y43092667D02*
X106620000Y44556667D01*
%TO.N,F6*%
X114250000Y43966667D02*
X109650000Y43966667D01*
X107877300Y35653967D02*
X106620000Y34396667D01*
X109650000Y43966667D02*
X107877300Y42193967D01*
X107877300Y42193967D02*
X107877300Y35653967D01*
%TD*%
%TA.AperFunction,Conductor*%
%TO.N,E6*%
G36*
X91685992Y27082982D02*
G01*
X91689580Y27074320D01*
X91685864Y26884228D01*
X91669692Y26056900D01*
X91667748Y25957474D01*
X91664160Y25949270D01*
X91659354Y25946479D01*
X91488611Y25896224D01*
X91487561Y25895967D01*
X91434952Y25885639D01*
X91327263Y25864500D01*
X91326470Y25864373D01*
X91216505Y25850786D01*
X91180255Y25846307D01*
X91179872Y25846266D01*
X91043837Y25833986D01*
X90914352Y25819863D01*
X90914156Y25819826D01*
X90914153Y25819826D01*
X90788117Y25796312D01*
X90788115Y25796311D01*
X90787764Y25796246D01*
X90660233Y25755465D01*
X90527918Y25689852D01*
X90386976Y25591740D01*
X90242284Y25461314D01*
X90241821Y25460897D01*
X90233381Y25457903D01*
X90225714Y25461314D01*
X90064647Y25622381D01*
X90061220Y25630654D01*
X90064230Y25638488D01*
X90194828Y25783371D01*
X90194829Y25783373D01*
X90195073Y25783643D01*
X90293185Y25924585D01*
X90358798Y26056900D01*
X90399579Y26184431D01*
X90423196Y26311019D01*
X90437319Y26440504D01*
X90449599Y26576539D01*
X90449640Y26576922D01*
X90467704Y26723124D01*
X90467835Y26723943D01*
X90499300Y26884228D01*
X90499557Y26885278D01*
X90549812Y27056021D01*
X90555435Y27062989D01*
X90560805Y27064415D01*
X91308586Y27079033D01*
X91677653Y27086247D01*
X91685992Y27082982D01*
G37*
%TD.AperFunction*%
%TD*%
%TA.AperFunction,Conductor*%
%TO.N,D5*%
G36*
X20544205Y34421022D02*
G01*
X20705022Y34260205D01*
X20708449Y34251932D01*
X20705315Y34243963D01*
X20689914Y34227407D01*
X20651346Y34185949D01*
X20651201Y34185763D01*
X20651195Y34185756D01*
X20630845Y34159647D01*
X20604415Y34125737D01*
X20604252Y34125476D01*
X20604251Y34125474D01*
X20569760Y34070109D01*
X20569756Y34070102D01*
X20569583Y34069824D01*
X20544222Y34016449D01*
X20544121Y34016163D01*
X20544118Y34016155D01*
X20525784Y33964068D01*
X20525706Y33963846D01*
X20511407Y33910254D01*
X20511376Y33910116D01*
X20498700Y33853914D01*
X20498697Y33853910D01*
X20498699Y33853910D01*
X20484987Y33793202D01*
X20484899Y33792843D01*
X20467624Y33726217D01*
X20467458Y33725637D01*
X20446373Y33658747D01*
X20440617Y33651886D01*
X20435443Y33650566D01*
X19936744Y33640817D01*
X19928405Y33644082D01*
X19924817Y33652744D01*
X19934566Y34151443D01*
X19938154Y34159647D01*
X19942747Y34162373D01*
X20009637Y34183458D01*
X20010217Y34183624D01*
X20076843Y34200899D01*
X20077202Y34200987D01*
X20137910Y34214699D01*
X20137910Y34214698D01*
X20137914Y34214700D01*
X20194254Y34227407D01*
X20247846Y34241706D01*
X20248068Y34241784D01*
X20300155Y34260118D01*
X20300163Y34260121D01*
X20300449Y34260222D01*
X20353824Y34285583D01*
X20354102Y34285756D01*
X20354109Y34285760D01*
X20409474Y34320251D01*
X20409476Y34320252D01*
X20409737Y34320415D01*
X20409975Y34320601D01*
X20409980Y34320604D01*
X20469756Y34367195D01*
X20469763Y34367201D01*
X20469949Y34367346D01*
X20497318Y34392807D01*
X20527963Y34421315D01*
X20536354Y34424441D01*
X20544205Y34421022D01*
G37*
%TD.AperFunction*%
%TD*%
%TA.AperFunction,Conductor*%
%TO.N,D5*%
G36*
X96765992Y22002982D02*
G01*
X96769580Y21994320D01*
X96765864Y21804228D01*
X96749692Y20976900D01*
X96747748Y20877474D01*
X96744160Y20869270D01*
X96739354Y20866479D01*
X96568611Y20816224D01*
X96567561Y20815967D01*
X96514952Y20805639D01*
X96407263Y20784500D01*
X96406470Y20784373D01*
X96296505Y20770786D01*
X96260255Y20766307D01*
X96259872Y20766266D01*
X96123837Y20753986D01*
X95994352Y20739863D01*
X95994156Y20739826D01*
X95994153Y20739826D01*
X95868117Y20716312D01*
X95868115Y20716311D01*
X95867764Y20716246D01*
X95740233Y20675465D01*
X95607918Y20609852D01*
X95466976Y20511740D01*
X95322284Y20381314D01*
X95321821Y20380897D01*
X95313381Y20377903D01*
X95305714Y20381314D01*
X95144647Y20542381D01*
X95141220Y20550654D01*
X95144230Y20558488D01*
X95274828Y20703371D01*
X95274829Y20703373D01*
X95275073Y20703643D01*
X95373185Y20844585D01*
X95438798Y20976900D01*
X95479579Y21104431D01*
X95503196Y21231019D01*
X95517319Y21360504D01*
X95529599Y21496539D01*
X95529640Y21496922D01*
X95547704Y21643124D01*
X95547835Y21643943D01*
X95579300Y21804228D01*
X95579557Y21805278D01*
X95629812Y21976021D01*
X95635435Y21982989D01*
X95640805Y21984415D01*
X96388586Y21999033D01*
X96757653Y22006247D01*
X96765992Y22002982D01*
G37*
%TD.AperFunction*%
%TD*%
%TA.AperFunction,Conductor*%
%TO.N,B7*%
G36*
X20290205Y53725022D02*
G01*
X20451022Y53564205D01*
X20454449Y53555932D01*
X20451315Y53547963D01*
X20435914Y53531407D01*
X20397346Y53489949D01*
X20397201Y53489763D01*
X20397195Y53489756D01*
X20376845Y53463647D01*
X20350415Y53429737D01*
X20350252Y53429476D01*
X20350251Y53429474D01*
X20315760Y53374109D01*
X20315756Y53374102D01*
X20315583Y53373824D01*
X20290222Y53320449D01*
X20290121Y53320163D01*
X20290118Y53320155D01*
X20271784Y53268068D01*
X20271706Y53267846D01*
X20257407Y53214254D01*
X20257376Y53214116D01*
X20244700Y53157914D01*
X20244697Y53157910D01*
X20244699Y53157910D01*
X20230987Y53097202D01*
X20230899Y53096843D01*
X20213624Y53030217D01*
X20213458Y53029637D01*
X20192373Y52962747D01*
X20186617Y52955886D01*
X20181443Y52954566D01*
X19682744Y52944817D01*
X19674405Y52948082D01*
X19670817Y52956744D01*
X19680566Y53455443D01*
X19684154Y53463647D01*
X19688747Y53466373D01*
X19755637Y53487458D01*
X19756217Y53487624D01*
X19822843Y53504899D01*
X19823202Y53504987D01*
X19883910Y53518699D01*
X19883910Y53518698D01*
X19883914Y53518700D01*
X19940254Y53531407D01*
X19993846Y53545706D01*
X19994068Y53545784D01*
X20046155Y53564118D01*
X20046163Y53564121D01*
X20046449Y53564222D01*
X20099824Y53589583D01*
X20100102Y53589756D01*
X20100109Y53589760D01*
X20155474Y53624251D01*
X20155476Y53624252D01*
X20155737Y53624415D01*
X20155975Y53624601D01*
X20155980Y53624604D01*
X20215756Y53671195D01*
X20215763Y53671201D01*
X20215949Y53671346D01*
X20243318Y53696807D01*
X20273963Y53725315D01*
X20282354Y53728441D01*
X20290205Y53725022D01*
G37*
%TD.AperFunction*%
%TD*%
%TA.AperFunction,Conductor*%
%TO.N,B7*%
G36*
X93916410Y22114204D02*
G01*
X93920000Y22105771D01*
X93920000Y20829980D01*
X93916573Y20821707D01*
X93910570Y20818502D01*
X93831454Y20802856D01*
X93830356Y20801980D01*
X93830355Y20801980D01*
X93772752Y20756055D01*
X93772750Y20756053D01*
X93771841Y20755328D01*
X93771282Y20754306D01*
X93771282Y20754305D01*
X93764955Y20742722D01*
X93733579Y20685287D01*
X93709086Y20600237D01*
X93709038Y20599993D01*
X93690798Y20507771D01*
X93690764Y20507605D01*
X93671223Y20415788D01*
X93670866Y20414486D01*
X93642875Y20331462D01*
X93641617Y20328853D01*
X93598456Y20262014D01*
X93595240Y20258709D01*
X93529915Y20213951D01*
X93525299Y20212075D01*
X93495866Y20206976D01*
X93440421Y20197372D01*
X93431685Y20199336D01*
X93426897Y20206903D01*
X93426725Y20208900D01*
X93426725Y20434764D01*
X93430152Y20443037D01*
X93436870Y20446360D01*
X93533337Y20459293D01*
X93533339Y20459294D01*
X93534825Y20459493D01*
X93589330Y20500397D01*
X93590426Y20507683D01*
X93598665Y20562497D01*
X93598868Y20563848D01*
X93572068Y20645980D01*
X93517557Y20742931D01*
X93509800Y20754305D01*
X93476500Y20803128D01*
X93443963Y20850834D01*
X93359916Y20965827D01*
X93274171Y21083867D01*
X93273929Y21084213D01*
X93195226Y21201241D01*
X93194739Y21202032D01*
X93135596Y21307118D01*
X93134525Y21316008D01*
X93137359Y21320966D01*
X93899867Y22113881D01*
X93908071Y22117469D01*
X93916410Y22114204D01*
G37*
%TD.AperFunction*%
%TD*%
%TA.AperFunction,Conductor*%
%TO.N,E6*%
G36*
X40567881Y21437904D02*
G01*
X40612931Y21413388D01*
X40613619Y21412982D01*
X40662679Y21381764D01*
X40662942Y21381592D01*
X40679254Y21370586D01*
X40709722Y21350027D01*
X40754715Y21320867D01*
X40798532Y21296800D01*
X40841906Y21280433D01*
X40842553Y21280343D01*
X40842554Y21280343D01*
X40879366Y21275234D01*
X40884644Y21274502D01*
X40884730Y21274490D01*
X40885573Y21274373D01*
X40930264Y21281226D01*
X40976714Y21303600D01*
X41017454Y21337313D01*
X41026012Y21339947D01*
X41033186Y21336572D01*
X41193851Y21175907D01*
X41197278Y21167634D01*
X41193542Y21159063D01*
X41137432Y21106930D01*
X41136714Y21106315D01*
X41078102Y21060118D01*
X41077333Y21059562D01*
X41035873Y21032168D01*
X41023475Y21023976D01*
X41022741Y21023529D01*
X40972240Y20995255D01*
X40971757Y20995000D01*
X40931172Y20974749D01*
X40923185Y20970763D01*
X40923096Y20970719D01*
X40875268Y20947355D01*
X40827154Y20921738D01*
X40777543Y20890655D01*
X40725188Y20850872D01*
X40724991Y20850691D01*
X40675209Y20805002D01*
X40666797Y20801933D01*
X40661384Y20803527D01*
X40199338Y21074187D01*
X40193932Y21081325D01*
X40195157Y21090196D01*
X40197142Y21092715D01*
X40275049Y21167634D01*
X40554178Y21436060D01*
X40562517Y21439325D01*
X40567881Y21437904D01*
G37*
%TD.AperFunction*%
%TD*%
%TA.AperFunction,Conductor*%
%TO.N,C7*%
G36*
X20798213Y15634014D02*
G01*
X20959019Y15473208D01*
X20962446Y15464935D01*
X20959310Y15456963D01*
X20905308Y15398954D01*
X20905137Y15398770D01*
X20904984Y15398574D01*
X20858179Y15338635D01*
X20858174Y15338627D01*
X20857993Y15338396D01*
X20822980Y15282323D01*
X20797505Y15228774D01*
X20778979Y15175967D01*
X20764811Y15122125D01*
X20764783Y15121996D01*
X20752410Y15065467D01*
X20752390Y15065380D01*
X20739215Y15004355D01*
X20739140Y15004029D01*
X20722617Y14936871D01*
X20722466Y14936316D01*
X20702309Y14868857D01*
X20696657Y14861912D01*
X20691516Y14860514D01*
X20193026Y14842760D01*
X20184637Y14845891D01*
X20180910Y14854494D01*
X20180933Y14860813D01*
X20182033Y15175967D01*
X20182652Y15353290D01*
X20186108Y15361551D01*
X20190650Y15364348D01*
X20258268Y15386905D01*
X20258837Y15387079D01*
X20326084Y15405769D01*
X20326440Y15405862D01*
X20387613Y15420808D01*
X20387614Y15420805D01*
X20387623Y15420810D01*
X20424441Y15429770D01*
X20444264Y15434594D01*
X20444273Y15434596D01*
X20444403Y15434628D01*
X20498434Y15449939D01*
X20498626Y15450009D01*
X20498634Y15450012D01*
X20551226Y15469300D01*
X20551231Y15469302D01*
X20551506Y15469403D01*
X20551774Y15469533D01*
X20551782Y15469537D01*
X20605131Y15495538D01*
X20605140Y15495543D01*
X20605421Y15495680D01*
X20605683Y15495846D01*
X20605689Y15495849D01*
X20661732Y15531276D01*
X20661739Y15531281D01*
X20661978Y15531432D01*
X20722979Y15579319D01*
X20781656Y15634014D01*
X20781962Y15634299D01*
X20790351Y15637434D01*
X20798213Y15634014D01*
G37*
%TD.AperFunction*%
%TD*%
%TA.AperFunction,Conductor*%
%TO.N,D0*%
G36*
X40610205Y40263022D02*
G01*
X40771022Y40102205D01*
X40774449Y40093932D01*
X40771315Y40085963D01*
X40755914Y40069407D01*
X40717346Y40027949D01*
X40717201Y40027763D01*
X40717195Y40027756D01*
X40696845Y40001647D01*
X40670415Y39967737D01*
X40670252Y39967476D01*
X40670251Y39967474D01*
X40635760Y39912109D01*
X40635756Y39912102D01*
X40635583Y39911824D01*
X40610222Y39858449D01*
X40610121Y39858163D01*
X40610118Y39858155D01*
X40591784Y39806068D01*
X40591706Y39805846D01*
X40577407Y39752254D01*
X40577376Y39752116D01*
X40564700Y39695914D01*
X40564697Y39695910D01*
X40564699Y39695910D01*
X40550987Y39635202D01*
X40550899Y39634843D01*
X40533624Y39568217D01*
X40533458Y39567637D01*
X40512373Y39500747D01*
X40506617Y39493886D01*
X40501443Y39492566D01*
X40002744Y39482817D01*
X39994405Y39486082D01*
X39990817Y39494744D01*
X40000566Y39993443D01*
X40004154Y40001647D01*
X40008747Y40004373D01*
X40075637Y40025458D01*
X40076217Y40025624D01*
X40142843Y40042899D01*
X40143202Y40042987D01*
X40203910Y40056699D01*
X40203910Y40056698D01*
X40203914Y40056700D01*
X40260254Y40069407D01*
X40313846Y40083706D01*
X40314068Y40083784D01*
X40366155Y40102118D01*
X40366163Y40102121D01*
X40366449Y40102222D01*
X40419824Y40127583D01*
X40420102Y40127756D01*
X40420109Y40127760D01*
X40475474Y40162251D01*
X40475476Y40162252D01*
X40475737Y40162415D01*
X40475975Y40162601D01*
X40475980Y40162604D01*
X40535756Y40209195D01*
X40535763Y40209201D01*
X40535949Y40209346D01*
X40563318Y40234807D01*
X40593963Y40263315D01*
X40602354Y40266441D01*
X40610205Y40263022D01*
G37*
%TD.AperFunction*%
%TD*%
%TA.AperFunction,Conductor*%
%TO.N,D0*%
G36*
X90121575Y37968189D02*
G01*
X90190868Y37966582D01*
X90191453Y37966552D01*
X90351268Y37954588D01*
X90351868Y37954527D01*
X90488378Y37936898D01*
X90488902Y37936817D01*
X90568845Y37922578D01*
X90609125Y37915403D01*
X90609480Y37915334D01*
X90720497Y37891994D01*
X90720549Y37891983D01*
X90829288Y37868610D01*
X90829301Y37868607D01*
X90829368Y37868593D01*
X90829464Y37868575D01*
X90829483Y37868571D01*
X90942576Y37847132D01*
X90942740Y37847101D01*
X91067648Y37829401D01*
X91211074Y37817390D01*
X91297907Y37815116D01*
X91371209Y37813196D01*
X91379390Y37809554D01*
X91382222Y37804458D01*
X91565590Y37102449D01*
X91685911Y36641806D01*
X91684686Y36632935D01*
X91677548Y36627529D01*
X91674363Y36627151D01*
X90560980Y36648916D01*
X90552776Y36652504D01*
X90549924Y36657527D01*
X90510753Y36800738D01*
X90510492Y36801932D01*
X90485655Y36953400D01*
X90485566Y36954064D01*
X90469903Y37102358D01*
X90469893Y37102449D01*
X90456102Y37243577D01*
X90456090Y37243702D01*
X90436819Y37373674D01*
X90404706Y37488554D01*
X90404393Y37489128D01*
X90404391Y37489133D01*
X90352841Y37583686D01*
X90352378Y37584536D01*
X90272459Y37657810D01*
X90271495Y37658202D01*
X90271494Y37658203D01*
X90158345Y37704255D01*
X90158344Y37704255D01*
X90157578Y37704567D01*
X90010843Y37719904D01*
X90002971Y37724173D01*
X90000359Y37731541D01*
X90000359Y37959025D01*
X90003786Y37967298D01*
X90012330Y37970722D01*
X90121575Y37968189D01*
G37*
%TD.AperFunction*%
%TD*%
%TA.AperFunction,Conductor*%
%TO.N,D7*%
G36*
X41118205Y59313022D02*
G01*
X41279022Y59152205D01*
X41282449Y59143932D01*
X41279315Y59135963D01*
X41263914Y59119407D01*
X41225346Y59077949D01*
X41225201Y59077763D01*
X41225195Y59077756D01*
X41204845Y59051647D01*
X41178415Y59017737D01*
X41178252Y59017476D01*
X41178251Y59017474D01*
X41143760Y58962109D01*
X41143756Y58962102D01*
X41143583Y58961824D01*
X41118222Y58908449D01*
X41118121Y58908163D01*
X41118118Y58908155D01*
X41099784Y58856068D01*
X41099706Y58855846D01*
X41085407Y58802254D01*
X41085376Y58802116D01*
X41072700Y58745914D01*
X41072697Y58745910D01*
X41072699Y58745910D01*
X41058987Y58685202D01*
X41058899Y58684843D01*
X41041624Y58618217D01*
X41041458Y58617637D01*
X41020373Y58550747D01*
X41014617Y58543886D01*
X41009443Y58542566D01*
X40510744Y58532817D01*
X40502405Y58536082D01*
X40498817Y58544744D01*
X40508566Y59043443D01*
X40512154Y59051647D01*
X40516747Y59054373D01*
X40583637Y59075458D01*
X40584217Y59075624D01*
X40650843Y59092899D01*
X40651202Y59092987D01*
X40711910Y59106699D01*
X40711910Y59106698D01*
X40711914Y59106700D01*
X40768254Y59119407D01*
X40821846Y59133706D01*
X40822068Y59133784D01*
X40874155Y59152118D01*
X40874163Y59152121D01*
X40874449Y59152222D01*
X40927824Y59177583D01*
X40928102Y59177756D01*
X40928109Y59177760D01*
X40983474Y59212251D01*
X40983476Y59212252D01*
X40983737Y59212415D01*
X40983975Y59212601D01*
X40983980Y59212604D01*
X41043756Y59259195D01*
X41043763Y59259201D01*
X41043949Y59259346D01*
X41071318Y59284807D01*
X41101963Y59313315D01*
X41110354Y59316441D01*
X41118205Y59313022D01*
G37*
%TD.AperFunction*%
%TD*%
%TA.AperFunction,Conductor*%
%TO.N,D7*%
G36*
X92534286Y30632020D02*
G01*
X92695353Y30470953D01*
X92698780Y30462680D01*
X92695770Y30454847D01*
X92564926Y30309690D01*
X92466814Y30168748D01*
X92401201Y30036433D01*
X92360420Y29908902D01*
X92336803Y29782314D01*
X92336781Y29782108D01*
X92322680Y29652829D01*
X92310400Y29516794D01*
X92310359Y29516411D01*
X92292295Y29370209D01*
X92292164Y29369390D01*
X92260699Y29209105D01*
X92260442Y29208055D01*
X92210188Y29037313D01*
X92204565Y29030345D01*
X92199195Y29028919D01*
X91451414Y29014301D01*
X91082347Y29007087D01*
X91074008Y29010352D01*
X91070420Y29019014D01*
X91087809Y29908549D01*
X91092252Y30135861D01*
X91095840Y30144064D01*
X91100646Y30146855D01*
X91271388Y30197109D01*
X91272438Y30197366D01*
X91325047Y30207694D01*
X91432736Y30228833D01*
X91433529Y30228960D01*
X91543494Y30242547D01*
X91579744Y30247026D01*
X91580127Y30247067D01*
X91716162Y30259347D01*
X91845647Y30273470D01*
X91845843Y30273507D01*
X91845846Y30273507D01*
X91971882Y30297021D01*
X91971884Y30297022D01*
X91972235Y30297087D01*
X92099766Y30337868D01*
X92232081Y30403481D01*
X92373023Y30501593D01*
X92518180Y30632437D01*
X92526619Y30635431D01*
X92534286Y30632020D01*
G37*
%TD.AperFunction*%
%TD*%
%TA.AperFunction,Conductor*%
%TO.N,VCC*%
G36*
X110006234Y47682580D02*
G01*
X110146978Y47606119D01*
X110147872Y47605581D01*
X110270908Y47523764D01*
X110271553Y47523302D01*
X110377233Y47442186D01*
X110377511Y47441966D01*
X110431640Y47397747D01*
X110473188Y47363805D01*
X110565966Y47291100D01*
X110663016Y47226319D01*
X110663334Y47226159D01*
X110663340Y47226156D01*
X110771259Y47172016D01*
X110771640Y47171825D01*
X110772036Y47171695D01*
X110772041Y47171693D01*
X110898743Y47130108D01*
X110898747Y47130107D01*
X110899143Y47129977D01*
X111052828Y47103138D01*
X111189455Y47096225D01*
X111228891Y47094229D01*
X111236981Y47090388D01*
X111240000Y47082544D01*
X111240000Y46850790D01*
X111236573Y46842517D01*
X111228891Y46839105D01*
X111176126Y46836435D01*
X111052828Y46830195D01*
X110899143Y46803356D01*
X110898747Y46803226D01*
X110898743Y46803225D01*
X110772041Y46761640D01*
X110772036Y46761638D01*
X110771640Y46761508D01*
X110771261Y46761318D01*
X110771259Y46761317D01*
X110663340Y46707177D01*
X110663334Y46707174D01*
X110663016Y46707014D01*
X110565966Y46642233D01*
X110473188Y46569528D01*
X110473153Y46569499D01*
X110377511Y46491367D01*
X110377233Y46491147D01*
X110271553Y46410031D01*
X110270908Y46409569D01*
X110147872Y46327752D01*
X110146978Y46327214D01*
X110006234Y46250754D01*
X109997329Y46249816D01*
X109992539Y46252602D01*
X109931498Y46311303D01*
X109250000Y46966667D01*
X109536054Y47241752D01*
X109536055Y47241752D01*
X109992540Y47680732D01*
X110000878Y47683997D01*
X110006234Y47682580D01*
G37*
%TD.AperFunction*%
%TD*%
%TA.AperFunction,Conductor*%
%TO.N,VCC*%
G36*
X107772874Y43333432D02*
G01*
X107936765Y43169541D01*
X107940192Y43161268D01*
X107937181Y43153433D01*
X107806370Y43008374D01*
X107708180Y42867544D01*
X107642407Y42735349D01*
X107601411Y42607950D01*
X107577549Y42481503D01*
X107577523Y42481269D01*
X107571256Y42424874D01*
X107568816Y42418923D01*
X107538366Y42380297D01*
X107538046Y42379386D01*
X107538045Y42379384D01*
X107535867Y42373182D01*
X107534348Y42370257D01*
X107529966Y42364124D01*
X107529690Y42363201D01*
X107529689Y42363199D01*
X107514434Y42312190D01*
X107514264Y42311665D01*
X107502460Y42278052D01*
X107496284Y42260465D01*
X107495800Y42254876D01*
X107495800Y42251593D01*
X107495309Y42248241D01*
X107493575Y42242443D01*
X107493613Y42241474D01*
X107493613Y42241473D01*
X107495791Y42186050D01*
X107495800Y42185591D01*
X107495800Y41893818D01*
X107495323Y41890512D01*
X107450190Y41737311D01*
X107444565Y41730343D01*
X107439198Y41728919D01*
X106657794Y41713644D01*
X106322347Y41707087D01*
X106314008Y41710352D01*
X106310420Y41719014D01*
X106322797Y42352166D01*
X106332252Y42835864D01*
X106335840Y42844067D01*
X106340643Y42846857D01*
X106511222Y42897110D01*
X106512253Y42897362D01*
X106672394Y42928932D01*
X106673183Y42929059D01*
X106748346Y42938446D01*
X106819242Y42947300D01*
X106819620Y42947341D01*
X106955406Y42959836D01*
X106955435Y42959839D01*
X106955499Y42959845D01*
X106955574Y42959853D01*
X107084602Y42974190D01*
X107084836Y42974216D01*
X107158549Y42988126D01*
X107210930Y42998011D01*
X107210936Y42998012D01*
X107211283Y42998078D01*
X107338682Y43039074D01*
X107470877Y43104847D01*
X107611707Y43203037D01*
X107704243Y43286484D01*
X107756766Y43333848D01*
X107765204Y43336843D01*
X107772874Y43333432D01*
G37*
%TD.AperFunction*%
%TD*%
%TA.AperFunction,Conductor*%
%TO.N,VCC*%
G36*
X109914815Y46327346D02*
G01*
X109914772Y46325139D01*
X109912707Y46219534D01*
X109909119Y46211330D01*
X109904329Y46208544D01*
X109750737Y46163086D01*
X109749725Y46162835D01*
X109604887Y46133692D01*
X109604104Y46133562D01*
X109472011Y46116192D01*
X109471659Y46116151D01*
X109348832Y46103775D01*
X109348799Y46103771D01*
X109348737Y46103765D01*
X109231722Y46089572D01*
X109231513Y46089530D01*
X109231511Y46089530D01*
X109117645Y46066826D01*
X109117639Y46066824D01*
X109117291Y46066755D01*
X109001949Y46028479D01*
X108882201Y45967912D01*
X108754551Y45878218D01*
X108754281Y45877974D01*
X108623756Y45760023D01*
X108615321Y45757019D01*
X108607639Y45760431D01*
X108443764Y45924306D01*
X108440337Y45932579D01*
X108443356Y45940423D01*
X108523049Y46028611D01*
X108561551Y46071218D01*
X108651245Y46198868D01*
X108711812Y46318616D01*
X108750088Y46433958D01*
X108772905Y46548389D01*
X108787098Y46665404D01*
X108799484Y46788326D01*
X108799525Y46788678D01*
X108816895Y46920771D01*
X108817025Y46921554D01*
X108846168Y47066392D01*
X108846419Y47067404D01*
X108891877Y47220996D01*
X108897511Y47227957D01*
X108902867Y47229374D01*
X109344201Y47238002D01*
X109536055Y47241752D01*
X109932842Y47249509D01*
X109914815Y46327346D01*
G37*
%TD.AperFunction*%
%TD*%
%TA.AperFunction,Conductor*%
%TO.N,B6*%
G36*
X224205Y3433022D02*
G01*
X385022Y3272205D01*
X388449Y3263932D01*
X385315Y3255963D01*
X369914Y3239407D01*
X331346Y3197949D01*
X331201Y3197763D01*
X331195Y3197756D01*
X310845Y3171647D01*
X284415Y3137737D01*
X284252Y3137476D01*
X284251Y3137474D01*
X249760Y3082109D01*
X249756Y3082102D01*
X249583Y3081824D01*
X224222Y3028449D01*
X224121Y3028163D01*
X224118Y3028155D01*
X205784Y2976068D01*
X205706Y2975846D01*
X191407Y2922254D01*
X191376Y2922116D01*
X178700Y2865914D01*
X178697Y2865910D01*
X178699Y2865910D01*
X164987Y2805202D01*
X164899Y2804843D01*
X147624Y2738217D01*
X147458Y2737637D01*
X126373Y2670747D01*
X120617Y2663886D01*
X115443Y2662566D01*
X-383256Y2652817D01*
X-391595Y2656082D01*
X-395183Y2664744D01*
X-385434Y3163443D01*
X-381846Y3171647D01*
X-377253Y3174373D01*
X-310367Y3195457D01*
X-309811Y3195617D01*
X-243130Y3212906D01*
X-242797Y3212987D01*
X-182089Y3226699D01*
X-182089Y3226698D01*
X-182085Y3226700D01*
X-125745Y3239407D01*
X-72153Y3253706D01*
X-71931Y3253784D01*
X-19844Y3272118D01*
X-19836Y3272121D01*
X-19550Y3272222D01*
X33824Y3297583D01*
X34102Y3297756D01*
X34109Y3297760D01*
X89474Y3332251D01*
X89476Y3332252D01*
X89737Y3332415D01*
X89975Y3332601D01*
X89980Y3332604D01*
X149756Y3379195D01*
X149763Y3379201D01*
X149949Y3379346D01*
X177318Y3404807D01*
X207963Y3433315D01*
X216354Y3436441D01*
X224205Y3433022D01*
G37*
%TD.AperFunction*%
%TD*%
%TA.AperFunction,Conductor*%
%TO.N,B6*%
G36*
X106925992Y22002982D02*
G01*
X106929580Y21994320D01*
X106925864Y21804228D01*
X106909692Y20976900D01*
X106907748Y20877474D01*
X106904160Y20869270D01*
X106899354Y20866479D01*
X106728611Y20816224D01*
X106727561Y20815967D01*
X106674952Y20805639D01*
X106567263Y20784500D01*
X106566470Y20784373D01*
X106456505Y20770786D01*
X106420255Y20766307D01*
X106419872Y20766266D01*
X106283837Y20753986D01*
X106154352Y20739863D01*
X106154156Y20739826D01*
X106154153Y20739826D01*
X106028117Y20716312D01*
X106028115Y20716311D01*
X106027764Y20716246D01*
X105900233Y20675465D01*
X105767918Y20609852D01*
X105626976Y20511740D01*
X105482284Y20381314D01*
X105481821Y20380897D01*
X105473381Y20377903D01*
X105465714Y20381314D01*
X105304647Y20542381D01*
X105301220Y20550654D01*
X105304230Y20558488D01*
X105434828Y20703371D01*
X105434829Y20703373D01*
X105435073Y20703643D01*
X105533185Y20844585D01*
X105598798Y20976900D01*
X105639579Y21104431D01*
X105663196Y21231019D01*
X105677319Y21360504D01*
X105689599Y21496539D01*
X105689640Y21496922D01*
X105707704Y21643124D01*
X105707835Y21643943D01*
X105739300Y21804228D01*
X105739557Y21805278D01*
X105789812Y21976021D01*
X105795435Y21982989D01*
X105800805Y21984415D01*
X106548586Y21999033D01*
X106917653Y22006247D01*
X106925992Y22002982D01*
G37*
%TD.AperFunction*%
%TD*%
%TA.AperFunction,Conductor*%
%TO.N,B4*%
G36*
X91004211Y25019393D02*
G01*
X91699718Y24350558D01*
X91809381Y24245100D01*
X91812969Y24236896D01*
X91809381Y24228234D01*
X91186713Y23629444D01*
X91004211Y23453941D01*
X90995872Y23450676D01*
X90990501Y23452102D01*
X90834232Y23537299D01*
X90833313Y23537856D01*
X90697709Y23628957D01*
X90697038Y23629444D01*
X90580894Y23720044D01*
X90580594Y23720286D01*
X90543678Y23751089D01*
X90475720Y23807793D01*
X90374174Y23889367D01*
X90267963Y23962178D01*
X90267639Y23962345D01*
X90149335Y24023321D01*
X90149330Y24023323D01*
X90148948Y24023520D01*
X90008992Y24070686D01*
X89996858Y24072860D01*
X89840315Y24100906D01*
X89840307Y24100907D01*
X89839955Y24100970D01*
X89773414Y24104421D01*
X89644794Y24111092D01*
X89636709Y24114942D01*
X89633700Y24122776D01*
X89633700Y24350558D01*
X89637127Y24358831D01*
X89644794Y24362242D01*
X89766779Y24368568D01*
X89839955Y24372363D01*
X89840307Y24372426D01*
X89840315Y24372427D01*
X90008562Y24402570D01*
X90008992Y24402647D01*
X90148948Y24449813D01*
X90149330Y24450010D01*
X90149335Y24450012D01*
X90267639Y24510988D01*
X90267963Y24511155D01*
X90374174Y24583966D01*
X90475720Y24665540D01*
X90580594Y24753047D01*
X90580894Y24753289D01*
X90697038Y24843889D01*
X90697709Y24844376D01*
X90833313Y24935477D01*
X90834232Y24936034D01*
X90990501Y25021232D01*
X90999405Y25022184D01*
X91004211Y25019393D01*
G37*
%TD.AperFunction*%
%TD*%
%TA.AperFunction,Conductor*%
%TO.N,F0*%
G36*
X104385992Y22002982D02*
G01*
X104389580Y21994320D01*
X104385864Y21804228D01*
X104369692Y20976900D01*
X104367748Y20877474D01*
X104364160Y20869270D01*
X104359354Y20866479D01*
X104188611Y20816224D01*
X104187561Y20815967D01*
X104134952Y20805639D01*
X104027263Y20784500D01*
X104026470Y20784373D01*
X103916505Y20770786D01*
X103880255Y20766307D01*
X103879872Y20766266D01*
X103743837Y20753986D01*
X103614352Y20739863D01*
X103614156Y20739826D01*
X103614153Y20739826D01*
X103488117Y20716312D01*
X103488115Y20716311D01*
X103487764Y20716246D01*
X103360233Y20675465D01*
X103227918Y20609852D01*
X103086976Y20511740D01*
X102942284Y20381314D01*
X102941821Y20380897D01*
X102933381Y20377903D01*
X102925714Y20381314D01*
X102764647Y20542381D01*
X102761220Y20550654D01*
X102764230Y20558488D01*
X102894828Y20703371D01*
X102894829Y20703373D01*
X102895073Y20703643D01*
X102993185Y20844585D01*
X103058798Y20976900D01*
X103099579Y21104431D01*
X103123196Y21231019D01*
X103137319Y21360504D01*
X103149599Y21496539D01*
X103149640Y21496922D01*
X103167704Y21643124D01*
X103167835Y21643943D01*
X103199300Y21804228D01*
X103199557Y21805278D01*
X103249812Y21976021D01*
X103255435Y21982989D01*
X103260805Y21984415D01*
X104008586Y21999033D01*
X104377653Y22006247D01*
X104385992Y22002982D01*
G37*
%TD.AperFunction*%
%TD*%
%TA.AperFunction,Conductor*%
%TO.N,F0*%
G36*
X224205Y22483022D02*
G01*
X385022Y22322205D01*
X388449Y22313932D01*
X385315Y22305963D01*
X369914Y22289407D01*
X331346Y22247949D01*
X331201Y22247763D01*
X331195Y22247756D01*
X310845Y22221647D01*
X284415Y22187737D01*
X284252Y22187476D01*
X284251Y22187474D01*
X249760Y22132109D01*
X249756Y22132102D01*
X249583Y22131824D01*
X224222Y22078449D01*
X224121Y22078163D01*
X224118Y22078155D01*
X205784Y22026068D01*
X205706Y22025846D01*
X191407Y21972254D01*
X191376Y21972116D01*
X178700Y21915914D01*
X178697Y21915910D01*
X178699Y21915910D01*
X164987Y21855202D01*
X164899Y21854843D01*
X147624Y21788217D01*
X147458Y21787637D01*
X126373Y21720747D01*
X120617Y21713886D01*
X115443Y21712566D01*
X-383256Y21702817D01*
X-391595Y21706082D01*
X-395183Y21714744D01*
X-385434Y22213443D01*
X-381846Y22221647D01*
X-377253Y22224373D01*
X-310367Y22245457D01*
X-309811Y22245617D01*
X-243130Y22262906D01*
X-242797Y22262987D01*
X-182089Y22276699D01*
X-182089Y22276698D01*
X-182085Y22276700D01*
X-125745Y22289407D01*
X-72153Y22303706D01*
X-71931Y22303784D01*
X-19844Y22322118D01*
X-19836Y22322121D01*
X-19550Y22322222D01*
X33824Y22347583D01*
X34102Y22347756D01*
X34109Y22347760D01*
X89474Y22382251D01*
X89476Y22382252D01*
X89737Y22382415D01*
X89975Y22382601D01*
X89980Y22382604D01*
X149756Y22429195D01*
X149763Y22429201D01*
X149949Y22429346D01*
X177318Y22454807D01*
X207963Y22483315D01*
X216354Y22486441D01*
X224205Y22483022D01*
G37*
%TD.AperFunction*%
%TD*%
%TA.AperFunction,Conductor*%
%TO.N,F1*%
G36*
X101845992Y22002982D02*
G01*
X101849580Y21994320D01*
X101845864Y21804228D01*
X101829692Y20976900D01*
X101827748Y20877474D01*
X101824160Y20869270D01*
X101819354Y20866479D01*
X101648611Y20816224D01*
X101647561Y20815967D01*
X101594952Y20805639D01*
X101487263Y20784500D01*
X101486470Y20784373D01*
X101376505Y20770786D01*
X101340255Y20766307D01*
X101339872Y20766266D01*
X101203837Y20753986D01*
X101074352Y20739863D01*
X101074156Y20739826D01*
X101074153Y20739826D01*
X100948117Y20716312D01*
X100948115Y20716311D01*
X100947764Y20716246D01*
X100820233Y20675465D01*
X100687918Y20609852D01*
X100546976Y20511740D01*
X100402284Y20381314D01*
X100401821Y20380897D01*
X100393381Y20377903D01*
X100385714Y20381314D01*
X100224647Y20542381D01*
X100221220Y20550654D01*
X100224230Y20558488D01*
X100354828Y20703371D01*
X100354829Y20703373D01*
X100355073Y20703643D01*
X100453185Y20844585D01*
X100518798Y20976900D01*
X100559579Y21104431D01*
X100583196Y21231019D01*
X100597319Y21360504D01*
X100609599Y21496539D01*
X100609640Y21496922D01*
X100627704Y21643124D01*
X100627835Y21643943D01*
X100659300Y21804228D01*
X100659557Y21805278D01*
X100709812Y21976021D01*
X100715435Y21982989D01*
X100720805Y21984415D01*
X101468586Y21999033D01*
X101837653Y22006247D01*
X101845992Y22002982D01*
G37*
%TD.AperFunction*%
%TD*%
%TA.AperFunction,Conductor*%
%TO.N,F1*%
G36*
X-71969Y41503395D02*
G01*
X-18846Y41471524D01*
X-17518Y41470597D01*
X37419Y41426272D01*
X38129Y41425650D01*
X89316Y41377038D01*
X89532Y41376827D01*
X138004Y41328335D01*
X184810Y41284479D01*
X231095Y41249705D01*
X231677Y41249441D01*
X231678Y41249440D01*
X277174Y41228771D01*
X277176Y41228771D01*
X278119Y41228342D01*
X302266Y41226557D01*
X325933Y41224807D01*
X325935Y41224807D01*
X327143Y41224718D01*
X379426Y41243164D01*
X380184Y41243762D01*
X380187Y41243764D01*
X428066Y41281560D01*
X436683Y41283997D01*
X443588Y41280650D01*
X604066Y41120172D01*
X607493Y41111899D01*
X603400Y41103010D01*
X548142Y41055721D01*
X546486Y41054536D01*
X485469Y41018491D01*
X483607Y41017603D01*
X424997Y40995743D01*
X423352Y40995263D01*
X366214Y40983058D01*
X365211Y40982891D01*
X308782Y40975980D01*
X308612Y40975961D01*
X252657Y40969965D01*
X221476Y40964600D01*
X197509Y40960476D01*
X197506Y40960475D01*
X197121Y40960409D01*
X141620Y40942775D01*
X141134Y40942512D01*
X141131Y40942511D01*
X86198Y40912812D01*
X85684Y40912534D01*
X85238Y40912162D01*
X35155Y40870420D01*
X26606Y40867756D01*
X21750Y40869313D01*
X-440662Y41140187D01*
X-446068Y41147325D01*
X-444843Y41156196D01*
X-442858Y41158715D01*
X-374223Y41224718D01*
X-86097Y41501795D01*
X-77759Y41505060D01*
X-71969Y41503395D01*
G37*
%TD.AperFunction*%
%TD*%
%TA.AperFunction,Conductor*%
%TO.N,C7*%
G36*
X99305992Y22002982D02*
G01*
X99309580Y21994320D01*
X99305864Y21804228D01*
X99289692Y20976900D01*
X99287748Y20877474D01*
X99284160Y20869270D01*
X99279354Y20866479D01*
X99108611Y20816224D01*
X99107561Y20815967D01*
X99054952Y20805639D01*
X98947263Y20784500D01*
X98946470Y20784373D01*
X98836505Y20770786D01*
X98800255Y20766307D01*
X98799872Y20766266D01*
X98663837Y20753986D01*
X98534352Y20739863D01*
X98534156Y20739826D01*
X98534153Y20739826D01*
X98408117Y20716312D01*
X98408115Y20716311D01*
X98407764Y20716246D01*
X98280233Y20675465D01*
X98147918Y20609852D01*
X98006976Y20511740D01*
X97862284Y20381314D01*
X97861821Y20380897D01*
X97853381Y20377903D01*
X97845714Y20381314D01*
X97684647Y20542381D01*
X97681220Y20550654D01*
X97684230Y20558488D01*
X97814828Y20703371D01*
X97814829Y20703373D01*
X97815073Y20703643D01*
X97913185Y20844585D01*
X97978798Y20976900D01*
X98019579Y21104431D01*
X98043196Y21231019D01*
X98057319Y21360504D01*
X98069599Y21496539D01*
X98069640Y21496922D01*
X98087704Y21643124D01*
X98087835Y21643943D01*
X98119300Y21804228D01*
X98119557Y21805278D01*
X98169812Y21976021D01*
X98175435Y21982989D01*
X98180805Y21984415D01*
X98928586Y21999033D01*
X99297653Y22006247D01*
X99305992Y22002982D01*
G37*
%TD.AperFunction*%
%TD*%
%TA.AperFunction,Conductor*%
%TO.N,F4*%
G36*
X83126743Y-19032051D02*
G01*
X83287550Y-19192858D01*
X83290977Y-19201131D01*
X83287770Y-19209179D01*
X83223658Y-19276838D01*
X83166772Y-19344679D01*
X83121607Y-19406289D01*
X83084827Y-19463519D01*
X83053094Y-19518223D01*
X83023149Y-19572119D01*
X83023073Y-19572255D01*
X82991544Y-19627260D01*
X82991299Y-19627668D01*
X82954994Y-19685429D01*
X82954622Y-19685985D01*
X82910113Y-19748551D01*
X82909674Y-19749129D01*
X82858647Y-19812182D01*
X82850780Y-19816457D01*
X82845475Y-19815787D01*
X82377964Y-19641928D01*
X82371405Y-19635834D01*
X82371245Y-19626459D01*
X82488826Y-19344531D01*
X82563280Y-19166008D01*
X82569627Y-19159692D01*
X82574772Y-19158833D01*
X82604784Y-19160615D01*
X82635386Y-19162433D01*
X82635580Y-19162447D01*
X82697812Y-19167517D01*
X82697883Y-19167522D01*
X82697903Y-19167524D01*
X82743379Y-19170897D01*
X82754817Y-19171746D01*
X82807857Y-19173300D01*
X82808112Y-19173285D01*
X82808120Y-19173285D01*
X82857917Y-19170373D01*
X82857922Y-19170372D01*
X82858288Y-19170351D01*
X82858654Y-19170282D01*
X82907026Y-19161158D01*
X82907031Y-19161157D01*
X82907469Y-19161074D01*
X82907890Y-19160925D01*
X82907894Y-19160924D01*
X82926874Y-19154210D01*
X82956756Y-19143640D01*
X83007507Y-19116223D01*
X83061078Y-19076997D01*
X83072728Y-19066333D01*
X83110570Y-19031694D01*
X83118987Y-19028635D01*
X83126743Y-19032051D01*
G37*
%TD.AperFunction*%
%TD*%
%TA.AperFunction,Conductor*%
%TO.N,F5*%
G36*
X104829808Y-23011881D02*
G01*
X104884828Y-23040527D01*
X104892005Y-23044263D01*
X104892534Y-23044556D01*
X104951938Y-23079496D01*
X104952214Y-23079666D01*
X105004809Y-23112881D01*
X105004811Y-23112884D01*
X105004812Y-23112883D01*
X105053640Y-23143738D01*
X105101647Y-23171523D01*
X105101849Y-23171620D01*
X105101855Y-23171623D01*
X105132233Y-23186182D01*
X105151935Y-23195625D01*
X105207610Y-23215435D01*
X105207931Y-23215509D01*
X105207929Y-23215509D01*
X105271475Y-23230271D01*
X105271478Y-23230271D01*
X105271777Y-23230341D01*
X105272086Y-23230379D01*
X105272090Y-23230380D01*
X105316113Y-23235837D01*
X105347538Y-23239733D01*
X105394068Y-23241413D01*
X105426722Y-23242593D01*
X105434866Y-23246316D01*
X105438000Y-23254285D01*
X105438000Y-23481715D01*
X105434573Y-23489988D01*
X105426722Y-23493407D01*
X105403541Y-23494244D01*
X105347538Y-23496266D01*
X105316113Y-23500162D01*
X105272090Y-23505619D01*
X105272086Y-23505620D01*
X105271777Y-23505658D01*
X105271478Y-23505728D01*
X105271475Y-23505728D01*
X105233442Y-23514563D01*
X105207610Y-23520564D01*
X105151935Y-23540374D01*
X105151660Y-23540506D01*
X105101855Y-23564376D01*
X105101849Y-23564379D01*
X105101647Y-23564476D01*
X105053640Y-23592261D01*
X105004812Y-23623116D01*
X104952214Y-23656333D01*
X104951938Y-23656503D01*
X104901260Y-23686311D01*
X104892534Y-23691443D01*
X104892005Y-23691736D01*
X104829809Y-23724119D01*
X104820889Y-23724900D01*
X104816298Y-23722175D01*
X104456769Y-23376433D01*
X104453181Y-23368229D01*
X104456769Y-23359567D01*
X104816297Y-23013826D01*
X104824636Y-23010561D01*
X104829808Y-23011881D01*
G37*
%TD.AperFunction*%
%TD*%
%TA.AperFunction,Conductor*%
%TO.N,F7*%
G36*
X126165808Y-31647881D02*
G01*
X126220828Y-31676527D01*
X126228005Y-31680263D01*
X126228534Y-31680556D01*
X126287938Y-31715496D01*
X126288214Y-31715666D01*
X126340809Y-31748881D01*
X126340811Y-31748884D01*
X126340812Y-31748883D01*
X126389640Y-31779738D01*
X126437647Y-31807523D01*
X126437849Y-31807620D01*
X126437855Y-31807623D01*
X126468233Y-31822182D01*
X126487935Y-31831625D01*
X126543610Y-31851435D01*
X126543931Y-31851509D01*
X126543929Y-31851509D01*
X126607475Y-31866271D01*
X126607478Y-31866271D01*
X126607777Y-31866341D01*
X126608086Y-31866379D01*
X126608090Y-31866380D01*
X126652113Y-31871837D01*
X126683538Y-31875733D01*
X126730068Y-31877413D01*
X126762722Y-31878593D01*
X126770866Y-31882316D01*
X126774000Y-31890285D01*
X126774000Y-32117715D01*
X126770573Y-32125988D01*
X126762722Y-32129407D01*
X126739541Y-32130244D01*
X126683538Y-32132266D01*
X126652113Y-32136162D01*
X126608090Y-32141619D01*
X126608086Y-32141620D01*
X126607777Y-32141658D01*
X126607478Y-32141728D01*
X126607475Y-32141728D01*
X126569442Y-32150563D01*
X126543610Y-32156564D01*
X126487935Y-32176374D01*
X126487660Y-32176506D01*
X126437855Y-32200376D01*
X126437849Y-32200379D01*
X126437647Y-32200476D01*
X126389640Y-32228261D01*
X126340812Y-32259116D01*
X126288214Y-32292333D01*
X126287938Y-32292503D01*
X126237260Y-32322311D01*
X126228534Y-32327443D01*
X126228005Y-32327736D01*
X126165809Y-32360119D01*
X126156889Y-32360900D01*
X126152298Y-32358175D01*
X125792769Y-32012433D01*
X125789181Y-32004229D01*
X125792769Y-31995567D01*
X126152297Y-31649826D01*
X126160636Y-31646561D01*
X126165808Y-31647881D01*
G37*
%TD.AperFunction*%
%TD*%
%TA.AperFunction,Conductor*%
%TO.N,D2*%
G36*
X90284248Y48467289D02*
G01*
X90359361Y48399315D01*
X90434093Y48331685D01*
X90434372Y48331488D01*
X90434375Y48331485D01*
X90578687Y48229304D01*
X90578691Y48229302D01*
X90579018Y48229070D01*
X90650903Y48191868D01*
X90714304Y48159056D01*
X90714307Y48159055D01*
X90714662Y48158871D01*
X90715038Y48158739D01*
X90715042Y48158737D01*
X90759664Y48143038D01*
X90844919Y48113043D01*
X90845235Y48112971D01*
X90845237Y48112970D01*
X90973522Y48083580D01*
X90973528Y48083579D01*
X90973680Y48083544D01*
X90973836Y48083519D01*
X90973845Y48083517D01*
X91104840Y48062330D01*
X91242060Y48041393D01*
X91242512Y48041315D01*
X91389478Y48012671D01*
X91390350Y48012467D01*
X91551113Y47968110D01*
X91552157Y47967767D01*
X91625164Y47939932D01*
X91723302Y47902516D01*
X91729812Y47896367D01*
X91730814Y47890899D01*
X91665401Y46775756D01*
X91661495Y46767698D01*
X91652580Y46764797D01*
X91012726Y46827500D01*
X90540828Y46873744D01*
X90532929Y46877961D01*
X90530527Y46882949D01*
X90494020Y47054216D01*
X90493853Y47055210D01*
X90473860Y47215846D01*
X90473792Y47216568D01*
X90464742Y47362839D01*
X90464729Y47363104D01*
X90459413Y47498656D01*
X90459410Y47498739D01*
X90450570Y47627403D01*
X90430945Y47752778D01*
X90393267Y47878693D01*
X90330265Y48008978D01*
X90234672Y48147464D01*
X90234426Y48147737D01*
X90234420Y48147745D01*
X90106643Y48289730D01*
X90103656Y48298172D01*
X90107067Y48305830D01*
X90268124Y48466887D01*
X90276397Y48470314D01*
X90284248Y48467289D01*
G37*
%TD.AperFunction*%
%TD*%
%TA.AperFunction,Conductor*%
%TO.N,ST*%
G36*
X112124182Y29903240D02*
G01*
X112127592Y29895592D01*
X112139600Y29670933D01*
X112175235Y29478172D01*
X112230660Y29318963D01*
X112230869Y29318570D01*
X112230872Y29318564D01*
X112272561Y29240315D01*
X112302626Y29183884D01*
X112387889Y29063514D01*
X112388022Y29063354D01*
X112483200Y28948432D01*
X112585167Y28829387D01*
X112585436Y28829062D01*
X112690713Y28696784D01*
X112691231Y28696080D01*
X112796642Y28541168D01*
X112797231Y28540206D01*
X112895873Y28360092D01*
X112896841Y28351190D01*
X112894044Y28346362D01*
X112008433Y27425436D01*
X112000229Y27421848D01*
X111991567Y27425436D01*
X111105956Y28346362D01*
X111102691Y28354701D01*
X111104127Y28360092D01*
X111202768Y28540206D01*
X111203357Y28541168D01*
X111308768Y28696080D01*
X111309286Y28696784D01*
X111414563Y28829062D01*
X111414832Y28829387D01*
X111516799Y28948432D01*
X111611977Y29063354D01*
X111612110Y29063514D01*
X111697373Y29183884D01*
X111727438Y29240315D01*
X111769127Y29318564D01*
X111769130Y29318570D01*
X111769339Y29318963D01*
X111824764Y29478172D01*
X111860399Y29670933D01*
X111872408Y29895592D01*
X111876271Y29903670D01*
X111884091Y29906667D01*
X112115909Y29906667D01*
X112124182Y29903240D01*
G37*
%TD.AperFunction*%
%TD*%
%TA.AperFunction,Conductor*%
%TO.N,ST*%
G36*
X106925992Y44862982D02*
G01*
X106929580Y44854320D01*
X106925888Y44665450D01*
X106909713Y43837984D01*
X106907748Y43737471D01*
X106904160Y43729267D01*
X106899357Y43726477D01*
X106728777Y43676223D01*
X106727746Y43675971D01*
X106567605Y43644401D01*
X106566816Y43644274D01*
X106491653Y43634887D01*
X106420757Y43626033D01*
X106420379Y43625992D01*
X106284593Y43613497D01*
X106284564Y43613494D01*
X106284500Y43613488D01*
X106284425Y43613480D01*
X106155552Y43599160D01*
X106155163Y43599117D01*
X106081450Y43585207D01*
X106029069Y43575322D01*
X106029063Y43575321D01*
X106028716Y43575255D01*
X105901317Y43534259D01*
X105769122Y43468486D01*
X105628292Y43370296D01*
X105536181Y43287232D01*
X105483234Y43239486D01*
X105474796Y43236491D01*
X105467126Y43239902D01*
X105303235Y43403793D01*
X105299808Y43412066D01*
X105302819Y43419901D01*
X105350565Y43472848D01*
X105433629Y43564959D01*
X105531819Y43705789D01*
X105597592Y43837984D01*
X105638588Y43965383D01*
X105662450Y44091830D01*
X105676821Y44221167D01*
X105689325Y44357046D01*
X105689366Y44357424D01*
X105707605Y44503471D01*
X105707736Y44504284D01*
X105739302Y44664407D01*
X105739558Y44665450D01*
X105789810Y44836023D01*
X105795435Y44842991D01*
X105800802Y44844415D01*
X106582206Y44859690D01*
X106917653Y44866247D01*
X106925992Y44862982D01*
G37*
%TD.AperFunction*%
%TD*%
%TA.AperFunction,Conductor*%
%TO.N,F6*%
G36*
X113907460Y44680732D02*
G01*
X114641231Y43975100D01*
X114644819Y43966896D01*
X114641231Y43958234D01*
X113985608Y43327752D01*
X113907461Y43252602D01*
X113899122Y43249337D01*
X113893766Y43250754D01*
X113753021Y43327214D01*
X113752127Y43327752D01*
X113629091Y43409569D01*
X113628446Y43410031D01*
X113522766Y43491147D01*
X113522488Y43491367D01*
X113426846Y43569499D01*
X113426811Y43569528D01*
X113334033Y43642233D01*
X113236983Y43707014D01*
X113236665Y43707174D01*
X113236659Y43707177D01*
X113128740Y43761317D01*
X113128738Y43761318D01*
X113128359Y43761508D01*
X113127963Y43761638D01*
X113127958Y43761640D01*
X113001256Y43803225D01*
X113001252Y43803226D01*
X113000856Y43803356D01*
X112847171Y43830195D01*
X112724476Y43836404D01*
X112671109Y43839105D01*
X112663019Y43842946D01*
X112660000Y43850790D01*
X112660000Y44082544D01*
X112663427Y44090817D01*
X112671109Y44094229D01*
X112711292Y44096262D01*
X112847171Y44103138D01*
X113000856Y44129977D01*
X113001252Y44130107D01*
X113001256Y44130108D01*
X113127958Y44171693D01*
X113127963Y44171695D01*
X113128359Y44171825D01*
X113128740Y44172016D01*
X113236659Y44226156D01*
X113236665Y44226159D01*
X113236983Y44226319D01*
X113334033Y44291100D01*
X113426811Y44363805D01*
X113468359Y44397747D01*
X113522488Y44441966D01*
X113522766Y44442186D01*
X113628446Y44523302D01*
X113629091Y44523764D01*
X113752127Y44605581D01*
X113753021Y44606119D01*
X113893766Y44682580D01*
X113902671Y44683518D01*
X113907460Y44680732D01*
G37*
%TD.AperFunction*%
%TD*%
%TA.AperFunction,Conductor*%
%TO.N,F6*%
G36*
X110006234Y44682580D02*
G01*
X110146978Y44606119D01*
X110147872Y44605581D01*
X110270908Y44523764D01*
X110271553Y44523302D01*
X110377233Y44442186D01*
X110377511Y44441966D01*
X110431640Y44397747D01*
X110473188Y44363805D01*
X110565966Y44291100D01*
X110663016Y44226319D01*
X110663334Y44226159D01*
X110663340Y44226156D01*
X110771259Y44172016D01*
X110771640Y44171825D01*
X110772036Y44171695D01*
X110772041Y44171693D01*
X110898743Y44130108D01*
X110898747Y44130107D01*
X110899143Y44129977D01*
X111052828Y44103138D01*
X111189455Y44096225D01*
X111228891Y44094229D01*
X111236981Y44090388D01*
X111240000Y44082544D01*
X111240000Y43850790D01*
X111236573Y43842517D01*
X111228891Y43839105D01*
X111176126Y43836435D01*
X111052828Y43830195D01*
X110899143Y43803356D01*
X110898747Y43803226D01*
X110898743Y43803225D01*
X110772041Y43761640D01*
X110772036Y43761638D01*
X110771640Y43761508D01*
X110771261Y43761318D01*
X110771259Y43761317D01*
X110663340Y43707177D01*
X110663334Y43707174D01*
X110663016Y43707014D01*
X110565966Y43642233D01*
X110473188Y43569528D01*
X110473153Y43569499D01*
X110377511Y43491367D01*
X110377233Y43491147D01*
X110271553Y43410031D01*
X110270908Y43409569D01*
X110147872Y43327752D01*
X110146978Y43327214D01*
X110006234Y43250754D01*
X109997329Y43249816D01*
X109992539Y43252602D01*
X109931498Y43311303D01*
X109250000Y43966667D01*
X109536054Y44241752D01*
X109536055Y44241752D01*
X109992540Y44680732D01*
X110000878Y44683997D01*
X110006234Y44682580D01*
G37*
%TD.AperFunction*%
%TD*%
%TA.AperFunction,Conductor*%
%TO.N,F6*%
G36*
X107772874Y35713432D02*
G01*
X107936765Y35549541D01*
X107940192Y35541268D01*
X107937181Y35533433D01*
X107806370Y35388374D01*
X107708180Y35247544D01*
X107642407Y35115349D01*
X107601411Y34987950D01*
X107577549Y34861503D01*
X107577523Y34861269D01*
X107563186Y34732241D01*
X107563178Y34732166D01*
X107563172Y34732102D01*
X107563169Y34732073D01*
X107550674Y34596287D01*
X107550633Y34595909D01*
X107532394Y34449862D01*
X107532263Y34449049D01*
X107500697Y34288926D01*
X107500441Y34287883D01*
X107450190Y34117311D01*
X107444565Y34110343D01*
X107439198Y34108919D01*
X106657794Y34093644D01*
X106322347Y34087087D01*
X106314008Y34090352D01*
X106310420Y34099014D01*
X106322798Y34732241D01*
X106332252Y35215864D01*
X106335840Y35224067D01*
X106340643Y35226857D01*
X106511222Y35277110D01*
X106512253Y35277362D01*
X106672394Y35308932D01*
X106673183Y35309059D01*
X106748346Y35318446D01*
X106819242Y35327300D01*
X106819620Y35327341D01*
X106955406Y35339836D01*
X106955435Y35339839D01*
X106955499Y35339845D01*
X106955574Y35339853D01*
X107084602Y35354190D01*
X107084836Y35354216D01*
X107158549Y35368126D01*
X107210930Y35378011D01*
X107210936Y35378012D01*
X107211283Y35378078D01*
X107338682Y35419074D01*
X107470877Y35484847D01*
X107611707Y35583037D01*
X107704243Y35666484D01*
X107756766Y35713848D01*
X107765204Y35716843D01*
X107772874Y35713432D01*
G37*
%TD.AperFunction*%
%TD*%
%TA.AperFunction,Conductor*%
%TO.N,F6*%
G36*
X109914815Y43327346D02*
G01*
X109914772Y43325139D01*
X109912707Y43219534D01*
X109909119Y43211330D01*
X109904329Y43208544D01*
X109750737Y43163086D01*
X109749725Y43162835D01*
X109604887Y43133692D01*
X109604104Y43133562D01*
X109472011Y43116192D01*
X109471659Y43116151D01*
X109348832Y43103775D01*
X109348799Y43103771D01*
X109348737Y43103765D01*
X109231722Y43089572D01*
X109231513Y43089530D01*
X109231511Y43089530D01*
X109117645Y43066826D01*
X109117639Y43066824D01*
X109117291Y43066755D01*
X109001949Y43028479D01*
X108882201Y42967912D01*
X108754551Y42878218D01*
X108754281Y42877974D01*
X108623756Y42760023D01*
X108615321Y42757019D01*
X108607639Y42760431D01*
X108443764Y42924306D01*
X108440337Y42932579D01*
X108443356Y42940423D01*
X108523049Y43028611D01*
X108561551Y43071218D01*
X108651245Y43198868D01*
X108711812Y43318616D01*
X108750088Y43433958D01*
X108772905Y43548389D01*
X108784912Y43647378D01*
X108787339Y43653212D01*
X108807334Y43678576D01*
X108807934Y43679337D01*
X108810433Y43686452D01*
X108811952Y43689377D01*
X108815774Y43694726D01*
X108815774Y43694727D01*
X108816334Y43695510D01*
X108816611Y43696435D01*
X108831866Y43747444D01*
X108832036Y43747969D01*
X108849772Y43798475D01*
X108850016Y43799169D01*
X108850500Y43804758D01*
X108850500Y43808041D01*
X108850991Y43811393D01*
X108852447Y43816260D01*
X108852447Y43816262D01*
X108852725Y43817191D01*
X108850509Y43873584D01*
X108850500Y43874043D01*
X108850500Y44079498D01*
X108850981Y44082818D01*
X108891877Y44220996D01*
X108897511Y44227957D01*
X108902867Y44229374D01*
X109344201Y44238002D01*
X109536055Y44241752D01*
X109932842Y44249509D01*
X109914815Y43327346D01*
G37*
%TD.AperFunction*%
%TD*%
%TA.AperFunction,Conductor*%
%TO.N,VCC*%
G36*
X113907460Y47680732D02*
G01*
X114641231Y46975100D01*
X114644819Y46966896D01*
X114641231Y46958234D01*
X113985608Y46327752D01*
X113907461Y46252602D01*
X113899122Y46249337D01*
X113893766Y46250754D01*
X113753021Y46327214D01*
X113752127Y46327752D01*
X113629091Y46409569D01*
X113628446Y46410031D01*
X113522766Y46491147D01*
X113522488Y46491367D01*
X113426846Y46569499D01*
X113426811Y46569528D01*
X113334033Y46642233D01*
X113236983Y46707014D01*
X113236665Y46707174D01*
X113236659Y46707177D01*
X113128740Y46761317D01*
X113128738Y46761318D01*
X113128359Y46761508D01*
X113127963Y46761638D01*
X113127958Y46761640D01*
X113001256Y46803225D01*
X113001252Y46803226D01*
X113000856Y46803356D01*
X112847171Y46830195D01*
X112724476Y46836404D01*
X112671109Y46839105D01*
X112663019Y46842946D01*
X112660000Y46850790D01*
X112660000Y47082544D01*
X112663427Y47090817D01*
X112671109Y47094229D01*
X112711292Y47096262D01*
X112847171Y47103138D01*
X113000856Y47129977D01*
X113001252Y47130107D01*
X113001256Y47130108D01*
X113127958Y47171693D01*
X113127963Y47171695D01*
X113128359Y47171825D01*
X113128740Y47172016D01*
X113236659Y47226156D01*
X113236665Y47226159D01*
X113236983Y47226319D01*
X113334033Y47291100D01*
X113426811Y47363805D01*
X113468359Y47397747D01*
X113522488Y47441966D01*
X113522766Y47442186D01*
X113628446Y47523302D01*
X113629091Y47523764D01*
X113752127Y47605581D01*
X113753021Y47606119D01*
X113893766Y47682580D01*
X113902671Y47683518D01*
X113907460Y47680732D01*
G37*
%TD.AperFunction*%
%TD*%
%TA.AperFunction,Conductor*%
%TO.N,D2*%
G36*
X79938008Y50647481D02*
G01*
X79961809Y50633426D01*
X79989472Y50617091D01*
X79990701Y50616255D01*
X80044466Y50574486D01*
X80045098Y50573957D01*
X80095450Y50528635D01*
X80095608Y50528490D01*
X80143506Y50483670D01*
X80143591Y50483597D01*
X80143597Y50483591D01*
X80185042Y50447724D01*
X80189822Y50443587D01*
X80235633Y50412301D01*
X80236237Y50412060D01*
X80236240Y50412059D01*
X80281143Y50394184D01*
X80281145Y50394184D01*
X80282081Y50393811D01*
X80307505Y50392917D01*
X80329160Y50392156D01*
X80329162Y50392156D01*
X80330308Y50392116D01*
X80381454Y50411215D01*
X80382174Y50411787D01*
X80382177Y50411789D01*
X80428491Y50448609D01*
X80437100Y50451075D01*
X80444045Y50447724D01*
X80604567Y50287202D01*
X80607994Y50278929D01*
X80603970Y50270099D01*
X80548702Y50222055D01*
X80547234Y50220968D01*
X80486732Y50183091D01*
X80485085Y50182233D01*
X80427346Y50157793D01*
X80425871Y50157282D01*
X80369932Y50142003D01*
X80368996Y50141789D01*
X80314037Y50131532D01*
X80313875Y50131502D01*
X80259307Y50122114D01*
X80231665Y50115652D01*
X80205455Y50109525D01*
X80205451Y50109524D01*
X80205097Y50109441D01*
X80150678Y50089230D01*
X80095458Y50057222D01*
X80095060Y50056884D01*
X80095057Y50056882D01*
X80070478Y50036015D01*
X80045167Y50014528D01*
X80036643Y50011786D01*
X80031682Y50013352D01*
X80029675Y50014528D01*
X79742768Y50182594D01*
X79569338Y50284187D01*
X79563932Y50291325D01*
X79565157Y50300196D01*
X79567142Y50302715D01*
X79923949Y50645839D01*
X79932288Y50649104D01*
X79938008Y50647481D01*
G37*
%TD.AperFunction*%
%TD*%
%TA.AperFunction,Conductor*%
%TO.N,C6*%
G36*
X90241820Y33172437D02*
G01*
X90386976Y33041593D01*
X90527918Y32943481D01*
X90660233Y32877868D01*
X90787764Y32837087D01*
X90788115Y32837022D01*
X90788117Y32837021D01*
X90914153Y32813507D01*
X90914156Y32813507D01*
X90914352Y32813470D01*
X91043837Y32799347D01*
X91179872Y32787067D01*
X91180255Y32787026D01*
X91216505Y32782547D01*
X91326470Y32768960D01*
X91327263Y32768833D01*
X91487571Y32737364D01*
X91488606Y32737111D01*
X91659354Y32686855D01*
X91666322Y32681233D01*
X91667748Y32675863D01*
X91672191Y32448549D01*
X91689580Y31559014D01*
X91686315Y31550675D01*
X91677653Y31547087D01*
X91308586Y31554301D01*
X90560806Y31568919D01*
X90552603Y31572507D01*
X90549812Y31577313D01*
X90499557Y31748055D01*
X90499300Y31749105D01*
X90467835Y31909390D01*
X90467704Y31910209D01*
X90449640Y32056411D01*
X90449599Y32056794D01*
X90437319Y32192829D01*
X90423218Y32322108D01*
X90423196Y32322314D01*
X90399579Y32448902D01*
X90358798Y32576433D01*
X90293185Y32708748D01*
X90195073Y32849690D01*
X90169497Y32878064D01*
X90064230Y32994847D01*
X90061237Y33003287D01*
X90064648Y33010954D01*
X90225714Y33172020D01*
X90233987Y33175447D01*
X90241820Y33172437D01*
G37*
%TD.AperFunction*%
%TD*%
%TA.AperFunction,Conductor*%
%TO.N,C6*%
G36*
X80870729Y31873573D02*
G01*
X81031430Y31712872D01*
X81034857Y31704599D01*
X81031428Y31696323D01*
X80971787Y31636716D01*
X80971781Y31636711D01*
X80914147Y31579185D01*
X80914142Y31579180D01*
X80864471Y31529669D01*
X80820476Y31485868D01*
X80820473Y31485867D01*
X80820474Y31485866D01*
X80779851Y31445454D01*
X80740302Y31406116D01*
X80699526Y31365534D01*
X80655225Y31321392D01*
X80605096Y31271372D01*
X80553160Y31219472D01*
X80544887Y31216048D01*
X80539086Y31217590D01*
X80077213Y31481532D01*
X80071730Y31488612D01*
X80072860Y31497495D01*
X80074618Y31499835D01*
X80419990Y31856014D01*
X80428210Y31859568D01*
X80433130Y31858565D01*
X80475302Y31839872D01*
X80521975Y31820019D01*
X80522070Y31819984D01*
X80522084Y31819978D01*
X80566094Y31803582D01*
X80566101Y31803580D01*
X80566307Y31803503D01*
X80608914Y31791515D01*
X80650415Y31785246D01*
X80684494Y31785779D01*
X80690857Y31785879D01*
X80690858Y31785879D01*
X80691427Y31785888D01*
X80691985Y31786007D01*
X80691989Y31786007D01*
X80714223Y31790733D01*
X80732567Y31794631D01*
X80733099Y31794860D01*
X80733102Y31794861D01*
X80773976Y31812460D01*
X80774452Y31812665D01*
X80815659Y31839836D01*
X80817350Y31840951D01*
X80817352Y31840953D01*
X80817700Y31841182D01*
X80840984Y31861872D01*
X80854684Y31874046D01*
X80863145Y31876980D01*
X80870729Y31873573D01*
G37*
%TD.AperFunction*%
%TD*%
%TA.AperFunction,Conductor*%
%TO.N,B5*%
G36*
X80190297Y13062167D02*
G01*
X80252493Y13029784D01*
X80253022Y13029491D01*
X80312426Y12994551D01*
X80312702Y12994381D01*
X80365297Y12961166D01*
X80365299Y12961163D01*
X80365300Y12961164D01*
X80414128Y12930309D01*
X80462135Y12902524D01*
X80462337Y12902427D01*
X80462343Y12902424D01*
X80492721Y12887865D01*
X80512423Y12878422D01*
X80568098Y12858612D01*
X80568419Y12858538D01*
X80568417Y12858538D01*
X80631963Y12843776D01*
X80631966Y12843776D01*
X80632265Y12843706D01*
X80632574Y12843668D01*
X80632578Y12843667D01*
X80676601Y12838210D01*
X80708026Y12834314D01*
X80764029Y12832292D01*
X80787210Y12831455D01*
X80795354Y12827732D01*
X80798488Y12819763D01*
X80798488Y12592333D01*
X80795061Y12584060D01*
X80787210Y12580641D01*
X80754556Y12579461D01*
X80708026Y12577781D01*
X80676601Y12573885D01*
X80632578Y12568428D01*
X80632574Y12568427D01*
X80632265Y12568389D01*
X80631966Y12568319D01*
X80631963Y12568319D01*
X80593930Y12559484D01*
X80568098Y12553483D01*
X80512423Y12533673D01*
X80512148Y12533541D01*
X80462343Y12509671D01*
X80462337Y12509668D01*
X80462135Y12509571D01*
X80414128Y12481786D01*
X80365300Y12450931D01*
X80312702Y12417714D01*
X80312426Y12417544D01*
X80261748Y12387736D01*
X80253022Y12382604D01*
X80252493Y12382311D01*
X80190297Y12349929D01*
X80181377Y12349148D01*
X80176785Y12351874D01*
X79817257Y12697615D01*
X79813669Y12705819D01*
X79817257Y12714481D01*
X79938472Y12831048D01*
X80176785Y13060222D01*
X80185123Y13063487D01*
X80190297Y13062167D01*
G37*
%TD.AperFunction*%
%TD*%
%TA.AperFunction,Conductor*%
%TO.N,B5*%
G36*
X91232811Y22479393D02*
G01*
X91928318Y21810558D01*
X92037981Y21705100D01*
X92041569Y21696896D01*
X92037981Y21688234D01*
X91415313Y21089444D01*
X91232811Y20913941D01*
X91224472Y20910676D01*
X91219101Y20912102D01*
X91062832Y20997299D01*
X91061913Y20997856D01*
X90926309Y21088957D01*
X90925638Y21089444D01*
X90809494Y21180044D01*
X90809194Y21180286D01*
X90772278Y21211089D01*
X90704320Y21267793D01*
X90602774Y21349367D01*
X90496563Y21422178D01*
X90496239Y21422345D01*
X90377935Y21483321D01*
X90377930Y21483323D01*
X90377548Y21483520D01*
X90237592Y21530686D01*
X90225458Y21532860D01*
X90068915Y21560906D01*
X90068907Y21560907D01*
X90068555Y21560970D01*
X90002014Y21564421D01*
X89873394Y21571092D01*
X89865309Y21574942D01*
X89862300Y21582776D01*
X89862300Y21810558D01*
X89865727Y21818831D01*
X89873394Y21822242D01*
X89995379Y21828568D01*
X90068555Y21832363D01*
X90068907Y21832426D01*
X90068915Y21832427D01*
X90237162Y21862570D01*
X90237592Y21862647D01*
X90377548Y21909813D01*
X90377930Y21910010D01*
X90377935Y21910012D01*
X90496239Y21970988D01*
X90496563Y21971155D01*
X90602774Y22043966D01*
X90704320Y22125540D01*
X90809194Y22213047D01*
X90809494Y22213289D01*
X90925638Y22303889D01*
X90926309Y22304376D01*
X91061913Y22395477D01*
X91062832Y22396034D01*
X91219101Y22481232D01*
X91228005Y22482184D01*
X91232811Y22479393D01*
G37*
%TD.AperFunction*%
%TD*%
%TA.AperFunction,Conductor*%
%TO.N,D1*%
G36*
X60916083Y53751860D02*
G01*
X61076885Y53591058D01*
X61080312Y53582785D01*
X61077183Y53574822D01*
X61024118Y53517721D01*
X60977974Y53458197D01*
X60943961Y53402762D01*
X60919613Y53349670D01*
X60902462Y53297172D01*
X60890044Y53243523D01*
X60890019Y53243383D01*
X60890017Y53243374D01*
X60879892Y53186974D01*
X60879883Y53186921D01*
X60869563Y53125918D01*
X60869516Y53125657D01*
X60856569Y53058447D01*
X60856458Y53057933D01*
X60840320Y52990610D01*
X60835059Y52983363D01*
X60830019Y52981687D01*
X60625569Y52962808D01*
X60333316Y52935821D01*
X60324763Y52938472D01*
X60320556Y52946851D01*
X60294138Y53444949D01*
X60297122Y53453392D01*
X60301500Y53456441D01*
X60369520Y53483465D01*
X60370100Y53483678D01*
X60437538Y53506429D01*
X60437934Y53506555D01*
X60474658Y53517509D01*
X60499332Y53524869D01*
X60556432Y53541479D01*
X60556498Y53541500D01*
X60556510Y53541504D01*
X60610694Y53559044D01*
X60610886Y53559106D01*
X60664540Y53580534D01*
X60664782Y53580658D01*
X60664791Y53580662D01*
X60718975Y53608405D01*
X60718980Y53608408D01*
X60719240Y53608541D01*
X60719484Y53608699D01*
X60776598Y53645758D01*
X60776605Y53645763D01*
X60776833Y53645911D01*
X60777060Y53646091D01*
X60838968Y53695266D01*
X60838976Y53695273D01*
X60839165Y53695423D01*
X60899818Y53752133D01*
X60908203Y53755280D01*
X60916083Y53751860D01*
G37*
%TD.AperFunction*%
%TD*%
%TA.AperFunction,Conductor*%
%TO.N,D1*%
G36*
X91004211Y40259393D02*
G01*
X91699718Y39590558D01*
X91809381Y39485100D01*
X91812969Y39476896D01*
X91809381Y39468234D01*
X91186713Y38869444D01*
X91004211Y38693941D01*
X90995872Y38690676D01*
X90990501Y38692102D01*
X90834232Y38777299D01*
X90833313Y38777856D01*
X90697709Y38868957D01*
X90697038Y38869444D01*
X90580894Y38960044D01*
X90580594Y38960286D01*
X90543678Y38991089D01*
X90475720Y39047793D01*
X90374174Y39129367D01*
X90267963Y39202178D01*
X90267639Y39202345D01*
X90149335Y39263321D01*
X90149330Y39263323D01*
X90148948Y39263520D01*
X90008992Y39310686D01*
X89996858Y39312860D01*
X89840315Y39340906D01*
X89840307Y39340907D01*
X89839955Y39340970D01*
X89773414Y39344421D01*
X89644794Y39351092D01*
X89636709Y39354942D01*
X89633700Y39362776D01*
X89633700Y39590558D01*
X89637127Y39598831D01*
X89644794Y39602242D01*
X89766779Y39608568D01*
X89839955Y39612363D01*
X89840307Y39612426D01*
X89840315Y39612427D01*
X90008562Y39642570D01*
X90008992Y39642647D01*
X90148948Y39689813D01*
X90149330Y39690010D01*
X90149335Y39690012D01*
X90267639Y39750988D01*
X90267963Y39751155D01*
X90374174Y39823966D01*
X90475720Y39905540D01*
X90580594Y39993047D01*
X90580894Y39993289D01*
X90697038Y40083889D01*
X90697709Y40084376D01*
X90833313Y40175477D01*
X90834232Y40176034D01*
X90990501Y40261232D01*
X90999405Y40262184D01*
X91004211Y40259393D01*
G37*
%TD.AperFunction*%
%TD*%
%TA.AperFunction,Conductor*%
%TO.N,D4*%
G36*
X60125989Y34645546D02*
G01*
X60176297Y34616193D01*
X60177450Y34615425D01*
X60230387Y34575466D01*
X60230987Y34574981D01*
X60280728Y34532005D01*
X60280853Y34531896D01*
X60328215Y34489789D01*
X60328233Y34489774D01*
X60328316Y34489700D01*
X60328430Y34489607D01*
X60328435Y34489603D01*
X60373988Y34452528D01*
X60373997Y34452522D01*
X60374263Y34452305D01*
X60419716Y34423509D01*
X60447093Y34413734D01*
X60464810Y34407408D01*
X60464812Y34407408D01*
X60465738Y34407077D01*
X60505512Y34406823D01*
X60512284Y34406780D01*
X60513389Y34406773D01*
X60563732Y34426361D01*
X60609652Y34463069D01*
X60618253Y34465558D01*
X60625230Y34462203D01*
X60785782Y34301651D01*
X60789209Y34293378D01*
X60785234Y34284591D01*
X60729917Y34235963D01*
X60728581Y34234949D01*
X60668418Y34195730D01*
X60666929Y34194907D01*
X60609821Y34168621D01*
X60608481Y34168102D01*
X60572672Y34156745D01*
X60553408Y34150636D01*
X60552539Y34150397D01*
X60530547Y34145247D01*
X60498466Y34137735D01*
X60444932Y34125952D01*
X60391691Y34111075D01*
X60391378Y34110946D01*
X60391374Y34110945D01*
X60338474Y34089206D01*
X60338470Y34089204D01*
X60338054Y34089033D01*
X60283334Y34055751D01*
X60282968Y34055436D01*
X60233176Y34012606D01*
X60224669Y34009809D01*
X60219634Y34011380D01*
X59757338Y34282187D01*
X59751932Y34289325D01*
X59753157Y34298196D01*
X59755142Y34300715D01*
X60111984Y34643873D01*
X60120322Y34647138D01*
X60125989Y34645546D01*
G37*
%TD.AperFunction*%
%TD*%
%TA.AperFunction,Conductor*%
%TO.N,D4*%
G36*
X90241820Y35712437D02*
G01*
X90386976Y35581593D01*
X90527918Y35483481D01*
X90660233Y35417868D01*
X90787764Y35377087D01*
X90788115Y35377022D01*
X90788117Y35377021D01*
X90914153Y35353507D01*
X90914156Y35353507D01*
X90914352Y35353470D01*
X91043837Y35339347D01*
X91179872Y35327067D01*
X91180255Y35327026D01*
X91216505Y35322547D01*
X91326470Y35308960D01*
X91327263Y35308833D01*
X91487571Y35277364D01*
X91488606Y35277111D01*
X91659354Y35226855D01*
X91666322Y35221233D01*
X91667748Y35215863D01*
X91672191Y34988549D01*
X91689580Y34099014D01*
X91686315Y34090675D01*
X91677653Y34087087D01*
X91308586Y34094301D01*
X90560806Y34108919D01*
X90552603Y34112507D01*
X90549812Y34117313D01*
X90499557Y34288055D01*
X90499300Y34289105D01*
X90467835Y34449390D01*
X90467704Y34450209D01*
X90449640Y34596411D01*
X90449599Y34596794D01*
X90437319Y34732829D01*
X90423218Y34862108D01*
X90423196Y34862314D01*
X90399579Y34988902D01*
X90358798Y35116433D01*
X90293185Y35248748D01*
X90195073Y35389690D01*
X90169497Y35418064D01*
X90064230Y35534847D01*
X90061237Y35543287D01*
X90064648Y35550954D01*
X90225714Y35712020D01*
X90233987Y35715447D01*
X90241820Y35712437D01*
G37*
%TD.AperFunction*%
%TD*%
%TA.AperFunction,Conductor*%
%TO.N,B4*%
G36*
X60379809Y15596119D02*
G01*
X60442005Y15563736D01*
X60442534Y15563443D01*
X60501938Y15528503D01*
X60502214Y15528333D01*
X60554809Y15495118D01*
X60554811Y15495115D01*
X60554812Y15495116D01*
X60603640Y15464261D01*
X60651647Y15436476D01*
X60651849Y15436379D01*
X60651855Y15436376D01*
X60682233Y15421817D01*
X60701935Y15412374D01*
X60757610Y15392564D01*
X60757931Y15392490D01*
X60757929Y15392490D01*
X60821475Y15377728D01*
X60821478Y15377728D01*
X60821777Y15377658D01*
X60822086Y15377620D01*
X60822090Y15377619D01*
X60866113Y15372162D01*
X60897538Y15368266D01*
X60953541Y15366244D01*
X60976722Y15365407D01*
X60984866Y15361684D01*
X60988000Y15353715D01*
X60988000Y15126285D01*
X60984573Y15118012D01*
X60976722Y15114593D01*
X60944068Y15113413D01*
X60897538Y15111733D01*
X60866113Y15107837D01*
X60822090Y15102380D01*
X60822086Y15102379D01*
X60821777Y15102341D01*
X60821478Y15102271D01*
X60821475Y15102271D01*
X60783442Y15093436D01*
X60757610Y15087435D01*
X60701935Y15067625D01*
X60701660Y15067493D01*
X60651855Y15043623D01*
X60651849Y15043620D01*
X60651647Y15043523D01*
X60603640Y15015738D01*
X60554812Y14984883D01*
X60502214Y14951666D01*
X60501938Y14951496D01*
X60451260Y14921688D01*
X60442534Y14916556D01*
X60442005Y14916263D01*
X60379809Y14883881D01*
X60370889Y14883100D01*
X60366297Y14885826D01*
X60006769Y15231567D01*
X60003181Y15239771D01*
X60006769Y15248433D01*
X60127984Y15365000D01*
X60366297Y15594174D01*
X60374635Y15597439D01*
X60379809Y15596119D01*
G37*
%TD.AperFunction*%
%TD*%
%TA.AperFunction,Conductor*%
%TO.N,GND*%
G36*
X116193443Y-26030566D02*
G01*
X116201647Y-26034154D01*
X116204373Y-26038747D01*
X116225458Y-26105637D01*
X116225624Y-26106217D01*
X116242899Y-26172843D01*
X116242987Y-26173202D01*
X116256699Y-26233910D01*
X116256698Y-26233910D01*
X116256700Y-26233914D01*
X116269407Y-26290254D01*
X116283706Y-26343846D01*
X116283783Y-26344065D01*
X116283784Y-26344068D01*
X116302118Y-26396155D01*
X116302121Y-26396163D01*
X116302222Y-26396449D01*
X116327583Y-26449824D01*
X116327756Y-26450102D01*
X116327760Y-26450109D01*
X116362251Y-26505474D01*
X116362415Y-26505737D01*
X116362601Y-26505975D01*
X116362604Y-26505980D01*
X116409195Y-26565756D01*
X116409201Y-26565763D01*
X116409346Y-26565949D01*
X116423254Y-26580899D01*
X116463315Y-26623963D01*
X116466441Y-26632354D01*
X116463022Y-26640205D01*
X116302205Y-26801022D01*
X116293932Y-26804449D01*
X116285963Y-26801315D01*
X116255318Y-26772807D01*
X116227949Y-26747346D01*
X116227763Y-26747201D01*
X116227756Y-26747195D01*
X116167980Y-26700604D01*
X116167975Y-26700601D01*
X116167737Y-26700415D01*
X116167474Y-26700251D01*
X116112109Y-26665760D01*
X116112102Y-26665756D01*
X116111824Y-26665583D01*
X116058449Y-26640222D01*
X116058163Y-26640121D01*
X116058155Y-26640118D01*
X116006068Y-26621784D01*
X116006065Y-26621783D01*
X116005846Y-26621706D01*
X115952254Y-26607407D01*
X115895914Y-26594700D01*
X115895910Y-26594697D01*
X115895910Y-26594699D01*
X115835202Y-26580987D01*
X115834843Y-26580899D01*
X115768217Y-26563624D01*
X115767637Y-26563458D01*
X115700747Y-26542373D01*
X115693886Y-26536617D01*
X115692566Y-26531443D01*
X115682817Y-26032744D01*
X115686082Y-26024405D01*
X115694744Y-26020817D01*
X116193443Y-26030566D01*
G37*
%TD.AperFunction*%
%TD*%
%TA.AperFunction,Conductor*%
%TO.N,GND*%
G36*
X94349443Y-19426566D02*
G01*
X94357647Y-19430154D01*
X94360373Y-19434747D01*
X94381458Y-19501637D01*
X94381624Y-19502217D01*
X94398899Y-19568843D01*
X94398987Y-19569202D01*
X94412699Y-19629910D01*
X94412698Y-19629910D01*
X94412700Y-19629914D01*
X94425407Y-19686254D01*
X94439706Y-19739846D01*
X94439783Y-19740065D01*
X94439784Y-19740068D01*
X94458118Y-19792155D01*
X94458121Y-19792163D01*
X94458222Y-19792449D01*
X94483583Y-19845824D01*
X94483756Y-19846102D01*
X94483760Y-19846109D01*
X94518251Y-19901474D01*
X94518415Y-19901737D01*
X94518601Y-19901975D01*
X94518604Y-19901980D01*
X94565195Y-19961756D01*
X94565201Y-19961763D01*
X94565346Y-19961949D01*
X94579254Y-19976899D01*
X94619315Y-20019963D01*
X94622441Y-20028354D01*
X94619022Y-20036205D01*
X94458205Y-20197022D01*
X94449932Y-20200449D01*
X94441963Y-20197315D01*
X94411318Y-20168807D01*
X94383949Y-20143346D01*
X94383763Y-20143201D01*
X94383756Y-20143195D01*
X94323980Y-20096604D01*
X94323975Y-20096601D01*
X94323737Y-20096415D01*
X94323474Y-20096251D01*
X94268109Y-20061760D01*
X94268102Y-20061756D01*
X94267824Y-20061583D01*
X94214449Y-20036222D01*
X94214163Y-20036121D01*
X94214155Y-20036118D01*
X94162068Y-20017784D01*
X94162065Y-20017783D01*
X94161846Y-20017706D01*
X94108254Y-20003407D01*
X94051914Y-19990700D01*
X94051910Y-19990697D01*
X94051910Y-19990699D01*
X93991202Y-19976987D01*
X93990843Y-19976899D01*
X93924217Y-19959624D01*
X93923637Y-19959458D01*
X93856747Y-19938373D01*
X93849886Y-19932617D01*
X93848566Y-19927443D01*
X93838817Y-19428744D01*
X93842082Y-19420405D01*
X93850744Y-19416817D01*
X94349443Y-19426566D01*
G37*
%TD.AperFunction*%
%TD*%
%TA.AperFunction,Conductor*%
%TO.N,GND*%
G36*
X39317179Y15766306D02*
G01*
X39366685Y15720987D01*
X39420271Y15681749D01*
X39471036Y15654323D01*
X39500822Y15643786D01*
X39519912Y15637033D01*
X39519916Y15637032D01*
X39520337Y15636883D01*
X39520775Y15636800D01*
X39520780Y15636799D01*
X39569166Y15627671D01*
X39569532Y15627602D01*
X39569898Y15627581D01*
X39569903Y15627580D01*
X39619716Y15624669D01*
X39619724Y15624669D01*
X39619979Y15624654D01*
X39673034Y15626212D01*
X39730055Y15630450D01*
X39792304Y15635531D01*
X39792499Y15635545D01*
X39820215Y15637198D01*
X39853131Y15639161D01*
X39861593Y15636233D01*
X39864624Y15631988D01*
X40056772Y15171585D01*
X40056796Y15162631D01*
X40050056Y15156114D01*
X39815878Y15068962D01*
X39582588Y14982141D01*
X39573640Y14982467D01*
X39569415Y14985743D01*
X39518340Y15048815D01*
X39517902Y15049393D01*
X39473371Y15111946D01*
X39472999Y15112501D01*
X39436659Y15170263D01*
X39436414Y15170670D01*
X39404892Y15225606D01*
X39404815Y15225742D01*
X39374795Y15279717D01*
X39343103Y15334302D01*
X39343032Y15334425D01*
X39306222Y15391661D01*
X39261029Y15453281D01*
X39204115Y15521139D01*
X39139978Y15588821D01*
X39136775Y15597184D01*
X39140198Y15605142D01*
X39301005Y15765949D01*
X39309278Y15769376D01*
X39317179Y15766306D01*
G37*
%TD.AperFunction*%
%TD*%
%TA.AperFunction,Conductor*%
%TO.N,GND*%
G36*
X20219542Y9768647D02*
G01*
X20457856Y9539472D01*
X20579071Y9422905D01*
X20582659Y9414701D01*
X20579071Y9406039D01*
X20219543Y9060298D01*
X20211204Y9057033D01*
X20206031Y9058353D01*
X20143834Y9090735D01*
X20143305Y9091028D01*
X20134579Y9096160D01*
X20083901Y9125968D01*
X20083625Y9126138D01*
X20031030Y9159353D01*
X20031028Y9159356D01*
X20031027Y9159355D01*
X19982277Y9190161D01*
X19982267Y9190167D01*
X19982199Y9190210D01*
X19934192Y9217995D01*
X19933990Y9218092D01*
X19933984Y9218095D01*
X19884179Y9241965D01*
X19883904Y9242097D01*
X19828229Y9261907D01*
X19802397Y9267908D01*
X19764364Y9276743D01*
X19764361Y9276743D01*
X19764062Y9276813D01*
X19763753Y9276851D01*
X19763749Y9276852D01*
X19719726Y9282309D01*
X19688301Y9286205D01*
X19642052Y9287875D01*
X19609118Y9289065D01*
X19600974Y9292788D01*
X19597840Y9300757D01*
X19597840Y9528187D01*
X19601267Y9536460D01*
X19609118Y9539879D01*
X19632710Y9540731D01*
X19688301Y9542738D01*
X19719726Y9546634D01*
X19763749Y9552091D01*
X19763753Y9552092D01*
X19764062Y9552130D01*
X19764361Y9552200D01*
X19764364Y9552200D01*
X19827910Y9566962D01*
X19827908Y9566962D01*
X19828229Y9567036D01*
X19883904Y9586846D01*
X19903606Y9596289D01*
X19933984Y9610848D01*
X19933990Y9610851D01*
X19934192Y9610948D01*
X19982199Y9638733D01*
X20031027Y9669588D01*
X20083625Y9702805D01*
X20083901Y9702975D01*
X20143305Y9737915D01*
X20143834Y9738208D01*
X20206031Y9770591D01*
X20214952Y9771372D01*
X20219542Y9768647D01*
G37*
%TD.AperFunction*%
%TD*%
%TA.AperFunction,Conductor*%
%TO.N,GND*%
G36*
X82635703Y-25299826D02*
G01*
X82995231Y-25645567D01*
X82998819Y-25653771D01*
X82995231Y-25662433D01*
X82635703Y-26008174D01*
X82627365Y-26011439D01*
X82622191Y-26010119D01*
X82559994Y-25977736D01*
X82559465Y-25977443D01*
X82550739Y-25972311D01*
X82500061Y-25942503D01*
X82499785Y-25942333D01*
X82447190Y-25909118D01*
X82447188Y-25909115D01*
X82447187Y-25909116D01*
X82398437Y-25878310D01*
X82398427Y-25878304D01*
X82398359Y-25878261D01*
X82350352Y-25850476D01*
X82350150Y-25850379D01*
X82350144Y-25850376D01*
X82300339Y-25826506D01*
X82300064Y-25826374D01*
X82244389Y-25806564D01*
X82218557Y-25800563D01*
X82180524Y-25791728D01*
X82180521Y-25791728D01*
X82180222Y-25791658D01*
X82179913Y-25791620D01*
X82179909Y-25791619D01*
X82135886Y-25786162D01*
X82104461Y-25782266D01*
X82048870Y-25780259D01*
X82025278Y-25779407D01*
X82017134Y-25775684D01*
X82014000Y-25767715D01*
X82014000Y-25540285D01*
X82017427Y-25532012D01*
X82025278Y-25528593D01*
X82058212Y-25527403D01*
X82104461Y-25525733D01*
X82135886Y-25521837D01*
X82179909Y-25516380D01*
X82179913Y-25516379D01*
X82180222Y-25516341D01*
X82180521Y-25516271D01*
X82180524Y-25516271D01*
X82244070Y-25501509D01*
X82244068Y-25501509D01*
X82244389Y-25501435D01*
X82300064Y-25481625D01*
X82319766Y-25472182D01*
X82350144Y-25457623D01*
X82350150Y-25457620D01*
X82350352Y-25457523D01*
X82398359Y-25429738D01*
X82447187Y-25398883D01*
X82499785Y-25365666D01*
X82500061Y-25365496D01*
X82559465Y-25330556D01*
X82559994Y-25330263D01*
X82567879Y-25326158D01*
X82622191Y-25297881D01*
X82631111Y-25297100D01*
X82635703Y-25299826D01*
G37*
%TD.AperFunction*%
%TD*%
%TA.AperFunction,Conductor*%
%TO.N,GND*%
G36*
X59658086Y47558678D02*
G01*
X59710989Y47509907D01*
X59767270Y47467613D01*
X59820221Y47437347D01*
X59820603Y47437196D01*
X59820608Y47437193D01*
X59871005Y47417197D01*
X59871391Y47417044D01*
X59871787Y47416948D01*
X59871792Y47416946D01*
X59922002Y47404720D01*
X59922004Y47404720D01*
X59922327Y47404641D01*
X59922651Y47404600D01*
X59922658Y47404599D01*
X59974376Y47398098D01*
X59974386Y47398097D01*
X59974578Y47398073D01*
X59974774Y47398063D01*
X59974786Y47398062D01*
X60029606Y47395283D01*
X60029633Y47395282D01*
X60029694Y47395279D01*
X60029761Y47395278D01*
X60029784Y47395277D01*
X60089222Y47394193D01*
X60089266Y47394192D01*
X60154517Y47392756D01*
X60154877Y47392743D01*
X60219385Y47389334D01*
X60227466Y47385475D01*
X60230014Y47380878D01*
X60367669Y46901385D01*
X60366658Y46892488D01*
X60359210Y46886794D01*
X60198138Y46847297D01*
X59874766Y46768001D01*
X59865915Y46769359D01*
X59862101Y46773096D01*
X59819933Y46839558D01*
X59819586Y46840142D01*
X59783101Y46905780D01*
X59782838Y46906279D01*
X59753123Y46966392D01*
X59752988Y46966676D01*
X59726935Y47023154D01*
X59701494Y47077730D01*
X59701485Y47077749D01*
X59701425Y47077877D01*
X59673387Y47132590D01*
X59639676Y47189203D01*
X59597147Y47249622D01*
X59542653Y47315756D01*
X59510281Y47350061D01*
X59480852Y47381248D01*
X59477666Y47389617D01*
X59481088Y47397551D01*
X59641885Y47558348D01*
X59650158Y47561775D01*
X59658086Y47558678D01*
G37*
%TD.AperFunction*%
%TD*%
%TA.AperFunction,Conductor*%
%TO.N,GND*%
G36*
X60078367Y9744240D02*
G01*
X60248961Y9580188D01*
X60389554Y9444987D01*
X60435328Y9400968D01*
X60438916Y9392764D01*
X60435651Y9384425D01*
X60433132Y9382440D01*
X59970994Y9111726D01*
X59962124Y9110501D01*
X59957272Y9113108D01*
X59907574Y9157653D01*
X59907571Y9157656D01*
X59907317Y9157883D01*
X59854116Y9195241D01*
X59826936Y9210006D01*
X59803237Y9222880D01*
X59803230Y9222883D01*
X59802997Y9223010D01*
X59782611Y9231851D01*
X59753075Y9244659D01*
X59753060Y9244665D01*
X59752938Y9244718D01*
X59702967Y9263868D01*
X59702854Y9263912D01*
X59652230Y9283919D01*
X59651593Y9284192D01*
X59599348Y9308506D01*
X59598388Y9309009D01*
X59543333Y9341138D01*
X59542292Y9341822D01*
X59483135Y9385393D01*
X59482210Y9386151D01*
X59457840Y9408340D01*
X59426494Y9436883D01*
X59422684Y9444987D01*
X59426098Y9453807D01*
X59586728Y9614437D01*
X59595001Y9617864D01*
X59602397Y9615230D01*
X59644358Y9580997D01*
X59644362Y9580995D01*
X59644962Y9580505D01*
X59692821Y9559231D01*
X59738623Y9555062D01*
X59783205Y9564967D01*
X59827408Y9585915D01*
X59854405Y9603421D01*
X59871926Y9614782D01*
X59871933Y9614787D01*
X59872072Y9614877D01*
X59918034Y9648822D01*
X59965937Y9684571D01*
X59966345Y9684861D01*
X60016792Y9719250D01*
X60017670Y9719794D01*
X60064545Y9746018D01*
X60073438Y9747066D01*
X60078367Y9744240D01*
G37*
%TD.AperFunction*%
%TD*%
%TA.AperFunction,Conductor*%
%TO.N,GND*%
G36*
X-567478Y-2302998D02*
G01*
X-521542Y-2344778D01*
X-521527Y-2344790D01*
X-521272Y-2345022D01*
X-470412Y-2381411D01*
X-421970Y-2406307D01*
X-403618Y-2412159D01*
X-375225Y-2421212D01*
X-375221Y-2421213D01*
X-374766Y-2421358D01*
X-348711Y-2425147D01*
X-328013Y-2428158D01*
X-328009Y-2428158D01*
X-327619Y-2428215D01*
X-327232Y-2428218D01*
X-327225Y-2428218D01*
X-296469Y-2428416D01*
X-279347Y-2428527D01*
X-247736Y-2425663D01*
X-228934Y-2423959D01*
X-228932Y-2423959D01*
X-228769Y-2423944D01*
X-174705Y-2416114D01*
X-174700Y-2416113D01*
X-174671Y-2416109D01*
X-139115Y-2410402D01*
X-116030Y-2406697D01*
X-115941Y-2406684D01*
X-93174Y-2403379D01*
X-59589Y-2398506D01*
X-50910Y-2400710D01*
X-47546Y-2404654D01*
X184010Y-2846457D01*
X184815Y-2855375D01*
X178576Y-2862499D01*
X-275188Y-3073286D01*
X-284135Y-3073664D01*
X-288631Y-3070700D01*
X-316181Y-3041473D01*
X-344644Y-3011277D01*
X-345130Y-3010727D01*
X-394291Y-2951410D01*
X-394738Y-2950835D01*
X-434959Y-2895650D01*
X-435287Y-2895177D01*
X-460118Y-2857328D01*
X-470072Y-2842155D01*
X-470219Y-2841925D01*
X-502911Y-2789318D01*
X-536806Y-2735496D01*
X-536871Y-2735392D01*
X-575411Y-2678505D01*
X-575486Y-2678406D01*
X-575495Y-2678393D01*
X-621837Y-2617000D01*
X-621931Y-2616875D01*
X-622021Y-2616769D01*
X-622029Y-2616759D01*
X-679728Y-2548843D01*
X-679732Y-2548839D01*
X-679831Y-2548722D01*
X-744651Y-2480534D01*
X-747867Y-2472178D01*
X-744444Y-2464201D01*
X-583623Y-2303380D01*
X-575350Y-2299953D01*
X-567478Y-2302998D01*
G37*
%TD.AperFunction*%
%TD*%
%TA.AperFunction,Conductor*%
%TO.N,GND*%
G36*
X122728037Y-37206685D02*
G01*
X122758812Y-37235314D01*
X122786050Y-37260653D01*
X122786236Y-37260798D01*
X122786243Y-37260804D01*
X122846019Y-37307395D01*
X122846024Y-37307398D01*
X122846262Y-37307584D01*
X122846523Y-37307747D01*
X122846525Y-37307748D01*
X122901890Y-37342239D01*
X122901897Y-37342243D01*
X122902175Y-37342416D01*
X122955550Y-37367777D01*
X122955836Y-37367878D01*
X122955844Y-37367881D01*
X123007931Y-37386215D01*
X123008153Y-37386293D01*
X123061745Y-37400592D01*
X123118085Y-37413299D01*
X123118089Y-37413302D01*
X123118089Y-37413300D01*
X123178797Y-37427012D01*
X123179156Y-37427100D01*
X123245781Y-37444375D01*
X123246362Y-37444541D01*
X123313254Y-37465627D01*
X123320114Y-37471383D01*
X123321434Y-37476557D01*
X123331183Y-37975256D01*
X123327918Y-37983595D01*
X123319256Y-37987183D01*
X122820557Y-37977434D01*
X122812353Y-37973846D01*
X122809627Y-37969254D01*
X122788541Y-37902362D01*
X122788375Y-37901781D01*
X122771100Y-37835156D01*
X122771012Y-37834797D01*
X122757300Y-37774089D01*
X122757301Y-37774089D01*
X122757299Y-37774085D01*
X122744623Y-37717883D01*
X122744592Y-37717745D01*
X122730293Y-37664153D01*
X122730215Y-37663931D01*
X122711881Y-37611844D01*
X122711878Y-37611836D01*
X122711777Y-37611550D01*
X122686416Y-37558175D01*
X122686243Y-37557897D01*
X122686239Y-37557890D01*
X122651748Y-37502525D01*
X122651747Y-37502523D01*
X122651584Y-37502262D01*
X122627516Y-37471383D01*
X122604804Y-37442243D01*
X122604798Y-37442236D01*
X122604653Y-37442050D01*
X122566085Y-37400592D01*
X122550685Y-37384037D01*
X122547559Y-37375646D01*
X122550978Y-37367795D01*
X122711795Y-37206978D01*
X122720068Y-37203551D01*
X122728037Y-37206685D01*
G37*
%TD.AperFunction*%
%TD*%
%TA.AperFunction,Conductor*%
%TO.N,GND*%
G36*
X19096037Y29087315D02*
G01*
X19124807Y29060551D01*
X19154050Y29033346D01*
X19154236Y29033201D01*
X19154243Y29033195D01*
X19214019Y28986604D01*
X19214024Y28986601D01*
X19214262Y28986415D01*
X19214523Y28986252D01*
X19214525Y28986251D01*
X19269890Y28951760D01*
X19269897Y28951756D01*
X19270175Y28951583D01*
X19323550Y28926222D01*
X19323836Y28926121D01*
X19323844Y28926118D01*
X19375931Y28907784D01*
X19376153Y28907706D01*
X19429745Y28893407D01*
X19486085Y28880700D01*
X19486089Y28880697D01*
X19486089Y28880699D01*
X19546797Y28866987D01*
X19547130Y28866906D01*
X19613811Y28849617D01*
X19614367Y28849457D01*
X19681253Y28828373D01*
X19688114Y28822617D01*
X19689434Y28817443D01*
X19699183Y28318744D01*
X19695918Y28310405D01*
X19687256Y28306817D01*
X19188557Y28316566D01*
X19180353Y28320154D01*
X19177627Y28324746D01*
X19156541Y28391637D01*
X19156375Y28392218D01*
X19139100Y28458843D01*
X19139012Y28459202D01*
X19125300Y28519910D01*
X19125301Y28519910D01*
X19125299Y28519914D01*
X19112623Y28576116D01*
X19112592Y28576254D01*
X19098293Y28629846D01*
X19098215Y28630068D01*
X19079881Y28682155D01*
X19079878Y28682163D01*
X19079777Y28682449D01*
X19054416Y28735824D01*
X19054243Y28736102D01*
X19054239Y28736109D01*
X19019748Y28791474D01*
X19019747Y28791476D01*
X19019584Y28791737D01*
X18999548Y28817443D01*
X18972804Y28851756D01*
X18972798Y28851763D01*
X18972653Y28851949D01*
X18918683Y28909964D01*
X18915558Y28918353D01*
X18918977Y28926204D01*
X19079795Y29087022D01*
X19088068Y29090449D01*
X19096037Y29087315D01*
G37*
%TD.AperFunction*%
%TD*%
%TA.AperFunction,Conductor*%
%TO.N,GND*%
G36*
X-461963Y16641315D02*
G01*
X-431318Y16612807D01*
X-403949Y16587346D01*
X-403763Y16587201D01*
X-403756Y16587195D01*
X-343980Y16540604D01*
X-343975Y16540601D01*
X-343737Y16540415D01*
X-343476Y16540252D01*
X-343474Y16540251D01*
X-288109Y16505760D01*
X-288102Y16505756D01*
X-287824Y16505583D01*
X-234449Y16480222D01*
X-234163Y16480121D01*
X-234155Y16480118D01*
X-182068Y16461784D01*
X-181846Y16461706D01*
X-128254Y16447407D01*
X-71914Y16434700D01*
X-71910Y16434697D01*
X-71910Y16434699D01*
X-11202Y16420987D01*
X-10843Y16420899D01*
X55787Y16403623D01*
X56367Y16403457D01*
X123253Y16382373D01*
X130114Y16376617D01*
X131434Y16371443D01*
X141183Y15872744D01*
X137918Y15864405D01*
X129256Y15860817D01*
X-369443Y15870566D01*
X-377647Y15874154D01*
X-380373Y15878747D01*
X-401458Y15945637D01*
X-401624Y15946217D01*
X-418899Y16012843D01*
X-418987Y16013202D01*
X-432699Y16073910D01*
X-432698Y16073910D01*
X-432700Y16073914D01*
X-445376Y16130116D01*
X-445407Y16130254D01*
X-459706Y16183846D01*
X-459784Y16184068D01*
X-478118Y16236155D01*
X-478121Y16236163D01*
X-478222Y16236449D01*
X-503583Y16289824D01*
X-503756Y16290102D01*
X-503760Y16290109D01*
X-538251Y16345474D01*
X-538252Y16345476D01*
X-538415Y16345737D01*
X-558451Y16371443D01*
X-585195Y16405756D01*
X-585201Y16405763D01*
X-585346Y16405949D01*
X-623914Y16447407D01*
X-639315Y16463963D01*
X-642441Y16472354D01*
X-639022Y16480205D01*
X-478205Y16641022D01*
X-469932Y16644449D01*
X-461963Y16641315D01*
G37*
%TD.AperFunction*%
%TD*%
%TA.AperFunction,Conductor*%
%TO.N,GND*%
G36*
X59355639Y28861340D02*
G01*
X59395686Y28825470D01*
X59441521Y28794401D01*
X59469626Y28781549D01*
X59482327Y28775742D01*
X59485690Y28774204D01*
X59528986Y28763561D01*
X59572205Y28761156D01*
X59572662Y28761203D01*
X59572664Y28761203D01*
X59598079Y28763815D01*
X59616140Y28765671D01*
X59661585Y28775790D01*
X59675039Y28779849D01*
X59709187Y28790151D01*
X59709203Y28790156D01*
X59709335Y28790196D01*
X59760184Y28807572D01*
X59807180Y28823909D01*
X59816119Y28823389D01*
X59820100Y28820237D01*
X60133570Y28434558D01*
X60136129Y28425977D01*
X60131870Y28418100D01*
X60130025Y28416871D01*
X59668886Y28169307D01*
X59659976Y28168413D01*
X59655010Y28171412D01*
X59601502Y28225828D01*
X59601354Y28225981D01*
X59551145Y28278936D01*
X59551003Y28279088D01*
X59507450Y28326690D01*
X59507339Y28326813D01*
X59467885Y28371183D01*
X59467829Y28371246D01*
X59429767Y28414672D01*
X59390594Y28459211D01*
X59347771Y28506955D01*
X59347763Y28506964D01*
X59347700Y28507034D01*
X59298479Y28560316D01*
X59240319Y28621230D01*
X59178768Y28683679D01*
X59175401Y28691977D01*
X59178828Y28700165D01*
X59339561Y28860898D01*
X59347834Y28864325D01*
X59355639Y28861340D01*
G37*
%TD.AperFunction*%
%TD*%
%TA.AperFunction,Conductor*%
%TO.N,GND*%
G36*
X68619761Y-13444753D02*
G01*
X68647999Y-13475864D01*
X68675093Y-13505717D01*
X68675556Y-13506260D01*
X68705187Y-13543392D01*
X68723989Y-13566954D01*
X68724418Y-13567526D01*
X68764019Y-13623893D01*
X68764325Y-13624352D01*
X68798557Y-13678318D01*
X68798691Y-13678535D01*
X68830970Y-13731962D01*
X68864643Y-13786568D01*
X68903055Y-13844048D01*
X68949619Y-13906216D01*
X69007754Y-13974887D01*
X69050936Y-14020354D01*
X69073022Y-14043608D01*
X69076234Y-14051966D01*
X69072811Y-14059938D01*
X68911998Y-14220751D01*
X68903725Y-14224178D01*
X68895842Y-14221123D01*
X68847987Y-14177479D01*
X68795720Y-14139714D01*
X68795352Y-14139521D01*
X68795349Y-14139519D01*
X68746459Y-14113859D01*
X68746454Y-14113857D01*
X68746037Y-14113638D01*
X68724987Y-14106627D01*
X68698124Y-14097680D01*
X68698122Y-14097679D01*
X68697682Y-14097533D01*
X68697225Y-14097459D01*
X68697218Y-14097457D01*
X68649788Y-14089745D01*
X68649784Y-14089745D01*
X68649399Y-14089682D01*
X68608320Y-14088588D01*
X68600197Y-14088372D01*
X68600195Y-14088372D01*
X68599931Y-14088365D01*
X68599666Y-14088383D01*
X68599659Y-14088383D01*
X68548194Y-14091853D01*
X68548181Y-14091854D01*
X68548021Y-14091865D01*
X68547861Y-14091884D01*
X68547850Y-14091885D01*
X68492438Y-14098461D01*
X68492414Y-14098464D01*
X68431930Y-14106433D01*
X68431738Y-14106456D01*
X68373316Y-14113143D01*
X68364707Y-14110679D01*
X68361460Y-14106627D01*
X68143656Y-13657771D01*
X68143127Y-13648832D01*
X68149490Y-13641945D01*
X68190722Y-13623893D01*
X68606405Y-13441898D01*
X68615358Y-13441719D01*
X68619761Y-13444753D01*
G37*
%TD.AperFunction*%
%TD*%
%TA.AperFunction,Conductor*%
%TO.N,GND*%
G36*
X80857702Y44804175D02*
G01*
X81096016Y44575000D01*
X81217231Y44458433D01*
X81220819Y44450229D01*
X81217231Y44441567D01*
X80857703Y44095826D01*
X80849364Y44092561D01*
X80844191Y44093881D01*
X80781994Y44126263D01*
X80781465Y44126556D01*
X80772739Y44131688D01*
X80722061Y44161496D01*
X80721785Y44161666D01*
X80669190Y44194881D01*
X80669188Y44194884D01*
X80669187Y44194883D01*
X80620437Y44225689D01*
X80620427Y44225695D01*
X80620359Y44225738D01*
X80572352Y44253523D01*
X80572150Y44253620D01*
X80572144Y44253623D01*
X80522339Y44277493D01*
X80522064Y44277625D01*
X80466389Y44297435D01*
X80440557Y44303436D01*
X80402524Y44312271D01*
X80402521Y44312271D01*
X80402222Y44312341D01*
X80401913Y44312379D01*
X80401909Y44312380D01*
X80357886Y44317837D01*
X80326461Y44321733D01*
X80280212Y44323403D01*
X80247278Y44324593D01*
X80239134Y44328316D01*
X80236000Y44336285D01*
X80236000Y44563715D01*
X80239427Y44571988D01*
X80247278Y44575407D01*
X80270870Y44576259D01*
X80326461Y44578266D01*
X80357886Y44582162D01*
X80401909Y44587619D01*
X80401913Y44587620D01*
X80402222Y44587658D01*
X80402521Y44587728D01*
X80402524Y44587728D01*
X80466070Y44602490D01*
X80466068Y44602490D01*
X80466389Y44602564D01*
X80522064Y44622374D01*
X80541766Y44631817D01*
X80572144Y44646376D01*
X80572150Y44646379D01*
X80572352Y44646476D01*
X80620359Y44674261D01*
X80669187Y44705116D01*
X80721785Y44738333D01*
X80722061Y44738503D01*
X80781465Y44773443D01*
X80781994Y44773736D01*
X80844191Y44806119D01*
X80853112Y44806900D01*
X80857702Y44804175D01*
G37*
%TD.AperFunction*%
%TD*%
%TA.AperFunction,Conductor*%
%TO.N,GND*%
G36*
X-474621Y35691308D02*
G01*
X-430033Y35649789D01*
X-416348Y35637046D01*
X-355901Y35589812D01*
X-299757Y35554721D01*
X-299467Y35554583D01*
X-299458Y35554578D01*
X-248271Y35530216D01*
X-246130Y35529197D01*
X-193234Y35510665D01*
X-193014Y35510607D01*
X-193006Y35510605D01*
X-143666Y35497694D01*
X-139285Y35496548D01*
X-82496Y35484268D01*
X-21234Y35471283D01*
X-20921Y35471212D01*
X310Y35466100D01*
X46488Y35454980D01*
X46993Y35454845D01*
X114708Y35435051D01*
X121686Y35429440D01*
X123114Y35424312D01*
X144046Y34925943D01*
X140969Y34917533D01*
X132390Y34913752D01*
X-31461Y34913279D01*
X-366410Y34912312D01*
X-374692Y34915715D01*
X-377517Y34920236D01*
X-400672Y34988148D01*
X-400849Y34988712D01*
X-420111Y35056191D01*
X-420206Y35056546D01*
X-435656Y35117907D01*
X-435659Y35117920D01*
X-449899Y35174746D01*
X-449930Y35174870D01*
X-465655Y35229072D01*
X-485507Y35282329D01*
X-512159Y35336457D01*
X-548286Y35393271D01*
X-596561Y35454588D01*
X-624996Y35485068D01*
X-651951Y35513962D01*
X-655089Y35522349D01*
X-651669Y35530216D01*
X-490867Y35691018D01*
X-482594Y35694445D01*
X-474621Y35691308D01*
G37*
%TD.AperFunction*%
%TD*%
%TA.AperFunction,Conductor*%
%TO.N,GND*%
G36*
X103209703Y-28855826D02*
G01*
X103569231Y-29201567D01*
X103572819Y-29209771D01*
X103569231Y-29218433D01*
X103209703Y-29564174D01*
X103201365Y-29567439D01*
X103196191Y-29566119D01*
X103133994Y-29533736D01*
X103133465Y-29533443D01*
X103124739Y-29528311D01*
X103074061Y-29498503D01*
X103073785Y-29498333D01*
X103021190Y-29465118D01*
X103021188Y-29465115D01*
X103021187Y-29465116D01*
X102972437Y-29434310D01*
X102972427Y-29434304D01*
X102972359Y-29434261D01*
X102924352Y-29406476D01*
X102924150Y-29406379D01*
X102924144Y-29406376D01*
X102874339Y-29382506D01*
X102874064Y-29382374D01*
X102818389Y-29362564D01*
X102792557Y-29356563D01*
X102754524Y-29347728D01*
X102754521Y-29347728D01*
X102754222Y-29347658D01*
X102753913Y-29347620D01*
X102753909Y-29347619D01*
X102709886Y-29342162D01*
X102678461Y-29338266D01*
X102622870Y-29336259D01*
X102599278Y-29335407D01*
X102591134Y-29331684D01*
X102588000Y-29323715D01*
X102588000Y-29096285D01*
X102591427Y-29088012D01*
X102599278Y-29084593D01*
X102632212Y-29083403D01*
X102678461Y-29081733D01*
X102709886Y-29077837D01*
X102753909Y-29072380D01*
X102753913Y-29072379D01*
X102754222Y-29072341D01*
X102754521Y-29072271D01*
X102754524Y-29072271D01*
X102818070Y-29057509D01*
X102818068Y-29057509D01*
X102818389Y-29057435D01*
X102874064Y-29037625D01*
X102893766Y-29028182D01*
X102924144Y-29013623D01*
X102924150Y-29013620D01*
X102924352Y-29013523D01*
X102972359Y-28985738D01*
X103021187Y-28954883D01*
X103073785Y-28921666D01*
X103074061Y-28921496D01*
X103133465Y-28886556D01*
X103133994Y-28886263D01*
X103141879Y-28882158D01*
X103196191Y-28853881D01*
X103205111Y-28853100D01*
X103209703Y-28855826D01*
G37*
%TD.AperFunction*%
%TD*%
%TA.AperFunction,Conductor*%
%TO.N,GND*%
G36*
X79988292Y11962663D02*
G01*
X80450662Y11691813D01*
X80456068Y11684675D01*
X80454843Y11675804D01*
X80452859Y11673286D01*
X80312801Y11538599D01*
X80096070Y11330179D01*
X80087731Y11326914D01*
X80081983Y11328554D01*
X80029871Y11359524D01*
X80028601Y11360396D01*
X79974369Y11403181D01*
X79973695Y11403756D01*
X79923037Y11450358D01*
X79922848Y11450535D01*
X79874758Y11496778D01*
X79874754Y11496782D01*
X79874709Y11496825D01*
X79874673Y11496858D01*
X79874656Y11496873D01*
X79828439Y11538188D01*
X79828194Y11538407D01*
X79782191Y11571080D01*
X79781602Y11571328D01*
X79781598Y11571330D01*
X79748992Y11585043D01*
X79735511Y11590713D01*
X79734492Y11590765D01*
X79734491Y11590765D01*
X79720706Y11591465D01*
X79686966Y11593178D01*
X79685865Y11592776D01*
X79685864Y11592776D01*
X79636247Y11574665D01*
X79636244Y11574664D01*
X79635369Y11574344D01*
X79634636Y11573763D01*
X79587701Y11536557D01*
X79579089Y11534103D01*
X79572160Y11537453D01*
X79411656Y11697957D01*
X79408229Y11706230D01*
X79412280Y11715084D01*
X79467535Y11762819D01*
X79469077Y11763945D01*
X79500823Y11783370D01*
X79529784Y11801091D01*
X79531508Y11801959D01*
X79589599Y11825372D01*
X79591145Y11825873D01*
X79647546Y11839928D01*
X79648517Y11840127D01*
X79704163Y11849075D01*
X79704332Y11849100D01*
X79730654Y11852941D01*
X79759363Y11857130D01*
X79782116Y11861884D01*
X79813734Y11868489D01*
X79813741Y11868491D01*
X79814105Y11868567D01*
X79868956Y11887755D01*
X79924459Y11919058D01*
X79930703Y11924320D01*
X79974838Y11961515D01*
X79983373Y11964226D01*
X79988292Y11962663D01*
G37*
%TD.AperFunction*%
%TD*%
%TA.AperFunction,Conductor*%
%TO.N,GND*%
G36*
X19350037Y47629315D02*
G01*
X19378807Y47602551D01*
X19408050Y47575346D01*
X19408236Y47575201D01*
X19408243Y47575195D01*
X19468019Y47528604D01*
X19468024Y47528601D01*
X19468262Y47528415D01*
X19468523Y47528252D01*
X19468525Y47528251D01*
X19523890Y47493760D01*
X19523897Y47493756D01*
X19524175Y47493583D01*
X19577550Y47468222D01*
X19577836Y47468121D01*
X19577844Y47468118D01*
X19629931Y47449784D01*
X19630153Y47449706D01*
X19683745Y47435407D01*
X19740085Y47422700D01*
X19740089Y47422697D01*
X19740089Y47422699D01*
X19800797Y47408987D01*
X19801130Y47408906D01*
X19867811Y47391617D01*
X19868367Y47391457D01*
X19935253Y47370373D01*
X19942114Y47364617D01*
X19943434Y47359443D01*
X19953183Y46860744D01*
X19949918Y46852405D01*
X19941256Y46848817D01*
X19442557Y46858566D01*
X19434353Y46862154D01*
X19431627Y46866746D01*
X19410541Y46933637D01*
X19410375Y46934218D01*
X19393100Y47000843D01*
X19393012Y47001202D01*
X19379300Y47061910D01*
X19379301Y47061910D01*
X19379299Y47061914D01*
X19366623Y47118116D01*
X19366592Y47118254D01*
X19352293Y47171846D01*
X19352215Y47172068D01*
X19333881Y47224155D01*
X19333878Y47224163D01*
X19333777Y47224449D01*
X19308416Y47277824D01*
X19308243Y47278102D01*
X19308239Y47278109D01*
X19273748Y47333474D01*
X19273747Y47333476D01*
X19273584Y47333737D01*
X19253548Y47359443D01*
X19226804Y47393756D01*
X19226798Y47393763D01*
X19226653Y47393949D01*
X19172683Y47451964D01*
X19169558Y47460353D01*
X19172977Y47468204D01*
X19333795Y47629022D01*
X19342068Y47632449D01*
X19350037Y47629315D01*
G37*
%TD.AperFunction*%
%TD*%
%TA.AperFunction,Conductor*%
%TO.N,GND*%
G36*
X106925992Y47402982D02*
G01*
X106929580Y47394320D01*
X106925864Y47204228D01*
X106909692Y46376900D01*
X106907748Y46277474D01*
X106904160Y46269270D01*
X106899354Y46266479D01*
X106728611Y46216224D01*
X106727561Y46215967D01*
X106674952Y46205639D01*
X106567263Y46184500D01*
X106566470Y46184373D01*
X106456505Y46170786D01*
X106420255Y46166307D01*
X106419872Y46166266D01*
X106283837Y46153986D01*
X106154352Y46139863D01*
X106154156Y46139826D01*
X106154153Y46139826D01*
X106028117Y46116312D01*
X106028115Y46116311D01*
X106027764Y46116246D01*
X105900233Y46075465D01*
X105767918Y46009852D01*
X105626976Y45911740D01*
X105482284Y45781314D01*
X105481821Y45780897D01*
X105473381Y45777903D01*
X105465714Y45781314D01*
X105304647Y45942381D01*
X105301220Y45950654D01*
X105304230Y45958488D01*
X105434828Y46103371D01*
X105434829Y46103373D01*
X105435073Y46103643D01*
X105533185Y46244585D01*
X105598798Y46376900D01*
X105639579Y46504431D01*
X105663196Y46631019D01*
X105677319Y46760504D01*
X105689599Y46896539D01*
X105689640Y46896922D01*
X105707704Y47043124D01*
X105707835Y47043943D01*
X105739300Y47204228D01*
X105739557Y47205278D01*
X105789812Y47376021D01*
X105795435Y47382989D01*
X105800805Y47384415D01*
X106548586Y47399033D01*
X106917653Y47406247D01*
X106925992Y47402982D01*
G37*
%TD.AperFunction*%
%TD*%
%TA.AperFunction,Conductor*%
%TO.N,GND*%
G36*
X80418298Y26025676D02*
G01*
X80656612Y25796501D01*
X80777827Y25679934D01*
X80781415Y25671730D01*
X80777827Y25663068D01*
X80418299Y25317327D01*
X80409960Y25314062D01*
X80404787Y25315382D01*
X80342590Y25347764D01*
X80342061Y25348057D01*
X80333335Y25353189D01*
X80282657Y25382997D01*
X80282381Y25383167D01*
X80229786Y25416382D01*
X80229784Y25416385D01*
X80229783Y25416384D01*
X80181033Y25447190D01*
X80181023Y25447196D01*
X80180955Y25447239D01*
X80132948Y25475024D01*
X80132746Y25475121D01*
X80132740Y25475124D01*
X80082935Y25498994D01*
X80082660Y25499126D01*
X80026985Y25518936D01*
X80001153Y25524937D01*
X79963120Y25533772D01*
X79963117Y25533772D01*
X79962818Y25533842D01*
X79962509Y25533880D01*
X79962505Y25533881D01*
X79918482Y25539338D01*
X79887057Y25543234D01*
X79840808Y25544904D01*
X79807874Y25546094D01*
X79799730Y25549817D01*
X79796596Y25557786D01*
X79796596Y25785216D01*
X79800023Y25793489D01*
X79807874Y25796908D01*
X79831466Y25797760D01*
X79887057Y25799767D01*
X79918482Y25803663D01*
X79962505Y25809120D01*
X79962509Y25809121D01*
X79962818Y25809159D01*
X79963117Y25809229D01*
X79963120Y25809229D01*
X80026666Y25823991D01*
X80026664Y25823991D01*
X80026985Y25824065D01*
X80082660Y25843875D01*
X80102362Y25853318D01*
X80132740Y25867877D01*
X80132746Y25867880D01*
X80132948Y25867977D01*
X80180955Y25895762D01*
X80229783Y25926617D01*
X80282381Y25959834D01*
X80282657Y25960004D01*
X80342061Y25994944D01*
X80342590Y25995237D01*
X80404787Y26027620D01*
X80413708Y26028401D01*
X80418298Y26025676D01*
G37*
%TD.AperFunction*%
%TD*%
%TA.AperFunction,Conductor*%
%TO.N,GND*%
G36*
X40520666Y34382536D02*
G01*
X40841913Y34073608D01*
X40877604Y34039286D01*
X40881192Y34031082D01*
X40877927Y34022743D01*
X40875408Y34020758D01*
X40413241Y33750027D01*
X40404370Y33748802D01*
X40399551Y33751380D01*
X40349861Y33795575D01*
X40349859Y33795577D01*
X40349583Y33795822D01*
X40349275Y33796033D01*
X40296394Y33832202D01*
X40296389Y33832205D01*
X40296101Y33832402D01*
X40244500Y33859094D01*
X40193824Y33879523D01*
X40193698Y33879567D01*
X40193688Y33879571D01*
X40143194Y33897288D01*
X40143073Y33897331D01*
X40140553Y33898247D01*
X40091749Y33915976D01*
X40091084Y33916242D01*
X40038305Y33939261D01*
X40037300Y33939758D01*
X39981817Y33970799D01*
X39980694Y33971515D01*
X39921373Y34014236D01*
X39920362Y34015053D01*
X39864748Y34065356D01*
X39860911Y34073447D01*
X39864323Y34082306D01*
X40024940Y34242923D01*
X40033213Y34246350D01*
X40040590Y34243731D01*
X40083146Y34209159D01*
X40083768Y34208654D01*
X40132091Y34187717D01*
X40133076Y34187646D01*
X40133077Y34187646D01*
X40177325Y34184470D01*
X40177326Y34184470D01*
X40178247Y34184404D01*
X40223113Y34195548D01*
X40267568Y34217980D01*
X40312489Y34248532D01*
X40314903Y34250384D01*
X40358754Y34284035D01*
X40407029Y34321158D01*
X40407456Y34321471D01*
X40458385Y34356916D01*
X40459300Y34357490D01*
X40506808Y34384293D01*
X40515697Y34385374D01*
X40520666Y34382536D01*
G37*
%TD.AperFunction*%
%TD*%
%TA.AperFunction,Conductor*%
%TO.N,GND*%
G36*
X39670037Y53471315D02*
G01*
X39698807Y53444551D01*
X39728050Y53417346D01*
X39728236Y53417201D01*
X39728243Y53417195D01*
X39788019Y53370604D01*
X39788024Y53370601D01*
X39788262Y53370415D01*
X39788523Y53370252D01*
X39788525Y53370251D01*
X39843890Y53335760D01*
X39843897Y53335756D01*
X39844175Y53335583D01*
X39897550Y53310222D01*
X39897836Y53310121D01*
X39897844Y53310118D01*
X39949931Y53291784D01*
X39950153Y53291706D01*
X40003745Y53277407D01*
X40060085Y53264700D01*
X40060089Y53264697D01*
X40060089Y53264699D01*
X40120797Y53250987D01*
X40121130Y53250906D01*
X40187811Y53233617D01*
X40188367Y53233457D01*
X40255253Y53212373D01*
X40262114Y53206617D01*
X40263434Y53201443D01*
X40273183Y52702744D01*
X40269918Y52694405D01*
X40261256Y52690817D01*
X39762557Y52700566D01*
X39754353Y52704154D01*
X39751627Y52708746D01*
X39730541Y52775637D01*
X39730375Y52776218D01*
X39713100Y52842843D01*
X39713012Y52843202D01*
X39699300Y52903910D01*
X39699301Y52903910D01*
X39699299Y52903914D01*
X39686623Y52960116D01*
X39686592Y52960254D01*
X39672293Y53013846D01*
X39672215Y53014068D01*
X39653881Y53066155D01*
X39653878Y53066163D01*
X39653777Y53066449D01*
X39628416Y53119824D01*
X39628243Y53120102D01*
X39628239Y53120109D01*
X39593748Y53175474D01*
X39593747Y53175476D01*
X39593584Y53175737D01*
X39573548Y53201443D01*
X39546804Y53235756D01*
X39546798Y53235763D01*
X39546653Y53235949D01*
X39492683Y53293964D01*
X39489558Y53302353D01*
X39492977Y53310204D01*
X39653795Y53471022D01*
X39662068Y53474449D01*
X39670037Y53471315D01*
G37*
%TD.AperFunction*%
%TD*%
%TA.AperFunction,Conductor*%
%TO.N,O5*%
G36*
X107063426Y11522537D02*
G01*
X107243668Y11423773D01*
X107244630Y11423183D01*
X107399591Y11317583D01*
X107400298Y11317061D01*
X107532538Y11211567D01*
X107532862Y11211300D01*
X107651879Y11109046D01*
X107766890Y11013454D01*
X107767066Y11013329D01*
X107767071Y11013325D01*
X107886883Y10928134D01*
X107886888Y10928131D01*
X107887186Y10927919D01*
X107945479Y10896742D01*
X108021804Y10855921D01*
X108021809Y10855919D01*
X108022205Y10855707D01*
X108133983Y10816649D01*
X108180957Y10800234D01*
X108180960Y10800233D01*
X108181387Y10800084D01*
X108181827Y10800002D01*
X108181832Y10800001D01*
X108340026Y10770650D01*
X108374172Y10764315D01*
X108598927Y10752261D01*
X108607004Y10748396D01*
X108610000Y10740578D01*
X108610000Y10514529D01*
X108606573Y10506256D01*
X108599676Y10502910D01*
X108594087Y10502248D01*
X108592711Y10502167D01*
X108584476Y10502167D01*
X108584003Y10502088D01*
X108584000Y10502088D01*
X108581580Y10501685D01*
X108568545Y10499515D01*
X108567268Y10499375D01*
X108374172Y10489018D01*
X108340026Y10482683D01*
X108181832Y10453332D01*
X108181827Y10453331D01*
X108181387Y10453249D01*
X108180960Y10453100D01*
X108180957Y10453099D01*
X108133983Y10436684D01*
X108022205Y10397626D01*
X108021809Y10397414D01*
X108021804Y10397412D01*
X107945479Y10356591D01*
X107887186Y10325414D01*
X107886888Y10325202D01*
X107886883Y10325199D01*
X107767071Y10240008D01*
X107766890Y10239879D01*
X107651879Y10144287D01*
X107532867Y10042037D01*
X107532538Y10041766D01*
X107400298Y9936272D01*
X107399591Y9935750D01*
X107244630Y9830150D01*
X107243668Y9829560D01*
X107112940Y9757928D01*
X107063426Y9730797D01*
X107054524Y9729827D01*
X107049694Y9732625D01*
X106252221Y10499516D01*
X106128769Y10618234D01*
X106125181Y10626438D01*
X106128769Y10635100D01*
X106249985Y10751667D01*
X106433265Y10927919D01*
X107049694Y11520709D01*
X107058033Y11523974D01*
X107063426Y11522537D01*
G37*
%TD.AperFunction*%
%TD*%
%TA.AperFunction,Conductor*%
%TO.N,O2*%
G36*
X93093071Y11760773D02*
G01*
X93254106Y11599738D01*
X93257533Y11591465D01*
X93254508Y11583614D01*
X93198863Y11522125D01*
X93144320Y11461854D01*
X93060055Y11342553D01*
X93059869Y11342190D01*
X93059867Y11342186D01*
X93051885Y11326577D01*
X93002851Y11230687D01*
X92966379Y11122978D01*
X92944309Y11016151D01*
X92930311Y10906928D01*
X92930300Y10906821D01*
X92930297Y10906799D01*
X92918075Y10792187D01*
X92918034Y10791852D01*
X92901271Y10668575D01*
X92901142Y10667813D01*
X92873564Y10532614D01*
X92873316Y10531622D01*
X92830897Y10388737D01*
X92825258Y10381781D01*
X92819910Y10380369D01*
X91867000Y10361740D01*
X91858661Y10365005D01*
X91855073Y10373667D01*
X91873702Y11326577D01*
X91877290Y11334781D01*
X91882069Y11337563D01*
X91962197Y11361352D01*
X92024955Y11379983D01*
X92025947Y11380231D01*
X92161146Y11407809D01*
X92161905Y11407937D01*
X92285220Y11424705D01*
X92285490Y11424738D01*
X92400261Y11436978D01*
X92401734Y11437167D01*
X92509261Y11450947D01*
X92509272Y11450949D01*
X92509484Y11450976D01*
X92509697Y11451020D01*
X92509703Y11451021D01*
X92615958Y11472973D01*
X92615959Y11472973D01*
X92616311Y11473046D01*
X92724020Y11509518D01*
X92798456Y11547582D01*
X92835519Y11566534D01*
X92835523Y11566536D01*
X92835886Y11566722D01*
X92955187Y11650987D01*
X93015458Y11705530D01*
X93076947Y11761175D01*
X93085381Y11764185D01*
X93093071Y11760773D01*
G37*
%TD.AperFunction*%
%TD*%
%TA.AperFunction,Conductor*%
%TO.N,B2*%
G36*
X106679483Y24539266D02*
G01*
X107439195Y24524415D01*
X107447398Y24520827D01*
X107450188Y24516022D01*
X107500442Y24345280D01*
X107500699Y24344231D01*
X107532164Y24183943D01*
X107532295Y24183124D01*
X107550359Y24036922D01*
X107550400Y24036539D01*
X107562680Y23900504D01*
X107576803Y23771019D01*
X107600420Y23644431D01*
X107641201Y23516900D01*
X107706814Y23384585D01*
X107804926Y23243643D01*
X107805170Y23243373D01*
X107805171Y23243371D01*
X107935770Y23098488D01*
X107938764Y23090048D01*
X107935353Y23082381D01*
X107774287Y22921315D01*
X107766014Y22917888D01*
X107758180Y22920897D01*
X107613288Y23051501D01*
X107613023Y23051740D01*
X107612716Y23051954D01*
X107591699Y23066585D01*
X107590110Y23067914D01*
X107437839Y23220185D01*
X107436283Y23222111D01*
X107425058Y23239495D01*
X107424534Y23240307D01*
X107392872Y23265267D01*
X107391842Y23266182D01*
X107386019Y23272005D01*
X107385629Y23272283D01*
X107385624Y23272288D01*
X107368112Y23284802D01*
X107367671Y23285133D01*
X107326077Y23317923D01*
X107325316Y23318523D01*
X107318254Y23321003D01*
X107315327Y23322523D01*
X107310018Y23326317D01*
X107310019Y23326317D01*
X107309229Y23326881D01*
X107308301Y23327159D01*
X107308298Y23327160D01*
X107257540Y23342340D01*
X107257016Y23342510D01*
X107206810Y23360140D01*
X107206809Y23360140D01*
X107206112Y23360385D01*
X107205380Y23360448D01*
X107205377Y23360449D01*
X107200807Y23360845D01*
X107200795Y23360846D01*
X107200547Y23360867D01*
X107197295Y23360867D01*
X107193943Y23361358D01*
X107189116Y23362802D01*
X107189114Y23362802D01*
X107188185Y23363080D01*
X107187216Y23363042D01*
X107187215Y23363042D01*
X107132088Y23360876D01*
X107131629Y23360867D01*
X106497300Y23360867D01*
X106493996Y23361343D01*
X106340646Y23406479D01*
X106333678Y23412102D01*
X106332252Y23417474D01*
X106330309Y23516900D01*
X106314136Y24344231D01*
X106310420Y24534320D01*
X106313685Y24542659D01*
X106322347Y24546247D01*
X106679483Y24539266D01*
G37*
%TD.AperFunction*%
%TD*%
%TA.AperFunction,Conductor*%
%TO.N,B3*%
G36*
X106679483Y27079266D02*
G01*
X107439195Y27064415D01*
X107447398Y27060827D01*
X107450188Y27056022D01*
X107500442Y26885280D01*
X107500699Y26884231D01*
X107532164Y26723943D01*
X107532295Y26723124D01*
X107550359Y26576922D01*
X107550400Y26576539D01*
X107562680Y26440504D01*
X107576803Y26311019D01*
X107600420Y26184431D01*
X107641201Y26056900D01*
X107706814Y25924585D01*
X107804926Y25783643D01*
X107805170Y25783373D01*
X107805171Y25783371D01*
X107935770Y25638488D01*
X107938764Y25630048D01*
X107935353Y25622381D01*
X107774287Y25461315D01*
X107766014Y25457888D01*
X107758180Y25460897D01*
X107613288Y25591501D01*
X107613023Y25591740D01*
X107472081Y25689852D01*
X107339766Y25755465D01*
X107212235Y25796246D01*
X107211884Y25796311D01*
X107211882Y25796312D01*
X107085846Y25819826D01*
X107085843Y25819826D01*
X107085647Y25819863D01*
X106956162Y25833986D01*
X106820127Y25846266D01*
X106819744Y25846307D01*
X106783494Y25850786D01*
X106673529Y25864373D01*
X106672736Y25864500D01*
X106565047Y25885639D01*
X106512438Y25895967D01*
X106511388Y25896224D01*
X106340646Y25946479D01*
X106333678Y25952102D01*
X106332252Y25957474D01*
X106330309Y26056900D01*
X106314136Y26884231D01*
X106310420Y27074320D01*
X106313685Y27082659D01*
X106322347Y27086247D01*
X106679483Y27079266D01*
G37*
%TD.AperFunction*%
%TD*%
%TA.AperFunction,Conductor*%
%TO.N,O4*%
G36*
X107946594Y9614356D02*
G01*
X108107689Y9453261D01*
X108111116Y9444988D01*
X108108120Y9437170D01*
X107957719Y9269721D01*
X107846692Y9108109D01*
X107773464Y8956218D01*
X107729053Y8809684D01*
X107704473Y8664140D01*
X107704453Y8663926D01*
X107704453Y8663924D01*
X107702026Y8637601D01*
X107699895Y8631875D01*
X107695572Y8625825D01*
X107695241Y8625385D01*
X107667015Y8589579D01*
X107661844Y8583020D01*
X107661523Y8582106D01*
X107659364Y8575958D01*
X107657845Y8573033D01*
X107653486Y8566933D01*
X107653208Y8566005D01*
X107653207Y8566002D01*
X107638027Y8515244D01*
X107637857Y8514720D01*
X107620227Y8464514D01*
X107619982Y8463816D01*
X107619919Y8463084D01*
X107619918Y8463081D01*
X107619522Y8458511D01*
X107619521Y8458499D01*
X107619500Y8458251D01*
X107619500Y8454999D01*
X107619009Y8451647D01*
X107617287Y8445889D01*
X107617325Y8444920D01*
X107617325Y8444919D01*
X107619491Y8389792D01*
X107619500Y8389333D01*
X107619500Y7988105D01*
X107619031Y7984825D01*
X107567025Y7806742D01*
X107561416Y7799761D01*
X107556023Y7798324D01*
X107461537Y7796477D01*
X106278612Y7773352D01*
X106270273Y7776617D01*
X106266685Y7785279D01*
X106291657Y9062690D01*
X106295245Y9070894D01*
X106300075Y9073692D01*
X106497348Y9131302D01*
X106498450Y9131567D01*
X106682702Y9166471D01*
X106683572Y9166602D01*
X106829304Y9182999D01*
X106851686Y9185517D01*
X106852101Y9185557D01*
X107008555Y9197408D01*
X107064249Y9202544D01*
X107157257Y9211120D01*
X107157259Y9211120D01*
X107157473Y9211140D01*
X107157680Y9211175D01*
X107157688Y9211176D01*
X107232406Y9223795D01*
X107303017Y9235720D01*
X107303358Y9235823D01*
X107303365Y9235825D01*
X107416140Y9270005D01*
X107449551Y9280131D01*
X107601442Y9353359D01*
X107763054Y9464386D01*
X107930503Y9614787D01*
X107938948Y9617766D01*
X107946594Y9614356D01*
G37*
%TD.AperFunction*%
%TD*%
%TA.AperFunction,Conductor*%
%TO.N,O3*%
G36*
X108119744Y7052039D02*
G01*
X108123144Y7042966D01*
X108109949Y6850393D01*
X108109687Y6848608D01*
X108071788Y6681294D01*
X108071237Y6679525D01*
X108015427Y6540309D01*
X108014749Y6538899D01*
X107946822Y6418917D01*
X107946321Y6418111D01*
X107872043Y6308665D01*
X107871969Y6308557D01*
X107797407Y6201289D01*
X107728863Y6088007D01*
X107672415Y5960188D01*
X107634111Y5809264D01*
X107634072Y5808761D01*
X107634072Y5808760D01*
X107620641Y5634978D01*
X107616587Y5626994D01*
X107611933Y5624560D01*
X106281404Y5277021D01*
X106272533Y5278246D01*
X106267127Y5285384D01*
X106266749Y5288570D01*
X106273317Y5624560D01*
X106291647Y6562190D01*
X106295235Y6570393D01*
X106300682Y6573353D01*
X106503368Y6620714D01*
X106505301Y6620998D01*
X106617125Y6627990D01*
X106721557Y6634520D01*
X106722766Y6634533D01*
X106846347Y6629397D01*
X106938553Y6625565D01*
X106939083Y6625531D01*
X107147768Y6607336D01*
X107342476Y6593313D01*
X107342729Y6593318D01*
X107342736Y6593318D01*
X107515808Y6596882D01*
X107515812Y6596882D01*
X107516419Y6596895D01*
X107517015Y6597036D01*
X107517018Y6597036D01*
X107661986Y6631235D01*
X107661987Y6631236D01*
X107663070Y6631491D01*
X107775902Y6710512D01*
X107776553Y6711740D01*
X107776554Y6711742D01*
X107847885Y6846419D01*
X107848387Y6847367D01*
X107856553Y6913717D01*
X107872736Y7045195D01*
X107877147Y7052988D01*
X107884348Y7055466D01*
X108111471Y7055466D01*
X108119744Y7052039D01*
G37*
%TD.AperFunction*%
%TD*%
%TA.AperFunction,Conductor*%
%TO.N,B1*%
G36*
X107388398Y29734857D02*
G01*
X107391957Y29730573D01*
X107473779Y29562397D01*
X107474236Y29561325D01*
X107532664Y29402831D01*
X107532968Y29401883D01*
X107572976Y29256243D01*
X107573122Y29255654D01*
X107603154Y29118793D01*
X107631578Y28987079D01*
X107666783Y28856983D01*
X107717222Y28724680D01*
X107791348Y28586348D01*
X107897615Y28438163D01*
X107897836Y28437919D01*
X107897838Y28437917D01*
X108036986Y28284556D01*
X108040007Y28276126D01*
X108036594Y28268421D01*
X107875532Y28107359D01*
X107867259Y28103932D01*
X107859449Y28106920D01*
X107722407Y28229776D01*
X107722115Y28230038D01*
X107721793Y28230256D01*
X107721790Y28230259D01*
X107588175Y28320973D01*
X107588173Y28320974D01*
X107587780Y28321241D01*
X107460997Y28379940D01*
X107460518Y28380068D01*
X107460517Y28380069D01*
X107338488Y28412830D01*
X107338485Y28412831D01*
X107338070Y28412942D01*
X107337637Y28412992D01*
X107337636Y28412992D01*
X107306636Y28416556D01*
X107215304Y28427055D01*
X107215013Y28427060D01*
X107215008Y28427060D01*
X107089137Y28429084D01*
X107089129Y28429084D01*
X107089002Y28429086D01*
X107034611Y28427764D01*
X106955491Y28425842D01*
X106955346Y28425840D01*
X106811327Y28424132D01*
X106810701Y28424141D01*
X106757748Y28426346D01*
X106652385Y28430735D01*
X106651468Y28430810D01*
X106483005Y28451486D01*
X106475211Y28455895D01*
X106472934Y28460922D01*
X106397941Y28856983D01*
X106348367Y29118793D01*
X106265107Y29558512D01*
X106266935Y29567279D01*
X106274876Y29572261D01*
X107379711Y29737026D01*
X107388398Y29734857D01*
G37*
%TD.AperFunction*%
%TD*%
%TA.AperFunction,Conductor*%
%TO.N,O1*%
G36*
X91163053Y6761175D02*
G01*
X91219048Y6710501D01*
X91284812Y6650987D01*
X91404113Y6566722D01*
X91404476Y6566536D01*
X91404480Y6566534D01*
X91441543Y6547582D01*
X91515979Y6509518D01*
X91623688Y6473046D01*
X91624040Y6472973D01*
X91624041Y6472973D01*
X91730296Y6451021D01*
X91730302Y6451020D01*
X91730515Y6450976D01*
X91730727Y6450949D01*
X91730738Y6450947D01*
X91838265Y6437167D01*
X91839738Y6436978D01*
X91954509Y6424738D01*
X91954779Y6424705D01*
X92078094Y6407937D01*
X92078853Y6407809D01*
X92214052Y6380231D01*
X92215044Y6379983D01*
X92276099Y6361857D01*
X92357931Y6337564D01*
X92364886Y6331925D01*
X92366298Y6326577D01*
X92384927Y5373667D01*
X92381662Y5365328D01*
X92373000Y5361740D01*
X91420090Y5380369D01*
X91411886Y5383957D01*
X91409103Y5388737D01*
X91366683Y5531622D01*
X91366435Y5532614D01*
X91338857Y5667813D01*
X91338728Y5668575D01*
X91321965Y5791852D01*
X91321924Y5792187D01*
X91309702Y5906799D01*
X91309699Y5906821D01*
X91309688Y5906928D01*
X91295690Y6016151D01*
X91273620Y6122978D01*
X91237148Y6230687D01*
X91185379Y6331925D01*
X91180132Y6342186D01*
X91180130Y6342190D01*
X91179944Y6342553D01*
X91095679Y6461854D01*
X91045695Y6517088D01*
X90985492Y6583614D01*
X90982482Y6592048D01*
X90985894Y6599738D01*
X91146929Y6760773D01*
X91155202Y6764200D01*
X91163053Y6761175D01*
G37*
%TD.AperFunction*%
%TD*%
M02*
