%TF.GenerationSoftware,KiCad,Pcbnew,6.0.11+dfsg-1*%
%TF.CreationDate,2023-05-31T00:32:04+03:00*%
%TF.ProjectId,pcb,7063622e-6b69-4636-9164-5f7063625858,v1.0.0*%
%TF.SameCoordinates,Original*%
%TF.FileFunction,Profile,NP*%
%FSLAX46Y46*%
G04 Gerber Fmt 4.6, Leading zero omitted, Abs format (unit mm)*
G04 Created by KiCad (PCBNEW 6.0.11+dfsg-1) date 2023-05-31 00:32:04*
%MOMM*%
%LPD*%
G01*
G04 APERTURE LIST*
%TA.AperFunction,Profile*%
%ADD10C,0.150000*%
%TD*%
G04 APERTURE END LIST*
D10*
X-7500000Y46500000D02*
G75*
G03*
X-10000000Y44000000I0J-2500000D01*
G01*
X-10000000Y-6000000D02*
G75*
G03*
X-7500000Y-8500000I2500000J0D01*
G01*
X30600000Y61000000D02*
X30600000Y61666667D01*
X10000000Y49000000D02*
X10000000Y56000000D01*
X114610860Y-47470491D02*
G75*
G03*
X118009420Y-46495989I1212040J2186491D01*
G01*
X-3625116Y-8596846D02*
G75*
G03*
X-4314209Y-8500000I-689094J-2403150D01*
G01*
X28100000Y58500000D02*
G75*
G03*
X30600000Y61000000I0J2500000D01*
G01*
X69000000Y55666667D02*
X69000000Y57500000D01*
X62870482Y-30175119D02*
G75*
G03*
X63852872Y-31192419I999818J-17481D01*
G01*
X126000000Y-3272784D02*
X125991776Y-23775763D01*
X115999967Y25166667D02*
G75*
G03*
X118500000Y22666667I2500033J33D01*
G01*
X33100000Y64166670D02*
G75*
G03*
X30600000Y61666667I0J-2500000D01*
G01*
X125999967Y20166667D02*
G75*
G03*
X123500000Y22666667I-2499967J33D01*
G01*
X96284767Y-37312192D02*
G75*
G03*
X95761833Y-37095595I-1211967J-2186508D01*
G01*
X118009420Y-46495989D02*
X125863336Y-32327149D01*
X115999967Y53166667D02*
G75*
G03*
X113500000Y55666667I-2499967J33D01*
G01*
X96284763Y-37312200D02*
X114610847Y-47470514D01*
X33100000Y64166667D02*
X48100000Y64166667D01*
X125843430Y-32274469D02*
X125765855Y-32273115D01*
X7500000Y46500000D02*
G75*
G03*
X10000000Y49000000I0J2500000D01*
G01*
X50599967Y61666667D02*
G75*
G03*
X48100000Y64166667I-2499967J33D01*
G01*
X76225284Y-31493573D02*
G75*
G03*
X75579820Y-31397114I-689084J-2403227D01*
G01*
X62914089Y-27676656D02*
X-3625116Y-8596846D01*
X63852873Y-31192420D02*
X75579820Y-31397114D01*
X12500000Y58500000D02*
X28100000Y58500000D01*
X69000000Y55666667D02*
X113500000Y55666667D01*
X50600000Y61666667D02*
X50600000Y61000000D01*
X-10000000Y-6000000D02*
X-10000000Y44000000D01*
X12500000Y58500000D02*
G75*
G03*
X10000000Y56000000I0J-2500000D01*
G01*
X50600000Y61000000D02*
G75*
G03*
X53100000Y58500000I2500000J0D01*
G01*
X118500000Y22666667D02*
X123500000Y22666667D01*
X53100000Y58500000D02*
X68000000Y58500000D01*
X126000000Y-3272784D02*
X126000000Y20166667D01*
X76225282Y-31493579D02*
X95761832Y-37095595D01*
X116000000Y25166667D02*
X116000000Y53166667D01*
X62914089Y-27676656D02*
X62870478Y-30175119D01*
X125991776Y-23775763D02*
X125843430Y-32274469D01*
X125765855Y-32273115D02*
X125863336Y-32327149D01*
X69000000Y57500000D02*
G75*
G03*
X68000000Y58500000I-1000000J0D01*
G01*
X-7500000Y-8500000D02*
X-4314210Y-8500000D01*
X-7500000Y46500000D02*
X7500000Y46500000D01*
M02*
