%TF.GenerationSoftware,KiCad,Pcbnew,6.0.11+dfsg-1*%
%TF.CreationDate,2023-05-31T00:32:04+03:00*%
%TF.ProjectId,pcb,7063622e-6b69-4636-9164-5f7063625858,v1.0.0*%
%TF.SameCoordinates,Original*%
%TF.FileFunction,Legend,Bot*%
%TF.FilePolarity,Positive*%
%FSLAX46Y46*%
G04 Gerber Fmt 4.6, Leading zero omitted, Abs format (unit mm)*
G04 Created by KiCad (PCBNEW 6.0.11+dfsg-1) date 2023-05-31 00:32:04*
%MOMM*%
%LPD*%
G01*
G04 APERTURE LIST*
%ADD10C,0.150000*%
%ADD11C,0.100000*%
%ADD12C,0.300000*%
%ADD13C,0.120000*%
G04 APERTURE END LIST*
D10*
%TO.C,_1*%
X112452380Y32492047D02*
X111976190Y32825381D01*
X112452380Y33063476D02*
X111452380Y33063476D01*
X111452380Y32682524D01*
X111500000Y32587286D01*
X111547619Y32539667D01*
X111642857Y32492047D01*
X111785714Y32492047D01*
X111880952Y32539667D01*
X111928571Y32587286D01*
X111976190Y32682524D01*
X111976190Y33063476D01*
X111928571Y32063476D02*
X111928571Y31730143D01*
X112452380Y31587286D02*
X112452380Y32063476D01*
X111452380Y32063476D01*
X111452380Y31587286D01*
X112404761Y31206333D02*
X112452380Y31063476D01*
X112452380Y30825381D01*
X112404761Y30730143D01*
X112357142Y30682524D01*
X112261904Y30634905D01*
X112166666Y30634905D01*
X112071428Y30682524D01*
X112023809Y30730143D01*
X111976190Y30825381D01*
X111928571Y31015857D01*
X111880952Y31111095D01*
X111833333Y31158714D01*
X111738095Y31206333D01*
X111642857Y31206333D01*
X111547619Y31158714D01*
X111500000Y31111095D01*
X111452380Y31015857D01*
X111452380Y30777762D01*
X111500000Y30634905D01*
X111928571Y30206333D02*
X111928571Y29873000D01*
X112452380Y29730143D02*
X112452380Y30206333D01*
X111452380Y30206333D01*
X111452380Y29730143D01*
X111452380Y29444428D02*
X111452380Y28873000D01*
X112452380Y29158714D02*
X111452380Y29158714D01*
%TO.C,*%
%TO.C,_1*%
X110500000Y28166667D02*
X110250000Y28166667D01*
X113750000Y34166667D02*
X113750000Y28166667D01*
X113500000Y34166667D02*
X113750000Y34166667D01*
X110250000Y28166667D02*
X110250000Y34166667D01*
X110250000Y34166667D02*
X110500000Y34166667D01*
X113750000Y28166667D02*
X113500000Y28166667D01*
%TO.C,LED9*%
X38850000Y51416667D02*
X38850000Y47916667D01*
X38100000Y52166667D02*
X38100000Y47166667D01*
X42350000Y47916667D02*
X42350000Y51416667D01*
X43100000Y47166667D02*
X43100000Y52166667D01*
X38850000Y47916667D02*
X42350000Y47916667D01*
X42350000Y51416667D02*
X38850000Y51416667D01*
X38100000Y47166667D02*
X43100000Y47166667D01*
X43100000Y52166667D02*
X38100000Y52166667D01*
G36*
X45600000Y48379167D02*
G01*
X44600000Y47466667D01*
X44600000Y49291667D01*
X45600000Y48379167D01*
G37*
D11*
X45600000Y48379167D02*
X44600000Y47466667D01*
X44600000Y49291667D01*
X45600000Y48379167D01*
D12*
%TO.C,*%
X94566000Y30500000D02*
X138000000Y30500000D01*
X138000000Y30500000D02*
X138000000Y-9886000D01*
X138000000Y-9886000D02*
X94566000Y-9886000D01*
X94566000Y-9886000D02*
X94566000Y30500000D01*
D10*
%TO.C,LED12*%
X81750000Y4916667D02*
X78250000Y4916667D01*
X78250000Y1416667D02*
X81750000Y1416667D01*
X78250000Y4916667D02*
X78250000Y1416667D01*
X77500000Y5666667D02*
X77500000Y666667D01*
X82500000Y666667D02*
X82500000Y5666667D01*
X77500000Y666667D02*
X82500000Y666667D01*
X81750000Y1416667D02*
X81750000Y4916667D01*
X82500000Y5666667D02*
X77500000Y5666667D01*
G36*
X85000000Y1879167D02*
G01*
X84000000Y966667D01*
X84000000Y2791667D01*
X85000000Y1879167D01*
G37*
D11*
X85000000Y1879167D02*
X84000000Y966667D01*
X84000000Y2791667D01*
X85000000Y1879167D01*
D10*
%TO.C,LED8*%
X21750000Y4250000D02*
X21750000Y7750000D01*
X21750000Y7750000D02*
X18250000Y7750000D01*
X18250000Y4250000D02*
X21750000Y4250000D01*
X22500000Y3500000D02*
X22500000Y8500000D01*
X18250000Y7750000D02*
X18250000Y4250000D01*
X17500000Y8500000D02*
X17500000Y3500000D01*
X17500000Y3500000D02*
X22500000Y3500000D01*
X22500000Y8500000D02*
X17500000Y8500000D01*
G36*
X25000000Y4712500D02*
G01*
X24000000Y3800000D01*
X24000000Y5625000D01*
X25000000Y4712500D01*
G37*
D11*
X25000000Y4712500D02*
X24000000Y3800000D01*
X24000000Y5625000D01*
X25000000Y4712500D01*
D10*
%TO.C,LED10*%
X42700000Y14166667D02*
X37700000Y14166667D01*
X38450000Y13416667D02*
X38450000Y9916667D01*
X38450000Y9916667D02*
X41950000Y9916667D01*
X37700000Y14166667D02*
X37700000Y9166667D01*
X41950000Y13416667D02*
X38450000Y13416667D01*
X41950000Y9916667D02*
X41950000Y13416667D01*
X37700000Y9166667D02*
X42700000Y9166667D01*
X42700000Y9166667D02*
X42700000Y14166667D01*
G36*
X45200000Y10379167D02*
G01*
X44200000Y9466667D01*
X44200000Y11291667D01*
X45200000Y10379167D01*
G37*
D11*
X45200000Y10379167D02*
X44200000Y9466667D01*
X44200000Y11291667D01*
X45200000Y10379167D01*
D10*
%TO.C,LED7*%
X17500000Y41500000D02*
X22500000Y41500000D01*
X18250000Y45750000D02*
X18250000Y42250000D01*
X18250000Y42250000D02*
X21750000Y42250000D01*
X22500000Y41500000D02*
X22500000Y46500000D01*
X22500000Y46500000D02*
X17500000Y46500000D01*
X17500000Y46500000D02*
X17500000Y41500000D01*
X21750000Y42250000D02*
X21750000Y45750000D01*
X21750000Y45750000D02*
X18250000Y45750000D01*
G36*
X25000000Y42712500D02*
G01*
X24000000Y41800000D01*
X24000000Y43625000D01*
X25000000Y42712500D01*
G37*
D11*
X25000000Y42712500D02*
X24000000Y41800000D01*
X24000000Y43625000D01*
X25000000Y42712500D01*
D10*
%TO.C,LED11*%
X77500000Y43666667D02*
X77500000Y38666667D01*
X81750000Y39416667D02*
X81750000Y42916667D01*
X81750000Y42916667D02*
X78250000Y42916667D01*
X78250000Y42916667D02*
X78250000Y39416667D01*
X82500000Y38666667D02*
X82500000Y43666667D01*
X77500000Y38666667D02*
X82500000Y38666667D01*
X78250000Y39416667D02*
X81750000Y39416667D01*
X82500000Y43666667D02*
X77500000Y43666667D01*
G36*
X85000000Y39879167D02*
G01*
X84000000Y38966667D01*
X84000000Y40791667D01*
X85000000Y39879167D01*
G37*
D11*
X85000000Y39879167D02*
X84000000Y38966667D01*
X84000000Y40791667D01*
X85000000Y39879167D01*
D13*
%TO.C,*%
X113772936Y-1735000D02*
X114227064Y-1735000D01*
X113772936Y-265000D02*
X114227064Y-265000D01*
X113772936Y5735000D02*
X114227064Y5735000D01*
X113772936Y4265000D02*
X114227064Y4265000D01*
X113772936Y-3265000D02*
X114227064Y-3265000D01*
X113772936Y-4735000D02*
X114227064Y-4735000D01*
X113772936Y1265000D02*
X114227064Y1265000D01*
X113772936Y2735000D02*
X114227064Y2735000D01*
%TD*%
M02*
