%TF.GenerationSoftware,KiCad,Pcbnew,6.0.11+dfsg-1*%
%TF.CreationDate,2023-05-31T00:32:04+03:00*%
%TF.ProjectId,pcb,7063622e-6b69-4636-9164-5f7063625858,v1.0.0*%
%TF.SameCoordinates,Original*%
%TF.FileFunction,Paste,Top*%
%TF.FilePolarity,Positive*%
%FSLAX46Y46*%
G04 Gerber Fmt 4.6, Leading zero omitted, Abs format (unit mm)*
G04 Created by KiCad (PCBNEW 6.0.11+dfsg-1) date 2023-05-31 00:32:04*
%MOMM*%
%LPD*%
G01*
G04 APERTURE LIST*
G04 Aperture macros list*
%AMRotRect*
0 Rectangle, with rotation*
0 The origin of the aperture is its center*
0 $1 length*
0 $2 width*
0 $3 Rotation angle, in degrees counterclockwise*
0 Add horizontal line*
21,1,$1,$2,0,0,$3*%
G04 Aperture macros list end*
%ADD10R,2.600000X1.000000*%
%ADD11R,2.000000X1.200000*%
%ADD12R,2.600000X2.600000*%
%ADD13R,1.143000X0.635000*%
%ADD14RotRect,2.600000X2.600000X331.000000*%
%ADD15RotRect,2.600000X2.600000X359.000000*%
%ADD16RotRect,2.600000X2.600000X344.000000*%
G04 APERTURE END LIST*
D10*
%TO.C,LED3*%
X38400000Y50541667D03*
X38400000Y48791667D03*
X42800000Y48791667D03*
X42800000Y50541667D03*
D11*
X38100000Y51266667D03*
X38100000Y48066667D03*
X43100000Y48066667D03*
X43100000Y51266667D03*
%TD*%
D12*
%TO.C,S2*%
X3275000Y24950000D03*
X-8275000Y22750000D03*
%TD*%
%TO.C,S14*%
X83275000Y34116667D03*
X71725000Y31916667D03*
%TD*%
D10*
%TO.C,LED4*%
X38000000Y12541667D03*
X38000000Y10791667D03*
X42400000Y10791667D03*
X42400000Y12541667D03*
D11*
X37700000Y13266667D03*
X37700000Y10066667D03*
X42700000Y10066667D03*
X42700000Y13266667D03*
%TD*%
D10*
%TO.C,LED2*%
X17800000Y6875000D03*
X17800000Y5125000D03*
X22200000Y5125000D03*
X22200000Y6875000D03*
D11*
X17500000Y7600000D03*
X17500000Y4400000D03*
X22500000Y4400000D03*
X22500000Y7600000D03*
%TD*%
D13*
%TO.C,J1*%
X111000000Y13499620D03*
X111000000Y14500380D03*
%TD*%
D12*
%TO.C,S1*%
X3275000Y5950000D03*
X-8275000Y3750000D03*
%TD*%
D13*
%TO.C,J2*%
X113000000Y13499620D03*
X113000000Y14500380D03*
%TD*%
D12*
%TO.C,S3*%
X3275000Y43950000D03*
X-8275000Y41750000D03*
%TD*%
%TO.C,S8*%
X43675000Y42616667D03*
X32125000Y40416667D03*
%TD*%
D13*
%TO.C,J3*%
X115000000Y13499620D03*
X115000000Y14500380D03*
%TD*%
D12*
%TO.C,S13*%
X83275000Y15116667D03*
X71725000Y12916667D03*
%TD*%
%TO.C,S4*%
X23275000Y17950000D03*
X11725000Y15750000D03*
%TD*%
D14*
%TO.C,S18*%
X117248901Y-30696313D03*
X106080462Y-27020925D03*
%TD*%
D15*
%TO.C,S16*%
X75378343Y-16941396D03*
X63791707Y-18939485D03*
%TD*%
D12*
%TO.C,S6*%
X23275000Y55950000D03*
X11725000Y53750000D03*
%TD*%
D13*
%TO.C,J4*%
X117000000Y13499620D03*
X117000000Y14500380D03*
%TD*%
D10*
%TO.C,LED1*%
X17800000Y44875000D03*
X17800000Y43125000D03*
X22200000Y43125000D03*
X22200000Y44875000D03*
D11*
X17500000Y45600000D03*
X17500000Y42400000D03*
X22500000Y42400000D03*
X22500000Y45600000D03*
%TD*%
D12*
%TO.C,S12*%
X63275000Y55950000D03*
X51725000Y53750000D03*
%TD*%
%TO.C,S11*%
X63275000Y36950000D03*
X51725000Y34750000D03*
%TD*%
%TO.C,S9*%
X43875000Y61616667D03*
X32325000Y59416667D03*
%TD*%
D10*
%TO.C,LED6*%
X77800000Y4041667D03*
X77800000Y2291667D03*
X82200000Y2291667D03*
X82200000Y4041667D03*
D11*
X77500000Y4766667D03*
X77500000Y1566667D03*
X82500000Y1566667D03*
X82500000Y4766667D03*
%TD*%
D10*
%TO.C,LED5*%
X77800000Y42041667D03*
X77800000Y40291667D03*
X82200000Y40291667D03*
X82200000Y42041667D03*
D11*
X77500000Y42766667D03*
X77500000Y39566667D03*
X82500000Y39566667D03*
X82500000Y42766667D03*
%TD*%
D16*
%TO.C,S17*%
X97401592Y-21493162D03*
X85692618Y-20424327D03*
%TD*%
D12*
%TO.C,S10*%
X63275000Y17950000D03*
X51725000Y15750000D03*
%TD*%
%TO.C,S7*%
X43475000Y23616667D03*
X31925000Y21416667D03*
%TD*%
%TO.C,S15*%
X83275000Y53116667D03*
X71725000Y50916667D03*
%TD*%
%TO.C,S5*%
X23275000Y36950000D03*
X11725000Y34750000D03*
%TD*%
M02*
