%TF.GenerationSoftware,KiCad,Pcbnew,6.0.11+dfsg-1*%
%TF.CreationDate,2023-05-21T00:31:07+03:00*%
%TF.ProjectId,pcb,7063622e-6b69-4636-9164-5f7063625858,v1.0.0*%
%TF.SameCoordinates,Original*%
%TF.FileFunction,Paste,Top*%
%TF.FilePolarity,Positive*%
%FSLAX46Y46*%
G04 Gerber Fmt 4.6, Leading zero omitted, Abs format (unit mm)*
G04 Created by KiCad (PCBNEW 6.0.11+dfsg-1) date 2023-05-21 00:31:07*
%MOMM*%
%LPD*%
G01*
G04 APERTURE LIST*
G04 Aperture macros list*
%AMRotRect*
0 Rectangle, with rotation*
0 The origin of the aperture is its center*
0 $1 length*
0 $2 width*
0 $3 Rotation angle, in degrees counterclockwise*
0 Add horizontal line*
21,1,$1,$2,0,0,$3*%
G04 Aperture macros list end*
%ADD10R,2.600000X2.600000*%
%ADD11RotRect,2.600000X2.600000X344.000000*%
%ADD12R,1.143000X0.635000*%
%ADD13R,2.600000X1.000000*%
%ADD14R,2.000000X1.200000*%
%ADD15RotRect,2.600000X2.600000X331.000000*%
%ADD16RotRect,2.600000X2.600000X359.000000*%
G04 APERTURE END LIST*
D10*
%TO.C,S3*%
X112078000Y-99822078D03*
X100528000Y-102022078D03*
%TD*%
D11*
%TO.C,S17*%
X217985174Y-164609283D03*
X206276200Y-163540448D03*
%TD*%
D12*
%TO.C,J2*%
X221803000Y-130272458D03*
X221803000Y-129271698D03*
%TD*%
D10*
%TO.C,S5*%
X132078000Y-106822078D03*
X120528000Y-109022078D03*
%TD*%
D12*
%TO.C,J3*%
X223803000Y-130272458D03*
X223803000Y-129271698D03*
%TD*%
D10*
%TO.C,S8*%
X152478000Y-101155411D03*
X140928000Y-103355411D03*
%TD*%
%TO.C,S10*%
X172078000Y-125822078D03*
X160528000Y-128022078D03*
%TD*%
D13*
%TO.C,LED3*%
X147203000Y-93230411D03*
X147203000Y-94980411D03*
X151603000Y-94980411D03*
X151603000Y-93230411D03*
D14*
X146903000Y-92505411D03*
X146903000Y-95705411D03*
X151903000Y-95705411D03*
X151903000Y-92505411D03*
%TD*%
D10*
%TO.C,S1*%
X112078000Y-137822078D03*
X100528000Y-140022078D03*
%TD*%
D13*
%TO.C,LED4*%
X146803000Y-131230411D03*
X146803000Y-132980411D03*
X151203000Y-132980411D03*
X151203000Y-131230411D03*
D14*
X146503000Y-130505411D03*
X146503000Y-133705411D03*
X151503000Y-133705411D03*
X151503000Y-130505411D03*
%TD*%
D10*
%TO.C,S15*%
X192078000Y-90655411D03*
X180528000Y-92855411D03*
%TD*%
%TO.C,S2*%
X112078000Y-118822078D03*
X100528000Y-121022078D03*
%TD*%
D12*
%TO.C,J4*%
X225803000Y-130272458D03*
X225803000Y-129271698D03*
%TD*%
D10*
%TO.C,S9*%
X152678000Y-82155411D03*
X141128000Y-84355411D03*
%TD*%
%TO.C,S6*%
X132078000Y-87822078D03*
X120528000Y-90022078D03*
%TD*%
D12*
%TO.C,J1*%
X219803000Y-130272458D03*
X219803000Y-129271698D03*
%TD*%
D10*
%TO.C,S4*%
X132078000Y-125822078D03*
X120528000Y-128022078D03*
%TD*%
%TO.C,S14*%
X192078000Y-109655411D03*
X180528000Y-111855411D03*
%TD*%
%TO.C,S12*%
X172078000Y-87822078D03*
X160528000Y-90022078D03*
%TD*%
D13*
%TO.C,LED5*%
X186603000Y-101730411D03*
X186603000Y-103480411D03*
X191003000Y-103480411D03*
X191003000Y-101730411D03*
D14*
X186303000Y-101005411D03*
X186303000Y-104205411D03*
X191303000Y-104205411D03*
X191303000Y-101005411D03*
%TD*%
D13*
%TO.C,LED2*%
X126603000Y-136897078D03*
X126603000Y-138647078D03*
X131003000Y-138647078D03*
X131003000Y-136897078D03*
D14*
X126303000Y-136172078D03*
X126303000Y-139372078D03*
X131303000Y-139372078D03*
X131303000Y-136172078D03*
%TD*%
D10*
%TO.C,S7*%
X152278000Y-120155411D03*
X140728000Y-122355411D03*
%TD*%
D13*
%TO.C,LED6*%
X186603000Y-139730411D03*
X186603000Y-141480411D03*
X191003000Y-141480411D03*
X191003000Y-139730411D03*
D14*
X186303000Y-139005411D03*
X186303000Y-142205411D03*
X191303000Y-142205411D03*
X191303000Y-139005411D03*
%TD*%
D15*
%TO.C,S18*%
X239519997Y-173937842D03*
X228351558Y-170262454D03*
%TD*%
D13*
%TO.C,LED1*%
X126603000Y-98897078D03*
X126603000Y-100647078D03*
X131003000Y-100647078D03*
X131003000Y-98897078D03*
D14*
X126303000Y-98172078D03*
X126303000Y-101372078D03*
X131303000Y-101372078D03*
X131303000Y-98172078D03*
%TD*%
D10*
%TO.C,S11*%
X172078000Y-106822078D03*
X160528000Y-109022078D03*
%TD*%
%TO.C,S13*%
X192078000Y-128655411D03*
X180528000Y-130855411D03*
%TD*%
D16*
%TO.C,S16*%
X194181343Y-160713474D03*
X182594707Y-162711563D03*
%TD*%
M02*
