0
SECTION
2
HEADER
9
$INSUNITS
70
4
0
ENDSEC
0
SECTION
2
TABLES
0
TABLE
2
LTYPE
0
LTYPE
72
65
70
64
2
CONTINUOUS
3
______
73
0
40
0
0
ENDTAB
0
TABLE
2
LAYER
0
ENDTAB
0
ENDSEC
0
SECTION
2
ENTITIES
0
LINE
8
0
10
-7.5
20
-8.5
11
6.6247741
21
-8.5
0
LINE
8
0
10
-10
20
-6
11
-10
21
44
0
LINE
8
0
10
-7.5
20
46.5
11
7.5
21
46.5
0
LINE
8
0
10
12.5
20
58.5
11
28.1
21
58.5
0
LINE
8
0
10
10
20
49
11
10
21
56
0
LINE
8
0
10
33.1
20
64.1666667
11
48.1
21
64.1666667
0
LINE
8
0
10
50.6
20
61.6666667
11
50.6
21
61
0
LINE
8
0
10
30.6
20
61
11
30.6
21
61.6666667
0
LINE
8
0
10
69
20
55.6666667
11
69
21
57.5
0
ARC
8
0
10
68
20
57.5
40
1
50
0
51
90
0
LINE
8
0
10
53.1
20
58.5
11
68
21
58.5
0
LINE
8
0
10
116
20
22.6666667
11
118.5
21
22.6666667
0
LINE
8
0
10
121
20
-17.21974
11
121
21
20.1666667
0
LINE
8
0
10
116
20
22.6666667
11
116
21
53.1666667
0
LINE
8
0
10
69
20
55.6666667
11
113.5
21
55.6666667
0
LINE
8
0
10
73.852873
20
-31.1924195
11
86.5796674
21
-31.4145665
0
LINE
8
0
10
72.8852856
20
-29.3267727
11
72.8704777
21
-30.1751194
0
ARC
8
0
10
73.8703254
20
-30.1925718
40
1
50
179
51
269
0
LINE
8
0
10
87.2251298
20
-31.5110315
11
108.6842034
21
-37.6643219
0
LINE
8
0
10
71.0747599
20
-26.8799875
11
7.3138676
21
-8.5968458
0
LINE
8
0
10
122.287976
20
-19.4062893
11
137.042043
21
-27.5846022
0
LINE
8
0
10
129.5324
20
-46.2890204
11
138.0165682
21
-30.9831756
0
LINE
8
0
10
109.207134
20
-37.8809267
11
126.1338267
21
-47.2635457
0
ARC
8
0
10
6.6247741
20
-11
40
2.5
50
73.9999976
51
90
0
ARC
8
0
10
70.3856664
20
-29.2831417
40
2.5
50
359.0000004
51
73.9999976
0
ARC
8
0
10
86.5360364
20
-33.9141857
40
2.5
50
73.9999976
51
89.0000004
0
ARC
8
0
10
107.99511
20
-40.067476
40
2.5
50
61.0000008
51
73.9999976
0
ARC
8
0
10
127.3458507
20
-45.0769963
40
2.5
50
241.0000008
51
331.0000008
0
ARC
8
0
10
135.830019
20
-29.7711516
40
2.5
50
331.0000008
51
61.0000008
0
ARC
8
0
10
123.5
20
-17.21974
40
2.5
50
180
51
241.0000008
0
ARC
8
0
10
118.5
20
20.1666667
40
2.5
50
0
51
90
0
ARC
8
0
10
113.5
20
53.1666667
40
2.5
50
0
51
90
0
ARC
8
0
10
53.1
20
61
40
2.5
50
180
51
270
0
ARC
8
0
10
48.1
20
61.6666667
40
2.5
50
0
51
90
0
ARC
8
0
10
33.1
20
61.6666667
40
2.5
50
90
51
180
0
ARC
8
0
10
28.1
20
61
40
2.5
50
270
51
0
0
ARC
8
0
10
12.5
20
56
40
2.5
50
90
51
180
0
ARC
8
0
10
7.5
20
49
40
2.5
50
270
51
0
0
ARC
8
0
10
-7.5
20
44
40
2.5
50
90
51
180
0
ARC
8
0
10
-7.5
20
-6
40
2.5
50
180
51
270
0
ENDSEC
0
EOF