0
SECTION
2
HEADER
9
$INSUNITS
70
4
0
ENDSEC
0
SECTION
2
TABLES
0
TABLE
2
LTYPE
0
LTYPE
72
65
70
64
2
CONTINUOUS
3
______
73
0
40
0
0
ENDTAB
0
TABLE
2
LAYER
0
ENDTAB
0
ENDSEC
0
SECTION
2
ENTITIES
0
LINE
8
0
10
-7.5
20
-8.5
11
-4.3142099
21
-8.5
0
LINE
8
0
10
-10
20
-6
11
-10
21
44
0
LINE
8
0
10
-7.5
20
46.5
11
7.5
21
46.5
0
LINE
8
0
10
12.5
20
58.5
11
28.1
21
58.5
0
LINE
8
0
10
10
20
49
11
10
21
56
0
LINE
8
0
10
33.1
20
64.1666667
11
48.1
21
64.1666667
0
LINE
8
0
10
50.6
20
61.6666667
11
50.6
21
61
0
LINE
8
0
10
30.6
20
61
11
30.6
21
61.6666667
0
LINE
8
0
10
69
20
55.6666667
11
69
21
57.5
0
ARC
8
0
10
68
20
57.5
40
1
50
0
51
90
0
LINE
8
0
10
53.1
20
58.5
11
68
21
58.5
0
LINE
8
0
10
116
20
22.6666667
11
118.5
21
22.6666667
0
LINE
8
0
10
121
20
-15.8105217
11
121
21
20.1666667
0
LINE
8
0
10
116
20
22.6666667
11
116
21
53.1666667
0
LINE
8
0
10
69
20
55.6666667
11
113.5
21
55.6666667
0
LINE
8
0
10
63.852873
20
-31.1924195
11
75.5798196
21
-31.3971141
0
LINE
8
0
10
62.9140885
20
-27.6766558
11
62.8704777
21
-30.1751194
0
ARC
8
0
10
63.8703254
20
-30.1925718
40
1
50
179
51
269
0
LINE
8
0
10
76.2252821
20
-31.4935791
11
95.7618323
21
-37.0955947
0
LINE
8
0
10
62.9140885
20
-27.6766558
11
-3.6251164
21
-8.5968458
0
LINE
8
0
10
122.287976
20
-17.997071
11
127.5133393
21
-20.8935371
0
LINE
8
0
10
116.6100289
20
-45.7202933
11
128.4878646
21
-24.2921104
0
LINE
8
0
10
96.2847629
20
-37.3121996
11
113.2114556
21
-46.6948186
0
ARC
8
0
10
-4.3142099
20
-11
40
2.5
50
73.9999976
51
90
0
ARC
8
0
10
75.5361886
20
-33.8967333
40
2.5
50
73.9999976
51
89.0000004
0
ARC
8
0
10
95.0727388
20
-39.4987489
40
2.5
50
61.0000008
51
73.9999976
0
ARC
8
0
10
114.4234796
20
-44.5082692
40
2.5
50
241.0000008
51
331.0000008
0
ARC
8
0
10
126.3013153
20
-23.0800864
40
2.5
50
331.0000008
51
61.0000008
0
ARC
8
0
10
123.5
20
-15.8105217
40
2.5
50
180
51
241.0000008
0
ARC
8
0
10
118.5
20
20.1666667
40
2.5
50
0
51
90
0
ARC
8
0
10
113.5
20
53.1666667
40
2.5
50
0
51
90
0
ARC
8
0
10
53.1
20
61
40
2.5
50
180
51
270
0
ARC
8
0
10
48.1
20
61.6666667
40
2.5
50
0
51
90
0
ARC
8
0
10
33.1
20
61.6666667
40
2.5
50
90
51
180
0
ARC
8
0
10
28.1
20
61
40
2.5
50
270
51
0
0
ARC
8
0
10
12.5
20
56
40
2.5
50
90
51
180
0
ARC
8
0
10
7.5
20
49
40
2.5
50
270
51
0
0
ARC
8
0
10
-7.5
20
44
40
2.5
50
90
51
180
0
ARC
8
0
10
-7.5
20
-6
40
2.5
50
180
51
270
0
ENDSEC
0
EOF