0
SECTION
2
HEADER
9
$INSUNITS
70
4
0
ENDSEC
0
SECTION
2
TABLES
0
TABLE
2
LTYPE
0
LTYPE
72
65
70
64
2
CONTINUOUS
3
______
73
0
40
0
0
ENDTAB
0
TABLE
2
LAYER
0
ENDTAB
0
ENDSEC
0
SECTION
2
ENTITIES
0
LINE
8
0
10
-7.5
20
-8.5
11
-6.1921778
21
-8.5
0
LINE
8
0
10
-10
20
-6
11
-10
21
44
0
LINE
8
0
10
-7.5
20
46.5
11
7.5
21
46.5
0
LINE
8
0
10
12.5
20
58.5
11
28.1
21
58.5
0
LINE
8
0
10
10
20
49
11
10
21
56
0
LINE
8
0
10
33.1
20
64.1666667
11
48.1
21
64.1666667
0
LINE
8
0
10
50.6
20
61.6666667
11
50.6
21
61
0
LINE
8
0
10
30.6
20
61
11
30.6
21
61.6666667
0
LINE
8
0
10
69
20
55.6666667
11
69
21
57.5
0
ARC
8
0
10
68
20
57.5
40
1
50
0
51
90
0
LINE
8
0
10
53.1
20
58.5
11
68
21
58.5
0
LINE
8
0
10
116
20
22.6666667
11
118.5
21
22.6666667
0
LINE
8
0
10
121
20
-17.3984635
11
121
21
20.1666667
0
LINE
8
0
10
116
20
22.6666667
11
116
21
53.1666667
0
LINE
8
0
10
69
20
55.6666667
11
113.5
21
55.6666667
0
LINE
8
0
10
63.852873
20
-31.1924195
11
73.5801242
21
-31.3622093
0
LINE
8
0
10
62.9047358
20
-28.2124726
11
62.8704777
21
-30.1751194
0
ARC
8
0
10
63.8703254
20
-30.1925718
40
1
50
179
51
269
0
LINE
8
0
10
74.2255867
20
-31.4586743
11
91.8396137
21
-36.5094153
0
LINE
8
0
10
62.9047358
20
-28.2124726
11
-5.5030843
21
-8.5968458
0
LINE
8
0
10
122.287976
20
-19.5850128
11
123.5911206
21
-20.3073576
0
LINE
8
0
10
112.6878102
20
-45.1341138
11
124.5656459
21
-23.7059309
0
LINE
8
0
10
92.3625442
20
-36.7260201
11
109.2892369
21
-46.1086391
0
ARC
8
0
10
-6.1921778
20
-11
40
2.5
50
73.9999976
51
90
0
ARC
8
0
10
73.5364932
20
-33.8618285
40
2.5
50
73.9999976
51
89.0000004
0
ARC
8
0
10
91.1505202
20
-38.9125695
40
2.5
50
61.0000008
51
73.9999976
0
ARC
8
0
10
110.5012609
20
-43.9220897
40
2.5
50
241.0000008
51
331.0000008
0
ARC
8
0
10
122.3790966
20
-22.4939069
40
2.5
50
331.0000008
51
61.0000008
0
ARC
8
0
10
123.5
20
-17.3984635
40
2.5
50
180
51
241.0000008
0
ARC
8
0
10
118.5
20
20.1666667
40
2.5
50
0
51
90
0
ARC
8
0
10
113.5
20
53.1666667
40
2.5
50
0
51
90
0
ARC
8
0
10
53.1
20
61
40
2.5
50
180
51
270
0
ARC
8
0
10
48.1
20
61.6666667
40
2.5
50
0
51
90
0
ARC
8
0
10
33.1
20
61.6666667
40
2.5
50
90
51
180
0
ARC
8
0
10
28.1
20
61
40
2.5
50
270
51
0
0
ARC
8
0
10
12.5
20
56
40
2.5
50
90
51
180
0
ARC
8
0
10
7.5
20
49
40
2.5
50
270
51
0
0
ARC
8
0
10
-7.5
20
44
40
2.5
50
90
51
180
0
ARC
8
0
10
-7.5
20
-6
40
2.5
50
180
51
270
0
ENDSEC
0
EOF