0
SECTION
2
HEADER
9
$INSUNITS
70
4
0
ENDSEC
0
SECTION
2
TABLES
0
TABLE
2
LTYPE
0
LTYPE
72
65
70
64
2
CONTINUOUS
3
______
73
0
40
0
0
ENDTAB
0
TABLE
2
LAYER
0
ENDTAB
0
ENDSEC
0
SECTION
2
ENTITIES
0
LINE
8
0
10
-7.5
20
-8.5
11
-4.3142099
21
-8.5
0
LINE
8
0
10
-10
20
-6
11
-10
21
44
0
LINE
8
0
10
-7.5
20
46.5
11
7.5
21
46.5
0
LINE
8
0
10
12.5
20
58.5
11
28.1
21
58.5
0
LINE
8
0
10
10
20
49
11
10
21
56
0
LINE
8
0
10
33.1
20
64.1666667
11
48.1
21
64.1666667
0
LINE
8
0
10
50.6
20
61.6666667
11
50.6
21
61
0
LINE
8
0
10
30.6
20
61
11
30.6
21
61.6666667
0
LINE
8
0
10
69
20
55.6666667
11
69
21
57.5
0
ARC
8
0
10
68
20
57.5
40
1
50
0
51
90
0
LINE
8
0
10
53.1
20
58.5
11
68
21
58.5
0
LINE
8
0
10
118.5
20
22.6666667
11
123.5
21
22.6666667
0
LINE
8
0
10
126
20
-3.2727841
11
126
21
20.1666667
0
LINE
8
0
10
116
20
25.1666667
11
116
21
53.1666667
0
LINE
8
0
10
69
20
55.6666667
11
113.5
21
55.6666667
0
LINE
8
0
10
63.852873
20
-31.1924195
11
75.5798195
21
-31.3971141
0
LINE
8
0
10
62.9140885
20
-27.6766558
11
62.8704777
21
-30.1751194
0
ARC
8
0
10
63.8703254
20
-30.1925718
40
1
50
179
51
269
0
LINE
8
0
10
126
20
-3.2727841
11
126.3495499
21
-3.2788855
0
LINE
8
0
10
126.3495499
20
-3.2788855
11
125.9917755
21
-23.7757632
0
LINE
8
0
10
125.9917755
20
-23.7757632
11
125.8434301
21
-32.2744687
0
LINE
8
0
10
125.8434301
20
-32.2744687
11
125.7658549
21
-32.2731146
0
LINE
8
0
10
76.225282
20
-31.4935791
11
95.7618323
21
-37.0955947
0
LINE
8
0
10
62.9140885
20
-27.6766558
11
-3.6251164
21
-8.5968458
0
LINE
8
0
10
125.7658549
20
-32.2731146
11
125.8633362
21
-32.3271494
0
LINE
8
0
10
118.0094204
20
-46.4959887
11
125.8633362
21
-32.3271494
0
LINE
8
0
10
96.2847629
20
-37.3121996
11
114.6108471
21
-47.470514
0
ARC
8
0
10
-4.3142099
20
-11
40
2.5
50
73.9999976
51
90
0
ARC
8
0
10
75.5361885
20
-33.8967333
40
2.5
50
73.9999976
51
89.0000004
0
ARC
8
0
10
95.0727388
20
-39.4987489
40
2.5
50
61.0000008
51
73.9999976
0
ARC
8
0
10
115.8228711
20
-45.2839646
40
2.5
50
241.0000008
51
331.0000008
0
ARC
8
0
10
123.5
20
20.1666667
40
2.5
50
0
51
90
0
ARC
8
0
10
118.5
20
25.1666667
40
2.5
50
180
51
270
0
ARC
8
0
10
113.5
20
53.1666667
40
2.5
50
0
51
90
0
ARC
8
0
10
53.1
20
61
40
2.5
50
180
51
270
0
ARC
8
0
10
48.1
20
61.6666667
40
2.5
50
0
51
90
0
ARC
8
0
10
33.1
20
61.6666667
40
2.5
50
90
51
180
0
ARC
8
0
10
28.1
20
61
40
2.5
50
270
51
0
0
ARC
8
0
10
12.5
20
56
40
2.5
50
90
51
180
0
ARC
8
0
10
7.5
20
49
40
2.5
50
270
51
0
0
ARC
8
0
10
-7.5
20
44
40
2.5
50
90
51
180
0
ARC
8
0
10
-7.5
20
-6
40
2.5
50
180
51
270
0
ENDSEC
0
EOF