0
SECTION
2
HEADER
9
$INSUNITS
70
4
0
ENDSEC
0
SECTION
2
TABLES
0
TABLE
2
LTYPE
0
LTYPE
72
65
70
64
2
CONTINUOUS
3
______
73
0
40
0
0
ENDTAB
0
TABLE
2
LAYER
0
ENDTAB
0
ENDSEC
0
SECTION
2
ENTITIES
0
LINE
8
0
10
-7.5
20
-8.5
11
-4.3142099
21
-8.5
0
LINE
8
0
10
-10
20
-6
11
-10
21
44
0
LINE
8
0
10
-7.5
20
46.5
11
7.5
21
46.5
0
LINE
8
0
10
12.5
20
58.5
11
28.1
21
58.5
0
LINE
8
0
10
10
20
49
11
10
21
56
0
LINE
8
0
10
33.1
20
64.1666667
11
48.1
21
64.1666667
0
LINE
8
0
10
50.6
20
61.6666667
11
50.6
21
61
0
LINE
8
0
10
30.6
20
61
11
30.6
21
61.6666667
0
LINE
8
0
10
69
20
55.6666667
11
69
21
57.5
0
ARC
8
0
10
68
20
57.5
40
1
50
0
51
90
0
LINE
8
0
10
53.1
20
58.5
11
68
21
58.5
0
LINE
8
0
10
116
20
22.6666667
11
118.5
21
22.6666667
0
LINE
8
0
10
121
20
-15.8105217
11
121
21
20.1666667
0
LINE
8
0
10
116
20
22.6666667
11
116
21
53.1666667
0
LINE
8
0
10
69
20
55.6666667
11
113.5
21
55.6666667
0
LINE
8
0
10
63.852873
20
-31.1924195
11
75.5798196
21
-31.3971141
0
LINE
8
0
10
62.9140885
20
-27.6766558
11
62.8704777
21
-30.1751194
0
ARC
8
0
10
63.8703254
20
-30.1925718
40
1
50
179
51
269
0
LINE
8
0
10
76.2252821
20
-31.4935791
11
95.7618323
21
-37.0955947
0
LINE
8
0
10
62.9140885
20
-27.6766558
11
-3.6251164
21
-8.5968458
0
LINE
8
0
10
122.287976
20
-17.997071
11
127.5133393
21
-20.8935371
0
LINE
8
0
10
116.6100289
20
-45.7202933
11
128.4878646
21
-24.2921104
0
LINE
8
0
10
96.2847629
20
-37.3121996
11
113.2114556
21
-46.6948186
0
ARC
8
0
10
-4.3142099
20
-11
40
2.5
50
73.9999976
51
90
0
ARC
8
0
10
75.5361886
20
-33.8967333
40
2.5
50
73.9999976
51
89.0000004
0
ARC
8
0
10
95.0727388
20
-39.4987489
40
2.5
50
61.0000008
51
73.9999976
0
ARC
8
0
10
114.4234796
20
-44.5082692
40
2.5
50
241.0000008
51
331.0000008
0
ARC
8
0
10
126.3013153
20
-23.0800864
40
2.5
50
331.0000008
51
61.0000008
0
ARC
8
0
10
123.5
20
-15.8105217
40
2.5
50
180
51
241.0000008
0
ARC
8
0
10
118.5
20
20.1666667
40
2.5
50
0
51
90
0
ARC
8
0
10
113.5
20
53.1666667
40
2.5
50
0
51
90
0
ARC
8
0
10
53.1
20
61
40
2.5
50
180
51
270
0
ARC
8
0
10
48.1
20
61.6666667
40
2.5
50
0
51
90
0
ARC
8
0
10
33.1
20
61.6666667
40
2.5
50
90
51
180
0
ARC
8
0
10
28.1
20
61
40
2.5
50
270
51
0
0
ARC
8
0
10
12.5
20
56
40
2.5
50
90
51
180
0
ARC
8
0
10
7.5
20
49
40
2.5
50
270
51
0
0
ARC
8
0
10
-7.5
20
44
40
2.5
50
90
51
180
0
ARC
8
0
10
-7.5
20
-6
40
2.5
50
180
51
270
0
LINE
8
0
10
-6.75
20
-8.25
11
6.75
21
-8.25
0
LINE
8
0
10
8.75
20
-6.25
11
8.75
21
6.25
0
LINE
8
0
10
6.75
20
8.25
11
-6.75
21
8.25
0
LINE
8
0
10
-8.75
20
6.25
11
-8.75
21
-6.25
0
LINE
8
0
10
-6.75
20
10.75
11
6.75
21
10.75
0
LINE
8
0
10
8.75
20
12.75
11
8.75
21
25.25
0
LINE
8
0
10
6.75
20
27.25
11
-6.75
21
27.25
0
LINE
8
0
10
-8.75
20
25.25
11
-8.75
21
12.75
0
LINE
8
0
10
-6.75
20
29.75
11
6.75
21
29.75
0
LINE
8
0
10
8.75
20
31.75
11
8.75
21
44.25
0
LINE
8
0
10
6.75
20
46.25
11
-6.75
21
46.25
0
LINE
8
0
10
-8.75
20
44.25
11
-8.75
21
31.75
0
LINE
8
0
10
13.25
20
3.75
11
26.75
21
3.75
0
LINE
8
0
10
28.75
20
5.75
11
28.75
21
18.25
0
LINE
8
0
10
26.75
20
20.25
11
13.25
21
20.25
0
LINE
8
0
10
11.25
20
18.25
11
11.25
21
5.75
0
LINE
8
0
10
13.25
20
22.75
11
26.75
21
22.75
0
LINE
8
0
10
28.75
20
24.75
11
28.75
21
37.25
0
LINE
8
0
10
26.75
20
39.25
11
13.25
21
39.25
0
LINE
8
0
10
11.25
20
37.25
11
11.25
21
24.75
0
LINE
8
0
10
13.25
20
41.75
11
26.75
21
41.75
0
LINE
8
0
10
28.75
20
43.75
11
28.75
21
56.25
0
LINE
8
0
10
26.75
20
58.25
11
13.25
21
58.25
0
LINE
8
0
10
11.25
20
56.25
11
11.25
21
43.75
0
LINE
8
0
10
33.45
20
9.4166667
11
46.95
21
9.4166667
0
LINE
8
0
10
48.95
20
11.4166667
11
48.95
21
23.9166667
0
LINE
8
0
10
46.95
20
25.9166667
11
33.45
21
25.9166667
0
LINE
8
0
10
31.45
20
23.9166667
11
31.45
21
11.4166667
0
LINE
8
0
10
33.65
20
28.4166667
11
47.15
21
28.4166667
0
LINE
8
0
10
49.15
20
30.4166667
11
49.15
21
42.9166667
0
LINE
8
0
10
47.15
20
44.9166667
11
33.65
21
44.9166667
0
LINE
8
0
10
31.65
20
42.9166667
11
31.65
21
30.4166667
0
LINE
8
0
10
33.85
20
47.4166667
11
47.35
21
47.4166667
0
LINE
8
0
10
49.35
20
49.4166667
11
49.35
21
61.9166667
0
LINE
8
0
10
47.35
20
63.9166667
11
33.85
21
63.9166667
0
LINE
8
0
10
31.85
20
61.9166667
11
31.85
21
49.4166667
0
LINE
8
0
10
53.25
20
3.75
11
66.75
21
3.75
0
LINE
8
0
10
68.75
20
5.75
11
68.75
21
18.25
0
LINE
8
0
10
66.75
20
20.25
11
53.25
21
20.25
0
LINE
8
0
10
51.25
20
18.25
11
51.25
21
5.75
0
LINE
8
0
10
53.25
20
22.75
11
66.75
21
22.75
0
LINE
8
0
10
68.75
20
24.75
11
68.75
21
37.25
0
LINE
8
0
10
66.75
20
39.25
11
53.25
21
39.25
0
LINE
8
0
10
51.25
20
37.25
11
51.25
21
24.75
0
LINE
8
0
10
53.25
20
41.75
11
66.75
21
41.75
0
LINE
8
0
10
68.75
20
43.75
11
68.75
21
56.25
0
LINE
8
0
10
66.75
20
58.25
11
53.25
21
58.25
0
LINE
8
0
10
51.25
20
56.25
11
51.25
21
43.75
0
LINE
8
0
10
73.25
20
0.9166667
11
86.75
21
0.9166667
0
LINE
8
0
10
88.75
20
2.9166667
11
88.75
21
15.4166667
0
LINE
8
0
10
86.75
20
17.4166667
11
73.25
21
17.4166667
0
LINE
8
0
10
71.25
20
15.4166667
11
71.25
21
2.9166667
0
LINE
8
0
10
73.25
20
19.9166667
11
86.75
21
19.9166667
0
LINE
8
0
10
88.75
20
21.9166667
11
88.75
21
34.4166667
0
LINE
8
0
10
86.75
20
36.4166667
11
73.25
21
36.4166667
0
LINE
8
0
10
71.25
20
34.4166667
11
71.25
21
21.9166667
0
LINE
8
0
10
73.25
20
38.9166667
11
86.75
21
38.9166667
0
LINE
8
0
10
88.75
20
40.9166667
11
88.75
21
53.4166667
0
LINE
8
0
10
86.75
20
55.4166667
11
73.25
21
55.4166667
0
LINE
8
0
10
71.25
20
53.4166667
11
71.25
21
40.9166667
0
LINE
8
0
10
65.1070457
20
-30.964273
11
78.6049896
21
-31.1998805
0
LINE
8
0
10
80.6395898
20
-29.2350899
11
80.8577449
21
-16.7369938
0
LINE
8
0
10
78.8929543
20
-14.7023936
11
65.3950104
21
-14.4667861
0
LINE
8
0
10
63.3604102
20
-16.4315767
11
63.1422551
21
-28.9296728
0
LINE
8
0
10
83.8508928
20
-32.3798135
11
96.8279257
21
-36.1009179
0
LINE
8
0
10
99.3017239
20
-34.7296693
11
102.7471908
21
-22.7138981
0
LINE
8
0
10
101.3759422
20
-20.2400999
11
88.3989093
21
-16.5189955
0
LINE
8
0
10
85.9251111
20
-17.8902441
11
82.4796442
21
-29.9060153
0
LINE
8
0
10
101.5965415
20
-38.2556969
11
113.4039076
21
-44.8006269
0
LINE
8
0
10
116.1227662
20
-44.0210067
11
122.1828865
21
-33.0882603
0
LINE
8
0
10
121.4032663
20
-30.3694017
11
109.5959002
21
-23.8244717
0
LINE
8
0
10
106.8770416
20
-24.6040919
11
100.8169213
21
-35.5368383
0
ARC
8
0
10
114.3735268
20
-43.0513875
40
2
50
241.0000008
51
331.0000008
0
ARC
8
0
10
120.4336471
20
-32.1186411
40
2
50
331.0000008
51
61.0000008
0
ARC
8
0
10
108.626281
20
-25.5737111
40
2
50
61.0000008
51
151.0000008
0
ARC
8
0
10
102.5661607
20
-36.5064575
40
2
50
151.0000008
51
241.0000008
0
ARC
8
0
10
97.3792005
20
-34.1783945
40
2
50
253.9999976
51
343.9999976
0
ARC
8
0
10
100.8246674
20
-22.1626233
40
2
50
343.9999976
51
73.9999976
0
ARC
8
0
10
87.8476345
20
-18.4415189
40
2
50
73.9999976
51
163.9999976
0
ARC
8
0
10
84.4021676
20
-30.4572901
40
2
50
163.9999976
51
253.9999976
0
ARC
8
0
10
6.75
20
-6.25
40
2
50
270
51
0
0
ARC
8
0
10
6.75
20
6.25
40
2
50
0
51
90
0
ARC
8
0
10
-6.75
20
6.25
40
2
50
90
51
180
0
ARC
8
0
10
-6.75
20
-6.25
40
2
50
180
51
270
0
ARC
8
0
10
6.75
20
12.75
40
2
50
270
51
0
0
ARC
8
0
10
6.75
20
25.25
40
2
50
0
51
90
0
ARC
8
0
10
-6.75
20
25.25
40
2
50
90
51
180
0
ARC
8
0
10
-6.75
20
12.75
40
2
50
180
51
270
0
ARC
8
0
10
6.75
20
31.75
40
2
50
270
51
0
0
ARC
8
0
10
6.75
20
44.25
40
2
50
0
51
90
0
ARC
8
0
10
-6.75
20
44.25
40
2
50
90
51
180
0
ARC
8
0
10
-6.75
20
31.75
40
2
50
180
51
270
0
ARC
8
0
10
26.75
20
5.75
40
2
50
270
51
0
0
ARC
8
0
10
26.75
20
18.25
40
2
50
0
51
90
0
ARC
8
0
10
13.25
20
18.25
40
2
50
90
51
180
0
ARC
8
0
10
13.25
20
5.75
40
2
50
180
51
270
0
ARC
8
0
10
26.75
20
24.75
40
2
50
270
51
0
0
ARC
8
0
10
26.75
20
37.25
40
2
50
0
51
90
0
ARC
8
0
10
13.25
20
37.25
40
2
50
90
51
180
0
ARC
8
0
10
13.25
20
24.75
40
2
50
180
51
270
0
ARC
8
0
10
26.75
20
43.75
40
2
50
270
51
0
0
ARC
8
0
10
26.75
20
56.25
40
2
50
0
51
90
0
ARC
8
0
10
13.25
20
56.25
40
2
50
90
51
180
0
ARC
8
0
10
13.25
20
43.75
40
2
50
180
51
270
0
ARC
8
0
10
46.95
20
11.4166667
40
2
50
270
51
0
0
ARC
8
0
10
46.95
20
23.9166667
40
2
50
0
51
90
0
ARC
8
0
10
33.45
20
23.9166667
40
2
50
90
51
180
0
ARC
8
0
10
33.45
20
11.4166667
40
2
50
180
51
270
0
ARC
8
0
10
47.15
20
30.4166667
40
2
50
270
51
0
0
ARC
8
0
10
47.15
20
42.9166667
40
2
50
0
51
90
0
ARC
8
0
10
33.65
20
42.9166667
40
2
50
90
51
180
0
ARC
8
0
10
33.65
20
30.4166667
40
2
50
180
51
270
0
ARC
8
0
10
47.35
20
49.4166667
40
2
50
270
51
0
0
ARC
8
0
10
47.35
20
61.9166667
40
2
50
0
51
90
0
ARC
8
0
10
33.85
20
61.9166667
40
2
50
90
51
180
0
ARC
8
0
10
33.85
20
49.4166667
40
2
50
180
51
270
0
ARC
8
0
10
66.75
20
5.75
40
2
50
270
51
0
0
ARC
8
0
10
66.75
20
18.25
40
2
50
0
51
90
0
ARC
8
0
10
53.25
20
18.25
40
2
50
90
51
180
0
ARC
8
0
10
53.25
20
5.75
40
2
50
180
51
270
0
ARC
8
0
10
66.75
20
24.75
40
2
50
270
51
0
0
ARC
8
0
10
66.75
20
37.25
40
2
50
0
51
90
0
ARC
8
0
10
53.25
20
37.25
40
2
50
90
51
180
0
ARC
8
0
10
53.25
20
24.75
40
2
50
180
51
270
0
ARC
8
0
10
66.75
20
43.75
40
2
50
270
51
0
0
ARC
8
0
10
66.75
20
56.25
40
2
50
0
51
90
0
ARC
8
0
10
53.25
20
56.25
40
2
50
90
51
180
0
ARC
8
0
10
53.25
20
43.75
40
2
50
180
51
270
0
ARC
8
0
10
86.75
20
2.9166667
40
2
50
270
51
0
0
ARC
8
0
10
86.75
20
15.4166667
40
2
50
0
51
90
0
ARC
8
0
10
73.25
20
15.4166667
40
2
50
90
51
180
0
ARC
8
0
10
73.25
20
2.9166667
40
2
50
180
51
270
0
ARC
8
0
10
86.75
20
21.9166667
40
2
50
270
51
0
0
ARC
8
0
10
86.75
20
34.4166667
40
2
50
0
51
90
0
ARC
8
0
10
73.25
20
34.4166667
40
2
50
90
51
180
0
ARC
8
0
10
73.25
20
21.9166667
40
2
50
180
51
270
0
ARC
8
0
10
86.75
20
40.9166667
40
2
50
270
51
0
0
ARC
8
0
10
86.75
20
53.4166667
40
2
50
0
51
90
0
ARC
8
0
10
73.25
20
53.4166667
40
2
50
90
51
180
0
ARC
8
0
10
73.25
20
40.9166667
40
2
50
180
51
270
0
ARC
8
0
10
78.6398944
20
-29.2001851
40
2
50
269.0000004
51
359.0000004
0
ARC
8
0
10
78.8580495
20
-16.702089
40
2
50
359.0000004
51
89.0000004
0
ARC
8
0
10
65.3601056
20
-16.4664815
40
2
50
89.0000004
51
179.0000004
0
ARC
8
0
10
65.1419505
20
-28.9645776
40
2
50
179.0000004
51
269.0000004
0
ENDSEC
0
EOF