0
SECTION
2
HEADER
9
$INSUNITS
70
4
0
ENDSEC
0
SECTION
2
TABLES
0
TABLE
2
LTYPE
0
LTYPE
72
65
70
64
2
CONTINUOUS
3
______
73
0
40
0
0
ENDTAB
0
TABLE
2
LAYER
0
ENDTAB
0
ENDSEC
0
SECTION
2
ENTITIES
0
LINE
8
0
10
-7.5
20
-8.5
11
-4.3142099
21
-8.5
0
LINE
8
0
10
-10
20
-6
11
-10
21
44
0
LINE
8
0
10
-7.5
20
46.5
11
7.5
21
46.5
0
LINE
8
0
10
12.5
20
58.5
11
28.1
21
58.5
0
LINE
8
0
10
10
20
49
11
10
21
56
0
LINE
8
0
10
33.1
20
64.1666667
11
48.1
21
64.1666667
0
LINE
8
0
10
50.6
20
61.6666667
11
50.6
21
61
0
LINE
8
0
10
30.6
20
61
11
30.6
21
61.6666667
0
LINE
8
0
10
69
20
55.6666667
11
69
21
57.5
0
ARC
8
0
10
68
20
57.5
40
1
50
0
51
90
0
LINE
8
0
10
53.1
20
58.5
11
68
21
58.5
0
LINE
8
0
10
126
20
-3.2727841
11
126
21
3.8946667
0
LINE
8
0
10
69
20
55.6666667
11
89
21
55.6666667
0
LINE
8
0
10
63.852873
20
-31.1924195
11
75.5798195
21
-31.3971141
0
LINE
8
0
10
62.9140885
20
-27.6766558
11
62.8704777
21
-30.1751194
0
ARC
8
0
10
63.8703254
20
-30.1925718
40
1
50
179
51
269
0
LINE
8
0
10
126
20
-3.2727841
11
126.3495499
21
-3.2788855
0
LINE
8
0
10
126.3495499
20
-3.2788855
11
125.9917755
21
-23.7757632
0
LINE
8
0
10
125.9917755
20
-23.7757632
11
125.8434301
21
-32.2744687
0
LINE
8
0
10
125.8434301
20
-32.2744687
11
125.7658549
21
-32.2731146
0
LINE
8
0
10
76.225282
20
-31.4935791
11
95.7618323
21
-37.0955947
0
LINE
8
0
10
62.9140885
20
-27.6766558
11
-3.6251164
21
-8.5968458
0
LINE
8
0
10
125.7658549
20
-32.2731146
11
125.8633362
21
-32.3271494
0
LINE
8
0
10
118.0094204
20
-46.4959887
11
125.8633362
21
-32.3271494
0
LINE
8
0
10
96.2847629
20
-37.3121996
11
114.6108471
21
-47.470514
0
ARC
8
0
10
-4.3142099
20
-11
40
2.5
50
73.9999976
51
90
0
ARC
8
0
10
75.5361885
20
-33.8967333
40
2.5
50
73.9999976
51
89.0000004
0
ARC
8
0
10
95.0727388
20
-39.4987489
40
2.5
50
61.0000008
51
73.9999976
0
ARC
8
0
10
115.8228711
20
-45.2839646
40
2.5
50
241.0000008
51
331.0000008
0
ARC
8
0
10
53.1
20
61
40
2.5
50
180
51
270
0
ARC
8
0
10
48.1
20
61.6666667
40
2.5
50
0
51
90
0
ARC
8
0
10
33.1
20
61.6666667
40
2.5
50
90
51
180
0
ARC
8
0
10
28.1
20
61
40
2.5
50
270
51
0
0
ARC
8
0
10
12.5
20
56
40
2.5
50
90
51
180
0
ARC
8
0
10
7.5
20
49
40
2.5
50
270
51
0
0
ARC
8
0
10
-7.5
20
44
40
2.5
50
90
51
180
0
ARC
8
0
10
-7.5
20
-6
40
2.5
50
180
51
270
0
LINE
8
0
10
89
20
3.8946667
11
126
21
3.8946667
0
LINE
8
0
10
89
20
55.6666667
11
89
21
3.8946667
0
CIRCLE
8
0
10
117
20
-7
40
1.5
0
CIRCLE
8
0
10
105
20
-3
40
1.5
0
CIRCLE
8
0
10
69
20
41
40
1.5
0
CIRCLE
8
0
10
10.1
20
29
40
1.5
0
CIRCLE
8
0
10
45
20
0
40
1.5
0
LINE
8
0
10
-7
20
-7
11
7
21
-7
0
LINE
8
0
10
7
20
-7
11
7
21
7
0
LINE
8
0
10
7
20
7
11
-7
21
7
0
LINE
8
0
10
-7
20
7
11
-7
21
-7
0
LINE
8
0
10
-7
20
12
11
7
21
12
0
LINE
8
0
10
7
20
12
11
7
21
26
0
LINE
8
0
10
7
20
26
11
-7
21
26
0
LINE
8
0
10
-7
20
26
11
-7
21
12
0
LINE
8
0
10
-7
20
31
11
7
21
31
0
LINE
8
0
10
7
20
31
11
7
21
45
0
LINE
8
0
10
7
20
45
11
-7
21
45
0
LINE
8
0
10
-7
20
45
11
-7
21
31
0
LINE
8
0
10
13
20
5
11
27
21
5
0
LINE
8
0
10
27
20
5
11
27
21
19
0
LINE
8
0
10
27
20
19
11
13
21
19
0
LINE
8
0
10
13
20
19
11
13
21
5
0
LINE
8
0
10
13
20
24
11
27
21
24
0
LINE
8
0
10
27
20
24
11
27
21
38
0
LINE
8
0
10
27
20
38
11
13
21
38
0
LINE
8
0
10
13
20
38
11
13
21
24
0
LINE
8
0
10
13
20
43
11
27
21
43
0
LINE
8
0
10
27
20
43
11
27
21
57
0
LINE
8
0
10
27
20
57
11
13
21
57
0
LINE
8
0
10
13
20
57
11
13
21
43
0
LINE
8
0
10
33.2
20
10.6666667
11
47.2
21
10.6666667
0
LINE
8
0
10
47.2
20
10.6666667
11
47.2
21
24.6666667
0
LINE
8
0
10
47.2
20
24.6666667
11
33.2
21
24.6666667
0
LINE
8
0
10
33.2
20
24.6666667
11
33.2
21
10.6666667
0
LINE
8
0
10
33.4
20
29.6666667
11
47.4
21
29.6666667
0
LINE
8
0
10
47.4
20
29.6666667
11
47.4
21
43.6666667
0
LINE
8
0
10
47.4
20
43.6666667
11
33.4
21
43.6666667
0
LINE
8
0
10
33.4
20
43.6666667
11
33.4
21
29.6666667
0
LINE
8
0
10
33.6
20
48.6666667
11
47.6
21
48.6666667
0
LINE
8
0
10
47.6
20
48.6666667
11
47.6
21
62.6666667
0
LINE
8
0
10
47.6
20
62.6666667
11
33.6
21
62.6666667
0
LINE
8
0
10
33.6
20
62.6666667
11
33.6
21
48.6666667
0
LINE
8
0
10
53
20
5
11
67
21
5
0
LINE
8
0
10
67
20
5
11
67
21
19
0
LINE
8
0
10
67
20
19
11
53
21
19
0
LINE
8
0
10
53
20
19
11
53
21
5
0
LINE
8
0
10
53
20
24
11
67
21
24
0
LINE
8
0
10
67
20
24
11
67
21
38
0
LINE
8
0
10
67
20
38
11
53
21
38
0
LINE
8
0
10
53
20
38
11
53
21
24
0
LINE
8
0
10
53
20
43
11
67
21
43
0
LINE
8
0
10
67
20
43
11
67
21
57
0
LINE
8
0
10
67
20
57
11
53
21
57
0
LINE
8
0
10
53
20
57
11
53
21
43
0
LINE
8
0
10
73
20
2.1666667
11
87
21
2.1666667
0
LINE
8
0
10
87
20
2.1666667
11
87
21
16.1666667
0
LINE
8
0
10
87
20
16.1666667
11
73
21
16.1666667
0
LINE
8
0
10
73
20
16.1666667
11
73
21
2.1666667
0
LINE
8
0
10
73
20
21.1666667
11
87
21
21.1666667
0
LINE
8
0
10
87
20
21.1666667
11
87
21
35.1666667
0
LINE
8
0
10
87
20
35.1666667
11
73
21
35.1666667
0
LINE
8
0
10
73
20
35.1666667
11
73
21
21.1666667
0
LINE
8
0
10
73
20
40.1666667
11
87
21
40.1666667
0
LINE
8
0
10
87
20
40.1666667
11
87
21
54.1666667
0
LINE
8
0
10
87
20
54.1666667
11
73
21
54.1666667
0
LINE
8
0
10
73
20
54.1666667
11
73
21
40.1666667
0
LINE
8
0
10
64.8788993
20
-29.7101003
11
78.876767
21
-29.954434
0
LINE
8
0
10
78.876767
20
-29.954434
11
79.1211007
21
-15.9565663
0
LINE
8
0
10
79.1211007
20
-15.9565663
11
65.123233
21
-15.7122326
0
LINE
8
0
10
65.123233
20
-15.7122326
11
64.8788993
21
-29.7101003
0
LINE
8
0
10
83.9551241
20
-31.1093271
11
97.4127879
21
-34.9682501
0
LINE
8
0
10
97.4127879
20
-34.9682501
11
101.2717109
21
-21.5105863
0
LINE
8
0
10
101.2717109
20
-21.5105863
11
87.8140471
21
-17.6516633
0
LINE
8
0
10
87.8140471
20
-17.6516633
11
83.9551241
21
-31.1093271
0
LINE
8
0
10
101.9838986
20
-37.0412199
11
114.2285745
21
-43.8285546
0
LINE
8
0
10
114.2285745
20
-43.8285546
11
121.0159092
21
-31.5838787
0
LINE
8
0
10
121.0159092
20
-31.5838787
11
108.7712333
21
-24.796544
0
LINE
8
0
10
108.7712333
20
-24.796544
11
101.9838986
21
-37.0412199
0
ENDSEC
0
EOF