0
SECTION
2
HEADER
9
$INSUNITS
70
4
0
ENDSEC
0
SECTION
2
TABLES
0
TABLE
2
LTYPE
0
LTYPE
72
65
70
64
2
CONTINUOUS
3
______
73
0
40
0
0
ENDTAB
0
TABLE
2
LAYER
0
ENDTAB
0
ENDSEC
0
SECTION
2
ENTITIES
0
LINE
8
0
10
-7.5
20
-8.5
11
-6.1921778
21
-8.5
0
LINE
8
0
10
-10
20
-6
11
-10
21
44
0
LINE
8
0
10
-7.5
20
46.5
11
7.5
21
46.5
0
LINE
8
0
10
12.5
20
58.5
11
28.1
21
58.5
0
LINE
8
0
10
10
20
49
11
10
21
56
0
LINE
8
0
10
33.1
20
64.1666667
11
48.1
21
64.1666667
0
LINE
8
0
10
50.6
20
61.6666667
11
50.6
21
61
0
LINE
8
0
10
30.6
20
61
11
30.6
21
61.6666667
0
LINE
8
0
10
69
20
55.6666667
11
69
21
57.5
0
ARC
8
0
10
68
20
57.5
40
1
50
0
51
90
0
LINE
8
0
10
53.1
20
58.5
11
68
21
58.5
0
LINE
8
0
10
121
20
-17.3984635
11
121
21
3.8946667
0
LINE
8
0
10
69
20
55.6666667
11
89
21
55.6666667
0
LINE
8
0
10
63.852873
20
-31.1924195
11
73.5801242
21
-31.3622093
0
LINE
8
0
10
62.9047358
20
-28.2124726
11
62.8704777
21
-30.1751194
0
ARC
8
0
10
63.8703254
20
-30.1925718
40
1
50
179
51
269
0
LINE
8
0
10
74.2255867
20
-31.4586743
11
91.8396137
21
-36.5094153
0
LINE
8
0
10
62.9047358
20
-28.2124726
11
-5.5030843
21
-8.5968458
0
LINE
8
0
10
122.287976
20
-19.5850128
11
123.5911206
21
-20.3073576
0
LINE
8
0
10
112.6878102
20
-45.1341138
11
124.5656459
21
-23.7059309
0
LINE
8
0
10
92.3625442
20
-36.7260201
11
109.2892369
21
-46.1086391
0
ARC
8
0
10
-6.1921778
20
-11
40
2.5
50
73.9999976
51
90
0
ARC
8
0
10
73.5364932
20
-33.8618285
40
2.5
50
73.9999976
51
89.0000004
0
ARC
8
0
10
91.1505202
20
-38.9125695
40
2.5
50
61.0000008
51
73.9999976
0
ARC
8
0
10
110.5012609
20
-43.9220897
40
2.5
50
241.0000008
51
331.0000008
0
ARC
8
0
10
122.3790966
20
-22.4939069
40
2.5
50
331.0000008
51
61.0000008
0
ARC
8
0
10
123.5
20
-17.3984635
40
2.5
50
180
51
241.0000008
0
ARC
8
0
10
53.1
20
61
40
2.5
50
180
51
270
0
ARC
8
0
10
48.1
20
61.6666667
40
2.5
50
0
51
90
0
ARC
8
0
10
33.1
20
61.6666667
40
2.5
50
90
51
180
0
ARC
8
0
10
28.1
20
61
40
2.5
50
270
51
0
0
ARC
8
0
10
12.5
20
56
40
2.5
50
90
51
180
0
ARC
8
0
10
7.5
20
49
40
2.5
50
270
51
0
0
ARC
8
0
10
-7.5
20
44
40
2.5
50
90
51
180
0
ARC
8
0
10
-7.5
20
-6
40
2.5
50
180
51
270
0
LINE
8
0
10
89
20
3.8946667
11
121
21
3.8946667
0
LINE
8
0
10
89
20
55.6666667
11
89
21
3.8946667
0
CIRCLE
8
0
10
117
20
-7
40
1.5
0
CIRCLE
8
0
10
105
20
-3
40
1.5
0
CIRCLE
8
0
10
69
20
41
40
1.5
0
CIRCLE
8
0
10
10.1
20
29
40
1.5
0
CIRCLE
8
0
10
45
20
0
40
1.5
0
LINE
8
0
10
-7
20
-7
11
7
21
-7
0
LINE
8
0
10
7
20
-7
11
7
21
7
0
LINE
8
0
10
7
20
7
11
-7
21
7
0
LINE
8
0
10
-7
20
7
11
-7
21
-7
0
LINE
8
0
10
-7
20
12
11
7
21
12
0
LINE
8
0
10
7
20
12
11
7
21
26
0
LINE
8
0
10
7
20
26
11
-7
21
26
0
LINE
8
0
10
-7
20
26
11
-7
21
12
0
LINE
8
0
10
-7
20
31
11
7
21
31
0
LINE
8
0
10
7
20
31
11
7
21
45
0
LINE
8
0
10
7
20
45
11
-7
21
45
0
LINE
8
0
10
-7
20
45
11
-7
21
31
0
LINE
8
0
10
13
20
5
11
27
21
5
0
LINE
8
0
10
27
20
5
11
27
21
19
0
LINE
8
0
10
27
20
19
11
13
21
19
0
LINE
8
0
10
13
20
19
11
13
21
5
0
LINE
8
0
10
13
20
24
11
27
21
24
0
LINE
8
0
10
27
20
24
11
27
21
38
0
LINE
8
0
10
27
20
38
11
13
21
38
0
LINE
8
0
10
13
20
38
11
13
21
24
0
LINE
8
0
10
13
20
43
11
27
21
43
0
LINE
8
0
10
27
20
43
11
27
21
57
0
LINE
8
0
10
27
20
57
11
13
21
57
0
LINE
8
0
10
13
20
57
11
13
21
43
0
LINE
8
0
10
33.2
20
10.6666667
11
47.2
21
10.6666667
0
LINE
8
0
10
47.2
20
10.6666667
11
47.2
21
24.6666667
0
LINE
8
0
10
47.2
20
24.6666667
11
33.2
21
24.6666667
0
LINE
8
0
10
33.2
20
24.6666667
11
33.2
21
10.6666667
0
LINE
8
0
10
33.4
20
29.6666667
11
47.4
21
29.6666667
0
LINE
8
0
10
47.4
20
29.6666667
11
47.4
21
43.6666667
0
LINE
8
0
10
47.4
20
43.6666667
11
33.4
21
43.6666667
0
LINE
8
0
10
33.4
20
43.6666667
11
33.4
21
29.6666667
0
LINE
8
0
10
33.6
20
48.6666667
11
47.6
21
48.6666667
0
LINE
8
0
10
47.6
20
48.6666667
11
47.6
21
62.6666667
0
LINE
8
0
10
47.6
20
62.6666667
11
33.6
21
62.6666667
0
LINE
8
0
10
33.6
20
62.6666667
11
33.6
21
48.6666667
0
LINE
8
0
10
53
20
5
11
67
21
5
0
LINE
8
0
10
67
20
5
11
67
21
19
0
LINE
8
0
10
67
20
19
11
53
21
19
0
LINE
8
0
10
53
20
19
11
53
21
5
0
LINE
8
0
10
53
20
24
11
67
21
24
0
LINE
8
0
10
67
20
24
11
67
21
38
0
LINE
8
0
10
67
20
38
11
53
21
38
0
LINE
8
0
10
53
20
38
11
53
21
24
0
LINE
8
0
10
53
20
43
11
67
21
43
0
LINE
8
0
10
67
20
43
11
67
21
57
0
LINE
8
0
10
67
20
57
11
53
21
57
0
LINE
8
0
10
53
20
57
11
53
21
43
0
LINE
8
0
10
73
20
2.1666667
11
87
21
2.1666667
0
LINE
8
0
10
87
20
2.1666667
11
87
21
16.1666667
0
LINE
8
0
10
87
20
16.1666667
11
73
21
16.1666667
0
LINE
8
0
10
73
20
16.1666667
11
73
21
2.1666667
0
LINE
8
0
10
73
20
21.1666667
11
87
21
21.1666667
0
LINE
8
0
10
87
20
21.1666667
11
87
21
35.1666667
0
LINE
8
0
10
87
20
35.1666667
11
73
21
35.1666667
0
LINE
8
0
10
73
20
35.1666667
11
73
21
21.1666667
0
LINE
8
0
10
73
20
40.1666667
11
87
21
40.1666667
0
LINE
8
0
10
87
20
40.1666667
11
87
21
54.1666667
0
LINE
8
0
10
87
20
54.1666667
11
73
21
54.1666667
0
LINE
8
0
10
73
20
54.1666667
11
73
21
40.1666667
0
LINE
8
0
10
64.8788993
20
-29.7101003
11
78.876767
21
-29.954434
0
LINE
8
0
10
78.876767
20
-29.954434
11
79.1211007
21
-15.9565663
0
LINE
8
0
10
79.1211007
20
-15.9565663
11
65.123233
21
-15.7122326
0
LINE
8
0
10
65.123233
20
-15.7122326
11
64.8788993
21
-29.7101003
0
LINE
8
0
10
81.9554287
20
-31.0744223
11
95.4130925
21
-34.9333453
0
LINE
8
0
10
95.4130925
20
-34.9333453
11
99.2720155
21
-21.4756815
0
LINE
8
0
10
99.2720155
20
-21.4756815
11
85.8143517
21
-17.6167585
0
LINE
8
0
10
85.8143517
20
-17.6167585
11
81.9554287
21
-31.0744223
0
LINE
8
0
10
98.0616799
20
-36.4550404
11
110.3063558
21
-43.2423751
0
LINE
8
0
10
110.3063558
20
-43.2423751
11
117.0936905
21
-30.9976992
0
LINE
8
0
10
117.0936905
20
-30.9976992
11
104.8490146
21
-24.2103645
0
LINE
8
0
10
104.8490146
20
-24.2103645
11
98.0616799
21
-36.4550404
0
ENDSEC
0
EOF