0
SECTION
2
HEADER
9
$INSUNITS
70
4
0
ENDSEC
0
SECTION
2
TABLES
0
TABLE
2
LTYPE
0
LTYPE
72
65
70
64
2
CONTINUOUS
3
______
73
0
40
0
0
ENDTAB
0
TABLE
2
LAYER
0
ENDTAB
0
ENDSEC
0
SECTION
2
ENTITIES
0
LINE
8
0
10
-10
20
-8.5
11
6.976126
21
-8.5
0
LINE
8
0
10
-10
20
-8.5
11
-10
21
46.5
0
LINE
8
0
10
-10
20
46.5
11
10
21
46.5
0
LINE
8
0
10
10
20
58.5
11
30.6
21
58.5
0
LINE
8
0
10
10
20
46.5
11
10
21
58.5
0
LINE
8
0
10
30.6
20
64.1666667
11
50.6
21
64.1666667
0
LINE
8
0
10
50.6
20
64.1666667
11
50.6
21
58.5
0
LINE
8
0
10
30.6
20
58.5
11
30.6
21
64.1666667
0
LINE
8
0
10
69
20
55.6666667
11
69
21
57.5
0
ARC
8
0
10
68
20
57.5
40
1
50
0
51
90
0
LINE
8
0
10
50.6
20
58.5
11
68
21
58.5
0
LINE
8
0
10
116
20
22.6666667
11
121
21
22.6666667
0
LINE
8
0
10
121
20
-18.6923526
11
121
21
22.6666667
0
LINE
8
0
10
116
20
22.6666667
11
116
21
55.6666667
0
LINE
8
0
10
69
20
55.6666667
11
116
21
55.6666667
0
LINE
8
0
10
73.852873
20
-31.1924195
11
86.9087485
21
-31.4203107
0
LINE
8
0
10
72.9187649
20
-27.4087474
11
72.8704777
21
-30.1751194
0
ARC
8
0
10
73.8703254
20
-30.1925718
40
1
50
179
51
269
0
LINE
8
0
10
86.9087485
20
-31.4203107
11
108.9580086
21
-37.7428342
0
LINE
8
0
10
72.9187649
20
-27.4087474
11
6.976126
21
-8.5
0
LINE
8
0
10
121
20
-18.6923526
11
139.2285923
21
-28.7966263
0
LINE
8
0
10
128.3203759
20
-48.4755697
11
139.2285923
21
-28.7966263
0
LINE
8
0
10
108.9580086
20
-37.7428342
11
128.3203759
21
-48.4755697
0
LINE
8
0
10
-7
20
-7
11
7
21
-7
0
LINE
8
0
10
7
20
-7
11
7
21
7
0
LINE
8
0
10
7
20
7
11
-7
21
7
0
LINE
8
0
10
-7
20
7
11
-7
21
-7
0
LINE
8
0
10
-7
20
12
11
7
21
12
0
LINE
8
0
10
7
20
12
11
7
21
26
0
LINE
8
0
10
7
20
26
11
-7
21
26
0
LINE
8
0
10
-7
20
26
11
-7
21
12
0
LINE
8
0
10
-7
20
31
11
7
21
31
0
LINE
8
0
10
7
20
31
11
7
21
45
0
LINE
8
0
10
7
20
45
11
-7
21
45
0
LINE
8
0
10
-7
20
45
11
-7
21
31
0
LINE
8
0
10
13
20
5
11
27
21
5
0
LINE
8
0
10
27
20
5
11
27
21
19
0
LINE
8
0
10
27
20
19
11
13
21
19
0
LINE
8
0
10
13
20
19
11
13
21
5
0
LINE
8
0
10
13
20
24
11
27
21
24
0
LINE
8
0
10
27
20
24
11
27
21
38
0
LINE
8
0
10
27
20
38
11
13
21
38
0
LINE
8
0
10
13
20
38
11
13
21
24
0
LINE
8
0
10
13
20
43
11
27
21
43
0
LINE
8
0
10
27
20
43
11
27
21
57
0
LINE
8
0
10
27
20
57
11
13
21
57
0
LINE
8
0
10
13
20
57
11
13
21
43
0
LINE
8
0
10
33.2
20
10.6666667
11
47.2
21
10.6666667
0
LINE
8
0
10
47.2
20
10.6666667
11
47.2
21
24.6666667
0
LINE
8
0
10
47.2
20
24.6666667
11
33.2
21
24.6666667
0
LINE
8
0
10
33.2
20
24.6666667
11
33.2
21
10.6666667
0
LINE
8
0
10
33.4
20
29.6666667
11
47.4
21
29.6666667
0
LINE
8
0
10
47.4
20
29.6666667
11
47.4
21
43.6666667
0
LINE
8
0
10
47.4
20
43.6666667
11
33.4
21
43.6666667
0
LINE
8
0
10
33.4
20
43.6666667
11
33.4
21
29.6666667
0
LINE
8
0
10
33.6
20
48.6666667
11
47.6
21
48.6666667
0
LINE
8
0
10
47.6
20
48.6666667
11
47.6
21
62.6666667
0
LINE
8
0
10
47.6
20
62.6666667
11
33.6
21
62.6666667
0
LINE
8
0
10
33.6
20
62.6666667
11
33.6
21
48.6666667
0
LINE
8
0
10
53
20
5
11
67
21
5
0
LINE
8
0
10
67
20
5
11
67
21
19
0
LINE
8
0
10
67
20
19
11
53
21
19
0
LINE
8
0
10
53
20
19
11
53
21
5
0
LINE
8
0
10
53
20
24
11
67
21
24
0
LINE
8
0
10
67
20
24
11
67
21
38
0
LINE
8
0
10
67
20
38
11
53
21
38
0
LINE
8
0
10
53
20
38
11
53
21
24
0
LINE
8
0
10
53
20
43
11
67
21
43
0
LINE
8
0
10
67
20
43
11
67
21
57
0
LINE
8
0
10
67
20
57
11
53
21
57
0
LINE
8
0
10
53
20
57
11
53
21
43
0
LINE
8
0
10
73
20
2.1666667
11
87
21
2.1666667
0
LINE
8
0
10
87
20
2.1666667
11
87
21
16.1666667
0
LINE
8
0
10
87
20
16.1666667
11
73
21
16.1666667
0
LINE
8
0
10
73
20
16.1666667
11
73
21
2.1666667
0
LINE
8
0
10
73
20
21.1666667
11
87
21
21.1666667
0
LINE
8
0
10
87
20
21.1666667
11
87
21
35.1666667
0
LINE
8
0
10
87
20
35.1666667
11
73
21
35.1666667
0
LINE
8
0
10
73
20
35.1666667
11
73
21
21.1666667
0
LINE
8
0
10
73
20
40.1666667
11
87
21
40.1666667
0
LINE
8
0
10
87
20
40.1666667
11
87
21
54.1666667
0
LINE
8
0
10
87
20
54.1666667
11
73
21
54.1666667
0
LINE
8
0
10
73
20
54.1666667
11
73
21
40.1666667
0
LINE
8
0
10
74.8788993
20
-29.7101003
11
88.876767
21
-29.954434
0
LINE
8
0
10
88.876767
20
-29.954434
11
89.1211007
21
-15.9565663
0
LINE
8
0
10
89.1211007
20
-15.9565663
11
75.123233
21
-15.7122326
0
LINE
8
0
10
75.123233
20
-15.7122326
11
74.8788993
21
-29.7101003
0
LINE
8
0
10
94.9549718
20
-31.1267795
11
108.4126356
21
-34.9857025
0
LINE
8
0
10
108.4126356
20
-34.9857025
11
112.2715586
21
-21.5280387
0
LINE
8
0
10
112.2715586
20
-21.5280387
11
98.8138948
21
-17.6691157
0
LINE
8
0
10
98.8138948
20
-17.6691157
11
94.9549718
21
-31.1267795
0
LINE
8
0
10
114.9062697
20
-37.609947
11
127.1509456
21
-44.3972817
0
LINE
8
0
10
127.1509456
20
-44.3972817
11
133.9382803
21
-32.1526058
0
LINE
8
0
10
133.9382803
20
-32.1526058
11
121.6936044
21
-25.3652711
0
LINE
8
0
10
121.6936044
20
-25.3652711
11
114.9062697
21
-37.609947
0
ENDSEC
0
EOF