0
SECTION
2
HEADER
9
$INSUNITS
70
4
0
ENDSEC
0
SECTION
2
TABLES
0
TABLE
2
LTYPE
0
LTYPE
72
65
70
64
2
CONTINUOUS
3
______
73
0
40
0
0
ENDTAB
0
TABLE
2
LAYER
0
ENDTAB
0
ENDSEC
0
SECTION
2
ENTITIES
0
LINE
8
0
10
-7.5
20
-8.5
11
-3.3752259
21
-8.5
0
LINE
8
0
10
-10
20
-6
11
-10
21
44
0
LINE
8
0
10
-7.5
20
46.5
11
7.5
21
46.5
0
LINE
8
0
10
12.5
20
58.5
11
28.1
21
58.5
0
LINE
8
0
10
10
20
49
11
10
21
56
0
LINE
8
0
10
33.1
20
64.1666667
11
48.1
21
64.1666667
0
LINE
8
0
10
50.6
20
61.6666667
11
50.6
21
61
0
LINE
8
0
10
30.6
20
61
11
30.6
21
61.6666667
0
LINE
8
0
10
69
20
55.6666667
11
69
21
57.5
0
ARC
8
0
10
68
20
57.5
40
1
50
0
51
90
0
LINE
8
0
10
53.1
20
58.5
11
68
21
58.5
0
LINE
8
0
10
121
20
-17.6177372
11
121
21
3.8946667
0
LINE
8
0
10
69
20
55.6666667
11
89
21
55.6666667
0
LINE
8
0
10
63.852873
20
-31.1924195
11
76.5796674
21
-31.4145665
0
LINE
8
0
10
62.8852856
20
-29.3267727
11
62.8704777
21
-30.1751194
0
ARC
8
0
10
63.8703254
20
-30.1925718
40
1
50
179
51
269
0
LINE
8
0
10
77.2251298
20
-31.5110315
11
98.6842034
21
-37.6643219
0
LINE
8
0
10
61.0747599
20
-26.8799875
11
-2.6861324
21
-8.5968458
0
LINE
8
0
10
122.287976
20
-19.8042865
11
129.2236863
21
-23.6488135
0
LINE
8
0
10
119.5324
20
-46.2890204
11
130.1982116
21
-27.0473868
0
LINE
8
0
10
99.207134
20
-37.8809267
11
116.1338267
21
-47.2635457
0
ARC
8
0
10
-3.3752259
20
-11
40
2.5
50
73.9999976
51
90
0
ARC
8
0
10
60.3856664
20
-29.2831417
40
2.5
50
359.0000004
51
73.9999976
0
ARC
8
0
10
76.5360364
20
-33.9141857
40
2.5
50
73.9999976
51
89.0000004
0
ARC
8
0
10
97.99511
20
-40.067476
40
2.5
50
61.0000008
51
73.9999976
0
ARC
8
0
10
117.3458507
20
-45.0769963
40
2.5
50
241.0000008
51
331.0000008
0
ARC
8
0
10
128.0116623
20
-25.8353628
40
2.5
50
331.0000008
51
61.0000008
0
ARC
8
0
10
123.5
20
-17.6177372
40
2.5
50
180
51
241.0000008
0
ARC
8
0
10
53.1
20
61
40
2.5
50
180
51
270
0
ARC
8
0
10
48.1
20
61.6666667
40
2.5
50
0
51
90
0
ARC
8
0
10
33.1
20
61.6666667
40
2.5
50
90
51
180
0
ARC
8
0
10
28.1
20
61
40
2.5
50
270
51
0
0
ARC
8
0
10
12.5
20
56
40
2.5
50
90
51
180
0
ARC
8
0
10
7.5
20
49
40
2.5
50
270
51
0
0
ARC
8
0
10
-7.5
20
44
40
2.5
50
90
51
180
0
ARC
8
0
10
-7.5
20
-6
40
2.5
50
180
51
270
0
LINE
8
0
10
89
20
3.8946667
11
121
21
3.8946667
0
LINE
8
0
10
89
20
55.6666667
11
89
21
3.8946667
0
CIRCLE
8
0
10
117
20
-7
40
1.5
0
CIRCLE
8
0
10
105
20
-3
40
1.5
0
CIRCLE
8
0
10
69
20
41
40
1.5
0
CIRCLE
8
0
10
10.1
20
29
40
1.5
0
CIRCLE
8
0
10
45
20
0
40
1.5
0
LINE
8
0
10
-7
20
-7
11
7
21
-7
0
LINE
8
0
10
7
20
-7
11
7
21
7
0
LINE
8
0
10
7
20
7
11
-7
21
7
0
LINE
8
0
10
-7
20
7
11
-7
21
-7
0
LINE
8
0
10
-7
20
12
11
7
21
12
0
LINE
8
0
10
7
20
12
11
7
21
26
0
LINE
8
0
10
7
20
26
11
-7
21
26
0
LINE
8
0
10
-7
20
26
11
-7
21
12
0
LINE
8
0
10
-7
20
31
11
7
21
31
0
LINE
8
0
10
7
20
31
11
7
21
45
0
LINE
8
0
10
7
20
45
11
-7
21
45
0
LINE
8
0
10
-7
20
45
11
-7
21
31
0
LINE
8
0
10
13
20
5
11
27
21
5
0
LINE
8
0
10
27
20
5
11
27
21
19
0
LINE
8
0
10
27
20
19
11
13
21
19
0
LINE
8
0
10
13
20
19
11
13
21
5
0
LINE
8
0
10
13
20
24
11
27
21
24
0
LINE
8
0
10
27
20
24
11
27
21
38
0
LINE
8
0
10
27
20
38
11
13
21
38
0
LINE
8
0
10
13
20
38
11
13
21
24
0
LINE
8
0
10
13
20
43
11
27
21
43
0
LINE
8
0
10
27
20
43
11
27
21
57
0
LINE
8
0
10
27
20
57
11
13
21
57
0
LINE
8
0
10
13
20
57
11
13
21
43
0
LINE
8
0
10
33.2
20
10.6666667
11
47.2
21
10.6666667
0
LINE
8
0
10
47.2
20
10.6666667
11
47.2
21
24.6666667
0
LINE
8
0
10
47.2
20
24.6666667
11
33.2
21
24.6666667
0
LINE
8
0
10
33.2
20
24.6666667
11
33.2
21
10.6666667
0
LINE
8
0
10
33.4
20
29.6666667
11
47.4
21
29.6666667
0
LINE
8
0
10
47.4
20
29.6666667
11
47.4
21
43.6666667
0
LINE
8
0
10
47.4
20
43.6666667
11
33.4
21
43.6666667
0
LINE
8
0
10
33.4
20
43.6666667
11
33.4
21
29.6666667
0
LINE
8
0
10
33.6
20
48.6666667
11
47.6
21
48.6666667
0
LINE
8
0
10
47.6
20
48.6666667
11
47.6
21
62.6666667
0
LINE
8
0
10
47.6
20
62.6666667
11
33.6
21
62.6666667
0
LINE
8
0
10
33.6
20
62.6666667
11
33.6
21
48.6666667
0
LINE
8
0
10
53
20
5
11
67
21
5
0
LINE
8
0
10
67
20
5
11
67
21
19
0
LINE
8
0
10
67
20
19
11
53
21
19
0
LINE
8
0
10
53
20
19
11
53
21
5
0
LINE
8
0
10
53
20
24
11
67
21
24
0
LINE
8
0
10
67
20
24
11
67
21
38
0
LINE
8
0
10
67
20
38
11
53
21
38
0
LINE
8
0
10
53
20
38
11
53
21
24
0
LINE
8
0
10
53
20
43
11
67
21
43
0
LINE
8
0
10
67
20
43
11
67
21
57
0
LINE
8
0
10
67
20
57
11
53
21
57
0
LINE
8
0
10
53
20
57
11
53
21
43
0
LINE
8
0
10
73
20
2.1666667
11
87
21
2.1666667
0
LINE
8
0
10
87
20
2.1666667
11
87
21
16.1666667
0
LINE
8
0
10
87
20
16.1666667
11
73
21
16.1666667
0
LINE
8
0
10
73
20
16.1666667
11
73
21
2.1666667
0
LINE
8
0
10
73
20
21.1666667
11
87
21
21.1666667
0
LINE
8
0
10
87
20
21.1666667
11
87
21
35.1666667
0
LINE
8
0
10
87
20
35.1666667
11
73
21
35.1666667
0
LINE
8
0
10
73
20
35.1666667
11
73
21
21.1666667
0
LINE
8
0
10
73
20
40.1666667
11
87
21
40.1666667
0
LINE
8
0
10
87
20
40.1666667
11
87
21
54.1666667
0
LINE
8
0
10
87
20
54.1666667
11
73
21
54.1666667
0
LINE
8
0
10
73
20
54.1666667
11
73
21
40.1666667
0
LINE
8
0
10
64.8788993
20
-29.7101003
11
78.876767
21
-29.954434
0
LINE
8
0
10
78.876767
20
-29.954434
11
79.1211007
21
-15.9565663
0
LINE
8
0
10
79.1211007
20
-15.9565663
11
65.123233
21
-15.7122326
0
LINE
8
0
10
65.123233
20
-15.7122326
11
64.8788993
21
-29.7101003
0
LINE
8
0
10
84.9549718
20
-31.1267795
11
98.4126356
21
-34.9857025
0
LINE
8
0
10
98.4126356
20
-34.9857025
11
102.2715586
21
-21.5280387
0
LINE
8
0
10
102.2715586
20
-21.5280387
11
88.8138948
21
-17.6691157
0
LINE
8
0
10
88.8138948
20
-17.6691157
11
84.9549718
21
-31.1267795
0
LINE
8
0
10
104.9062697
20
-37.609947
11
117.1509456
21
-44.3972817
0
LINE
8
0
10
117.1509456
20
-44.3972817
11
123.9382803
21
-32.1526058
0
LINE
8
0
10
123.9382803
20
-32.1526058
11
111.6936044
21
-25.3652711
0
LINE
8
0
10
111.6936044
20
-25.3652711
11
104.9062697
21
-37.609947
0
ENDSEC
0
EOF